<svg width="182" height="59" viewBox="0 0 182 59" fill="none" xmlns="http://www.w3.org/2000/svg">
<path d="M31.4542 46.4401C29.0782 46.4401 26.8928 46.0441 24.8982 45.2521C22.9328 44.4308 21.2315 43.3014 19.7942 41.8641C18.3568 40.4268 17.2422 38.7401 16.4502 36.8041C15.6875 34.8681 15.3062 32.7708 15.3062 30.5121C15.3062 28.2534 15.7022 26.1708 16.4942 24.2641C17.3155 22.3281 18.4595 20.6561 19.9262 19.2481C21.4222 17.8108 23.1675 16.6961 25.1622 15.9041C27.1568 15.1121 29.3422 14.7161 31.7182 14.7161C33.3608 14.7161 34.9302 14.9361 36.4262 15.3761C37.9222 15.8161 39.2862 16.4174 40.5182 17.1801C41.7502 17.9428 42.7768 18.8228 43.5982 19.8201L39.5062 24.1321C38.7435 23.3988 37.9368 22.7828 37.0862 22.2841C36.2648 21.7561 35.3995 21.3601 34.4902 21.0961C33.5808 20.8028 32.6422 20.6561 31.6742 20.6561C30.2955 20.6561 29.0195 20.9054 27.8462 21.4041C26.7022 21.9028 25.6902 22.5921 24.8102 23.4721C23.9302 24.3521 23.2408 25.3934 22.7422 26.5961C22.2728 27.7988 22.0382 29.1041 22.0382 30.5121C22.0382 31.8908 22.2875 33.1961 22.7862 34.4281C23.3142 35.6308 24.0182 36.6868 24.8982 37.5961C25.8075 38.4761 26.8635 39.1801 28.0662 39.7081C29.2688 40.2068 30.5595 40.4561 31.9382 40.4561C32.9062 40.4561 33.8302 40.3094 34.7102 40.0161C35.5902 39.7228 36.3528 39.3121 36.9982 38.7841C37.6728 38.2268 38.1862 37.5814 38.5382 36.8481C38.9195 36.1148 39.1102 35.3374 39.1102 34.5161V33.4601L39.9902 34.6921H31.1902V29.1921H45.4462C45.4755 29.5148 45.5048 29.9108 45.5342 30.3801C45.5928 30.8494 45.6222 31.3188 45.6222 31.7881C45.6515 32.2281 45.6662 32.5801 45.6662 32.8441C45.6662 34.8388 45.2995 36.6721 44.5662 38.3441C43.8622 40.0161 42.8648 41.4534 41.5742 42.6561C40.3128 43.8588 38.8168 44.7974 37.0862 45.4721C35.3555 46.1174 33.4782 46.4401 31.4542 46.4401ZM51.1383 46.0001V22.7241H57.3863V46.0001H51.1383ZM54.2183 17.9281C53.0157 17.9281 52.077 17.6348 51.4023 17.0481C50.7277 16.4614 50.3903 15.6254 50.3903 14.5401C50.3903 13.5428 50.7277 12.7361 51.4023 12.1201C52.1063 11.4748 53.045 11.1521 54.2183 11.1521C55.421 11.1521 56.3597 11.4601 57.0343 12.0761C57.709 12.6628 58.0462 13.4841 58.0462 14.5401C58.0462 15.5668 57.6942 16.3881 56.9902 17.0041C56.3156 17.6201 55.3917 17.9281 54.2183 17.9281ZM63.1355 46.0001V42.0401L75.4115 26.1121V27.8721H63.1355V22.7241H81.7035V26.7721L69.9555 42.3041L69.7795 40.8521H82.0115V46.0001H63.1355ZM87.8766 46.0001V22.7241H94.1246V46.0001H87.8766ZM90.9566 17.9281C89.7539 17.9281 88.8153 17.6348 88.1406 17.0481C87.4659 16.4614 87.1286 15.6254 87.1286 14.5401C87.1286 13.5428 87.4659 12.7361 88.1406 12.1201C88.8446 11.4748 89.7833 11.1521 90.9566 11.1521C92.1593 11.1521 93.0979 11.4601 93.7726 12.0761C94.4473 12.6628 94.7846 13.4841 94.7846 14.5401C94.7846 15.5668 94.4326 16.3881 93.7286 17.0041C93.0539 17.6201 92.1299 17.9281 90.9566 17.9281Z" fill="#ECF0F3"/>
<path d="M116.548 46.4401C114.172 46.4401 111.987 46.0441 109.992 45.2521C108.027 44.4308 106.325 43.3014 104.888 41.8641C103.451 40.4268 102.336 38.7401 101.544 36.8041C100.781 34.8681 100.4 32.7708 100.4 30.5121C100.4 28.2534 100.796 26.1708 101.588 24.2641C102.409 22.3281 103.553 20.6561 105.02 19.2481C106.516 17.8108 108.261 16.6961 110.256 15.9041C112.251 15.1121 114.436 14.7161 116.812 14.7161C118.455 14.7161 120.024 14.9361 121.52 15.3761C123.016 15.8161 124.38 16.4174 125.612 17.1801C126.844 17.9428 127.871 18.8228 128.692 19.8201L124.6 24.1321C123.837 23.3988 123.031 22.7828 122.18 22.2841C121.359 21.7561 120.493 21.3601 119.584 21.0961C118.675 20.8028 117.736 20.6561 116.768 20.6561C115.389 20.6561 114.113 20.9054 112.94 21.4041C111.796 21.9028 110.784 22.5921 109.904 23.4721C109.024 24.3521 108.335 25.3934 107.836 26.5961C107.367 27.7988 107.132 29.1041 107.132 30.5121C107.132 31.8908 107.381 33.1961 107.88 34.4281C108.408 35.6308 109.112 36.6868 109.992 37.5961C110.901 38.4761 111.957 39.1801 113.16 39.7081C114.363 40.2068 115.653 40.4561 117.032 40.4561C118 40.4561 118.924 40.3094 119.804 40.0161C120.684 39.7228 121.447 39.3121 122.092 38.7841C122.767 38.2268 123.28 37.5814 123.632 36.8481C124.013 36.1148 124.204 35.3374 124.204 34.5161V33.4601L125.084 34.6921H116.284V29.1921H130.54C130.569 29.5148 130.599 29.9108 130.628 30.3801C130.687 30.8494 130.716 31.3188 130.716 31.7881C130.745 32.2281 130.76 32.5801 130.76 32.8441C130.76 34.8388 130.393 36.6721 129.66 38.3441C128.956 40.0161 127.959 41.4534 126.668 42.6561C125.407 43.8588 123.911 44.7974 122.18 45.4721C120.449 46.1174 118.572 46.4401 116.548 46.4401Z" fill="#ECF0F3"/>
<path d="M150.473 14.0406C156.005 13.7511 161.354 16.6555 164.354 21.2083C166.612 24.6348 167.416 28.5812 166.781 32.5966C166.175 36.2335 164.337 39.5516 161.577 41.996C161.069 42.4467 160.316 42.9677 159.752 43.3782C159.707 41.1845 159.745 38.8905 159.748 36.6875C159.974 36.5318 160.33 36.4148 160.583 36.2635C163.623 34.4473 164.348 30.0643 163.552 26.8617C163.116 25.1096 162.073 23.3924 160.526 22.4198C159.595 21.8346 158.306 21.6989 157.248 21.9923C153.37 23.2213 152.26 28.4741 153.228 31.9803C153.647 33.5005 154.433 35.035 155.714 35.9787C156.113 36.2726 156.625 36.4878 157.048 36.7371C157.09 39.4084 157.003 42.1215 157.068 44.8034C156.841 44.8569 156.36 45.0742 156.111 45.1647C155.664 45.327 155.309 45.4177 154.85 45.5313C152.372 46.1329 149.789 46.1458 147.306 45.5688C147.012 45.5025 146.283 45.3432 146.061 45.209C145.967 44.6414 145.993 44.0248 145.993 43.4455L145.995 41.1543L145.994 38.792C145.993 38.6405 145.982 37.2692 146.034 37.2448C146.83 36.8764 147.476 36.6297 148.161 36.0403C148.188 36.019 148.213 35.9969 148.239 35.974C149.391 34.9141 150.085 33.4608 150.102 31.8992C150.122 29.9926 150.107 28.0635 150.109 26.1558L150.111 24.091C150.111 23.3886 150.233 22.8585 149.743 22.2823C149.048 21.4644 147.591 21.8393 147.455 22.8719C147.367 23.5414 147.415 24.5462 147.415 25.2567L147.425 30.3185C146.959 30.3092 146.473 30.3152 146.005 30.3144C145.948 27.9269 146.047 25.5226 145.977 23.135C145.951 22.2841 145.351 21.9821 144.643 21.7881C143.183 22.1608 143.301 22.7446 143.297 24.0307L143.294 26.0437L143.296 28.5596C143.297 29.0913 143.281 29.8067 143.358 30.3183L141.849 30.315C141.893 27.8605 141.815 25.215 141.783 22.7533C141.775 22.1385 140.702 21.6787 140.041 21.9073C139.722 22.0149 139.461 22.247 139.316 22.5507C139.064 23.0813 139.131 24.1505 139.133 24.75L139.138 27.2147C139.136 28.7047 139.067 30.8509 139.183 32.3044C139.223 32.7709 139.321 33.2304 139.476 33.6721C139.902 34.9012 140.806 35.9974 141.937 36.6595C142.362 36.9085 142.883 37.0566 143.329 37.2728C143.269 37.903 143.307 38.7241 143.297 39.3718C143.271 40.8931 143.336 42.4744 143.287 43.9902C142.467 43.6343 141.061 42.6068 140.372 41.9887C136.695 38.6926 134.682 33.8718 135.016 28.9344C135.212 25.9311 136.26 23.0459 138.037 20.6169C140.709 16.9058 144.822 14.5465 149.373 14.0837C149.735 14.047 150.109 14.056 150.473 14.0406Z" fill="#EDEFF0"/>
</svg>
