<svg width="182" height="59" viewBox="0 0 182 59" fill="none" xmlns="http://www.w3.org/2000/svg">
<path d="M31.4542 46.44C29.0782 46.44 26.8928 46.044 24.8982 45.252C22.9328 44.4307 21.2315 43.3013 19.7942 41.864C18.3568 40.4267 17.2422 38.74 16.4502 36.804C15.6875 34.868 15.3062 32.7707 15.3062 30.512C15.3062 28.2533 15.7022 26.1707 16.4942 24.264C17.3155 22.328 18.4595 20.656 19.9262 19.248C21.4222 17.8107 23.1675 16.696 25.1622 15.904C27.1568 15.112 29.3422 14.716 31.7182 14.716C33.3608 14.716 34.9302 14.936 36.4262 15.376C37.9222 15.816 39.2862 16.4173 40.5182 17.18C41.7502 17.9427 42.7768 18.8227 43.5982 19.82L39.5062 24.132C38.7435 23.3987 37.9368 22.7827 37.0862 22.284C36.2648 21.756 35.3995 21.36 34.4902 21.096C33.5808 20.8027 32.6422 20.656 31.6742 20.656C30.2955 20.656 29.0195 20.9053 27.8462 21.404C26.7022 21.9027 25.6902 22.592 24.8102 23.472C23.9302 24.352 23.2408 25.3933 22.7422 26.596C22.2728 27.7987 22.0382 29.104 22.0382 30.512C22.0382 31.8907 22.2875 33.196 22.7862 34.428C23.3142 35.6307 24.0182 36.6867 24.8982 37.596C25.8075 38.476 26.8635 39.18 28.0662 39.708C29.2688 40.2067 30.5595 40.456 31.9382 40.456C32.9062 40.456 33.8302 40.3093 34.7102 40.016C35.5902 39.7227 36.3528 39.312 36.9982 38.784C37.6728 38.2267 38.1862 37.5813 38.5382 36.848C38.9195 36.1147 39.1102 35.3373 39.1102 34.516V33.46L39.9902 34.692H31.1902V29.192H45.4462C45.4755 29.5147 45.5048 29.9107 45.5342 30.38C45.5928 30.8493 45.6222 31.3187 45.6222 31.788C45.6515 32.228 45.6662 32.58 45.6662 32.844C45.6662 34.8387 45.2995 36.672 44.5662 38.344C43.8622 40.016 42.8648 41.4533 41.5742 42.656C40.3128 43.8587 38.8168 44.7973 37.0862 45.472C35.3555 46.1173 33.4782 46.44 31.4542 46.44ZM51.1383 46V22.724H57.3863V46H51.1383ZM54.2183 17.928C53.0157 17.928 52.077 17.6347 51.4023 17.048C50.7277 16.4613 50.3903 15.6253 50.3903 14.54C50.3903 13.5427 50.7277 12.736 51.4023 12.12C52.1063 11.4747 53.045 11.152 54.2183 11.152C55.421 11.152 56.3597 11.46 57.0343 12.076C57.709 12.6627 58.0463 13.484 58.0463 14.54C58.0463 15.5667 57.6943 16.388 56.9903 17.004C56.3157 17.62 55.3917 17.928 54.2183 17.928ZM63.1355 46V42.04L75.4115 26.112V27.872H63.1355V22.724H81.7035V26.772L69.9555 42.304L69.7795 40.852H82.0115V46H63.1355ZM87.8766 46V22.724H94.1246V46H87.8766ZM90.9566 17.928C89.7539 17.928 88.8153 17.6347 88.1406 17.048C87.4659 16.4613 87.1286 15.6253 87.1286 14.54C87.1286 13.5427 87.4659 12.736 88.1406 12.12C88.8446 11.4747 89.7833 11.152 90.9566 11.152C92.1593 11.152 93.0979 11.46 93.7726 12.076C94.4473 12.6627 94.7846 13.484 94.7846 14.54C94.7846 15.5667 94.4326 16.388 93.7286 17.004C93.0539 17.62 92.1299 17.928 90.9566 17.928Z" fill="#1B6D24"/>
<path d="M116.548 46.44C114.172 46.44 111.987 46.044 109.992 45.252C108.027 44.4307 106.325 43.3013 104.888 41.864C103.451 40.4267 102.336 38.74 101.544 36.804C100.781 34.868 100.4 32.7707 100.4 30.512C100.4 28.2533 100.796 26.1707 101.588 24.264C102.409 22.328 103.553 20.656 105.02 19.248C106.516 17.8107 108.261 16.696 110.256 15.904C112.251 15.112 114.436 14.716 116.812 14.716C118.455 14.716 120.024 14.936 121.52 15.376C123.016 15.816 124.38 16.4173 125.612 17.18C126.844 17.9427 127.871 18.8227 128.692 19.82L124.6 24.132C123.837 23.3987 123.031 22.7827 122.18 22.284C121.359 21.756 120.493 21.36 119.584 21.096C118.675 20.8027 117.736 20.656 116.768 20.656C115.389 20.656 114.113 20.9053 112.94 21.404C111.796 21.9027 110.784 22.592 109.904 23.472C109.024 24.352 108.335 25.3933 107.836 26.596C107.367 27.7987 107.132 29.104 107.132 30.512C107.132 31.8907 107.381 33.196 107.88 34.428C108.408 35.6307 109.112 36.6867 109.992 37.596C110.901 38.476 111.957 39.18 113.16 39.708C114.363 40.2067 115.653 40.456 117.032 40.456C118 40.456 118.924 40.3093 119.804 40.016C120.684 39.7227 121.447 39.312 122.092 38.784C122.767 38.2267 123.28 37.5813 123.632 36.848C124.013 36.1147 124.204 35.3373 124.204 34.516V33.46L125.084 34.692H116.284V29.192H130.54C130.569 29.5147 130.599 29.9107 130.628 30.38C130.687 30.8493 130.716 31.3187 130.716 31.788C130.745 32.228 130.76 32.58 130.76 32.844C130.76 34.8387 130.393 36.672 129.66 38.344C128.956 40.016 127.959 41.4533 126.668 42.656C125.407 43.8587 123.911 44.7973 122.18 45.472C120.449 46.1173 118.572 46.44 116.548 46.44Z" fill="#1B6D24"/>
<path d="M151 14C159.837 14 167 21.1634 167 30C167 35.6067 164.115 40.5383 159.75 43.3955V36.6729C160.987 36.2479 161.984 35.3624 162.74 34.0166C163.496 32.6708 163.875 31.1357 163.875 29.4121C163.875 27.3099 163.337 25.521 162.26 24.0459C161.183 22.5707 159.888 21.833 158.375 21.833C156.862 21.833 155.567 22.5654 154.49 24.0293C153.413 25.4931 152.875 27.2758 152.875 29.377C152.875 31.1015 153.254 32.6428 154.01 34C154.766 35.3569 155.763 36.2479 157 36.6729V44.835C155.147 45.5852 153.122 46 151 46C149.254 46 147.573 45.7184 146 45.2012V37.2041C147.237 36.8736 148.234 36.2007 148.99 35.1855C149.746 34.1703 150.125 33.025 150.125 31.75V23.25C150.127 22.8505 149.995 22.5142 149.73 22.2412C149.466 21.9683 149.139 21.8321 148.75 21.833C148.361 21.834 148.035 21.9704 147.771 22.2412C147.507 22.5123 147.375 22.8486 147.375 23.25V30.333H146V23.25C146.002 22.8505 145.87 22.5142 145.605 22.2412C145.341 21.9683 145.014 21.8321 144.625 21.833C144.236 21.834 143.91 21.9704 143.646 22.2412C143.382 22.5123 143.25 22.8486 143.25 23.25V30.333H141.875V23.25C141.877 22.8505 141.745 22.5142 141.48 22.2412C141.216 21.9683 140.889 21.8321 140.5 21.833C140.111 21.834 139.785 21.9704 139.521 22.2412C139.257 22.5123 139.125 22.8486 139.125 23.25V31.75C139.125 33.025 139.504 34.1703 140.26 35.1855C141.016 36.2007 142.013 36.8736 143.25 37.2041V44C138.33 41.2708 135 36.0247 135 30C135 21.1634 142.163 14 151 14Z" fill="#1B6D24"/>
</svg>
