<svg width="440" height="775" viewBox="0 0 440 775" fill="none" xmlns="http://www.w3.org/2000/svg">
<g clip-path="url(#clip0_1_722)">
<path d="M332.91 277.96C334.56 277.654 333.812 277.546 335.251 278.144C337.074 280.37 339.043 285.258 340.728 287.961C346.051 296.488 351.904 308.448 357.595 316.537C389.757 329.681 436.161 351.123 460.593 379.386C461.084 379.954 460.128 382.422 459.848 383.178C469.973 396.569 481.03 421.323 488.92 436.801C494.389 447.536 500.841 457.925 506.141 468.122C505.703 470.321 504.187 470.97 502.295 472.29C494.577 477.448 486.898 482.668 479.264 487.949C475.33 490.639 470.663 493.495 467.014 496.457C461.863 499.589 457.001 502.947 451.927 506.052C450.361 503.431 449.271 501.389 447.916 498.645L447.429 497.651C440.31 482.902 432.856 468.314 425.065 453.907L423.419 455.238C420.145 457.867 415.26 463.317 412.151 466.533C406.321 472.578 400.449 478.577 394.535 484.529L393.564 485.377C391.787 487.35 389.131 490.14 387.654 492.213C384.844 490.232 381.367 487.527 378.531 485.849C368.069 478.112 358.006 469.669 347.793 461.602C345.088 459.468 342.328 456.962 339.381 455.235C338.82 458.846 339.63 464.53 335.125 463.44L333.635 463.417C330.473 462.649 324.501 461.87 321.013 461.295C314.204 460.159 307.411 458.911 300.641 457.557C299.486 457.157 299.079 456.973 297.981 456.432C297.379 455.377 297.463 455.522 297.636 454.233C300.154 435.796 304.444 416.506 305.627 397.95C306.195 394.849 306.628 390.248 307.093 386.959L307.269 386.916L308.762 387.807C325.211 385.304 324.19 360.109 314.154 351.278L312.005 350.341C311.982 349.236 312.109 348.302 312.209 347.204C315.805 333.763 300.438 311.161 295.329 298.514L295.145 298.048C297.245 296.543 298.926 295.933 300.998 294.105C304.287 293.077 330.845 279.836 332.91 277.96ZM340.214 452.663C341.918 451.09 343.437 449.432 345.026 447.751L345.779 446.968C351.359 442.09 357.4 434.733 363.702 429.229C357.534 427.157 351.524 424.881 345.383 422.77C344.113 432.349 341.154 443.901 340.214 452.663Z" fill="#86AAD2"/>
<path d="M459.848 383.178C469.973 396.569 481.03 421.323 488.92 436.801C494.389 447.536 500.841 457.925 506.141 468.122C505.703 470.321 504.187 470.97 502.295 472.29C494.577 477.448 486.898 482.668 479.264 487.949C475.33 490.639 470.663 493.495 467.014 496.457C461.863 499.589 457.001 502.947 451.927 506.052C450.361 503.431 449.271 501.389 447.916 498.645L447.429 497.651C440.31 482.902 432.856 468.314 425.065 453.907L423.419 455.238C420.145 457.867 415.26 463.317 412.151 466.533C406.321 472.578 400.449 478.577 394.535 484.529L393.564 485.377C391.787 487.35 389.131 490.14 387.654 492.213C384.844 490.232 381.367 487.527 378.531 485.849C368.069 478.112 358.006 469.669 347.793 461.602C345.088 459.468 342.328 456.962 339.381 455.235L340.214 452.663C341.918 451.09 343.437 449.432 345.026 447.751L345.779 446.968C351.359 442.09 357.4 434.733 363.701 429.229C376.155 434.046 389.262 435.842 400.86 441.05C413.467 433.612 428.823 420.579 437.957 409.126C441.641 405.584 449.371 395.548 452.925 391.153C454.533 388.536 458.317 385.669 459.848 383.178Z" fill="#A6A5A6"/>
<path d="M345.026 447.751L371.335 467.892C375.967 471.365 390.862 481.747 393.564 485.377C391.787 487.35 389.131 490.14 387.654 492.213C384.844 490.232 381.367 487.527 378.531 485.849C368.069 478.112 358.006 469.669 347.793 461.602C345.088 459.468 342.328 456.962 339.381 455.235L340.214 452.663C341.918 451.09 343.437 449.432 345.026 447.751Z" fill="#A6A5A6"/>
<path d="M452.925 391.153C459.303 400.303 462.496 407.652 467.332 417.712C453.274 418.084 450.196 416.587 437.957 409.126C441.641 405.584 449.371 395.548 452.925 391.153Z" fill="#7B7A7A"/>
<path d="M345.026 447.751L345.779 446.968C348.012 449.455 351.578 451.853 354.253 453.934C367.551 464.292 381.406 473.96 394.535 484.529L393.564 485.377C390.862 481.747 375.967 471.365 371.335 467.892L345.026 447.751Z" fill="#7B7A7A"/>
<path d="M300.641 457.557C299.486 457.157 299.079 456.973 297.981 456.432C297.379 455.377 297.463 455.522 297.636 454.233C300.154 435.796 304.444 416.506 305.627 397.95C307.795 400.545 311.464 405.304 313.897 407.338C320.042 412.469 337.945 420.598 345.383 422.77C344.113 432.349 341.154 443.901 340.214 452.663L339.381 455.235C338.82 458.846 339.63 464.53 335.125 463.44L333.635 463.417C330.473 462.649 324.501 461.87 321.013 461.295C314.204 460.159 307.411 458.911 300.641 457.557Z" fill="#7C9BBD"/>
<path d="M314.154 351.278C315.313 350.708 317.432 350.239 318.748 349.896C328.489 357.755 331.609 368.94 327.456 380.707C329.966 382.794 335.946 385.692 337.343 387.995C336.015 388.651 327.541 384.817 325.419 384.134C322.306 388.947 317.286 393.89 311.341 389.929C310.412 389.311 309.545 388.601 308.762 387.807C325.211 385.304 324.19 360.109 314.154 351.278Z" fill="#CCD5E4"/>
<path d="M312.208 347.204C315.95 347.486 316.211 347.2 318.748 349.896C317.432 350.239 315.313 350.708 314.154 351.278L312.005 350.341C311.982 349.236 312.109 348.302 312.208 347.204Z" fill="#7C9BBD"/>
<path d="M50.0917 401.873C53.8379 402.947 57.297 404.271 61.0861 405.269C69.3418 407.441 76.6169 407.821 85.018 408.055C97.7234 408.796 114.214 407.338 126.759 405.242C131.523 404.444 135.832 403.005 140.459 402.122L140.905 402.041C140.704 407.576 150.542 428.546 152.736 434.971C156.38 445.644 161.312 457.342 165.306 467.999C168.806 477.345 175.221 481.467 182.501 487.88C189.006 493.51 195.352 499.321 201.53 505.308C202.756 506.474 208.815 512.258 209.56 513.31C211.738 515.09 213.088 516.176 214.992 518.226C210.21 524.079 191.424 545.206 185.334 549.351L180.392 545.252L178.578 543.521L177.174 542.616C168.913 534.786 156.86 526.619 147.776 519.404C141.592 514.496 134.94 510.266 130.001 503.918C120.636 491.883 112.805 478.377 105.048 465.286C102.041 460.209 96.8564 450.326 93.314 446.461C90.601 449.439 82.9533 454.97 79.437 457.403C70.3984 463.551 61.2607 469.554 52.0287 475.403C48.8682 477.398 33.514 486.057 32.9087 489.396C30.7146 501.508 31.5129 515.405 28.8471 527.437L28.8647 527.851C18.7327 527.31 8.35505 525.744 -1.76739 524.708C-6.47111 524.228 -11.1077 522.62 -15.831 522.006L-15.9077 521.569C-16.3944 518.498 -15.9008 514.572 -15.8809 511.391C-15.8133 500.725 -16.0136 489.737 -14.9747 479.129C-14.376 473.016 -13.0815 466.652 -10.0189 461.264C-1.44693 446.189 28.7446 426.159 42.9099 414.419C46.7481 411.237 49.6507 406.939 50.0917 401.873Z" fill="#FEC8C8"/>
<path d="M209.56 513.31C211.738 515.09 213.088 516.176 214.992 518.226C210.21 524.079 191.424 545.206 185.334 549.351L180.392 545.252C181.7 543.272 190.005 536.122 192.295 533.85C198.6 527.487 204.375 520.617 209.56 513.31Z" fill="#FEFDFD"/>
<path d="M-15.9077 521.569L-15.5397 520.598C-12.0019 520.433 5.00572 523.856 10.1738 524.355C13.6011 524.689 25.6589 525.583 28.5297 526.117L28.8471 527.437L28.8647 527.851C18.7327 527.31 8.35506 525.744 -1.76738 524.708C-6.4711 524.228 -11.1077 522.62 -15.831 522.006L-15.9077 521.569Z" fill="#FEFDFD"/>
<path d="M177.174 542.616C179.11 539.795 203.764 512.296 205.541 511.122L206.159 511.126C206.41 514.361 181.809 537.496 178.578 543.521L177.174 542.616Z" fill="#FEFDFD"/>
<path d="M60.1988 253.586C56.7931 243.414 56.4028 235.957 61.1583 225.857C64.4174 218.936 71.0681 212.43 78.4246 209.95C84.1089 207.564 88.8168 209.195 94.2912 209.448C100.624 209.741 106.419 207.96 112.474 211.414C126.822 219.6 129.274 235.005 130.226 250.073C130.462 253.808 133.545 260.01 134.347 263.98C134.848 265.926 135.173 268.395 135.628 269.982C135.083 277.825 131.593 286.582 122.201 286.207C123.77 297.853 126.121 325.352 139.924 328.535L139.367 329.604C130.197 358.583 123.888 367.352 138.99 396.638C139.316 397.256 139.656 397.866 140.01 398.472L140.281 398.983C140.573 400.034 140.908 400.955 140.905 402.041L140.459 402.122C135.832 403.005 131.523 404.444 126.759 405.242C114.214 407.338 97.7234 408.796 85.0181 408.055C76.6169 407.821 69.3418 407.441 61.0861 405.269C57.297 404.271 53.8379 402.947 50.0917 401.873L50.3278 399.086L50.6686 397.252C53.7443 386.932 56.2289 371.239 54.7202 360.653C52.5787 345.619 48.8179 339.831 51.4972 324.496C52.0145 322.373 52.1914 321.631 53.0983 319.664C55.6835 310.921 67.0115 290.38 74.3307 284.743C64.9014 283.617 64.1127 280.185 62.8117 271.808C63.1225 269.74 63.1786 268.342 63.2572 266.284C62.2824 261.079 60.763 260.718 60.1988 253.586Z" fill="#A6DCDE"/>
<path d="M60.1988 253.586C56.793 243.414 56.4027 235.957 61.1583 225.857C64.4174 218.936 71.0681 212.43 78.4245 209.95C84.1088 207.564 88.8168 209.195 94.2912 209.448C100.624 209.741 106.419 207.96 112.474 211.414C126.822 219.6 129.274 235.005 130.226 250.073C130.462 253.808 133.545 260.01 134.347 263.98C134.848 265.926 135.173 268.395 135.628 269.982C135.083 277.825 131.593 286.582 122.201 286.207L121.439 286.352C119.756 286.108 116.052 285.987 114.211 285.869L112.3 285.491C112.398 291.247 112.305 302.227 107.952 306.678C101.47 313.306 88.8721 315.142 80.5876 310.948C79.0716 310.181 77.4129 308.329 76.1218 307.211C74.5536 303.651 75.3105 297.115 76.1886 293.382C77.0364 289.774 78.0876 287.182 80.4694 284.356C78.6038 284.549 76.2408 284.63 74.3307 284.743C64.9014 283.617 64.1127 280.185 62.8116 271.808C63.1225 269.74 63.1785 268.342 63.2572 266.284C62.2824 261.079 60.763 260.718 60.1988 253.586Z" fill="#FBC6B3"/>
<path d="M60.1988 253.586C56.793 243.414 56.4027 235.957 61.1583 225.857C64.4174 218.936 71.0681 212.43 78.4245 209.95C84.1088 207.564 88.8168 209.195 94.2912 209.448C100.624 209.741 106.419 207.96 112.474 211.414C126.822 219.6 129.274 235.005 130.226 250.073C130.462 253.808 133.545 260.01 134.347 263.98C134.848 265.926 135.173 268.395 135.628 269.982C135.083 277.825 131.593 286.582 122.201 286.207L121.439 286.352C119.756 286.108 116.052 285.987 114.211 285.869L112.3 285.491C101.486 281.392 103.528 270.872 104.745 261.415C117.094 260.245 115.782 244.142 105.833 245.211C103.354 245.477 101.418 249.218 100.256 251.333C98.7231 245.619 98.6548 243.652 98.4453 237.764C96.331 237.023 95.3408 236.651 93.3025 235.619L88.3631 232.23C83.7189 228.073 81.1821 224.427 78.8402 218.556C75.6628 225.006 72.6785 228.527 66.8602 232.939C68.9599 232.847 72.0452 232.611 72.8116 235.161C70.7764 237.354 64.6446 234.765 62.2333 237.104C61.0324 240.561 61.1448 249.02 60.1988 253.586Z" fill="#0C0B0B"/>
<path d="M63.2572 266.284C67.2076 271.361 69.1553 274.251 75.4867 276.291C76.2807 276.504 80.5945 277.5 80.8973 277.615C80.9111 278.861 81.2036 283.675 80.4694 284.356C78.6038 284.549 76.2408 284.63 74.3307 284.743C64.9014 283.617 64.1127 280.185 62.8116 271.808C63.1225 269.74 63.1786 268.342 63.2572 266.284Z" fill="#0C0B0B"/>
<path d="M88.3632 232.23L93.3025 235.619L92.9682 236.976C89.8173 236.665 81.3959 236.751 79.7264 234.949C80.6885 231.844 84.8745 232.538 87.2295 233.156L88.3632 232.23Z" fill="#0C0B0B"/>
<path d="M88.3631 232.23L93.3025 235.619L92.9682 236.976C91.41 235.262 89.2528 234.22 87.2294 233.156L88.3631 232.23Z" fill="#CAB991"/>
<path d="M75.4867 276.291C78.7907 275.3 84.1446 275.735 87.8892 275.145C91.3088 274.607 93.8779 272.587 96.6081 272.335L97.4133 272.769C96.8518 275.389 83.8226 277.642 80.8973 277.615C80.5945 277.5 76.2808 276.504 75.4867 276.291Z" fill="#F17F80"/>
<path d="M83.2764 242.325L82.6416 241.921C83.0581 240.381 82.6781 241.061 83.991 239.913C87.0249 239.432 89.1365 243.449 87.7027 245.943C86.4243 246.806 86.8787 246.545 85.1915 246.699L84.6922 246.462C83.8866 247.224 82.6647 247.336 81.7347 246.733C80.8044 246.13 80.4072 244.969 80.773 243.923C81.1391 242.876 82.1734 242.216 83.2764 242.325Z" fill="#FEFDFD"/>
<path d="M83.2764 242.325C84.2133 242.417 85.0104 243.047 85.3151 243.938C85.6199 244.829 85.3765 245.816 84.6922 246.462C83.8866 247.224 82.6647 247.336 81.7347 246.733C80.8044 246.13 80.4072 244.969 80.773 243.923C81.1391 242.876 82.1734 242.216 83.2764 242.325Z" fill="#0C0B0B"/>
<path d="M67.5188 241.98L66.5562 241.682C66.4868 239.58 69.8641 238.319 70.8693 239.862C72.13 241.797 73.6978 245.721 71.3129 247.331C70.6252 247.208 70.6025 247.297 70.0545 246.961C66.1629 247.598 64.7755 244.945 67.5188 241.98Z" fill="#FEFDFD"/>
<path d="M67.5188 241.98C68.9369 242.271 68.9645 242.193 70.1209 243.157C70.7741 244.666 70.5461 245.36 70.0545 246.961C66.1629 247.598 64.7755 244.945 67.5188 241.98Z" fill="#0C0B0B"/>
<path d="M104.147 249.506C109.48 249.815 110.124 251.494 108.469 256.285C106.257 256.637 105.664 257.016 103.943 255.538C103.05 253.501 103.666 251.664 104.147 249.506Z" fill="#F17F80"/>
<path d="M70.2614 256.371C72.6278 256.899 73.8747 258.352 77.021 258.081C79.503 257.868 80.5446 257.462 82.8585 256.606L83.4748 256.374L83.9169 256.717L83.7534 257.612C80.3247 260.47 72.0966 261.532 70.2614 256.371Z" fill="#F17F80"/>
<path d="M74.3307 284.743C76.2408 284.63 78.6038 284.549 80.4694 284.356C78.0876 287.182 77.0364 289.774 76.1886 293.382C75.3105 297.115 74.5537 303.651 76.1218 307.211C77.4129 308.329 79.0717 310.181 80.5876 310.948C88.8721 315.142 101.47 313.306 107.952 306.678C112.305 302.227 112.398 291.247 112.3 285.491L114.211 285.869L113.461 286.319C113.699 293.205 114.448 301.927 109.523 307.678C102.368 316.035 80.7987 318.727 75.0491 307.951C72.2429 302.079 73.5662 296.666 75.3543 290.816C75.9038 289.036 76.5716 287.612 76.2397 285.835L75.7319 285.305C72.8942 285.792 66.8211 296.428 64.9689 299.051C62.3734 302.727 55.9664 317.579 53.0983 319.664C55.6835 310.921 67.0114 290.38 74.3307 284.743Z" fill="#72BECA"/>
<path d="M121.439 286.352L122.201 286.207C123.77 297.853 126.122 325.352 139.924 328.535L139.367 329.604C136.977 327.88 133.942 327.424 131.531 324.711C124.3 316.579 121.283 296.639 121.439 286.352Z" fill="#72BECA"/>
<path d="M50.6686 397.252C54.308 397.916 59.4988 399.785 63.3344 400.836C71.9163 403.189 79.054 403.987 87.4521 405.338C85.1731 405.799 83.1264 405.572 80.7972 405.473C75.8125 404.425 70.862 403.623 65.816 402.525C61.5421 401.596 54.3955 399.539 50.3278 399.086L50.6686 397.252Z" fill="#72BECA"/>
<path d="M140.01 398.472L140.281 398.983C133.853 401.466 107.389 406.939 101.188 405.093C113.391 404.74 127.933 400.514 140.01 398.472Z" fill="#72BECA"/>
<path d="M64.113 350.692C71.0926 350.279 80.9084 351.519 88.116 351.839C95.431 352.163 104.208 352.071 111.38 352.679L111.6 353.119C99.9179 352.813 88.4944 353.221 76.8341 351.986C72.911 351.57 68.4917 352.185 64.5805 351.422L64.113 350.692Z" fill="#72BECA"/>
<path d="M339.381 455.235C342.328 456.962 345.088 459.468 347.793 461.602C358.006 469.669 368.069 478.112 378.531 485.849C370.41 494.527 371.028 493.126 367.255 504.575L360.819 524.558C357.024 536.383 352.495 548.369 349.068 560.239C348.361 564.726 346.872 569.558 345.675 573.987C346.688 574.259 348.097 574.432 348.4 575.445C350.392 582.077 347.855 595.563 348.062 602.533C348.051 604.529 348.565 609.322 345.901 609.591C340.724 610.109 335.424 609.621 330.231 609.414L302.767 608.37C297.233 608.159 265.371 608.036 263.698 606.804C262.281 604.682 262.815 602.322 263.03 599.762C263.329 598.541 263.663 597.329 264.035 596.131C267.973 583.766 278.631 582.115 288.92 576.9L287.834 575.671L286.053 575.28C283.424 578.473 279.913 578.4 278.389 574.029C277.932 572.175 278.427 572.831 277.126 571.814C275.3 572.498 274.766 572.559 273.139 571.834C269.074 566.944 275.108 553.98 277.591 549.04L276.911 548.154C263.705 552.395 277.169 525.994 281.855 522.993C288.164 518.951 290.198 504.594 291.802 497.666C294.896 484.33 298.139 470.905 300.641 457.557C307.411 458.911 314.204 460.159 321.013 461.295C324.501 461.87 330.473 462.649 333.635 463.417L335.125 463.44C339.63 464.53 338.82 458.846 339.381 455.235Z" fill="#FBC6B3"/>
<path d="M317.701 552.122C326.67 554.713 340.229 558.904 349.068 560.239C348.361 564.726 346.872 569.558 345.675 573.987C346.688 574.259 348.097 574.432 348.4 575.445C350.392 582.077 347.855 595.563 348.062 602.533C348.051 604.529 348.565 609.322 345.901 609.591C340.724 610.109 335.424 609.621 330.231 609.414L302.767 608.37C297.233 608.159 265.371 608.036 263.698 606.804C262.281 604.682 262.815 602.322 263.03 599.762C263.329 598.541 263.663 597.329 264.035 596.131C267.973 583.766 278.631 582.115 288.92 576.9L288.978 576.996C290.428 577.736 292.727 577.683 293.84 576.366C294.938 575.694 295.057 575.725 296.274 575.422C303.523 577.08 309.296 567.059 312.942 561.982C314.814 558.428 316.085 555.787 317.701 552.122Z" fill="#0C2A45"/>
<path d="M317.7 552.122C326.67 554.713 340.229 558.904 349.068 560.239C348.361 564.726 346.872 569.558 345.675 573.987L345.034 574.09C342.589 574.455 341.185 575.284 338.464 576.497C333.478 578.715 318.648 576.792 315.908 571.86C314.085 568.587 321.953 563.705 312.942 561.982C314.814 558.428 316.085 555.787 317.7 552.122Z" fill="#CCD5E4"/>
<path d="M263.03 599.762C288.636 600.971 314.135 601.796 339.765 602.191C342.432 602.233 345.422 602.295 348.062 602.533C348.051 604.529 348.565 609.322 345.901 609.591C340.724 610.109 335.424 609.621 330.231 609.414L302.767 608.37C297.233 608.159 265.371 608.036 263.698 606.804C262.281 604.682 262.815 602.322 263.03 599.762Z" fill="#A6A5A6"/>
<path d="M333.635 463.417L335.124 463.44C334.906 465.447 334.445 467.524 334.004 469.496C329.989 487.446 324.739 505.196 321.277 523.254C320.702 526.266 320.917 529.31 320.03 532.361L319.815 532.123L320.076 532.246L319.773 531.824C318.913 521.323 323.453 507.457 325.676 497.167C328.067 486.099 331.594 474.436 333.635 463.417Z" fill="#F17F80"/>
<path d="M284.579 536.951C290.225 540.942 294.635 543.997 302.184 542.896C305.461 542.416 309.906 537.289 312.439 536.375C312.688 537.289 312.615 537.742 312.028 538.544C304.59 548.691 293.975 545.663 285.359 540.305C283.516 543.51 281.237 547.64 277.591 549.04L276.911 548.154C277.717 546.738 279.003 545.44 280.062 544.136C282.054 541.679 283.159 539.745 284.579 536.951Z" fill="#F17F80"/>
<path d="M293.84 576.366C296.082 570.928 298.031 567.159 301.24 562.204C302.51 560.247 303.708 550.084 307.012 550.18L307.411 550.668C307.396 551.5 303.777 562.085 303.201 563.148C301.021 567.167 297.966 570.936 296.274 575.422C295.057 575.725 294.938 575.694 293.84 576.366Z" fill="#F17F80"/>
<path d="M286.053 575.28C287.347 568.79 291.921 561.529 293.679 554.989C293.998 553.803 296.73 550.242 298.031 549.904C298.519 551.727 289.127 571.757 287.834 575.671L286.053 575.28Z" fill="#F17F80"/>
<path d="M277.126 571.814C277.18 568.767 284.979 550.265 287.281 547.824L287.849 547.647L288.379 548.123C287.017 554.375 278.926 568.617 278.389 574.029C277.932 572.175 278.427 572.831 277.126 571.814Z" fill="#F17F80"/>
<path d="M191.324 176.375C192.215 171.811 197.789 156.068 204.069 157.312C205.253 157.981 205.35 158.489 205.946 159.716L207.3 160.217C211.377 156.315 213.461 158.692 214.699 163.088C215.327 163.817 215.198 163.819 215.975 164.297C218.421 164.142 219.912 164.529 220.974 166.981C221.217 168.345 221.198 169.306 222.167 170.238L222.18 170.418C224.192 171.779 224.712 172.488 225.482 174.788C226.976 186.606 222.955 203.046 214.503 211.831C203.161 223.623 196.394 235.969 187.84 249.691C175.973 268.545 164.358 287.556 152.997 306.719C148.928 313.429 144.014 322.121 139.924 328.535C126.121 325.352 123.77 297.853 122.201 286.207C131.593 286.582 135.083 277.825 135.628 269.982C137.849 265.096 142.857 257.961 145.919 253.394C152.532 243.559 159.079 233.68 165.561 223.758C173.216 212.108 178.897 206.834 177.575 192.784C177.217 188.99 180.885 178.817 183.341 175.827C185.748 172.895 187.935 173.224 190.167 176.302L191.324 176.375Z" fill="#FBC6B3"/>
<path d="M191.324 176.375C192.168 180.449 191.694 183.55 191.331 187.677C202.408 189.942 209.845 194.473 208.402 206.878C208.335 207.453 208.128 207.753 207.79 208.188L207.294 208.134C206.859 204.891 206.383 199.087 204.476 196.529C200.868 191.687 194.217 190.046 188.461 189.362C189.812 184.301 190.254 181.598 190.167 176.302L191.324 176.375Z" fill="#F17F80"/>
<path d="M222.18 170.418C219.312 174.283 219.971 179.661 218.646 183.489C218.245 184.646 213.781 194.255 213.387 194.736L212.99 194.574C212.507 193.199 212.524 191.334 213.024 189.972C214.024 187.243 215.75 185.447 216.594 182.54C218.106 177.326 218.169 171.748 220.974 166.981C221.217 168.345 221.198 169.306 222.167 170.238L222.18 170.418Z" fill="#F17F80"/>
<path d="M205.946 159.716L207.3 160.217C206.526 163.22 199.614 182.287 198.093 184.29L197.494 184.314C196.246 180.013 199.451 176.787 200.559 173.187C202.19 167.887 203.137 164.616 205.946 159.716Z" fill="#F17F80"/>
<path d="M214.699 163.088C215.327 163.817 215.198 163.819 215.975 164.297C215.857 164.732 214.428 168.087 214.174 168.79C212.648 173.011 208.945 184.854 206.951 188.362L206.247 188.467L205.64 187.793C205.266 185.474 212.972 165.854 214.699 163.088Z" fill="#F17F80"/>
<path d="M-9.21825 154.658C-8.39541 153.44 -8.22271 152.904 -6.83493 152.463C-0.602959 152.687 4.22472 166.112 5.09055 171.349L6.39198 171.149C8.38538 169.354 11.1022 167.675 13.1743 170.648C16.6894 175.691 18.4257 182.687 19.1998 188.729C19.498 191.06 19.0985 199.145 19.9424 200.762C31.0262 222 43.6307 242.694 56.2028 263.131C57.9959 266.044 60.961 269.917 62.8117 271.808C64.1127 280.185 64.9014 283.617 74.3307 284.743C67.0115 290.38 55.6835 310.921 53.0983 319.664C52.1914 321.631 52.0145 322.373 51.4972 324.496C48.595 321.552 39.1361 303.005 36.4776 298.147L-2.88459 225.863C-9.01024 214.798 -18.7696 208.395 -24.4098 196.588C-27.5426 190.029 -33.3832 169.094 -25.1923 165.072C-24.4282 164.293 -24.4827 163.171 -24.3422 162.009C-22.9664 159.103 -22.0625 159.093 -19.1189 159.392C-17.8566 158.161 -18.2503 158.535 -17.8055 156.507C-16.232 152.962 -13.6226 152.43 -10.8885 155.181L-9.21825 154.658Z" fill="#FBC6B3"/>
<path d="M5.0905 171.349L6.39192 171.149C6.4115 176.615 6.32245 178.952 8.6083 184.017C4.13447 185.045 -1.51221 186.104 -5.07147 188.993C-10.2845 193.224 -9.89647 197.111 -10.7043 202.967L-11.3 203.05C-11.5986 202.686 -11.8741 202.333 -11.9305 201.838C-13.3394 189.409 -5.13135 184.749 5.60592 182.673C4.71668 178.816 4.14446 175.264 5.0905 171.349Z" fill="#F17F80"/>
<path d="M245.121 155.99C255.987 150.65 273.672 171.727 276.908 180.901C279.164 187.303 281.697 193.612 284.008 199.981C285.746 203.59 291.092 211.357 293.376 214.909C298.465 222.883 303.504 230.888 308.493 238.923C313.31 246.71 318.084 254.524 322.813 262.365C325.384 266.631 329.74 274.355 332.91 277.96C330.845 279.836 304.287 293.077 300.998 294.105C296.911 287.841 289.933 274.369 286.065 267.465C278.608 254.12 270.859 240.941 262.819 227.938C260.178 223.57 257.822 218.68 254.963 214.468C252.149 210.575 247.109 208.67 243.246 205.941C238.796 202.797 230.152 194.587 230.982 188.818C231.677 187.475 232.237 187.365 233.594 186.681C234.774 186.531 234.951 186.329 235.983 185.75C232.299 183.18 228.972 177.77 226.591 173.997C225.349 171.061 224.823 170.002 224.24 166.9C224.785 166.045 225.307 165.399 225.921 164.599C227.035 164.536 227.529 164.488 228.666 164.297L229.101 163.609C228.529 158.728 232.118 156.432 235.975 159.172L237.375 158.567C238.25 155.362 239.539 154.846 242.656 155.527C243.573 155.763 244.197 156.016 245.121 155.99Z" fill="#FBC6B3"/>
<path d="M245.116 191.255C249.713 186.576 253.93 182.317 261.011 182.258C263.651 182.236 270.406 184.114 271.381 186.847L271.039 187.665C268.886 187.544 266.518 185.294 264.584 184.707C255.957 182.09 250.234 189.068 245.643 194.605C241.96 191.321 238.513 187.896 233.594 186.681C234.774 186.531 234.951 186.329 235.983 185.75C238.901 186.291 243.009 189.189 245.116 191.255Z" fill="#F17F80"/>
<path d="M242.656 155.527C243.573 155.763 244.196 156.016 245.121 155.99C247.656 158.685 264.024 172.978 262.128 176.421C258.474 175.518 255.538 168.767 253.853 167.084C249.255 162.498 246.297 161.281 242.656 155.527Z" fill="#F17F80"/>
<path d="M229.101 163.609C230.428 164.296 245.731 182.308 246.085 183.605C245.262 184.268 245.737 184.08 244.551 183.961C241.895 182.375 239.415 178.765 237.408 176.341C234.311 172.602 231.257 168.707 228.057 165.039C227.983 164.955 226.183 164.64 225.921 164.599C227.035 164.536 227.529 164.488 228.666 164.297L229.101 163.609Z" fill="#F17F80"/>
<path d="M235.975 159.172L237.375 158.567C239.481 160.508 252.913 176.211 253.85 178.068L253.723 178.704C251.013 179.211 237.025 161.813 235.975 159.172Z" fill="#F17F80"/>
<path d="M269.048 390.651C262.251 393.564 256.732 392.834 250.334 389.215C243.973 385.615 238.896 379.924 236.999 372.775C234.835 364.622 237.702 356.406 241.437 349.177C242.116 347.863 244.485 345.877 244.991 344.667C249.319 334.306 253.926 327.979 265.428 325.07C276.8 322.195 290.39 325.128 298.089 334.62C301.04 338.261 304.87 344.464 305.953 349.05C307.902 349.453 310.098 349.854 312.005 350.341L314.154 351.278C324.19 360.109 325.211 385.304 308.762 387.807L307.269 386.916L307.093 386.959C306.839 386.886 306.175 386.836 305.884 386.805C300.829 396.515 288.82 394.231 279.836 395.506C278.539 395.69 273.469 393.13 272.133 392.393C271.097 391.821 270.069 391.242 269.048 390.651Z" fill="#FBC6B3"/>
<path d="M269.048 390.651C262.251 393.564 256.732 392.834 250.334 389.215C243.973 385.615 238.896 379.924 236.999 372.775C234.835 364.622 237.702 356.406 241.437 349.177C242.116 347.863 244.485 345.877 244.991 344.667C249.319 334.306 253.926 327.979 265.428 325.07C276.8 322.195 290.39 325.128 298.089 334.62C301.04 338.261 304.87 344.464 305.953 349.05C304.283 349.001 301.854 348.982 300.392 348.245C294.117 345.079 289.703 338.266 283.482 345.999L284.587 350.765C280.864 357.352 276.044 360.296 270.022 364.855C269.481 366.215 268.572 369.019 267.601 369.889L266.526 369.939C265.198 368.519 266.883 367.17 265.663 365.677C263.859 365.799 262.224 366.254 260.485 366.316C256.279 366.465 251.727 365.626 247.552 364.964C250.979 373.718 253.216 376.531 261.214 381.716C262.37 380.192 262.573 379.759 264.12 378.719L264.88 378.738C265.762 380.584 264.35 383.888 265.482 386.072C266.434 387.907 268.031 389.123 269.048 390.651Z" fill="#0C0B0B"/>
<path d="M305.884 386.805C306.551 383.213 308.144 377.813 309.004 373.537C310.148 373.491 309.637 373.334 310.562 374.117C311.79 377.517 309.038 383.946 307.269 386.916L307.093 386.959C306.839 386.886 306.175 386.836 305.884 386.805Z" fill="#F17F80"/>
<path d="M272.033 367.698C271.166 366.459 271.431 367.148 271.393 365.501C271.991 364.545 271.953 364.404 273.396 364.046C274.447 363.796 275.557 363.99 276.462 364.584C278.37 365.851 279.076 367.783 278.389 369.974L277.763 370.152C277.023 371.597 276.766 371.852 275.43 372.554C272.486 372.451 272.31 370.073 272.033 367.698Z" fill="#FEFDFD"/>
<path d="M272.033 367.698C275.042 366.502 276.29 367.621 277.763 370.152C277.023 371.597 276.766 371.852 275.43 372.554C272.486 372.451 272.31 370.073 272.033 367.698Z" fill="#0C0B0B"/>
<path d="M288.886 347.819C293.103 347.786 296.999 349.438 293.691 354.19C290.206 355.274 286.971 351.541 288.886 347.819Z" fill="#F17F80"/>
<path d="M287.677 372.992C288.832 373.215 288.751 373.223 289.699 373.952C291.649 377.813 287.942 384.353 285.205 387.154L284.146 387.442C283.793 387.016 283.628 387.008 284.188 385.976C287.704 379.49 288.932 380.215 287.677 372.992Z" fill="#F17F80"/>
<path d="M269.796 380.288C271.036 379.866 272.387 380.503 272.855 381.724C273.327 382.948 272.743 384.322 271.542 384.84C270.721 385.189 269.769 385.066 269.067 384.51C268.368 383.957 268.023 383.063 268.176 382.184C268.33 381.301 268.952 380.572 269.796 380.288Z" fill="#0C0B0B"/>
<path d="M-15.831 522.006C-11.1077 522.62 -6.47112 524.228 -1.7674 524.708C8.35504 525.744 18.7327 527.31 28.8647 527.851C28.8858 530.369 28.5677 531.904 28.1447 534.383C28.0296 536.034 27.9279 538.739 27.6508 540.286C27.0317 549.075 25.6497 550.199 23.5135 557.814C22.3019 562.135 21.4142 575.526 21.5459 580.296C26.5708 582.925 27.9766 604.932 24.2201 605.193C0.346887 606.862 -24.1872 605.542 -48.174 605.699C-50.5727 605.714 -54.0997 604.037 -54.6175 601.416C-56.4075 592.347 -41.8803 584.756 -34.5438 583.501C-30.8575 582.227 -25.8306 578.607 -22.8689 576.305C-12.477 568.234 -14.7828 554.69 -16.1246 543.257C-16.3913 540.985 -16.1223 533.854 -15.9001 531.279L-15.8521 530.76C-15.9361 530.093 -15.91 527.897 -15.9173 527.111L-15.831 522.006Z" fill="#FBC6B3"/>
<path d="M21.5459 580.296C26.5708 582.925 27.9766 604.932 24.2201 605.193C0.346887 606.862 -24.1872 605.542 -48.174 605.699C-50.5727 605.714 -54.0997 604.037 -54.6175 601.416C-56.4075 592.347 -41.8803 584.756 -34.5438 583.501C-21.7574 593.871 0.884573 586.306 14.9228 581.739C17.0363 581.052 19.3633 580.841 21.5459 580.296Z" fill="#0C0B0B"/>
<path d="M-15.8309 522.006C-11.1077 522.62 -6.47109 524.228 -1.76737 524.708C8.35507 525.744 18.7327 527.31 28.8647 527.851C28.8859 530.369 28.5677 531.904 28.1448 534.383C28.0296 536.034 27.9279 538.739 27.6508 540.286C25.8171 540.002 23.5857 539.78 21.732 539.687C9.13146 539.035 -3.18241 536.79 -15.6824 535.335C-15.6866 533.789 -15.7718 532.303 -15.852 530.76C-15.9361 530.093 -15.91 527.897 -15.9173 527.111L-15.8309 522.006Z" fill="#FEFDFD"/>
<path d="M-15.8309 522.006C-11.1077 522.62 -6.47109 524.228 -1.76737 524.708C8.35507 525.744 18.7327 527.31 28.8647 527.851C28.8859 530.369 28.5677 531.904 28.1448 534.383C28.0139 533.854 27.8416 533.336 27.68 532.814C10.9556 531.536 0.56913 529.525 -15.9173 527.111L-15.8309 522.006Z" fill="#FEC8C8"/>
<path d="M214.992 518.226C222.784 524.958 219.205 523.61 219.205 528.715C219.204 531.371 230.336 542.658 233.045 545.241C237.743 547.747 243.671 551.807 245.4 557.065C247.541 564.434 238.341 575.487 234.574 581.375C229.227 589.726 221.438 601.312 211.567 604.007C204.612 605.91 194.356 606.59 191.649 598.353C190.312 594.289 193.856 582.81 197.005 580.453C198.764 575.975 199.992 568.882 199.279 564.073C198.208 556.85 190.927 553.408 185.334 549.351C191.424 545.206 210.21 524.079 214.992 518.226Z" fill="#FCC8B9"/>
<path d="M233.045 545.241C237.743 547.747 243.671 551.807 245.4 557.065C247.541 564.434 238.341 575.487 234.574 581.375C229.227 589.726 221.438 601.312 211.567 604.007C204.612 605.91 194.357 606.59 191.649 598.353C190.313 594.289 193.856 582.81 197.005 580.453C199.101 582.28 200.483 583.075 203.001 584.076C205.449 583.693 207.804 583.19 210.159 582.418C225.018 577.544 231.408 559.253 233.045 545.241Z" fill="#0C0B0B"/>
<path d="M222.167 170.238C223.711 169.532 223.923 168.407 224.239 166.9C224.823 170.002 225.349 171.061 226.591 173.997L225.482 174.788C224.712 172.488 224.192 171.779 222.18 170.418L222.167 170.238Z" fill="#FEC8C8"/>
</g>
<defs>
<clipPath id="clip0_1_722">
<rect width="440" height="775" fill="white"/>
</clipPath>
</defs>
</svg>
