<svg width="440" height="603" viewBox="0 0 440 603" fill="none" xmlns="http://www.w3.org/2000/svg">
<g clip-path="url(#clip0_1_285)">
<path d="M169.863 68.1667C190.276 66.4943 212.43 71.1378 230.602 80.0409C235.457 82.4193 240.669 83.7139 245.491 85.6978C248.645 87.031 251.342 87.6541 254.551 88.5444C266.691 91.9116 279.213 93.3599 291.759 93.3746C308.865 93.3949 325.654 91.2941 342.133 97.2741C344.309 98.0629 346.812 99.1211 349.038 99.7105C352.556 101.654 356.705 103.594 360.223 105.474C379.821 115.952 392.502 127.754 398.085 150.091C399.442 155.524 400.661 161.555 401.809 167.091C402.548 170.642 402.872 174.02 403.853 177.588C404.5 181.195 404.851 184.076 405.342 187.688C411.858 222.053 434.3 248.403 444.502 281.541C445.806 284.807 446.628 289.075 447.449 292.531C451.501 309.573 454.056 326.907 454.987 344.411C455.228 348.96 455.526 353.282 455.823 358.081C457.56 386.108 458.02 414.889 448.757 441.789C448.704 441.909 448.651 442.03 448.598 442.151C446.133 448.811 443.725 455.495 440.236 461.687C433.099 474.35 418.825 484.025 405.84 489.982C400.705 492.334 386.416 497.902 381.131 498.47C371.821 501.188 362.376 502.745 352.863 504.456C345.899 505.858 338.612 507.712 331.628 508.855C309.752 512.453 288.912 519.743 267.971 526.907C234.98 538.192 202.045 542.762 167.694 535.042C145.415 530.036 130.699 516.522 110.796 508.001C104.987 505.525 99.0514 503.358 93.0138 501.506C89.9334 500.546 86.8103 499.913 83.798 498.785C47.0503 489.837 31.7501 486.572 9.27215 454.087C6.88929 450.168 4.66838 446.152 2.61529 442.051C2.03967 441.403 0.135869 437.29 -0.304603 436.356C-6.42411 423.578 -10.7052 410.002 -13.0209 396.025C-13.7858 391.302 -13.5197 386.25 -14.4357 381.533C-14.1082 375.359 -14.8464 367.488 -14.4221 361.341C-14.0491 355.938 -13.8226 347.835 -12.9806 342.759C-10.4505 327.507 -4.88805 312.244 1.83917 298.364C2.95861 296.053 8.20305 284.279 9.42525 282.874C21.2579 260.727 28.2319 239.32 29.3767 214.192C29.662 207.923 29.2651 201.514 29.3864 195.233C28.7095 190.945 29.2427 177.275 29.9814 172.792C29.7836 158.36 38.4844 140.593 47.6271 129.667C66.8274 106.565 91.7504 88.9013 119.909 78.4389C123.794 76.967 128.563 74.9616 132.532 73.9196C135.251 73.2056 139.114 72.6556 141.967 72.1297C151.205 70.4091 160.512 69.0868 169.863 68.1667Z" fill="#FCFBF4"/>
<path d="M169.863 68.1667C190.276 66.4943 212.43 71.1378 230.602 80.0409C235.457 82.4193 240.669 83.7139 245.492 85.6978C244.788 86.3026 244.747 86.2682 244.729 87.5198C244.676 90.8778 244.705 94.3065 244.711 97.6636L244.708 118.193C244.697 121.891 244.764 126.787 244.331 130.399C256.707 141.266 265.987 155.483 267.4 172.386C268.075 180.421 266.081 187.644 263.526 195.194C264.733 195.622 265.304 195.546 266.597 195.581C271.358 195.711 272.471 195.953 275.96 198.985C276.148 205.663 276.36 214.498 276.089 221.106C271.902 224.91 269.615 226.486 264.094 228.127C264.038 228.156 263.979 228.185 263.923 228.214C264.836 235.255 266.535 249.238 265.975 255.822C267.459 257.393 269.927 258.108 271.693 259.931C272.273 260.53 275.93 264.175 276.119 264.259C275.818 265.322 276.681 267.398 276.981 268.536C278.874 275.666 274.838 281.839 268.817 285.243C264.877 287.464 259.324 288.311 254.875 287.673C249.028 286.833 247.744 287.121 242.633 289.926C242.939 288.013 243.378 285.943 243.743 284.025L241.025 281.211C240.572 280.592 239.653 279.627 239.108 279.02C238.935 279.83 237.689 283.883 237.695 283.831C238.198 284.944 238.72 286.022 239.126 287.174C239.753 289.562 239.538 297.905 239.535 300.764V325.864C223.904 323.103 215.333 328.909 201.252 334.1C190.807 337.951 190.713 348.359 200.213 348.312C198.179 350.229 194.075 353.635 193.507 356.244C191.904 361.079 194.933 364.085 199.64 364.524L199.972 364.777C198.149 366.732 197.146 367.403 196.168 369.92L193.614 370.015C189.252 370.003 185.84 370.238 182.543 366.979C181.589 366.838 180.725 367.539 179.73 368.092C170.831 373.047 163.864 377.296 153.715 372.238C150.425 373.345 147.513 374.278 144.164 375.211C143.567 372.744 143.211 371.546 142.294 369.187C142.081 367.659 141.155 365.522 140.435 364.111C135.989 355.426 131.858 351.236 122.612 348.2C111.06 344.405 93.1802 345.409 82.3853 351.068C81.7161 350.329 81.124 349.79 80.39 349.113C79.3288 348.877 76.1266 347.588 74.9462 347.14C80.2375 341.469 85.8782 334.023 90.8359 328.011L88.4318 280.656C88.2278 281.984 88.4598 282.144 87.6922 282.751C77.7727 282.268 64.8345 283.059 54.4221 283.071C43.907 283.058 33.3919 283.119 22.8777 283.255C19.2049 283.286 13.5315 283.032 10.0551 283.255L9.42529 282.874C21.258 260.727 28.2319 239.32 29.3767 214.192C29.662 207.923 29.2651 201.514 29.3864 195.233C28.7095 190.945 29.2427 177.275 29.9815 172.792C29.7836 158.36 38.4844 140.593 47.6272 129.667C66.8275 106.565 91.7504 88.9013 119.909 78.4389C123.794 76.967 128.563 74.9616 132.532 73.9196C135.251 73.2056 139.114 72.6556 141.968 72.1297C151.205 70.4091 160.512 69.0868 169.863 68.1667Z" fill="#F8C6B3"/>
<path d="M29.9815 172.792C29.7836 158.36 38.4844 140.593 47.6272 129.667C66.8275 106.565 91.7504 88.9013 119.909 78.4389C123.794 76.967 128.563 74.9616 132.532 73.9196C135.251 73.2056 139.114 72.6556 141.968 72.1298C151.205 70.4091 160.512 69.0868 169.863 68.1667L171.71 68.4258C172.08 69.4407 171.931 76.9234 171.925 78.468L171.883 113.651C171.885 116.08 171.747 126.967 172.161 128.852C154.777 142.161 142.578 165.389 148.316 187.187C149.004 189.799 149.977 192.453 150.932 194.976C149.209 196.359 143.411 194.606 140.235 197.444C134.98 202.14 134.027 209.752 136.157 216.086C137.977 221.499 142.26 225.398 147.531 227.176C150.131 228.054 150.25 227.822 150.125 230.58C148.873 241.331 145.359 254.752 151.297 264.048C150.003 264.664 116.798 264.384 112.913 264.384L112.243 261.562C107.891 261.589 103.345 261.65 99.0108 261.633C85.6995 261.582 87.873 271.054 88.4318 280.656C88.2278 281.984 88.4598 282.144 87.6922 282.751C77.7727 282.268 64.8345 283.059 54.4221 283.071C43.907 283.058 33.3919 283.119 22.8777 283.255C19.2049 283.286 13.5315 283.032 10.0551 283.255L9.42529 282.874C21.258 260.727 28.2319 239.32 29.3767 214.192C29.662 207.923 29.2651 201.514 29.3864 195.233C28.7095 190.945 29.2427 177.275 29.9815 172.792Z" fill="#FCFBF4"/>
<path d="M29.9814 172.792C30.1678 174.585 29.6882 176.89 30.058 178.31C30.1222 178.349 94.7106 178.758 100.736 178.673C100.669 181.507 100.368 185.62 100.435 188.28C86.8881 187.898 73.0309 188.383 59.4772 188.305L39.9498 188.133C36.8223 188.132 32.4791 188.044 29.4376 188.388C29.4691 190.134 29.6261 193.663 29.3864 195.233C28.7095 190.945 29.2427 177.275 29.9814 172.792Z" fill="#FDEBC4"/>
<path d="M169.863 68.1667C190.276 66.4943 212.43 71.1378 230.602 80.0409C235.457 82.4193 240.669 83.7139 245.492 85.6978C244.788 86.3026 244.747 86.2682 244.729 87.5198C244.676 90.8778 244.705 94.3065 244.711 97.6636L244.708 118.193C244.697 121.891 244.764 126.787 244.331 130.399C256.706 141.266 265.987 155.483 267.4 172.386C268.075 180.421 266.081 187.644 263.526 195.194C261.214 200.966 259.839 204.358 256.656 209.799C255.629 202.395 255.732 194.907 253.615 187.703C253.032 185.719 252.54 183.717 252.09 181.699C249.113 180.866 244.67 178.897 241.767 177.64C237.995 175.897 234.415 173.798 230.796 171.749C219.125 163.746 213.445 158 206.073 145.955C199.083 158.094 192.529 164.033 181.382 171.815C180.623 172.179 175.232 175.161 174.833 175.555C170.046 178.006 165.222 179.601 160.89 182.567L160.789 183.036C159.572 188.774 159.463 196.36 158.692 202.314C158.479 203.957 158.33 207.308 157.894 208.769L157.436 208.718C155.153 205.805 152.511 198.521 150.932 194.976C149.977 192.453 149.004 189.799 148.316 187.187C142.578 165.389 154.777 142.161 172.161 128.851C171.747 126.967 171.885 116.08 171.883 113.651L171.925 78.468C171.931 76.9234 172.08 69.4407 171.71 68.4258L169.863 68.1667Z" fill="#010101"/>
<path d="M169.863 68.1667C190.276 66.4943 212.43 71.1378 230.602 80.0409C235.457 82.4193 240.669 83.7139 245.492 85.6978C244.788 86.3026 244.747 86.2682 244.729 87.5198C244.676 90.8778 244.705 94.3065 244.711 97.6636L244.708 118.193C244.697 121.891 244.764 126.787 244.331 130.399C241.308 127.979 238.01 125.925 234.503 124.279C224.66 119.717 217.226 119.304 207.274 122.974C193.675 118 183.989 121.057 172.16 128.851C171.747 126.967 171.885 116.08 171.883 113.651L171.925 78.468C171.931 76.9234 172.08 69.4407 171.71 68.4258L169.863 68.1667Z" fill="#FDEBC4"/>
<path d="M181.136 325.932C180.992 318.274 181.14 310.457 181.057 302.751C181.218 297.708 180.628 292.428 181.417 287.443C182.558 281.799 186.585 280.071 191.846 280.095C201.221 280.138 210.498 280.211 219.861 280.144C224.263 280.112 228.918 279.825 233.208 280.732C235.054 281.122 236.367 282.584 237.695 283.831C238.198 284.944 238.72 286.022 239.126 287.174C239.753 289.562 239.538 297.905 239.535 300.764V325.864C223.904 323.103 215.333 328.909 201.252 334.1C190.807 337.951 190.713 348.359 200.213 348.312C198.179 350.229 194.075 353.635 193.507 356.244C191.904 361.079 194.933 364.085 199.64 364.524L199.972 364.777C198.149 366.732 197.146 367.403 196.168 369.92L193.614 370.015C189.252 370.003 185.84 370.238 182.543 366.979C181.589 366.838 180.725 367.539 179.73 368.092C170.831 373.047 163.864 377.296 153.715 372.238C150.425 373.345 147.513 374.278 144.164 375.211C143.567 372.744 143.211 371.546 142.294 369.187C155.674 366.143 151.045 361.208 161.204 355.269C165.754 352.611 178.567 351.236 181.107 349.731C181.405 342.462 181.148 333.305 181.136 325.932Z" fill="#29435A"/>
<path d="M181.107 349.731C182.774 349.549 186.588 348.68 187.81 349.481C188.17 350.482 188.118 349.976 187.911 351.065C186.219 353.061 179.967 352.864 181.503 356.262C183.879 356.359 187.319 353.426 189.487 354.598C191.075 358.343 181.558 357.958 181.456 361.791C182.739 362.407 188.368 358.102 190.972 358.985C191.426 361.447 184.955 365.419 182.984 366.322L182.543 366.979C181.589 366.838 180.725 367.539 179.73 368.092C170.831 373.047 163.864 377.296 153.715 372.238C150.425 373.345 147.513 374.278 144.164 375.211C143.567 372.744 143.211 371.546 142.294 369.187C155.674 366.143 151.045 361.208 161.204 355.269C165.754 352.611 178.567 351.236 181.107 349.731Z" fill="#D3CCCB"/>
<path d="M180.635 357.104L181.339 357.301C181.46 358.234 181.482 358.176 181.207 359.068C179.776 360.74 174.234 362.227 171.987 362.881C171.444 362.613 171.697 362.778 171.325 362.159C172.168 360.549 177.566 359.286 180.635 357.104Z" fill="#FCFBF4"/>
<path d="M179.582 353.998C180.524 353.977 180.125 353.827 180.871 354.248L180.697 354.787C178.663 356.212 173.107 357.604 170.511 358.355C170.051 358.538 170.275 358.464 169.635 358.281L169.36 357.752C170.263 356.359 177.655 354.442 179.582 353.998Z" fill="#FCFBF4"/>
<path d="M181.022 362.215C181.371 362.454 181.194 362.274 181.391 362.878C180.234 364.538 175.468 366.199 173.487 366.835L173.169 366.526L173.264 365.952C175.088 364.447 178.722 363.122 181.022 362.215Z" fill="#FCFBF4"/>
<path d="M191.639 287.121C196.018 286.83 199.107 289.79 197.149 294.346C196.513 295.826 195.258 296.138 193.787 296.609C187.566 297.454 185.561 289.796 191.639 287.121Z" fill="#010101"/>
<path d="M191.779 299.648C193.489 299.253 195.28 299.81 196.466 301.103C197.651 302.398 198.049 304.229 197.507 305.899C196.964 307.568 195.566 308.817 193.846 309.167C191.235 309.697 188.681 308.031 188.115 305.428C187.55 302.822 189.183 300.249 191.779 299.648Z" fill="#010101"/>
<path d="M113.412 306.929C114.992 305.878 117.779 303.22 119.488 303.317C138.224 317.243 158.035 323.267 181.136 325.932C181.148 333.305 181.405 342.462 181.107 349.731C178.567 351.236 165.754 352.611 161.204 355.269C151.045 361.208 155.674 366.143 142.294 369.187C142.081 367.659 141.155 365.522 140.435 364.111C135.989 355.426 131.858 351.236 122.612 348.2C111.06 344.405 93.1801 345.409 82.3853 351.068C81.7161 350.329 81.124 349.79 80.39 349.113C79.3288 348.877 76.1266 347.588 74.9462 347.14C80.2374 341.469 85.8782 334.023 90.8359 328.011C95.008 322.788 107.865 311.001 113.412 306.929Z" fill="#FCFBF4"/>
<path d="M88.4318 280.656C87.873 271.054 85.6995 261.582 99.0108 261.633C103.345 261.65 107.891 261.589 112.243 261.562L112.913 264.384C116.798 264.384 150.003 264.664 151.297 264.048C152.426 265.386 153.74 267.338 154.943 268.486C162.315 275.528 171.469 274.382 180.805 274.247C180.515 275.004 179.676 277.364 178.822 277.567C171.354 279.343 163.932 281.049 156.654 283.553C152.756 284.864 148.923 286.363 145.17 288.045C141.34 289.744 136.303 293.178 132.349 293.698C132.312 293.703 132.279 293.725 132.244 293.738L132.88 294.049C132.335 295.043 121.402 301.783 119.488 303.317C117.779 303.22 114.992 305.878 113.412 306.929C107.865 311.001 95.008 322.788 90.8359 328.011L88.4318 280.656Z" fill="#8F5939"/>
<path d="M112.976 293.841C119.338 293.718 125.849 293.813 132.244 293.738L132.88 294.049C132.335 295.043 121.402 301.783 119.488 303.317C117.779 303.219 114.992 305.878 113.412 306.929C113.177 302.569 113.031 298.205 112.976 293.841Z" fill="#FDEBC4"/>
<path d="M237.392 273.616C237.1 270.807 237.306 267.955 238.405 265.325C241.596 257.69 251.112 254.147 258.885 254.754C260.319 254.866 265.174 256.138 265.975 255.822C267.459 257.393 269.927 258.108 271.693 259.931C272.273 260.53 275.93 264.175 276.119 264.259C275.818 265.322 276.681 267.398 276.981 268.536C278.874 275.666 274.838 281.839 268.817 285.243C264.877 287.464 259.324 288.311 254.875 287.673C249.028 286.833 247.744 287.121 242.633 289.926C242.939 288.013 243.377 285.943 243.743 284.025L241.025 281.211C240.572 280.592 239.653 279.627 239.108 279.02L238.599 278.148C238.148 276.925 237.692 274.904 237.392 273.616Z" fill="#E2E3E2"/>
<path d="M255.809 259.67C260.908 259.112 265.79 261.897 267.901 266.571C270.015 271.246 268.881 276.749 265.092 280.208C261.306 283.667 255.72 284.297 251.257 281.769C246.793 279.241 244.464 274.129 245.48 269.101C246.504 264.045 250.682 260.232 255.809 259.67Z" fill="#E2E3E2"/>
<path d="M255.809 259.67C260.908 259.112 265.79 261.897 267.901 266.571C270.015 271.246 268.881 276.749 265.092 280.208C261.306 283.667 255.72 284.297 251.257 281.769C246.793 279.241 244.464 274.129 245.48 269.101C246.867 269.502 246.616 269.199 247.285 270.145L247.314 270.665C247.344 271.146 247.452 272.504 247.67 272.892C248.474 277.994 253.191 281.531 258.314 280.872C263.437 280.213 267.106 275.598 266.591 270.459C266.078 265.319 261.568 261.521 256.418 261.889C256.285 261.02 256.076 260.503 255.809 259.67Z" fill="#2FA56B"/>
<path d="M245.48 269.101C246.504 264.045 250.682 260.232 255.808 259.67C256.076 260.503 256.285 261.02 256.418 261.889C253.753 262.079 251.289 263.378 249.625 265.469C247.965 267.56 247.255 270.253 247.67 272.892C247.452 272.504 247.343 271.146 247.314 270.665L247.285 270.145C246.616 269.199 246.867 269.502 245.48 269.101Z" fill="#A4A3A3"/>
<path d="M254.416 271.362C254.086 271.536 254.283 271.472 253.806 271.479C252.266 269.649 251.536 268.253 253.792 266.474L254.295 266.543L254.869 267.718C256.068 267.596 255.791 266.376 257.316 266.348L258.314 267.409C259.197 267.147 258.871 267.109 259.674 267.291C259.607 267.631 259.651 267.558 259.395 267.918C258.753 268.813 259.666 268.943 258.994 270.332L258.158 270.61C257.504 270.335 257.454 270.283 256.762 270.193L257.228 270.915L256.916 271.288C256.082 271.323 255.249 271.348 254.416 271.362Z" fill="#010101"/>
<path d="M254.416 271.362C254.716 270.053 254.854 268.662 255.741 267.75C256.695 267.395 256.656 267.335 257.643 267.458L257.787 267.661C257.596 268.595 257.513 268.488 256.863 269.31L256.642 269.586L256.762 270.193L257.228 270.915L256.916 271.288C256.082 271.323 255.249 271.348 254.416 271.362Z" fill="#D3CCCB"/>
<path d="M252.352 272.845C252.902 273.273 252.758 273.564 253.2 273.906C254.383 274.825 256.333 273.885 257.301 274.417L257.357 274.798L256.062 275.274L256.424 275.61C256.892 276.159 256.813 275.86 256.786 276.463C254.984 276.322 254.077 277 252.487 276.157C252.134 275.38 252.317 273.772 252.352 272.845Z" fill="#575958"/>
<path d="M150.124 230.58C150.539 228.77 150.506 228.124 152.816 228.219C155.088 228.312 157.022 228.526 159.32 228.48C159.983 230.38 161.163 232.187 162.204 233.914C167.432 242.586 172.942 246.75 180.928 252.4C180.517 259.236 180.948 267.245 180.805 274.247C171.469 274.382 162.315 275.528 154.943 268.486C153.74 267.338 152.426 265.386 151.297 264.048C145.359 254.752 148.873 241.331 150.124 230.58Z" fill="#010101"/>
<path d="M255.158 228.438C258.323 228.468 260.74 228.473 263.923 228.214C264.836 235.255 266.535 249.238 265.975 255.822C265.174 256.138 260.319 254.866 258.885 254.754C251.112 254.147 241.596 257.69 238.405 265.325C237.306 267.955 237.1 270.807 237.392 273.616C236.876 274.56 235.56 274.859 234.695 274.139C233.791 273.388 233.92 272.462 233.788 271.352C233.779 267.215 233.988 255.984 233.526 252.437C241.493 247.573 251.978 237.23 255.158 228.438Z" fill="#010101"/>
<path d="M240.954 179.321L241.634 180.787L241.449 181.269C240.112 181.29 234.503 179.345 232.846 178.783C229.059 177.499 214.882 179.239 214.464 174.279C215.062 172.992 215.886 172.488 217.141 171.781C221.198 169.495 225.605 170.961 229.736 172.259L230.796 171.749C234.415 173.798 237.995 175.897 241.767 177.64C241.299 178.288 240.981 178.545 240.954 179.321Z" fill="#010101"/>
<path d="M230.796 171.749C234.415 173.798 237.995 175.897 241.767 177.64C241.299 178.288 240.981 178.545 240.954 179.321C237.303 176.389 234.05 174.064 229.736 172.259L230.796 171.749Z" fill="#B38F82"/>
<path d="M182.391 172.323C187.056 170.779 191.375 169.745 196.153 172.044C197.148 172.523 197.491 172.873 197.813 173.919C197.556 175.681 196.759 176.306 195.375 177.307L195.262 177.389C189.061 178.456 182.45 177.432 176.308 179.758C174.792 180.332 172.476 181.076 170.891 181.252L170.679 180.814C171.323 179.066 173.866 177.407 175.379 176.254C175.317 176.124 174.94 175.686 174.833 175.555C175.232 175.161 180.623 172.179 181.382 171.815L182.391 172.323Z" fill="#010101"/>
<path d="M181.382 171.815L182.391 172.323C179.339 173.519 177.34 175.409 175.379 176.254C175.317 176.124 174.94 175.686 174.833 175.555C175.232 175.161 180.623 172.179 181.382 171.815Z" fill="#B38F82"/>
<path d="M233.788 271.352C233.92 272.462 233.791 273.388 234.695 274.139C235.56 274.859 236.876 274.56 237.392 273.616C237.692 274.904 238.148 276.925 238.599 278.148C234.574 277.46 233.561 275.312 233.788 271.352Z" fill="#8F5939"/>
<path d="M183.786 202.797C180.182 203.893 178.373 195.67 180.856 192.007C187.894 181.626 202.093 191.959 195.756 201.604C195.203 202.427 193.204 204.132 192.19 204.195L191.591 203.975C190.438 204.956 188.917 205.39 187.42 205.164C185.923 204.938 184.597 204.075 183.786 202.797Z" fill="#FCFBF4"/>
<path d="M183.786 202.797C182.288 200.439 182.908 197.32 185.194 195.714C187.48 194.108 190.625 194.583 192.335 196.791C194.045 199 193.718 202.163 191.591 203.975C190.438 204.956 188.917 205.39 187.42 205.164C185.923 204.938 184.597 204.075 183.786 202.797Z" fill="#010101"/>
<path d="M220.582 203.68L220.155 204.073C218.41 204.096 217.176 202.143 216.301 200.913C211.063 193.679 220.471 184.948 227.808 189.002C232.99 191.867 233.178 196.151 231.453 201.212C230.381 202.239 230.04 202.94 228.653 202.238C227.908 203.656 226.548 204.652 224.969 204.934C223.394 205.216 221.775 204.753 220.582 203.68Z" fill="#FCFBF4"/>
<path d="M218.872 200.059C218.772 197.876 220.052 195.864 222.072 195.028C224.092 194.192 226.418 194.71 227.89 196.324C229.365 197.939 229.669 200.303 228.653 202.238C227.908 203.656 226.548 204.652 224.97 204.934C223.394 205.216 221.775 204.753 220.582 203.68C219.552 202.751 218.934 201.446 218.872 200.059Z" fill="#010101"/>
<path d="M189.517 252.137C191.075 252.336 193.863 253.587 195.662 253.998C203.893 255.878 213.114 256.05 221.201 253.408C222.119 253.107 224.189 252.332 225.011 252.591C226.618 253.893 225.92 254.885 224.743 256.122C222.149 257.5 220.138 257.705 217.394 258.384C209.335 260.395 201.327 259.437 193.347 257.622C190.094 256.882 187.845 255.693 189.517 252.137Z" fill="#E37773"/>
<path d="M191.789 224.799C192.997 224.928 194.866 225.674 195.928 226.201C201.405 228.92 207.193 229.325 213.076 227.749C215.409 227.125 217.47 225.021 220.188 225.173C221.616 226.157 221.439 227.012 220.359 228.163C219.899 228.436 219.44 228.703 218.978 228.964C212.656 232.516 204.469 232.662 197.569 230.804C195.155 230.154 192.454 229.234 191.187 226.965C191.028 226.006 191.331 225.669 191.789 224.799Z" fill="#E37773"/>
<path d="M148.803 205.544C152.4 205.42 152.829 205.62 155.281 208.228C155.954 212.834 156.389 215.618 151.861 217.951C144.801 216.988 142.274 210.009 148.803 205.544Z" fill="#E37773"/>
<path d="M261.962 205.514C264.765 205.237 266.941 205.746 268.496 208.35C269.323 209.737 269.544 211.403 269.105 212.957C268.599 214.72 267.412 216.118 265.84 217.026C264.747 217.353 263.611 217.636 262.507 217.929C261.194 217.214 260.528 216.654 259.359 215.746C258.776 212.645 258.885 210.943 259.097 207.828C260.184 206.803 260.737 206.378 261.962 205.514Z" fill="#E37773"/>
<path d="M200.214 212.537C202.163 212.464 204.547 213.151 206.705 213.145C208.395 213.14 211.17 212.145 212.076 213.311C212.138 214.185 211.826 214.559 211.406 215.336C208.356 216.594 200.058 217.707 200.214 212.537Z" fill="#E37773"/>
<path d="M245.492 85.6978C248.645 87.031 251.342 87.6541 254.551 88.5444C266.691 91.9116 279.213 93.3599 291.759 93.3746C308.865 93.3949 325.654 91.2941 342.133 97.2741C344.309 98.0629 346.812 99.1211 349.038 99.7105C352.556 101.654 356.705 103.594 360.223 105.474C379.821 115.952 392.502 127.754 398.085 150.091C399.442 155.524 400.661 161.555 401.809 167.091C402.548 170.642 402.872 174.02 403.853 177.588C404.5 181.195 404.851 184.076 405.342 187.688C411.858 222.053 434.3 248.403 444.502 281.541C445.806 284.806 446.628 289.075 447.449 292.531C451.501 309.573 454.056 326.907 454.987 344.411C455.228 348.96 455.526 353.282 455.823 358.081C457.56 386.108 458.02 414.889 448.757 441.789C448.704 441.909 448.651 442.03 448.598 442.151C447.582 441.379 438.295 441.662 436.405 441.665L405.649 441.721C400.882 441.721 393.327 441.915 388.748 441.5C402.015 419.718 386.245 399.95 373.14 383.014C367.832 376.074 362.441 369.196 356.97 362.38C354.305 359.109 348.461 352.867 346.735 349.472C347.215 348.942 351.467 347.296 352.433 346.908C348.152 343.931 334.469 330.714 331.354 326.786C323.599 319.057 316.9 313.684 308.4 306.794C306.745 305.931 303.91 303.099 302.385 303.149C301.616 302.56 299.891 301.727 298.902 301.1L288.308 294.327L288.299 294.023L289.403 293.711C288.691 293.558 287.825 293.89 287.16 293.536C281.133 290.334 275.044 287.911 268.817 285.243C274.838 281.839 278.874 275.666 276.981 268.536C276.681 267.398 275.818 265.322 276.118 264.259C275.93 264.175 272.273 260.53 271.693 259.931C269.927 258.108 267.459 257.393 265.975 255.822C266.535 249.238 264.836 235.255 263.923 228.214C263.979 228.185 264.038 228.156 264.094 228.127C269.614 226.486 271.902 224.91 276.089 221.106C276.36 214.498 276.148 205.663 275.959 198.985C272.47 195.954 271.358 195.711 266.597 195.581C265.304 195.546 264.733 195.622 263.526 195.194C266.081 187.644 268.075 180.421 267.4 172.386C265.987 155.483 256.706 141.266 244.331 130.399C244.764 126.787 244.697 121.891 244.708 118.193L244.711 97.6636C244.705 94.3065 244.676 90.8778 244.729 87.5198C244.747 86.2682 244.788 86.3026 245.492 85.6978Z" fill="#FEF3D8"/>
<path d="M346.547 188.438C353.767 188.651 402.13 188.84 405.343 187.688C411.858 222.053 434.3 248.403 444.502 281.541C444.379 281.784 444.119 282.162 443.966 282.405C433.691 282.852 422.614 282.434 412.294 282.474C390.388 282.557 368.385 282.202 346.485 282.441C346.597 278.787 346.562 274.97 346.541 271.306C346.385 243.705 346.883 216.03 346.547 188.438Z" fill="#FCFBF4"/>
<path d="M349.038 99.7105C352.556 101.654 356.705 103.594 360.223 105.474C379.821 115.952 392.502 127.754 398.085 150.091C399.442 155.524 400.661 161.555 401.809 167.091C402.548 170.642 402.872 174.02 403.853 177.588L403.482 178.173C401.948 178.685 390.906 178.549 388.63 178.56L346.565 178.609C346.88 160.317 346.456 141.739 346.641 123.438C346.685 119.294 346.309 103.629 346.959 100.62C347.851 99.7544 347.622 100.021 349.038 99.7105Z" fill="#FCFBF4"/>
<path d="M309.257 261.509C312.743 261.59 316.638 261.762 320.113 261.628C326.708 261.374 334.302 262.498 334.072 270.902C333.795 280.977 333 291.209 332.467 301.285C331.946 309.444 332.114 318.774 331.354 326.786C323.599 319.057 316.9 313.684 308.4 306.794C306.745 305.931 303.91 303.099 302.385 303.149C301.616 302.56 299.891 301.727 298.902 301.1L288.308 294.327L288.299 294.023L289.403 293.711C288.691 293.558 287.825 293.89 287.16 293.536C281.133 290.334 275.044 287.911 268.817 285.243C274.838 281.839 278.874 275.666 276.981 268.536C276.681 267.398 275.818 265.322 276.118 264.259C285.007 264.845 299.161 264.409 308.503 264.4L309.257 261.509Z" fill="#8F5939"/>
<path d="M289.403 293.711C295.672 293.909 302.232 293.824 308.524 293.831C308.547 297.802 308.668 302.846 308.4 306.794C306.745 305.931 303.91 303.099 302.385 303.149C301.616 302.56 299.891 301.727 298.902 301.1L288.308 294.327L288.299 294.023L289.403 293.711Z" fill="#FDEBC4"/>
<path d="M275.421 178.775L287.805 178.716C287.728 181.885 287.666 184.858 287.74 188.034C285.964 188.287 277.947 188.187 275.494 188.237C275.385 185.151 275.43 181.876 275.421 178.775Z" fill="#FDEBC4"/>
<path d="M239.108 279.02C239.653 279.627 240.572 280.592 241.025 281.211L243.743 284.025C243.377 285.943 242.939 288.013 242.633 289.926C247.744 287.121 249.028 286.833 254.875 287.672C259.324 288.311 264.877 287.464 268.817 285.243C275.044 287.911 281.133 290.334 287.16 293.536C287.825 293.89 288.691 293.558 289.403 293.711L288.299 294.023L288.308 294.327L298.902 301.1C299.891 301.727 301.616 302.56 302.385 303.149C303.91 303.099 306.745 305.931 308.4 306.794C316.901 313.684 323.599 319.057 331.354 326.786C334.469 330.714 348.152 343.931 352.433 346.908C351.467 347.296 347.215 348.942 346.735 349.472C348.461 352.867 354.305 359.109 356.97 362.38C362.441 369.196 367.832 376.074 373.14 383.014C386.245 399.95 402.015 419.718 388.748 441.5C374.489 459.037 357.2 454.803 338.818 445.908C336.51 444.792 330.609 441.117 328.651 441.412C326.387 441.93 309.289 441.836 306.46 441.639L306.516 434.884C306.321 433.383 306.425 429.723 306.442 428.103C300.978 425.439 295.846 422.047 290.378 419.353C284.51 415.555 277.9 412.228 271.879 408.606C267.212 405.8 263.411 403.168 257.728 403.465C245.274 404.116 238.764 392.954 230.991 385.502C225.27 386.014 219.525 387.345 213.769 387.648C209 387.899 204.109 386.736 204.076 381.053C204.028 379.31 204.017 379.021 203.463 377.381C197.065 378.191 196.994 375.63 195.76 370.615C194.973 369.882 195 370.124 193.613 370.015L196.168 369.92C197.146 367.403 198.149 366.732 199.972 364.777L199.64 364.524C194.933 364.085 191.904 361.079 193.507 356.244C194.075 353.635 198.179 350.229 200.213 348.312C190.713 348.359 190.807 337.951 201.252 334.1C215.333 328.909 223.904 323.103 239.535 325.864V300.764C239.538 297.905 239.753 289.562 239.126 287.174C238.72 286.022 238.198 284.944 237.695 283.831C237.689 283.883 238.934 279.83 239.108 279.02Z" fill="#F8C6B3"/>
<path d="M302.385 303.149C303.91 303.099 306.745 305.931 308.4 306.794C316.901 313.684 323.599 319.057 331.354 326.786C334.469 330.714 348.152 343.931 352.433 346.908C351.467 347.296 347.215 348.942 346.735 349.472C338.156 354.045 331.822 360.873 325.342 367.907C321.532 372.04 318.258 375.606 313.479 378.653C308.924 377.155 286.076 368.463 283.07 366.066C280.135 363.723 277.947 359.368 276.013 356.165C265.54 338.831 259.492 332.881 240.239 326.135C257.814 323.689 274.605 319.534 290.254 310.842C294.624 308.416 298.21 305.822 302.385 303.149Z" fill="#FCFBF4"/>
<path d="M200.213 348.312C210.944 343.536 219.858 337.642 232.054 341.702C234.415 342.491 241.157 341.696 242.736 344.149C242.721 345.4 242.912 344.864 242.212 345.836C239.023 347.535 226.183 343.66 220.956 345.032C213.819 346.902 207.062 349.045 200.443 352.572C198.688 353.468 195.056 355.752 193.507 356.244C194.075 353.635 198.179 350.229 200.213 348.312Z" fill="#E37773"/>
<path d="M199.64 364.524C210.256 359.386 221.145 352.817 233.202 356.064C235.339 356.639 239.718 356.518 241.381 357.937C241.67 358.611 241.876 359.109 241.634 359.869C241.534 360.184 241.246 360.664 240.887 360.699C234.971 361.323 227.84 358.064 221.796 359.498C215.721 360.937 209.68 364.129 204.034 366.749C201.674 367.845 198.618 369.535 196.168 369.92C197.146 367.403 198.149 366.732 199.972 364.777L199.64 364.524Z" fill="#E37773"/>
<path d="M203.463 377.381C206.534 374.967 221.978 370.336 226.268 369.311C228.877 368.687 241.54 368.507 243.224 370.45C243.592 371.634 243.489 373.465 241.926 373.551C236.482 373.848 231.741 372.573 226.224 373.448C218.704 374.64 211.179 379.254 204.076 381.053C204.029 379.31 204.017 379.021 203.463 377.381Z" fill="#E37773"/>
<path d="M306.798 428.133C310.603 430.971 327.323 438.821 328.651 441.412C326.387 441.93 309.289 441.836 306.46 441.639L306.516 434.884C306.745 432.544 306.763 430.488 306.798 428.133Z" fill="#8F5939"/>
<path d="M239.108 279.02C239.653 279.627 240.572 280.592 241.025 281.211C240.707 282.844 240.139 285.941 239.126 287.174C238.72 286.022 238.198 284.944 237.695 283.831C237.689 283.883 238.934 279.83 239.108 279.02Z" fill="#FEDAC8"/>
<path d="M88.4318 280.656L90.8358 328.011C85.8782 334.023 80.2374 341.469 74.9462 347.14C76.1265 347.588 79.3288 348.877 80.3899 349.113C77.5728 353.606 73.9801 358.002 70.9516 362.374C69.9626 363.802 67.7266 366.693 66.9891 368.121C62.259 375.217 57.6146 382.372 53.0565 389.58C51.2699 392.43 48.7124 396.293 47.1522 399.205C44.184 402.237 40.8133 414.112 39.8729 418.402C38.0433 426.749 39.8414 434.066 43.5539 441.565C34.1689 442.242 22.9344 441.432 13.3948 441.748C11.1645 441.818 4.28208 441.518 2.61529 442.051C2.03967 441.403 0.135869 437.29 -0.304603 436.356C-6.42411 423.578 -10.7052 410.002 -13.0209 396.025C-13.7858 391.302 -13.5197 386.25 -14.4357 381.533C-14.1082 375.359 -14.8464 367.488 -14.4221 361.341C-14.0491 355.938 -13.8226 347.835 -12.9806 342.759C-10.4505 327.507 -4.88805 312.244 1.83917 298.364C2.95861 296.053 8.20305 284.279 9.42525 282.874L10.055 283.255C13.5314 283.032 19.2049 283.286 22.8776 283.255C33.3918 283.119 43.907 283.058 54.4221 283.071C64.8344 283.059 77.7727 282.268 87.6922 282.751C88.4598 282.144 88.2278 281.984 88.4318 280.656Z" fill="#FDEBC4"/>
<path d="M82.3853 351.068C93.1802 345.409 111.06 344.405 122.612 348.2C131.858 351.236 135.989 355.425 140.435 364.111C141.155 365.522 142.081 367.659 142.294 369.187C143.211 371.546 143.567 372.744 144.164 375.211C144.375 377.502 144.978 385.237 144.317 387.233C143.832 390.083 142.544 391.985 140.754 394.217C137.537 395.477 136.504 395.274 133.094 394.815C131.128 394.55 130.751 394.753 129.664 396.313C124.907 400.097 121.405 400.636 116.271 397.223C115.544 397.942 114.761 398.613 114.271 399.496C114.153 402.476 114.393 407.443 114.179 409.905C114.357 420.534 114.744 431.118 114.851 441.756L114.539 441.786C107.259 442.366 99.5817 441.244 92.3178 442.11C91.9477 442.151 90.8064 443.691 90.4596 444.029C89.7132 444.948 88.1654 446.179 87.2441 446.894C76.7299 455.044 61.6128 456.97 50.5273 448.77C47.409 446.464 45.9015 444.73 43.554 441.565C39.8415 434.066 38.0434 426.749 39.873 418.402C40.8134 414.112 44.1841 402.237 47.1522 399.205C48.7124 396.293 51.2699 392.43 53.0565 389.58C57.6147 382.372 62.259 375.217 66.9891 368.121C67.7267 366.693 69.9626 363.802 70.9516 362.374C73.9801 358.002 77.5728 353.606 80.39 349.113C81.124 349.79 81.7161 350.329 82.3853 351.068Z" fill="#F8C6B3"/>
<path d="M129.155 391.341C127.738 387.104 127.851 376.698 126.59 371.004C124.883 363.305 122.567 362.775 120.814 357.719C121.166 356.474 120.831 356.948 121.741 356.176C124.816 355.914 126.622 360.237 127.661 362.545C131.482 371.028 131.944 379.908 132.284 389.038C138.579 397.797 141.898 387.813 144.317 387.233C143.832 390.083 142.544 391.985 140.754 394.217C137.537 395.477 136.504 395.274 133.094 394.815C131.128 394.55 130.751 394.753 129.664 396.314C124.907 400.097 121.405 400.636 116.271 397.223C115.544 397.942 114.761 398.613 114.271 399.496C110.78 401.363 110.507 401.334 106.507 401.44C103.122 400.642 104.515 400.439 101.822 398.902C101.601 398.757 100.654 399.387 100.451 399.543C98.3934 401.127 94.65 400.471 92.2859 400.041C86.0869 395.336 87.9257 389.297 84.1028 383.005C82.7066 380.709 78.7665 379.251 78.0898 376.734C78.4387 375.485 79.4878 374.581 80.8013 375.179C86.384 377.673 89.2527 383.941 90.646 389.574C92.2427 396.025 94.0797 399.052 100.57 394.977C100.452 386.706 97.4777 378.076 93.4192 370.763C93.0892 370.168 89.3643 365.79 88.5467 364.768C88.5381 362.339 90.7319 361.785 92.3098 363.363C96.6618 367.621 98.8901 373.086 101.083 378.597C103.537 384.766 103.868 389.544 104.247 396.093C108.49 399.847 111.149 397.07 114.428 393.831C114.559 383.647 111.149 371.546 106.003 362.739C104.84 360.749 102.921 360.284 103.367 357.76C104.082 356.765 103.632 357.107 104.739 356.665C110.765 357.386 116.728 378.512 117.378 384.239C117.767 387.666 117.183 395.757 121.741 395.875C124.547 395.945 127.268 393.281 129.155 391.341Z" fill="#E37773"/>
<path d="M106.506 401.44C110.507 401.334 110.78 401.363 114.271 399.496C114.153 402.476 114.393 407.443 114.179 409.905C114.357 420.534 114.744 431.118 114.851 441.756L114.539 441.786C107.259 442.366 99.5817 441.244 92.3177 442.11C91.9476 442.151 90.8064 443.691 90.4596 444.029L90.0353 443.623C91.5825 440.049 108.913 402.27 108.935 401.819C108.015 401.619 107.444 401.543 106.506 401.44Z" fill="#8F5939"/>
<path d="M106.506 401.44C110.507 401.334 110.78 401.363 114.271 399.496C114.153 402.476 114.393 407.443 114.179 409.905C113.898 407.761 113.892 405.676 113.841 403.518C110.323 410.473 106.323 417.201 102.604 424.046C99.3453 430.047 96.4978 435.824 92.9022 441.639L107.454 441.603C109.04 441.603 113.45 441.524 114.851 441.756L114.539 441.786C107.259 442.366 99.5817 441.244 92.3177 442.11C91.9476 442.151 90.8064 443.691 90.4596 444.029L90.0353 443.623C91.5825 440.049 108.913 402.27 108.935 401.819C108.015 401.619 107.444 401.543 106.506 401.44Z" fill="#F1ADA2"/>
<path d="M66.9891 368.121C67.0815 368.389 67.174 368.66 67.2665 368.928C66.2421 371.346 64.0845 380.935 63.1753 382.422C61.0775 385.852 50.4734 397.786 47.8418 399.199L47.1522 399.205C48.7124 396.293 51.2699 392.43 53.0565 389.58C57.6146 382.372 62.259 375.217 66.9891 368.121Z" fill="#F1ADA2"/>
<path d="M83.798 498.785C91.4977 497.734 106.784 498.167 115.129 498.164L170.891 498.158L325.168 498.179L366.415 498.211C371.321 498.232 376.297 498.52 381.131 498.47C371.821 501.188 362.376 502.745 352.863 504.456C345.899 505.858 338.612 507.712 331.628 508.855C309.752 512.453 288.912 519.743 267.971 526.907C234.98 538.192 202.045 542.762 167.694 535.042C145.415 530.036 130.699 516.522 110.796 508.001C104.987 505.525 99.0514 503.358 93.0138 501.506C89.9334 500.546 86.8103 499.913 83.798 498.785Z" fill="#D3CCCB"/>
<path d="M176.137 447.627C176.877 447.304 178.183 446.503 179.008 446.126C186.431 442.74 189.906 443.158 197.217 445.634C198.141 446.117 199.592 446.818 200.429 447.357C201.764 447.954 202.024 447.975 203.486 448.146C202.543 450.813 201.043 451.579 200.975 453.825C207.767 455.927 208.446 451.605 216.608 458.424C231.485 461.869 248.86 460.547 263.711 457.514C271.31 455.963 281.895 452.948 285.222 445.075C287.239 446.941 288.323 448.687 289.86 450.949C294.12 450.324 315.976 457.011 309.292 464.699C307.864 466.342 301.219 470.682 299.084 471.17C298.001 470.69 295.878 471.421 294.665 471.712C287.348 473.511 279.952 474.951 272.497 476.026C265.899 477.012 257.619 477.471 250.83 478.042C218.554 480.639 186.101 480.098 153.929 476.426C146.292 475.596 137.6 473.988 129.996 472.578C127.831 472.177 119.467 469.365 118.253 469.501C116.559 469 112.936 466.289 111.629 465.105C109.057 462.773 109.447 459.764 111.942 457.503C115.006 454.723 123.297 451.022 127.283 451.217C125.911 456.219 128.898 456.867 132.823 459.149C134.203 460.026 145.016 467.293 145.705 468.061L145.987 468.626C153.209 470.79 155.503 470.661 162.475 471.765C162.314 465.399 165.092 460.568 168.276 455.262C169.19 453.501 173.997 449.108 175.704 447.978L176.137 447.627Z" fill="#E2E3E2"/>
<path d="M176.137 447.627C176.877 447.304 178.183 446.503 179.008 446.126C186.431 442.74 189.906 443.158 197.217 445.634C198.141 446.117 199.592 446.818 200.429 447.357C201.764 447.954 202.024 447.975 203.486 448.146C202.543 450.813 201.043 451.579 200.975 453.825C207.767 455.927 208.446 451.605 216.608 458.424C220.314 465.903 220.597 466.718 217.034 474.368L216.331 474.765C214.956 474.948 203.569 474.818 202.004 474.686L197.885 474.459C195.197 474.521 188.842 474.536 186.303 474.088L185.165 473.876L181.57 473.72C177.2 473.932 166.591 472.784 162.475 471.765C162.314 465.399 165.092 460.568 168.276 455.262C169.19 453.501 173.997 449.108 175.704 447.978L176.137 447.627Z" fill="#6B8B38"/>
<path d="M176.137 447.627C176.877 447.304 178.183 446.503 179.008 446.126C186.431 442.74 189.906 443.158 197.217 445.634C198.141 446.117 199.592 446.818 200.429 447.357C201.764 447.954 202.024 447.975 203.486 448.146C202.543 450.813 201.043 451.579 200.975 453.825C200.277 453.943 198.416 453.625 197.574 453.513C193.001 452.898 189.118 454.229 185.921 457.585L185.64 458.062C183.981 460.856 183.096 461.065 182.533 464.666L182.541 467.466C182.596 470.216 182.412 470.994 181.57 473.72C177.2 473.932 166.591 472.784 162.475 471.765C162.314 465.399 165.092 460.568 168.276 455.262C169.19 453.501 173.997 449.108 175.704 447.978L176.137 447.627Z" fill="#FDEBC4"/>
<path d="M182.533 464.666C181.742 463.123 181.685 457.785 182.567 456.496C183.895 457.303 184.346 457.712 185.921 457.585L185.64 458.062C183.981 460.856 183.096 461.065 182.533 464.666Z" fill="#F1BC79"/>
<path d="M202.004 474.686L202.033 474.162C197.635 469.813 194.467 464.607 199.818 459.52C207.188 452.518 217.317 457.391 217.314 467.349C217.314 470.305 214.717 472.869 214.685 474.386C215.439 474.639 215.545 474.662 216.331 474.765C214.956 474.948 203.569 474.818 202.004 474.686Z" fill="#B8C97D"/>
<path d="M209.016 467.004C210.35 466.936 211.877 466.83 212.723 468.079C212.232 468.918 212.572 468.638 211.688 468.974C210.835 468.609 211.119 468.656 210.225 468.556C209.705 469.286 209.781 469.583 209.762 470.481L209.758 470.788C209.493 471.656 209.473 471.986 208.81 472.616L208.382 472.422C207.805 470.679 207.845 468.491 209.016 467.004Z" fill="#A6BE5E"/>
<path d="M205.582 462.526L205.745 462.461L206.161 462.667C206.41 463.568 206.815 464.984 206.103 465.691C204.91 465.37 204.594 465.152 203.441 465.582C202.995 465.77 203.273 465.697 202.583 465.67C202.476 463.05 203.46 462.805 205.582 462.526Z" fill="#91AE48"/>
<path d="M209.93 459.994C210.901 460.159 211.093 460.223 211.492 461.001C210.784 462.167 211.017 461.798 209.541 462.47L209.317 462.835L208.931 462.75C209.054 461.687 209.478 460.968 209.93 459.994Z" fill="#A6BE5E"/>
<path d="M186.297 460.509C186.941 459.958 187.59 459.417 188.245 458.884C192.38 455.521 195.259 455.662 200.256 456.181C198.718 457.927 196.732 459.855 196.019 462.005L195.706 462.847L195.054 465.134C195.152 466.082 195.628 468.803 195.657 469.254C196.301 471 197.412 473.019 197.885 474.459C195.197 474.521 188.843 474.536 186.303 474.088C187.039 474.073 187.435 474.053 188.164 473.962L188.449 473.538C188.113 472.572 186.935 471.703 186.13 470.979C184.799 466.872 184.699 464.419 186.297 460.509Z" fill="#B8C97D"/>
<path d="M195.054 465.134C195.152 466.083 195.628 468.803 195.657 469.254C194.851 469.424 194.282 470.187 193.616 470.838C192.764 471.079 192.566 471.226 191.714 471.017L191.763 470.473C192.766 469.13 193.483 468.609 194.872 467.672C194.926 466.824 194.986 465.979 195.054 465.134Z" fill="#91AE48"/>
<path d="M195.706 462.847C194.296 462.243 192.554 462.661 191.884 461.475L192.142 460.827C193.175 460.088 192.624 460.285 193.829 460.138C195.3 460.756 194.848 461.165 196.019 462.005L195.706 462.847Z" fill="#A6BE5E"/>
<path d="M188.531 466.13C188.904 465.149 188.979 464.687 189.103 463.642C189.86 462.744 189.408 463.044 190.482 462.667C192.557 463.235 193.023 465.131 192.771 466.998L192.691 467.681L192.308 467.952C190.901 467.914 189.751 467.664 188.545 466.863L188.531 466.13Z" fill="#A6BE5E"/>
<path d="M188.531 466.13C189.795 466.115 191.767 466.177 192.771 466.998L192.691 467.681L192.308 467.952C190.901 467.914 189.751 467.664 188.545 466.863L188.531 466.13Z" fill="#91AE48"/>
<path d="M182.541 467.466C183.199 471.797 184.469 471.471 185.165 473.876L181.57 473.72C182.412 470.994 182.596 470.216 182.541 467.466Z" fill="#F1BC79"/>
<path d="M285.222 445.075C287.239 446.941 288.323 448.687 289.86 450.949C290.958 453.136 292.033 455.356 292.622 457.747C288.087 468.721 279.231 468.994 269.026 471.515C257.749 474.297 246.351 474.804 234.792 474.674C230.328 474.642 221.048 473.935 217.035 474.368C220.597 466.718 220.315 465.903 216.608 458.424C231.485 461.869 248.86 460.547 263.711 457.514C271.31 455.963 281.895 452.948 285.222 445.075Z" fill="#C98958"/>
<path d="M132.823 459.149C134.203 460.026 145.016 467.293 145.705 468.061L145.987 468.626C142.365 468.994 136.094 466.059 132.754 464.581C132.069 463.539 131.163 462.452 131.081 461.254C131.314 460.161 131.929 459.864 132.823 459.149Z" fill="#D3CCCB"/>
<path d="M229.769 428.607C230.864 428.251 231.942 427.482 232.931 427.276C238.36 426.146 243.548 426.346 248.96 426.982C251.539 427.515 253.223 427.83 255.664 428.745C260.175 431.201 259.613 431.245 263.028 433.489C262.516 434.163 262.477 434.139 262.233 434.934L263.084 434.198C264.182 434.301 264.488 434.928 265.201 435.797C266.337 436.554 267.515 437.39 268.716 438.02C270.674 438.273 272.282 438.111 273.89 438.317C277.703 439.695 279.104 440.529 282.519 442.781L285.222 445.075C281.895 452.948 271.31 455.963 263.711 457.514C248.86 460.547 231.485 461.869 216.608 458.424C208.446 451.605 207.767 455.927 200.975 453.825C201.043 451.579 202.543 450.813 203.486 448.146C204.444 447.15 207.895 444.789 209.066 443.973L210.436 443.096L210.772 443.108C211.212 442.816 211.96 442.516 212.415 442.248C216.404 439.896 221.13 434.867 224.746 431.581C223.727 429.764 224.124 429.54 225.017 427.668C226.821 428.666 227.525 427.482 229.769 428.607Z" fill="#8F5939"/>
<path d="M255.664 428.745C260.175 431.201 259.613 431.245 263.028 433.489C262.516 434.163 262.477 434.139 262.233 434.934C260.393 437.711 254.042 434.596 251.404 433.671C243.11 436.171 236.497 441.062 229.498 445.943C226.657 447.925 224.439 452.43 220.426 450.327C219.843 449.429 219.955 449.906 220.097 448.838C221.616 446.688 223.447 446.673 225.561 445.49C232.083 441.833 237.916 436.356 244.558 432.823C248.018 430.98 251.996 430.553 255.402 429.378L255.664 428.745Z" fill="#C98958"/>
<path d="M225.017 427.668C226.821 428.666 227.525 427.482 229.769 428.607C228.105 429.62 226.43 430.609 224.746 431.581C223.727 429.764 224.124 429.54 225.017 427.668Z" fill="#6B8B38"/>
<path d="M264.954 439.427C267.097 439.48 272.052 439.881 272.945 442.113C272.918 443.058 272.977 443.02 272.47 443.8C270.801 444.456 269.55 443.441 267.904 443.002C263.108 441.721 258.185 442.201 253.273 442.534C251.351 442.858 246.811 444.465 245.645 444.386C250.573 441.006 259.003 439.625 264.954 439.427Z" fill="#C98958"/>
<path d="M233.013 430.271C232.454 430.88 232.333 431.063 231.644 431.542L231.164 431.395L231.002 430.718C232.192 426.101 243.298 427.488 246.808 428.024C247.623 428.898 247.473 428.421 247.526 429.402C246.378 431.16 243.101 431.631 241.564 430.032C241.455 429.052 241.593 429.102 241.084 428.401C238.34 428.975 235.713 429.493 233.013 430.271Z" fill="#C98958"/>
<path d="M246.808 428.024C247.623 428.898 247.473 428.421 247.526 429.402C246.378 431.16 243.101 431.631 241.564 430.032C241.667 429.128 241.567 429.031 242.159 428.392C243.519 427.871 245.274 428.109 246.808 428.024Z" fill="#CAA368"/>
<path d="M142.46 440.832C142.443 440.749 142.425 440.667 142.408 440.585L142.315 440.172C141.352 435.782 138.824 432.862 138.66 428.421C138.595 427.388 138.98 425.536 139.941 424.924C144.928 421.738 150.072 427.588 152.747 430.901C154.808 426.758 158.525 424.709 160.244 430.544C160.556 431.51 160.455 434.348 160.443 435.544C160.404 439.666 164.543 443.031 167.266 445.634L165.554 445.905C164.72 447.089 164.669 448.122 164.39 449.556C164.098 450.236 163.804 450.966 163.478 451.626C165.046 452.862 166.619 454.152 168.276 455.262C165.092 460.568 162.314 465.399 162.475 471.765C155.503 470.661 153.209 470.79 145.987 468.626L145.705 468.061C145.016 467.293 134.203 460.026 132.823 459.149C128.898 456.867 125.911 456.219 127.283 451.217C129.705 450.162 130.804 449.771 133.349 449.061C130.107 446.297 129.381 445.378 127.724 441.497C128.487 438.541 130.896 437.667 133.659 437.29C136.603 438.011 139.679 439.551 142.46 440.832Z" fill="#6B8B38"/>
<path d="M153.348 450.987C156.939 450.115 160.003 450.404 163.478 451.626C165.046 452.862 166.619 454.152 168.276 455.262C165.092 460.568 162.314 465.399 162.475 471.765C155.503 470.661 153.209 470.79 145.987 468.626L145.705 468.061C144.79 463.324 144.359 461.966 146.618 457.65L147.443 456.428C147.958 455.689 148.899 454.626 149.499 453.902L150.616 452.91L153.017 451.161L153.348 450.987Z" fill="#E37773"/>
<path d="M146.802 435.826C149.587 440.025 152.558 445.304 153.26 450.374L153.317 450.757L153.348 450.987L153.017 451.161C152.78 450.999 152.438 450.796 152.377 450.569C151.171 446.105 147.728 439.896 146.802 435.826Z" fill="#516731"/>
<path d="M149.499 453.902C146.131 449.538 143.912 449.047 141.248 446.161L141.434 445.749C142.574 445.893 149.396 451.755 150.616 452.91L149.499 453.902Z" fill="#516731"/>
<path d="M146.618 457.65C144.962 456.746 142.316 456.784 141.275 455.294C142.479 455.209 145.706 456.257 147.443 456.428L146.618 457.65Z" fill="#516731"/>
<path d="M156.332 438.509C156.51 438.603 156.863 438.733 156.911 438.927C157.514 441.327 157.615 448.308 157.407 450.586C156.789 450.386 156.735 450.342 156.152 450.054C156.18 446.205 156.24 442.357 156.332 438.509Z" fill="#516731"/>
<path d="M118.253 469.501C119.467 469.365 127.831 472.177 129.996 472.578C137.6 473.988 146.292 475.596 153.929 476.426C186.101 480.098 218.554 480.639 250.83 478.042C257.619 477.471 265.899 477.012 272.497 476.026C279.952 474.951 287.348 473.511 294.665 471.712C295.878 471.421 298.001 470.69 299.084 471.17C292.33 474.751 284.748 480.236 277.296 481.97C264.318 484.803 252.149 486.036 238.858 486.749C206.637 488.471 172.688 488.233 141.046 481.528C135.45 480.342 123.625 472.722 118.253 469.501Z" fill="#D3CCCB"/>
<path d="M176.549 418.826C185.554 417.233 192.34 416.541 199.874 422.639C200.49 423.239 201.433 424.223 202.103 424.67C202.669 425.833 202.841 426.234 203.603 427.253C206.067 431.728 196.782 432.511 196.641 437.696C196.566 440.411 197.327 443.29 197.217 445.634C189.906 443.158 186.431 442.74 179.008 446.126C178.183 446.503 176.877 447.304 176.137 447.627L175.704 447.978C173.997 449.108 169.19 453.501 168.276 455.262C166.619 454.152 165.046 452.862 163.478 451.626C163.804 450.966 164.098 450.236 164.39 449.556C164.669 448.122 164.72 447.089 165.554 445.905L167.266 445.634C164.543 443.031 160.404 439.666 160.444 435.544C160.455 434.348 160.556 431.51 160.244 430.544C162.296 427.847 162.002 427.253 164.832 424.985L165.949 424.762C166.589 425.144 166.541 425.262 166.971 425.886C169.81 425.724 170.093 422.553 173.7 422.333L173.365 422.076C174.365 420.728 175.034 420.554 176.53 421.125C176.434 420.537 176.524 419.465 176.549 418.826Z" fill="#ECA853"/>
<path d="M165.554 445.905C168.337 446.673 170.072 447.778 172.881 447.881C174.284 447.551 174.328 447.577 175.704 447.978C173.997 449.108 169.19 453.501 168.276 455.262C166.619 454.152 165.046 452.862 163.478 451.626C163.804 450.966 164.098 450.236 164.39 449.556C164.669 448.122 164.72 447.089 165.554 445.905Z" fill="#CAA368"/>
<path d="M165.554 445.905C168.337 446.673 170.072 447.778 172.881 447.881L173.004 448.537C170.363 449.323 170.085 446.067 164.39 449.556C164.669 448.122 164.72 447.089 165.554 445.905Z" fill="#F1BC79"/>
<path d="M173.365 422.076C174.365 420.728 175.034 420.554 176.53 421.125C177.456 424.258 177.602 433.895 174.593 435.479L174.046 435.288C173.304 432.829 176.565 424.871 174.473 422.686L173.7 422.333L173.365 422.076Z" fill="#F1BC79"/>
<path d="M199.874 422.639C200.49 423.239 201.432 424.223 202.103 424.67C202.669 425.833 202.841 426.234 203.603 427.253C203.486 427.376 202.994 427.691 202.832 427.803C200.678 427.703 198.216 426.846 198.066 424.358C198.599 423.257 198.705 423.451 199.874 422.639Z" fill="#F1BC79"/>
<path d="M167.266 445.634C169.366 446.367 175.579 447.283 176.137 447.627L175.704 447.978C174.328 447.577 174.284 447.551 172.881 447.881C170.072 447.778 168.337 446.673 165.554 445.905L167.266 445.634Z" fill="#C98958"/>
<path d="M184.526 432.688C186.524 429.882 186.752 431.369 188.911 429.637C189.357 429.281 188.16 428.148 189.731 427.562L190.268 427.732C190.437 428.366 190.527 428.781 190.64 429.425C192.187 430.135 193.261 429.055 194.692 429.696L194.769 430.197C192.945 431.466 188.637 431.911 185.998 433.418L185.678 433.789C185.304 433.509 184.867 433.029 184.526 432.688Z" fill="#F1BC79"/>
<path d="M192.282 432.028C197.077 432.602 194.589 436.354 193.073 438.868C192.644 439.613 192.518 439.993 191.782 440.443C191.127 439.636 192.317 433.93 192.282 432.028Z" fill="#F1BC79"/>
<path d="M184.065 434.631C182.923 435.249 181.742 436.18 180.491 435.6L180.641 434.979C181.534 433.895 183.209 433.147 184.526 432.688C184.867 433.029 185.304 433.509 185.678 433.789C184.896 434.687 185.382 434.36 184.065 434.631Z" fill="#F1BC79"/>
<path d="M185.998 433.418C186.373 435.246 186.77 436.003 186.233 437.687L185.859 437.941C184.613 436.268 185.646 435.117 184.065 434.631C185.382 434.36 184.896 434.687 185.678 433.789L185.998 433.418Z" fill="#CAA368"/>
<path d="M219.914 415.714C220.409 416.332 220.777 416.818 221.351 417.38C224.225 416.897 226.925 411.762 230.973 414.998C231.892 415.734 233.464 417.887 234.338 417.418C238.41 415.234 241.455 416.7 242.5 421.779C245.545 422.433 248.371 423.484 248.96 426.982C243.548 426.346 238.36 426.146 232.931 427.276C231.942 427.482 230.864 428.251 229.769 428.607C227.525 427.482 226.822 428.666 225.017 427.668C224.124 429.54 223.727 429.764 224.746 431.581C221.13 434.867 216.404 439.896 212.415 442.248C211.96 442.516 211.212 442.816 210.773 443.108L210.436 443.096L209.066 443.973C207.895 444.789 204.444 447.15 203.486 448.146C202.024 447.975 201.764 447.954 200.429 447.357C199.592 446.818 198.141 446.117 197.217 445.634C197.327 443.29 196.566 440.411 196.641 437.696C196.782 432.511 206.067 431.728 203.603 427.253C202.841 426.234 202.669 425.833 202.103 424.67C203.681 422.73 203.757 422.459 206.197 421.914C208.261 418.891 212.165 415.929 215.789 415.143C217.035 414.872 218.692 415.34 219.914 415.714Z" fill="#91AE48"/>
<path d="M213.086 422.439C216.29 423.248 216.949 423.734 219.599 425.53C220.005 426.687 220.844 429.002 222.046 429.34C223.374 428.401 223.35 427.962 225.017 427.668C224.124 429.54 223.727 429.764 224.746 431.581C221.13 434.867 216.404 439.896 212.415 442.248C211.96 442.516 211.212 442.816 210.772 443.108L210.436 443.096L209.066 443.973C207.895 444.789 204.444 447.15 203.486 448.146C202.024 447.975 201.764 447.954 200.429 447.357C201.121 444.333 202.642 444.412 202.865 442.728C200.503 438.447 203.605 436.736 207.029 435.373C209.088 431.675 212.647 432.682 216.219 433.265L218.315 429.676C217.04 425.524 216.145 425.353 213.086 422.439Z" fill="#6B8B38"/>
<path d="M208.5 441.232C208.969 440.673 209.168 440.249 209.475 439.595L210.187 439.233C210.949 440.081 210.595 441.123 210.236 442.08L210.772 443.108L210.436 443.096C209.955 442.225 209.296 441.842 208.5 441.232Z" fill="#617A37"/>
<path d="M208.5 441.232C209.296 441.842 209.955 442.225 210.436 443.096L209.066 443.973C208.508 443.605 208.224 443.326 207.727 442.893C207.662 441.892 207.636 442.251 208.5 441.232Z" fill="#516731"/>
<path d="M229.68 420.557C230.543 420.675 230.219 420.466 230.767 421.014C230.387 421.894 230.001 422.771 229.607 423.649L229.024 423.758L228.152 423.057C226.922 423.131 226.353 424.214 224.384 424.862C223.565 424.712 223.877 424.918 223.332 424.411C224.61 423.178 225.202 422.336 227.131 422.45C228.936 422.556 228.891 421.92 229.68 420.557Z" fill="#617A37"/>
<path d="M116.271 397.223C121.405 400.636 124.907 400.097 129.664 396.314C130.234 398.56 130.322 408.471 130.436 411.344C130.735 417.601 131.103 423.858 131.543 430.106C131.624 431.425 131.729 435.988 132.094 436.987C132.754 437.16 132.982 437.21 133.659 437.29C130.896 437.667 128.487 438.541 127.724 441.497C125.639 441.918 117.495 441.748 114.851 441.756C114.744 431.118 114.357 420.534 114.179 409.905C114.393 407.443 114.153 402.476 114.271 399.496C114.761 398.613 115.544 397.942 116.271 397.223Z" fill="#FDEBC4"/>
<path d="M290.378 419.353C295.846 422.047 300.978 425.439 306.442 428.103C306.425 429.723 306.322 433.383 306.516 434.884L306.46 441.639C301.163 441.883 295.098 441.68 289.654 441.818L289.636 437.955C289.704 434.496 289.766 421.915 290.378 419.353Z" fill="#FDEBC4"/>
<path d="M263.028 433.489C263.702 432.691 263.991 432.358 264.53 431.475C269.126 433.032 273.021 432.926 273.89 438.317C272.282 438.111 270.674 438.273 268.716 438.02C267.515 437.39 266.337 436.554 265.201 435.797C264.488 434.928 264.182 434.301 263.084 434.198L262.233 434.934C262.477 434.139 262.516 434.163 263.028 433.489Z" fill="#E37773"/>
<path d="M265.201 435.797L265.643 435.367C267.633 436.153 269.311 435.358 271.21 436.957L271.237 437.472C270.248 438.141 270.118 437.923 268.716 438.02C267.515 437.39 266.337 436.554 265.201 435.797Z" fill="#F1ADA2"/>
<path d="M172.55 420.537C173.601 419.895 175.354 419.288 176.549 418.826C176.524 419.465 176.434 420.537 176.53 421.125C175.034 420.554 174.365 420.728 173.365 422.076L173.7 422.333C170.093 422.553 169.81 425.724 166.971 425.886C166.541 425.262 166.589 425.144 165.949 424.762L164.832 424.985C167.934 422.633 168.941 422.091 172.55 420.537Z" fill="#F1BC79"/>
</g>
<defs>
<clipPath id="clip0_1_285">
<rect width="440" height="603" fill="white"/>
</clipPath>
</defs>
</svg>
