<svg width="75" height="75" viewBox="0 0 75 75" fill="none" xmlns="http://www.w3.org/2000/svg">
<g clip-path="url(#clip0_8_198)">
<path d="M7.74595 40.1915C7.73724 40.1592 7.72911 40.1269 7.72171 40.0943C5.74703 31.5881 18.5428 27.1775 24.8308 25.7139C35.1829 23.3044 46.7543 23.3321 56.9633 26.4067C58.1283 26.7575 60.1594 27.4269 61.1681 28.0721C63.9941 29.5916 67.0594 31.6043 67.4442 35.0953L67.4911 35.5399C67.6343 36.4491 67.3808 37.089 67.2755 38.006C66.717 41.0844 65.2665 42.9875 62.7487 44.8946C61.3231 45.8374 59.5946 46.9238 58.0023 47.5342C47.8048 51.4438 36.1182 51.6991 25.4326 50.0373C20.3684 49.2496 8.55257 46.189 7.74595 40.1915Z" fill="#FEE3DE"/>
<path d="M67.2754 38.006C66.7169 41.0844 65.2664 42.9875 62.7486 44.8946C61.3229 45.8374 59.5945 46.9238 58.0022 47.5342C47.8047 51.4438 36.1181 51.6991 25.4325 50.0373C20.3683 49.2496 8.55247 46.189 7.74585 40.1915C10.1151 44.953 17.5429 47.425 22.4604 48.3742C34.6744 50.732 48.5623 50.2157 59.9792 44.9376C61.6647 44.145 64.8867 41.9115 65.8627 40.4295L66.1444 40.0179C66.345 39.7901 66.4814 39.518 66.6286 39.2521C66.737 38.995 66.9362 38.6512 67.0733 38.398L67.2754 38.006Z" fill="#BC443C"/>
<path d="M61.168 28.0721C63.9939 29.5916 67.0592 31.6043 67.444 35.0954L67.491 35.54L66.9613 35.024C66.9147 35.384 66.5982 36.9339 66.368 37.1416C66.1825 37.0617 66.126 37.0509 66.0233 36.8812C66.1135 36.0645 65.8095 34.5728 65.5731 33.7877C65.444 33.6765 65.4241 33.6537 65.3304 33.5112C65.3385 33.3261 65.3524 33.2972 65.431 33.127L65.4518 33.0831C65.3385 32.8204 65.3932 32.8415 65.1861 32.7C65.0523 32.7583 64.94 32.8037 64.8026 32.8529C64.4628 32.6623 64.4911 32.1494 64.07 31.8646C63.976 31.801 63.2305 31.1362 63.208 31.0464C63.1079 30.647 62.9372 30.2602 63.0908 29.8375C62.5852 29.4525 61.4751 28.5943 61.168 28.0721Z" fill="#FEFAFA"/>
<path d="M61.168 28.0721C63.9939 29.5916 67.0592 31.6043 67.444 35.0954C67.3679 34.9856 67.1828 34.8407 67.1342 34.7299C66.3356 32.9103 64.6472 31.0178 63.0908 29.8375C62.5852 29.4525 61.4751 28.5943 61.168 28.0721Z" fill="#F1C0BC"/>
<path d="M66.6287 39.2522L66.4005 39.1608C66.135 39.2693 66.0332 39.5404 65.8644 39.8007L65.7341 39.8084L65.6995 39.6789C65.7962 39.3293 65.9806 38.5164 66.1812 38.2666C66.4447 38.1313 66.3268 38.161 66.646 38.1791C66.7917 38.3031 66.8466 38.3188 67.0208 38.3799L67.0734 38.3981C66.9362 38.6513 66.7371 38.9951 66.6287 39.2522Z" fill="#FEFAFA"/>
<path d="M65.8628 40.4295C65.7257 40.3409 65.7698 40.375 65.6904 40.2096C65.7603 40.0134 65.8733 39.8673 66.0929 39.8447L66.1445 40.0179L65.8628 40.4295Z" fill="#FEFAFA"/>
<path d="M35.8052 26.1336C37.4809 26.0298 39.3885 26.9318 40.8808 26.8732C41.252 26.8696 42.5938 26.7462 42.8144 26.9304C42.9521 27.0454 43.3369 27.94 43.4686 28.059L43.73 27.936C44.1136 27.614 44.5797 27.4957 45.0506 27.3616C45.6649 27.5397 46.503 27.8039 47.1197 27.9358C47.8158 28.085 49.9295 27.7736 50.3764 28.6114C50.604 29.0381 50.6187 29.9132 50.8544 30.4871C51.0304 30.8195 51.0843 30.9555 51.3626 31.201C51.6118 30.9355 51.9319 30.6147 52.2469 30.4395L52.302 30.4018C53.2392 29.932 56.6746 30.3221 57.8092 30.6175C58.547 30.8096 59.1907 31.6923 59.5286 32.3712C59.5835 32.4823 59.6344 32.5956 59.681 32.7105C60.1211 33.7843 60.1322 34.2662 59.8772 35.392L59.7052 35.9041L59.5823 36.1896C59.8254 36.3425 61.5617 36.6287 62.0851 36.8063C62.7195 36.9487 64.0309 37.229 64.54 37.6565C64.5314 37.6823 64.4579 37.7204 64.426 37.7412L64.488 37.6404C64.2322 37.8304 63.6759 37.7416 63.3753 37.6595C61.8941 37.6412 60.6574 37.3042 59.194 37.0801C58.9872 37.8371 58.8225 38.4815 58.299 39.0984C58.3027 40.2494 56.4551 41.1665 56.4814 41.8688C56.6918 41.9578 57.0567 42.0502 57.1295 42.2666L57.069 42.436C56.7925 42.5408 56.2552 42.3812 55.9533 42.3136C54.8297 42.4398 51.9343 44.6392 50.509 45.0119C49.9303 45.1632 48.5413 45.4999 48.1711 45.8633C48.3346 46.0565 48.3718 46.0301 48.3624 46.235C48.1468 46.3111 47.8873 46.1969 47.6587 46.1318C46.2283 46.1004 44.9979 46.7055 43.6318 46.9804C42.8831 47.1311 39.3963 47.734 38.8668 47.5111C38.4099 47.8523 38.1089 48.0481 37.5222 47.9676C37.448 47.9571 37.374 47.9449 37.3004 47.9307C36.6437 47.8766 34.7947 47.598 34.0865 47.4949C33.3664 48.0177 28.1046 47.3955 26.8674 47.224C25.9642 47.4639 24.6891 47.2832 23.7878 47.1002C23.295 46.9623 23.191 46.9305 22.7431 46.6686C22.5564 46.7058 22.2099 46.7206 22.0088 46.7348C20.7389 47.0607 18.7247 46.9732 18.2666 45.4886C17.6242 44.5897 19.6199 43.6431 20.2025 43.3765C20.3227 43.1274 20.3417 43.0614 20.565 42.893L20.0869 42.8292L19.866 42.6908C19.4065 42.5394 19.0211 42.4239 18.5527 42.3031L18.1396 42.1734C15.6769 41.3213 16.6308 39.8189 16.0803 37.8468L16.0689 37.8073C15.9644 37.3644 15.951 37.0061 15.812 36.4784L15.9211 36.2278C15.8642 36.0486 15.8341 35.9323 15.8316 35.7409C16.113 35.3151 16.1598 35.2678 16.584 34.965L17.2224 34.2258C17.6823 33.7858 18.0202 33.5381 18.5983 33.274C18.8666 33.1284 19.213 33.1522 19.5241 33.1453C19.8713 32.9184 20.334 32.8005 20.7326 32.6837C20.9607 32.726 21.161 32.7718 21.3863 32.8261C21.6332 32.5103 23.0563 31.9392 23.6051 31.5004C23.9571 31.6007 24.4361 31.6884 24.6802 31.9494C24.8923 31.7877 25.1521 31.5089 25.3459 31.3135C25.1839 31.1295 25.1571 31.0941 24.9282 30.9843C25.3057 30.5988 25.5385 30.5251 26.0222 30.6571C26.665 30.0449 27.2129 29.3731 28.1042 29.2906C28.5248 29.156 29.0049 29.3258 29.322 29.1138L29.3119 28.9174C28.4087 28.7885 26.224 28.2733 25.526 27.8752L25.48 27.6949C25.7968 27.0019 29.5082 28.1753 30.2669 28.38C30.9402 28.4038 32.1117 27.496 33.4736 27.4755L34.198 26.9839C34.6097 26.6184 35.2804 26.294 35.8052 26.1336Z" fill="#E79430"/>
<path d="M33.0438 37.1692C33.5328 37.2644 34.9074 37.6067 34.9186 38.2015C34.7195 38.4979 34.264 38.735 33.9726 38.9874C34.0225 40.7622 33.7086 41.484 32.8715 43.0548C32.2537 44.2138 32.8829 43.8825 33.6179 44.6416C34.2539 45.122 34.6222 45.146 35.4013 45.2684C36.0196 45.4858 37.2164 47.3439 37.3004 47.9308C36.6437 47.8767 34.7947 47.5981 34.0865 47.4949C33.3664 48.0178 28.1046 47.3956 26.8674 47.224C27.5725 47.1562 28.0907 46.6871 28.588 46.2155C28.7316 45.8571 28.7328 45.7754 28.7492 45.3852C28.9745 45.1699 29.5115 45.1053 29.8638 45.0099C29.5542 44.7661 29.6446 43.9264 29.3748 43.2525C29.6654 42.9546 29.8839 42.7451 30.1203 42.3964C30.8398 41.4853 32.266 39.8154 33.1512 39.1279C33.336 38.8688 33.8006 38.9953 33.7118 38.492C33.6331 38.0463 33.3005 37.5268 33.0438 37.1692Z" fill="#D9731C"/>
<path d="M31.5962 44.6407C31.7678 45.3694 32.0108 45.7645 32.3884 46.4037C33.0129 47.029 33.2655 47.1606 34.0865 47.4949C33.3664 48.0178 28.1046 47.3955 26.8674 47.224C27.5725 47.1562 28.0907 46.6871 28.588 46.2155C28.7316 45.8571 28.7328 45.7754 28.7492 45.3852C28.9745 45.1698 29.5115 45.1053 29.8638 45.0099C30.424 44.9511 31.065 44.8277 31.5962 44.6407Z" fill="#E3C6C7"/>
<path d="M31.5961 44.6407C31.7676 45.3694 32.0106 45.7645 32.3883 46.4037C31.7704 46.7829 29.4712 46.1679 28.5879 46.2155C28.7314 45.8571 28.7326 45.7754 28.7491 45.3852C28.9743 45.1698 29.5113 45.1053 29.8637 45.0099C30.4239 44.9511 31.0649 44.8277 31.5961 44.6407Z" fill="#F1C0BC"/>
<path d="M33.1511 39.1279C33.1089 39.494 30.7354 42.5872 30.1201 42.3964C30.8396 41.4853 32.2658 39.8155 33.1511 39.1279Z" fill="#522303"/>
<path d="M23.0418 42.8274C23.8828 43.0859 23.7997 42.4505 24.7608 43.2824C24.7475 43.2708 26.4802 43.5922 26.7936 43.7126C27.3587 44.016 27.9588 44.3259 28.4034 44.795L28.4975 45.1271L28.7491 45.3852C28.7326 45.7754 28.7315 45.8571 28.5879 46.2155C28.0906 46.687 27.5723 47.1562 26.8673 47.224C25.9641 47.4639 24.689 47.2832 23.7877 47.1002C23.2949 46.9624 23.1909 46.9306 22.743 46.6686C22.5564 46.7058 22.2098 46.7207 22.0087 46.7349C20.7389 47.0607 18.7246 46.9732 18.2666 45.4886C17.6241 44.5897 19.6198 43.6432 20.2024 43.3765C20.3226 43.1274 20.3417 43.0614 20.5649 42.893C20.8494 42.9932 20.9762 43.0593 21.2711 43.0163C21.7008 42.8447 22.5526 42.8422 23.0418 42.8274Z" fill="#EDEC96"/>
<path d="M28.4034 44.795L28.4975 45.1271L28.7492 45.3852C28.7327 45.7755 28.7316 45.8571 28.588 46.2156C28.0907 46.6871 27.5724 47.1562 26.8674 47.224C25.9642 47.464 24.6891 47.2833 23.7878 47.1003C23.7583 46.7165 23.7447 46.7372 23.9209 46.4603L24.0542 46.3163L24.2139 46.2668C24.5283 46.2851 24.5746 46.4379 24.8893 46.4774C26.1118 46.6306 26.2735 46.5231 27.326 46.1794L27.717 45.9979C28.0995 45.6002 28.3101 45.4463 28.0656 44.8944L28.4034 44.795Z" fill="#F0D027"/>
<path d="M28.4035 44.795L28.4976 45.1271C28.4595 45.5608 28.467 45.7145 28.116 46.0095C27.3325 46.6677 26.1166 46.8639 25.1177 46.7875C24.8586 46.7677 24.1087 46.6456 23.9209 46.4603L24.0543 46.3163L24.2139 46.2668C24.5284 46.2851 24.5747 46.4379 24.8893 46.4774C26.1118 46.6306 26.2735 46.5231 27.326 46.1794L27.717 45.9979C28.0995 45.6002 28.3102 45.4463 28.0656 44.8944L28.4035 44.795Z" fill="#F8F8BD"/>
<path d="M27.2985 45.1803C27.4074 45.1736 27.5462 45.1445 27.657 45.125C27.795 44.9944 27.8256 45.0135 27.8377 44.8732L27.9377 44.8121L28.0655 44.8944C28.3101 45.4463 28.0994 45.6001 27.7169 45.9978L27.3259 46.1793C26.2734 46.5231 26.1117 46.6306 24.8892 46.4774C24.5746 46.4379 24.5283 46.285 24.2138 46.2667C24.1959 46.275 25.3162 45.5725 25.3259 45.5656C25.4828 45.6614 25.5314 45.678 25.7064 45.7364C25.9109 45.6571 25.8359 45.7058 25.9881 45.5185L25.8312 45.2192L26.2297 44.924C26.6664 45.1076 26.8266 45.1657 27.2985 45.1803Z" fill="#D6DF55"/>
<path d="M26.0615 45.5047C26.2642 45.453 26.3587 45.4104 26.5594 45.4836C27.0862 45.6367 27.3673 45.8822 27.7169 45.9978L27.3258 46.1793C27.0314 45.9388 26.3023 45.9137 26.0615 45.5047Z" fill="#EDEC96"/>
<path d="M24.3566 45.315C24.9633 45.3123 24.6618 45.1842 25.1528 45.0709C25.1993 45.3881 25.1479 45.3328 25.3259 45.5656C25.3162 45.5726 24.1959 46.275 24.2138 46.2667L24.0542 46.3163L23.9208 46.4603C23.7446 46.7372 23.7582 46.7165 23.7877 47.1002C23.2949 46.9624 23.1909 46.9306 22.743 46.6686C22.5563 46.7058 22.2098 46.7207 22.0087 46.7349C22.1557 46.6197 22.1772 46.6152 22.2352 46.4462C22.0248 46.3242 21.8021 46.3634 21.5312 46.3583C22.6513 46.1756 23.4359 45.9969 24.3566 45.315Z" fill="#F0D027"/>
<path d="M22.7429 46.6686C23.17 46.4844 23.6438 46.1649 24.0541 46.3162L23.9207 46.4602C23.7446 46.7371 23.7581 46.7164 23.7876 47.1002C23.2949 46.9623 23.1909 46.9305 22.7429 46.6686Z" fill="#EDD525"/>
<path d="M24.9597 43.8272L24.9607 43.6945C25.3911 43.5385 25.4913 44.0118 25.9396 43.6326C26.178 43.6838 26.4981 43.8845 26.6097 44.1064C26.4372 44.4535 25.998 44.3421 25.8967 44.6821C26.0237 44.8356 26.0454 44.8474 26.2298 44.924L25.8313 45.2192L25.9882 45.5185C25.836 45.7058 25.911 45.6571 25.7065 45.7365C25.5315 45.678 25.4829 45.6614 25.326 45.5656C25.148 45.3327 25.1994 45.388 25.1529 45.0709C24.662 45.1841 24.9634 45.3122 24.3567 45.3149C24.4534 45.2278 24.5472 45.1373 24.6376 45.0437C24.9982 44.6626 24.979 44.3205 24.9597 43.8272Z" fill="#C5D72B"/>
<path d="M24.9597 43.8273C25.7219 44.5401 25.1587 44.7599 25.8313 45.2192L25.9882 45.5185C25.836 45.7058 25.911 45.6572 25.7065 45.7365C25.5315 45.678 25.4829 45.6614 25.326 45.5656C25.148 45.3328 25.1994 45.3881 25.1529 45.0709C24.662 45.1842 24.9634 45.3123 24.3567 45.315C24.4534 45.2278 24.5472 45.1374 24.6376 45.0437C24.9982 44.6627 24.979 44.3205 24.9597 43.8273Z" fill="#EDD525"/>
<path d="M18.2666 45.4887L18.4234 45.4106C18.8646 45.6844 18.9884 45.9886 19.4832 46.1489C20.1995 46.381 20.7898 46.3582 21.5313 46.3583C21.8021 46.3635 22.0248 46.3242 22.2352 46.4462C22.1772 46.6153 22.1558 46.6197 22.0088 46.7349C20.7389 47.0608 18.7247 46.9733 18.2666 45.4887Z" fill="#EDD525"/>
<path d="M21.8818 44.7554C22.2278 44.4174 21.6425 43.429 22.2089 42.9638C22.7156 42.8568 23.3361 43.219 24.0975 43.3186C24.3062 43.4943 24.2472 43.4952 24.3141 43.8307C25.4167 44.5572 23.1386 45.8007 22.5222 45.7445L22.2742 45.8594C21.8558 45.9899 21.6998 45.9816 21.2703 45.9884L20.9971 45.8123C21.2637 45.3763 21.4414 45.0462 21.8818 44.7554Z" fill="#C5D72B"/>
<path d="M19.2603 45.6782C18.2336 44.9195 19.3698 44.0322 20.0604 43.5891C20.4895 44.0582 20.5417 44.2875 21.1619 44.0548C21.3865 43.8709 21.2954 43.8964 21.5341 43.8754C21.6952 44.0051 21.6984 44.0757 21.7475 44.2751C21.3113 44.6853 21.5153 44.9125 21.0597 45.3222L20.8356 45.6338C20.9025 45.7963 20.8473 45.7417 20.9971 45.8123L21.2704 45.9884C20.6467 46.0418 20.314 46.0898 19.7056 45.8873L19.2603 45.6782Z" fill="#D6DF55"/>
<path d="M21.1621 44.0549C21.3867 43.871 21.2956 43.8965 21.5343 43.8755C21.6954 44.0052 21.6986 44.0757 21.7477 44.2752C21.3115 44.6853 21.5155 44.9126 21.0598 45.3222L20.6592 45.2384C20.7626 45.0551 20.897 44.8489 21.0091 44.6677L21.1621 44.0549Z" fill="#C5D72B"/>
<path d="M21.162 44.0548C20.8809 43.9663 20.7339 43.9454 20.5516 43.7154L20.5073 43.5203C20.9371 42.8572 21.9217 43.121 21.7477 44.2751C21.6985 44.0756 21.6954 44.0051 21.5343 43.8754C21.2956 43.8964 21.3867 43.8709 21.162 44.0548Z" fill="#D6DF55"/>
<path d="M48.9532 39.3967C49.6043 38.8284 50.4194 38.6322 50.9551 37.9927C51.3371 37.5367 51.1277 36.8139 51.7615 36.3201C51.987 36.2749 51.8943 36.2658 52.1116 36.3612C52.1253 36.5327 51.7646 36.8675 51.5957 37.0926L51.6422 37.1713C51.7952 37.1313 51.8016 37.1265 51.9459 37.1778C52.2604 37.5836 52.5597 38.4929 52.7234 39.0006C53.442 39.5716 53.9244 39.8859 54.315 40.7371C54.8622 40.4218 55.3459 40.2337 55.9431 40.0429C56.8571 39.8733 57.5276 39.594 58.2991 39.0985C58.3028 40.2495 56.4552 41.1666 56.4815 41.869C56.6918 41.9579 57.0568 42.0503 57.1295 42.2667L57.069 42.4361C56.7925 42.5409 56.2552 42.3813 55.9534 42.3137L55.8966 42.2667C54.8162 42.1709 53.7085 41.9593 52.6551 41.7093C52.6551 41.7093 52.5227 41.7651 52.5099 41.7704C51.4902 42.6 50.1613 43.4735 49.0664 44.2967L48.9619 44.1925C48.6953 42.9294 48.5483 40.6052 48.9532 39.3967Z" fill="#D9731C"/>
<path d="M55.9431 40.0428C56.857 39.8732 57.5275 39.5939 58.299 39.0984C58.3027 40.2494 56.4551 41.1665 56.4814 41.8689C56.6918 41.9578 57.0567 42.0502 57.1295 42.2666L57.069 42.436C56.7925 42.5408 56.2552 42.3812 55.9533 42.3136L55.8966 42.2666C55.0169 41.7172 53.4594 41.4308 52.7363 41.0834L52.876 40.8376L52.857 40.7797C53.2435 40.6002 53.6403 41.0672 54.315 40.737C54.8622 40.4217 55.3459 40.2336 55.9431 40.0428Z" fill="#E3C6C7"/>
<path d="M52.876 40.8376C53.1171 41.0345 56.5173 42.0296 57.1295 42.2667L57.069 42.4361C56.7925 42.5408 56.2552 42.3812 55.9533 42.3136L55.8966 42.2667C55.0169 41.7172 53.4594 41.4308 52.7363 41.0834L52.876 40.8376Z" fill="#EEA848"/>
<path d="M50.4585 40.7458C51.0269 40.6337 51.3006 40.8701 51.9157 40.7249C52.2386 40.8997 52.3889 40.962 52.7362 41.0834C53.4592 41.4308 55.0167 41.7172 55.8964 42.2667C54.816 42.1708 53.7083 41.9593 52.6549 41.7092C52.6549 41.7092 52.5225 41.765 52.5097 41.7704C51.9898 41.27 50.8066 41.8286 50.4585 40.7458Z" fill="#FDBB6D"/>
<path d="M50.4585 40.7458C50.8116 39.8986 51.3451 40.3314 51.9157 40.7249C51.3006 40.8701 51.0269 40.6336 50.4585 40.7458Z" fill="#E79430"/>
<path d="M59.6809 32.7106C60.121 33.7844 60.1321 34.2662 59.8771 35.3921L59.7052 35.9042L59.5822 36.1896C59.8254 36.3426 61.5616 36.6288 62.085 36.8064C62.7194 36.9487 64.0308 37.229 64.54 37.6566C64.5313 37.6824 64.4578 37.7205 64.4259 37.7413L64.4879 37.6405C64.2321 37.8305 63.6758 37.7417 63.3753 37.6596C61.894 37.6413 60.6573 37.3043 59.1939 37.0802C58.9871 37.8372 58.8225 38.4816 58.2989 39.0985C57.5275 39.5939 56.8569 39.8733 55.943 40.0429L55.8435 40.0015C55.7176 39.8729 55.3487 38.2835 55.269 37.992C55.6185 37.7605 56.0965 37.4619 56.3915 37.1745C57.5803 36.0162 58.3726 33.6413 59.6809 32.7106Z" fill="#D9731C"/>
<path d="M59.5822 36.1896C59.8254 36.3425 61.5617 36.6287 62.085 36.8063C62.7194 36.9487 64.0308 37.229 64.54 37.6565C64.5313 37.6823 64.4578 37.7204 64.4259 37.7412L64.4879 37.6404C64.2321 37.8304 63.6758 37.7416 63.3753 37.6595C61.894 37.6412 60.6573 37.3042 59.194 37.0801C58.8821 37.0894 57.9641 37.0016 57.7979 36.7601C57.7706 36.5192 57.7582 36.4692 57.8552 36.235C58.2979 36.0778 59.3007 36.6235 59.5822 36.1896Z" fill="#FDBB6D"/>
<path d="M62.085 36.8064C62.7194 36.9487 64.0308 37.229 64.54 37.6566C64.5313 37.6824 64.4578 37.7205 64.4259 37.7413L64.4879 37.6405C64.2321 37.8305 63.6758 37.7416 63.3753 37.6596C63.0477 37.5302 62.2306 37.1561 62.0249 36.8951L62.085 36.8064Z" fill="#EEA848"/>
<path d="M52.5099 41.7704C52.5227 41.765 52.6551 41.7092 52.6551 41.7092C53.7085 41.9593 54.8162 42.1708 55.8966 42.2667L55.9534 42.3136C54.8298 42.4398 51.9343 44.6393 50.5091 45.0119C49.9303 45.1633 48.5414 45.5 48.1711 45.8633C48.3347 46.0566 48.3719 46.0302 48.3624 46.2351C48.1469 46.3112 47.8873 46.1969 47.6588 46.1318L47.4863 46.0906C46.9277 45.7822 46.2271 45.5093 45.6305 45.2594C45.7625 45.2493 45.895 45.1625 46.0155 45.0985C45.3948 44.8715 42.3552 43.9645 42.1006 43.8038C42.2797 43.3488 42.3533 43.1093 42.471 42.6349C43.0346 43.0898 43.2829 43.1716 43.9587 43.3579L44.5916 43.5613C44.945 43.6278 45.285 43.7399 45.6288 43.845C45.8304 43.917 46.0322 43.9879 46.2344 44.0578C46.461 44.1274 46.8137 44.248 47.0349 44.2959C47.7514 44.4197 48.4625 44.7355 49.0664 44.2967C50.1613 43.4734 51.4902 42.5999 52.5099 41.7704Z" fill="#E3C6C7"/>
<path d="M46.0153 45.0985C46.3342 45.22 47.9489 45.8641 48.171 45.8633C48.3345 46.0566 48.3718 46.0302 48.3623 46.2351C48.1468 46.3112 47.8872 46.1969 47.6587 46.1318L47.4862 46.0906C46.9276 45.7822 46.2269 45.5093 45.6304 45.2593C45.7624 45.2493 45.8948 45.1625 46.0153 45.0985Z" fill="#EEA848"/>
<path d="M16.0688 37.8074C18.6665 37.8819 21.3677 40.1009 21.2964 42.8395C21.2945 42.9138 21.2871 42.9444 21.2711 43.0164C20.9761 43.0594 20.8494 42.9933 20.5649 42.8931L20.0868 42.8293L19.8659 42.6909C19.4064 42.5395 19.021 42.424 18.5526 42.3032L18.1396 42.1735C15.6768 41.3214 16.6307 39.819 16.0802 37.8469L16.0688 37.8074Z" fill="#D9731C"/>
<path d="M19.866 42.6909C19.7722 41.6318 18.9789 39.6656 19.0924 39.1954L19.2083 39.2011C19.7173 39.9541 20.571 41.7922 20.4159 42.6785C20.2903 42.8241 20.3209 42.7787 20.0868 42.8293L19.866 42.6909Z" fill="#D25C10"/>
<path d="M18.1396 42.1735C18.0796 41.4663 17.77 40.7214 17.5678 40.0416C17.4663 39.7007 17.1057 39.1593 17.0994 38.8267C17.508 38.8504 18.6988 41.8443 18.6608 42.2318L18.5526 42.3032L18.1396 42.1735Z" fill="#D25C10"/>
<path d="M41.617 37.4174L41.7629 37.4203C41.6176 37.8269 41.4167 38.8216 41.9109 39.0362C42.0607 38.9688 42.164 38.9443 42.2469 38.8065C42.4171 39.1349 45.0517 40.2009 45.4806 40.332C45.5718 40.36 45.6644 40.3834 45.7579 40.4022C45.7148 40.5693 45.6849 40.5758 45.8122 40.7454C46.361 41.4764 47.4351 43.2429 47.2274 44.1848C47.1534 44.2342 47.1186 44.2657 47.0349 44.2959C46.8137 44.248 46.461 44.1274 46.2344 44.0579C46.0322 43.9879 45.8304 43.917 45.6288 43.8451C45.285 43.74 44.945 43.6279 44.5916 43.5614L43.9587 43.358C43.9706 42.8596 43.1018 40.7473 42.6794 40.3996L42.5972 40.1727C42.4284 39.6948 42.3189 39.6168 41.9422 39.2742C41.4214 39.2419 41.1468 39.2444 40.6495 39.4021C40.5804 39.3798 36.4744 38.0568 36.7084 38.2105C37.6002 37.9883 39.1802 38.5928 39.9876 38.9812C40.4838 38.552 40.9621 38.022 41.4943 37.6557C41.5858 37.5927 41.5697 37.5551 41.617 37.4174Z" fill="#D9731C"/>
<path d="M45.6287 43.8451C45.9139 42.8934 44.52 40.8795 44.7265 40.423C45.4803 40.549 46.2958 43.1808 46.3237 43.91C46.2903 43.9794 46.2856 44.0163 46.2342 44.0578C46.0321 43.9879 45.8302 43.917 45.6287 43.8451Z" fill="#D25C10"/>
<path d="M42.5972 40.1726L42.6811 40.0131C43.2672 39.9442 44.5412 42.9501 44.5916 43.5613L43.9587 43.3579C43.9706 42.8595 43.1018 40.7472 42.6794 40.3995L42.5972 40.1726Z" fill="#D25C10"/>
<path d="M40.8007 44.397C40.8845 44.2508 40.9607 44.0514 41.1338 44.0449C42.2744 44.0025 44.5945 44.8754 45.6303 45.2594C46.2269 45.5093 46.9275 45.7823 47.4861 46.0906L47.6586 46.1318C46.2282 46.1005 44.9978 46.7055 43.6317 46.9805C42.883 47.1312 39.3962 47.7341 38.8667 47.5111L38.9941 47.3424C39.5132 46.8315 39.9499 46.4139 40.5058 45.9357C40.9381 45.5423 41.143 45.2892 41.514 44.8322C41.159 44.6794 41.093 44.6455 40.8007 44.397Z" fill="#E3C6C7"/>
<path d="M40.8008 44.397C40.8846 44.2508 40.9607 44.0514 41.1338 44.0449C42.2744 44.0025 44.5946 44.8754 45.6304 45.2594C46.2269 45.5093 46.9276 45.7823 47.4862 46.0906C46.1057 45.9831 44.8575 45.5148 43.746 45.459C43.4456 45.2957 41.8106 44.77 41.514 44.8322C41.1591 44.6794 41.093 44.6455 40.8008 44.397Z" fill="#FDBB6D"/>
<path d="M41.514 44.8321C41.8107 44.7699 43.4457 45.2957 43.746 45.459C42.9668 45.8542 41.9892 46.0664 41.1157 46.1615C40.7867 46.1974 40.731 46.1516 40.5059 45.9357C40.9382 45.5423 41.1431 45.2891 41.514 44.8321Z" fill="#F1C0BC"/>
<path d="M23.0418 42.8274C22.873 42.0897 23.0713 40.8414 22.9481 39.9953C22.6592 38.0114 24.721 37.8093 25.8235 36.3306C26.0898 36.2307 25.9797 36.2364 26.2427 36.292C26.4002 36.4854 26.3655 36.3928 26.3752 36.6401C25.8437 37.8467 24.0431 38.0483 23.24 40.8142C24.133 41.1591 26.8684 42.5985 26.7936 43.7126C26.4801 43.5922 24.7474 43.2708 24.7608 43.2824C23.7997 42.4505 23.8828 43.0859 23.0418 42.8274Z" fill="#D9731C"/>
<path d="M29.3119 28.9174C28.4087 28.7885 26.224 28.2733 25.526 27.8753L25.48 27.6949C25.7968 27.0019 29.5082 28.1754 30.2669 28.3801C30.9402 28.4039 32.1117 27.4961 33.4736 27.4756C33.1197 27.9585 32.854 28.3453 32.6134 28.9005L32.4877 29.429C32.4662 29.5283 32.4181 29.7838 32.3892 29.8667L32.2706 29.8997L32.193 29.8519C31.5819 29.2122 30.1985 29.0048 29.3119 28.9174Z" fill="#FDBB6D"/>
<path d="M30.2668 28.3801C30.9401 28.4039 32.1116 27.4961 33.4735 27.4756C33.1196 27.9585 32.8539 28.3453 32.6133 28.9005C32.3486 28.9188 30.7058 28.4548 30.2668 28.3801Z" fill="#F1C0BC"/>
<path d="M48.38 32.3836C49.3248 32.7144 50.0988 30.5842 50.8542 30.4872C51.0303 30.8196 51.0841 30.9556 51.3625 31.2011C50.7972 31.8053 49.3223 33.4166 49.1764 34.1915C49.0905 34.2623 49.0148 34.3309 48.9208 34.39C48.6757 34.2241 48.0915 34.1012 47.7817 34.0204C47.8988 33.4941 47.9871 33.4015 47.6343 32.988C47.9112 32.8285 48.233 32.6623 48.38 32.3836Z" fill="#D9731C"/>
<path d="M42.6792 40.3995C43.1016 40.7473 43.9704 42.8596 43.9586 43.3579C43.2827 43.1716 43.0344 43.0899 42.4708 42.635C42.3531 43.1094 42.2795 43.3488 42.1004 43.8038C41.916 43.7406 41.1981 43.4871 41.1117 43.3934C41.082 43.2868 41.2973 42.3795 41.3205 41.9926C41.8447 41.4135 42.4365 41.2159 42.6792 40.3995Z" fill="#D9731C"/>
<path d="M39.3249 44.5319C39.7476 44.5445 40.2105 44.5563 40.5968 44.3715C40.6825 44.3306 40.6798 44.3548 40.8008 44.397C41.093 44.6455 41.1591 44.6794 41.514 44.8321C41.1431 45.2891 40.9382 45.5422 40.5059 45.9356C39.95 46.4138 39.5133 46.8315 38.9941 47.3423C38.6736 46.8742 38.4303 46.17 38.2566 45.6318C38.723 45.2141 38.9286 45.0134 39.3249 44.5319Z" fill="#D9731C"/>
<path d="M34.4893 31.6411C34.5565 31.7772 34.5725 31.8334 34.6809 31.936L34.5818 32.0483C34.6238 32.2308 34.77 32.5231 34.628 32.6168C33.4615 33.387 33.3345 34.6921 32.7822 35.8731C32.6665 36.1205 32.6965 36.6181 32.6011 36.7275C32.2628 36.6955 31.4653 36.6437 31.1926 36.5105L31.2632 36.3663C31.5815 36.0464 31.2213 35.8944 31.6885 35.2044C32.4057 35.0283 33.5282 33.0119 33.9479 32.4222L33.9824 32.3742C34.0744 32.4031 34.0349 32.3902 34.1531 32.3589C34.3451 32.1112 34.3869 31.9389 34.4893 31.6411Z" fill="#D9731C"/>
<path d="M31.1927 36.5105C30.0965 35.8382 26.6687 37.8755 26.0864 37.649C26.0663 36.9031 27.5501 36.0715 28.1839 35.883C28.9773 35.647 30.5624 35.9732 31.2633 36.3663L31.1927 36.5105Z" fill="#D9731C"/>
<path d="M23.605 31.5005C23.957 31.6008 24.436 31.6885 24.6801 31.9495C24.371 32.3041 24.1618 32.5762 23.8853 32.9569L23.6002 33.4596C23.3024 33.732 21.8373 32.9803 21.3862 32.8262C21.6331 32.5104 23.0562 31.9393 23.605 31.5005Z" fill="#F1C0BC"/>
<path d="M35.8052 26.1336C37.4809 26.0298 39.3885 26.9318 40.8808 26.8732L41.0101 26.9969C40.8762 27.2399 40.7599 27.2502 40.4882 27.4185C38.634 27.4512 37.5766 26.7821 35.8052 26.1336Z" fill="#6B340A"/>
<path d="M52.2468 30.4396C52.2693 30.8468 51.7958 31.5181 51.634 31.8953C50.6776 32.967 50.2362 33.3062 49.1765 34.1915C49.3224 33.4166 50.7974 31.8053 51.3626 31.2011C51.6118 30.9356 51.9319 30.6148 52.2468 30.4396Z" fill="#6B340A"/>
<path d="M48.9208 34.3899C49.5402 34.7109 51.7652 35.4756 52.2338 35.9269C51.7046 35.8689 46.9247 34.1049 46.3301 33.7402L46.3686 33.6967C46.9381 33.7537 47.2309 33.853 47.7817 34.0203C48.0915 34.1012 48.6757 34.224 48.9208 34.3899Z" fill="#D25C10"/>
<path d="M42.2468 38.8064C42.8063 38.7737 45.7633 39.7906 46.3334 40.2324L46.3697 40.3563C46.1958 40.4701 45.9808 40.4193 45.7579 40.4022C45.6644 40.3833 45.5718 40.36 45.4806 40.332C45.0517 40.2008 42.4171 39.1349 42.2468 38.8064Z" fill="#6B340A"/>
<path d="M19.5241 33.1453C19.8713 32.9185 20.334 32.8005 20.7326 32.6837C21.034 33.7167 20.0843 33.875 19.2647 34.0804C18.8739 34.1804 18.4787 34.2624 18.0803 34.3261C18.4659 34.0208 19.2545 33.4755 19.5241 33.1453Z" fill="#D9731C"/>
<path d="M23.8855 32.9569C24.3393 33.1883 24.4635 33.3795 24.8463 33.6827C25.3355 34.07 26.0362 34.2455 26.6353 34.4281L26.638 34.4831C25.9667 34.5114 25.0174 34.2348 24.6764 34.4521C24.3895 34.28 24.1262 34.0913 23.7952 34.0479L23.9561 33.9054C23.9388 33.6546 23.8639 33.7465 23.6229 33.4845L23.6003 33.4596L23.8855 32.9569Z" fill="#D9731C"/>
<path d="M32.3891 29.8667C33.3668 30.0783 36.0232 30.282 34.6809 31.9359C34.5725 31.8334 34.5565 31.7771 34.4892 31.6411C33.8821 30.1518 32.769 30.4791 32.2705 29.8997L32.3891 29.8667Z" fill="#D25C10"/>
<path d="M31.6885 35.2043C32.0146 34.5849 33.2496 32.3612 33.9236 32.1915L33.9824 32.3741L33.9479 32.4221C33.5282 33.0118 32.4057 35.0283 31.6885 35.2043Z" fill="#522303"/>
<path d="M23.7952 34.0479C24.1261 34.0912 24.3894 34.28 24.6763 34.452C25.1095 34.7075 25.8329 35.0868 25.9976 35.5565C25.9548 35.8138 25.9984 35.7154 25.7828 35.9286L25.6251 35.9178C25.2052 35.6163 23.9726 34.4939 23.7952 34.0479Z" fill="#6B340A"/>
<path d="M29.3118 28.9174C30.1983 29.0047 31.5818 29.2122 32.1928 29.8518C30.4521 29.611 30.006 29.2825 28.104 29.2906C28.5246 29.156 29.0047 29.3258 29.3219 29.1138L29.3118 28.9174Z" fill="#F7BA98"/>
<path d="M17.2224 34.2259C17.5149 34.1777 17.6399 34.1484 17.9338 34.1759C17.4594 34.8052 16.4402 36.1507 15.9126 36.6775C16.1724 36.0749 16.4487 35.6034 16.5839 34.965L17.2224 34.2259Z" fill="#6B340A"/>
<path d="M52.2469 30.4396L52.302 30.4019L52.3728 30.6347C52.5642 30.7008 52.6047 30.6987 52.8083 30.7017C53.0545 30.8718 53.0102 30.793 53.1217 31.0458C53.0214 31.4306 52.0432 31.8746 51.634 31.8953C51.7958 31.5181 52.2693 30.8468 52.2469 30.4396Z" fill="#D9731C"/>
<path d="M43.73 27.936L43.8593 28.0841C43.8252 28.3124 42.4431 29.4385 42.1574 29.7428C41.7282 30.2079 41.3421 30.711 41.0039 31.2458C41.153 30.8588 41.3743 30.5002 41.5167 30.1936C41.7746 29.6381 43.4086 28.3542 43.4686 28.0591L43.73 27.936Z" fill="#D9731C"/>
<path d="M41.617 37.4173C41.5538 36.8577 42.5215 35.3089 43.0663 35.1437L43.2039 35.2056C43.1361 35.7151 42.1537 36.3312 41.7629 37.4202L41.617 37.4173Z" fill="#D25C10"/>
<path d="M34.1981 26.984L34.2164 27.1378C33.8343 27.5812 33.4789 28.0016 33.1288 28.4732C32.9001 28.7814 32.7582 29.3462 32.5296 29.4587L32.4878 29.429L32.6135 28.9005C32.8541 28.3453 33.1198 27.9586 33.4737 27.4756L34.1981 26.984Z" fill="#D9731C"/>
<path d="M45.8208 32.9269C46.5515 32.8378 47.2164 32.7924 47.9173 32.5146C48.0857 32.4479 48.2011 32.4118 48.3802 32.3835C48.2332 32.6622 47.9113 32.8284 47.6344 32.9879L46.7973 33.2402L45.8208 32.9269Z" fill="#522303"/>
<path d="M18.5983 33.274C18.5855 33.5464 18.1378 33.9553 17.9338 34.1758C17.64 34.1483 17.5149 34.1776 17.2224 34.2258C17.6823 33.7858 18.0202 33.5382 18.5983 33.274Z" fill="#86460A"/>
<path d="M24.9282 30.9842C25.3056 30.5988 25.5385 30.5251 26.0222 30.6571L25.3459 31.3135C25.1838 31.1295 25.157 31.0941 24.9282 30.9842Z" fill="#F1C0BC"/>
<path d="M38.412 32.0543C39.2811 32.1431 41.2859 32.4477 41.4558 33.633C41.484 33.8301 41.2374 34.0194 41.1049 34.154C39.5639 34.8783 37.7829 33.8679 38.412 32.0543Z" fill="#EEA848"/>
<path d="M55.0897 30.9771C56.0967 30.7877 56.7015 31.2152 57.1694 32.0189C56.7026 32.6295 56.5835 32.6419 55.8804 32.9142C53.6301 33.3391 53.2766 32.296 55.0897 30.9771Z" fill="#EEA848"/>
<path d="M30.8718 37.0697C31.2367 37.0556 31.7622 37.0037 32.0806 37.199C33.1086 37.8296 32.054 38.616 31.3216 38.8096C30.8271 38.9371 30.1245 39.1555 29.8479 38.6094C29.8449 38.0605 30.4923 37.4863 30.8718 37.0697Z" fill="#EEA848"/>
<path d="M38.247 41.7568C38.3421 41.7965 38.5698 42.0123 38.6036 42.1066C38.9439 43.057 37.1306 43.9931 36.5812 44.2132C36.4554 44.1655 36.246 43.9321 36.1435 43.823C35.9029 42.9662 37.6413 42.0692 38.247 41.7568Z" fill="#EEA848"/>
<path d="M21.6709 33.3884C22.0721 33.4163 22.9384 33.5716 22.8778 34.2046C22.8212 34.7956 21.3809 34.9683 20.8565 35.0354C20.2179 35.1634 19.9643 35.1166 19.3367 35.0201C20.1262 34.5217 20.979 34.0085 21.6709 33.3884Z" fill="#EEA848"/>
<path d="M37.6292 38.994C38.2938 39.0944 39.3228 39.1604 39.4536 40.0068C39.3274 40.4984 38.9364 40.7332 38.4367 40.7466C37.7867 40.398 37.0115 39.7584 36.4326 39.2832C36.901 39.1376 37.146 39.0785 37.6292 38.994Z" fill="#EEA848"/>
<path d="M47.0386 29.2816L47.2667 29.325C47.3765 29.4236 47.5744 29.5614 47.6021 29.6942C47.8178 30.7289 46.7883 31.377 46.0205 31.6289C45.7972 31.6427 45.6983 31.6691 45.515 31.5329C45.1832 30.7862 46.5009 29.6655 47.0386 29.2816Z" fill="#EEA848"/>
<path d="M52.8896 34.8623C53.4327 34.8633 56.1718 35.7844 56.526 36.1609C56.5922 36.3849 56.5713 36.3203 56.4601 36.5824C56.2334 36.6671 55.8927 36.7563 55.6523 36.8273C54.8666 36.4889 53.9915 35.9853 53.3109 35.4712C52.9992 35.2357 52.9354 35.2062 52.8896 34.8623Z" fill="#D9731C"/>
<path d="M36.8738 27.9814C37.6275 27.9723 39.4777 27.7721 39.831 28.5678C39.7677 28.8833 39.7896 28.7886 39.5579 29.0519C39.322 29.1783 38.9718 29.2495 38.704 29.3164C38.0228 29.1385 36.9584 28.8102 36.8738 27.9814Z" fill="#EEA848"/>
<path d="M34.3699 35.1265C34.8744 35.2686 35.6836 36.4917 35.6924 37.0484C35.6268 37.3045 35.4865 37.3859 35.2804 37.5549C33.9592 37.0094 33.2363 36.4215 34.3699 35.1265Z" fill="#EEA848"/>
<path d="M36.1035 44.9413C37.0161 45.8583 39.0975 43.5581 39.9288 43.0854C39.432 43.934 38.5071 45.5112 37.563 45.8588C36.8115 46.1353 36.1466 45.1771 35.6914 44.973L36.1035 44.9413Z" fill="#D9731C"/>
<path d="M42.0263 27.1445C42.6394 27.2497 42.6509 28.0269 42.3732 28.4616C41.9728 29.0881 41.6032 29.4021 40.8867 29.5958C40.6096 29.5785 40.695 29.6175 40.4964 29.4841C40.3372 28.9114 41.6342 27.5394 42.0263 27.1445Z" fill="#D9731C"/>
<path d="M26.9001 31.2834C27.0243 31.2765 27.0498 31.2977 27.1604 31.3484C27.3251 31.8034 26.9457 33.0189 26.5998 33.3716C26.3185 33.485 26.3594 33.4382 26.0124 33.3756C24.8146 32.2907 25.7313 31.5947 26.9001 31.2834Z" fill="#EEA848"/>
<path d="M48.2607 38.8463L48.3005 38.9414C48.1965 39.5411 48.1199 40.6832 47.4673 40.8898C47.1692 40.8276 47.1986 40.783 46.9369 40.5521C46.8764 40.4821 46.819 40.4095 46.7648 40.3345C46.5766 40.0717 46.3123 39.7011 46.3643 39.3733C46.7016 38.9929 47.476 39.114 48.2607 38.8463Z" fill="#D9731C"/>
<path d="M45.1851 34.0449C46.4081 34.5424 44.8368 35.9823 44.2361 36.2326C44.0716 36.3012 43.9155 36.3797 43.7474 36.4452C43.6284 36.4742 43.5812 36.4624 43.4583 36.4586C43.018 35.8728 44.7722 34.4272 45.1851 34.0449Z" fill="#D9731C"/>
<path d="M48.4915 28.7246C49.8949 28.6285 50.7002 28.9954 49.6063 30.3679C49.3444 30.6197 49.2994 30.7393 48.9434 30.6323C48.5616 30.2548 48.526 29.2708 48.4915 28.7246Z" fill="#D9731C"/>
<path d="M46.5547 35.1166C46.9902 35.1477 48.5675 35.6066 48.7615 36.03C48.717 36.2409 48.7549 36.1622 48.5236 36.3319C47.4327 36.8693 46.1133 36.6109 46.5547 35.1166Z" fill="#EEA848"/>
<path d="M38.7664 31.3031C40.3908 31.5896 41.9891 31.8852 43.3006 32.9528C43.4009 33.2046 43.531 33.4572 43.4948 33.721L43.399 33.8258C43.2005 33.6532 43.0111 33.4788 42.8226 33.2944C41.761 32.2559 39.9237 31.8325 38.5339 31.5155L38.7664 31.3031Z" fill="#D25C10"/>
<path d="M39.3075 35.3444C40.5407 35.5037 40.047 36.6985 39.0295 37.0502C38.8045 37.0686 38.6654 37.1015 38.4647 36.9917C38.1138 36.4344 38.9112 35.719 39.3075 35.3444Z" fill="#D9731C"/>
<path d="M16.2932 36.474L16.3303 36.4747C16.7497 36.4798 21.2436 38.5378 21.9207 38.8802C20.2257 38.7734 17.687 37.4913 16.2932 36.474Z" fill="#D25C10"/>
<path d="M43.5768 30.3236C44.8318 30.2497 45.0672 31.0982 44.0068 31.6533C43.7382 31.7258 43.5047 31.8164 43.2357 31.7555C42.6735 31.3656 43.2738 30.7054 43.5768 30.3236Z" fill="#D9731C"/>
<path d="M28.9941 29.7707C29.309 29.7345 29.4538 29.7817 29.689 29.936C29.6479 30.4889 28.6045 30.6941 28.1672 30.7772C27.8234 30.7705 27.5478 30.7152 27.3193 30.438C27.2926 29.7032 28.5214 29.7685 28.9941 29.7707Z" fill="#D9731C"/>
<path d="M52.159 33.0118C52.3935 32.9685 52.599 33.0818 52.7382 33.2598C52.841 33.8262 52.3149 34.2419 51.9395 34.5753C51.5933 34.5867 51.5448 34.5812 51.2919 34.4042C50.9793 33.7133 51.6461 33.2961 52.159 33.0118Z" fill="#EEA848"/>
<path d="M33.8115 44.4836L33.8131 44.3575C34.161 44.293 36.1637 44.3338 36.5049 44.4096L36.587 44.5042C36.4741 44.7363 36.3503 44.8178 36.1035 44.9413L35.6914 44.973L35.2359 44.9804C34.8215 44.9831 34.1658 44.7039 33.8115 44.4836Z" fill="#6B340A"/>
<path d="M35.4014 40.8699C35.745 40.8098 36.0418 40.8188 36.253 41.1145C36.2389 41.5486 35.9274 41.6369 35.5857 41.8264C35.2469 41.9852 35.0258 42.1639 34.7368 41.8862C34.6005 41.3989 35.0404 41.0732 35.4014 40.8699Z" fill="#D9731C"/>
<path d="M35.9554 32.1838C35.9998 32.2044 36.1108 32.2855 36.1575 32.3176C36.4771 32.9642 35.6613 33.735 35.2273 34.1469L34.9938 34.0857L34.9216 33.9162C35.0029 33.37 35.6094 32.6516 35.9554 32.1838Z" fill="#D9731C"/>
<path d="M57.7939 32.9324C57.938 32.9349 58.0041 32.982 58.1374 33.0457C58.4969 33.5661 57.933 34.0621 57.5227 34.3424C57.1932 34.2592 57.0831 34.2496 56.9773 33.9112C57.0576 33.4692 57.4523 33.207 57.7939 32.9324Z" fill="#6B340A"/>
<path d="M24.2573 40.0603C24.8855 40.1905 26.1566 40.9095 26.8225 41.1925C27.5015 41.4811 28.5184 41.8555 29.1354 42.1884C27.7634 42.0992 25.3934 40.818 24.2573 40.0603Z" fill="#D25C10"/>
<path d="M49.8047 36.3403C50.0161 36.3394 50.0572 36.3321 50.2343 36.4425L50.2337 36.5919C49.9707 36.9729 49.3881 37.0942 48.9634 37.1951C48.7607 37.2033 48.7296 37.2024 48.535 37.1467L48.4746 37.0213C48.6606 36.6258 49.4146 36.4464 49.8047 36.3403Z" fill="#6B340A"/>
<path d="M35.6602 27.4517C35.7654 27.4528 35.8451 27.4802 35.9463 27.5069L35.9698 27.6365C35.8013 28.0165 35.3188 28.3385 34.9761 28.5707C34.7617 28.613 34.8342 28.6276 34.6441 28.561C34.5126 28.0427 35.2396 27.5967 35.6602 27.4517Z" fill="#D9731C"/>
<path d="M32.122 31.8903L32.3114 31.9958C32.4567 32.539 31.7434 32.9649 31.3036 33.1163C31.1494 33.022 31.1404 32.9982 31.0273 32.8523C31.0727 32.5091 31.6785 32.2895 32.122 31.8903Z" fill="#D9731C"/>
<path d="M35.9587 31.1145C36.8986 31.0852 37.839 31.1483 38.7664 31.3031L38.5339 31.5155C37.0001 31.2954 36.7726 31.2717 35.2239 31.6349L35.9587 31.1145Z" fill="#D25C10"/>
<path d="M23.0335 36.3712C23.2641 36.4088 23.2944 36.4142 23.4588 36.5778C23.604 37.0859 23.2672 37.2549 22.861 37.4262C22.736 37.4315 22.6534 37.4135 22.5316 37.3943C22.2797 36.9922 22.7384 36.6083 23.0335 36.3712Z" fill="#D9731C"/>
<path d="M52.4033 36.39C53.22 36.3387 54.6606 37.3617 55.1117 38.0221C54.9014 37.956 52.7306 36.6025 52.4033 36.39Z" fill="#D9731C"/>
<path d="M35.7776 29.9183C36.0303 29.8969 36.2833 29.8788 36.5365 29.8638C36.8325 29.8482 36.9806 29.841 37.1926 30.0303L37.1736 30.2444C36.764 30.3504 35.9433 30.4064 35.7776 29.9183Z" fill="#522303"/>
<path d="M35.2245 38.2026C35.3907 38.3076 35.3357 38.2538 35.4213 38.4501C35.3367 38.8332 34.9685 39.0695 34.664 39.297C34.5299 39.234 34.5371 39.2282 34.4622 39.1072C34.52 38.8253 34.9929 38.43 35.2245 38.2026Z" fill="#D9731C"/>
<path d="M45.0459 28.5976C45.2258 28.51 45.4427 28.5824 45.5339 28.7605C45.6251 28.9385 45.5571 29.1569 45.3809 29.2516C45.2638 29.3147 45.1216 29.3095 45.0094 29.238C44.8972 29.1665 44.8323 29.04 44.84 28.9071C44.8475 28.7742 44.9263 28.6559 45.0459 28.5976Z" fill="#6B340A"/>
<path d="M19.605 35.7781C19.8986 35.7419 20.3897 35.685 20.6581 35.7889L20.7084 35.9124L20.5893 36.0716C20.2515 36.1842 19.761 36.2838 19.5593 35.9238L19.605 35.7781Z" fill="#522303"/>
<path d="M40.5936 40.3223C41.1845 40.5941 40.4444 41.1924 40.1908 41.4241C40.0643 41.4243 40.1276 41.4393 40.0078 41.3422C40.0343 41.1024 40.4296 40.5941 40.5936 40.3223Z" fill="#522303"/>
<path d="M28.3586 32.7131C28.5173 32.7407 28.4516 32.7033 28.5547 32.8409C28.4923 33.1724 28.1428 33.3771 27.8553 33.49L27.709 33.4683L27.6362 33.3618C27.7243 33.0013 28.0357 32.8293 28.3586 32.7131Z" fill="#522303"/>
<path d="M42.6287 34.0997L42.7263 34.1509L42.764 34.3087C42.5772 34.7961 42.2775 35.0762 41.8838 35.3992C41.8225 35.3747 41.8319 35.3662 41.782 35.3057C41.9734 34.9299 42.3628 34.45 42.6287 34.0997Z" fill="#522303"/>
<path d="M45.3432 37.6951C45.4616 37.675 45.481 37.7012 45.5893 37.7569L45.5797 37.8649C45.4165 38.1026 45.3286 38.1424 45.0843 38.292C44.973 38.1997 44.8625 38.1064 44.7527 38.0122C45.0325 37.9552 45.0829 37.9372 45.2944 37.7412L45.3432 37.6951Z" fill="#522303"/>
<path d="M36.2922 35.177C36.789 35.2213 37.0818 35.1582 37.1423 35.6979C36.8436 35.691 36.3734 35.4791 36.2922 35.177Z" fill="#86460A"/>
<path d="M30.835 30.0995C31.1047 30.3476 31.073 30.336 31.4851 30.3746L31.5532 30.3805L31.5441 30.5472C31.2325 30.732 31.1938 30.7669 30.877 30.5786C30.7692 30.2885 30.7831 30.4141 30.835 30.0995Z" fill="#522303"/>
<path d="M44.3808 33.7583C44.4058 33.7805 44.4651 33.8772 44.4874 33.9112C44.4041 34.1867 44.0677 34.3525 43.7948 34.5497C43.7263 34.4948 43.7571 34.5186 43.7317 34.3951C43.8773 34.143 44.1522 33.9466 44.3808 33.7583Z" fill="#D9731C"/>
<path d="M26.7544 35.5442C27.1025 35.4961 27.5909 35.5431 27.9019 35.7041C27.8428 35.711 27.7837 35.7175 27.7245 35.7236C27.3029 35.7674 27.0874 35.8137 26.7544 35.5442Z" fill="#D9731C"/>
<path d="M23.6051 31.5004C23.077 31.323 18.1581 29.7665 18.0547 29.6774C18.0762 29.4772 18.104 29.4528 18.2349 29.2965C18.4633 29.1827 18.5604 29.2073 18.8146 29.2243L19.6382 29.4351C20.2483 29.6956 24.406 30.9799 24.9282 30.9843C25.157 31.0941 25.1838 31.1295 25.3459 31.3136C25.1521 31.5089 24.8922 31.7877 24.6801 31.9495C24.436 31.6884 23.9571 31.6007 23.6051 31.5004Z" fill="#FDBB6D"/>
<path d="M15.8119 36.4784L10.7845 34.7798C10.5518 34.699 10.1656 34.5922 10.0657 34.3863C10.0927 34.2888 10.1226 34.1938 10.1818 34.1104C10.2763 33.9773 10.3894 33.8959 10.5516 33.8693C10.9361 33.8064 15.4323 35.4377 15.8314 35.7409C15.834 35.9323 15.864 36.0486 15.921 36.2278L15.8119 36.4784Z" fill="#FDBB6D"/>
<path d="M18.8147 29.2243C19.2339 28.5803 19.4515 28.3932 20.2426 28.1832C20.6854 28.0656 21.9695 28.0756 22.354 28.3097C22.2936 28.8794 20.1128 29.0602 19.6631 29.4274C19.6548 29.43 19.6465 29.4326 19.6382 29.4352L18.8147 29.2243Z" fill="#FEFAFA"/>
<path d="M11.2523 40.7488C11.9185 40.6846 13.3553 40.7553 13.7285 41.4078C13.717 41.6579 13.722 41.5819 13.5009 41.8049C12.8821 41.9157 11.484 41.647 11.1055 41.0927C11.0959 40.8611 11.0655 40.9536 11.2523 40.7488Z" fill="#FEFAFA"/>
<path d="M59.8771 35.392C59.9906 35.3426 60.0807 35.298 60.2021 35.2689L60.4293 35.3923C60.4808 35.6185 60.4911 35.5212 60.3463 35.7673C60.1442 35.9003 60.0803 35.9618 59.8316 35.9578L59.7051 35.9041L59.8771 35.392Z" fill="#FEFAFA"/>
<path d="M58.225 40.6294L58.4145 40.6551L58.4399 40.7552C58.2942 40.9801 58.3305 40.915 58.0312 41.0238C57.81 40.9657 57.8691 41.0163 57.7651 40.8559C57.9564 40.6423 57.9028 40.7048 58.225 40.6294Z" fill="#FEFAFA"/>
<path d="M59.4203 28.0138L59.5209 28.11C59.4624 28.3722 59.4635 28.4636 59.4586 28.7286L59.2615 28.5732C59.2139 28.2917 59.2618 28.3259 59.4203 28.0138Z" fill="#FEFAFA"/>
</g>
<defs>
<clipPath id="clip0_8_198">
<rect width="75" height="75" fill="white"/>
</clipPath>
</defs>
</svg>
