<svg width="76" height="76" viewBox="0 0 76 76" fill="none" xmlns="http://www.w3.org/2000/svg">
<path d="M31.6149 32.758C32.2586 32.7254 34.2697 33.1273 35.0509 33.2269C35.0879 33.2316 35.0858 33.2691 35.0955 33.3252C35.404 33.8102 35.6637 34.6673 35.8689 34.9489C40.4406 35.2123 44.8957 35.2885 49.4139 36.2408C50.4598 36.4612 52.2564 36.7068 53.0982 37.3115C53.9309 38.5646 52.6295 46.7866 52.3105 48.4485C51.8197 51.0997 51.0053 53.6475 49.9872 56.1358C49.4847 57.5093 48.8206 59.6121 47.4542 60.3722C43.9916 62.2934 39.4585 62.5452 35.6485 61.713C33.9136 61.2326 30.9932 60.9123 30.0595 59.1502C27.2112 53.7751 25.9526 47.7511 25.4699 41.7244C25.3606 40.3596 25.0213 37.9298 25.3221 36.5869C25.422 36.366 25.5888 36.0124 25.7514 35.8631C26.506 35.1706 31.598 34.7098 32.4696 34.776L31.6149 32.758Z" fill="#F34B45"/>
<path d="M31.6148 32.758C32.2585 32.7254 34.2696 33.1273 35.0508 33.2269C35.0878 33.2316 35.0857 33.2691 35.0954 33.3252C35.4039 33.8102 35.6637 34.6673 35.8688 34.9489C36.0906 35.9496 36.8074 37.1665 37.1512 38.1707C37.1978 38.3429 37.2397 38.5139 37.3029 38.6806C37.6449 38.7006 38.6447 38.5398 38.8599 38.7289C38.3616 38.895 38.0648 38.9461 37.5789 39.0728C37.8744 39.8604 38.57 40.8829 38.5805 41.5715C37.7066 41.5826 35.7964 41.351 34.9758 41.1645C33.2521 40.8215 31.5572 40.3474 29.9057 39.7463C28.4074 39.1859 26.6237 38.6157 25.9322 37.0956L25.688 37.3579C25.3886 37.0476 25.3473 36.9861 25.322 36.5869C25.4219 36.366 25.5887 36.0124 25.7514 35.8631C26.506 35.1706 31.598 34.7098 32.4696 34.776L31.6148 32.758Z" fill="#F34B45"/>
<path d="M31.615 32.758C32.2587 32.7254 34.2698 33.1273 35.051 33.2269C35.088 33.2316 35.0859 33.2691 35.0956 33.3252C35.4041 33.8102 35.6638 34.6673 35.869 34.9489C36.0908 35.9496 36.8076 37.1665 37.1513 38.1707C35.568 38.1583 35.5444 38.3702 33.8375 37.8311C33.4018 37.0007 33.0314 36.2417 32.7306 35.3503L32.4698 34.776L31.615 32.758Z" fill="#F6ACAD"/>
<path d="M32.6441 33.149C32.8538 33.2457 34.9657 37.5902 35.0069 37.9644C34.9247 37.9419 34.7481 37.8594 34.7118 37.8023C34.2708 37.1097 32.6324 33.7413 32.6441 33.149Z" fill="#F57A84"/>
<path d="M34.3965 39.1064C35.4068 39.0679 36.4674 39.1194 37.579 39.0728C37.8745 39.8604 38.5701 40.8828 38.5806 41.5714C37.7067 41.5825 35.7965 41.3509 34.9759 41.1645L35.0751 41.1351C35.3241 40.8127 34.4838 39.8635 34.3965 39.1064Z" fill="#F45D5A"/>
<path d="M33.8373 37.8311C35.5442 38.3703 35.5678 38.1583 37.1511 38.1708C37.1977 38.3429 37.2397 38.5139 37.3028 38.6806C37.6448 38.7006 38.6446 38.5398 38.8599 38.729C38.3616 38.895 38.0648 38.9461 37.5788 39.0728C36.4673 39.1194 35.4067 39.068 34.3963 39.1064C33.5177 38.7475 33.4792 38.9604 32.6331 38.2581L32.6472 38.1688C33.0266 38.1836 33.2946 38.4029 33.7046 38.5783L33.8901 38.5197L33.9542 38.3908C33.8779 38.149 33.8669 38.0769 33.8373 37.8311Z" fill="#F57A84"/>
<path d="M33.8375 37.8311C35.5444 38.3703 35.568 38.1583 37.1513 38.1708C37.1979 38.3429 37.2399 38.5139 37.303 38.6806C37.1391 38.6642 36.9961 38.6923 36.8337 38.7024C35.7995 38.7668 34.7368 38.657 33.7048 38.5783L33.8903 38.5197L33.9544 38.3908C33.8781 38.149 33.8671 38.0769 33.8375 37.8311Z" fill="#F45D5A"/>
<path d="M25.322 36.5869C25.4219 36.366 25.5887 36.0124 25.7514 35.8631C26.506 35.1706 31.598 34.7098 32.4696 34.776L32.7304 35.3503L32.2923 35.3993C31.9377 35.0949 29.7379 35.289 29.2136 35.339C28.9738 35.4116 28.7329 35.4805 28.491 35.5458L28.4968 35.6532L28.5954 35.7363C27.4439 35.8424 26.8457 35.9006 25.8894 36.5687L25.9322 37.0956L25.688 37.3579C25.3886 37.0476 25.3473 36.9861 25.322 36.5869Z" fill="#F45D5A"/>
<path d="M25.8896 36.5687C25.8798 36.5449 25.8507 36.5094 25.8513 36.4747C25.8717 35.3261 28.83 35.3405 29.2137 35.339C28.9739 35.4116 28.733 35.4805 28.4911 35.5458L28.4969 35.6532L28.5956 35.7363C27.4441 35.8424 26.8459 35.9006 25.8896 36.5687Z" fill="#F57A84"/>
<path d="M29.2138 35.339C29.7381 35.289 31.9379 35.0949 32.2925 35.3992C31.944 35.6322 29.3459 35.6482 28.5956 35.7363L28.497 35.6532L28.4912 35.5458C28.7331 35.4805 28.974 35.4116 29.2138 35.339Z" fill="#F6ACAD"/>
<path d="M35.4866 41.575C36.3778 41.7013 38.4932 41.7679 39.0915 41.8922L38.983 41.9515C38.8912 42.2965 41.3407 47.4927 41.7063 48.305L46.5996 59.274C46.0613 59.8327 45.7404 60.1226 44.9683 60.3785C44.7942 60.481 43.9945 60.5031 43.8483 60.3148C43.1465 59.4112 42.2892 57.1192 41.8623 56.1471L38.7205 49.051C37.9459 47.3691 37.1909 45.6781 36.4557 43.9785C36.1846 43.3523 35.6466 42.1945 35.4866 41.575Z" fill="#F45D5A"/>
<path d="M25.688 37.3579L25.9322 37.0956C26.6237 38.6157 28.4074 39.1859 29.9057 39.7463C31.5572 40.3473 33.2521 40.8214 34.9758 41.1645C35.7964 41.3509 37.7066 41.5825 38.5805 41.5714L38.6537 41.5819C42.1581 42.0667 48.5084 41.505 51.4871 39.4764C52.3399 38.8956 52.5178 37.9189 52.7555 37.7423C53.1475 38.1146 52.3191 39.1525 52.0125 39.3931C48.9436 41.8019 44.3248 41.9835 40.5573 42.0362C40.1464 42.0368 39.4605 41.9755 39.0914 41.8922C38.4931 41.7679 36.3776 41.7013 35.4864 41.575C34.8037 41.415 34.1264 41.3182 33.4184 41.1194C31.0343 40.4501 28.2502 39.7755 26.2797 38.2163C26.1014 38.0753 25.8119 37.566 25.688 37.3579Z" fill="#F57A84"/>
<path d="M26.4014 44.3047C26.8005 48.6953 27.9593 52.5715 29.8485 56.506C30.0866 57.0016 31.3344 59.1737 31.3376 59.3936C30.9299 59.4373 30.4332 58.2358 30.2352 57.8783C28.1867 54.177 26.7241 49.9942 26.2004 45.7926C26.1496 45.3763 26.166 44.896 25.9983 44.5211L26.2961 44.4708L26.4014 44.3047Z" fill="#F6ACAD"/>
<path d="M25.9983 44.5212C25.867 43.665 25.5654 39.3934 25.9335 38.723C26.0139 38.8137 26.3647 43.8218 26.4014 44.3048L26.2961 44.4709L25.9983 44.5212Z" fill="#F57A84"/>
<path d="M45.3158 43.3752C45.4835 43.4074 45.5 43.4188 45.6182 43.5426C45.6317 43.8564 45.5539 43.8857 45.3928 44.2076L45.2486 44.2032L45.1763 44.0561C45.1913 43.7308 45.2039 43.6817 45.3158 43.3752Z" fill="#F57A84"/>
<path d="M42.8637 44.9598C43.1204 45.3055 42.8682 45.6156 42.641 45.888C42.5059 45.7332 42.5483 45.7745 42.5166 45.5318C42.6078 45.2325 42.6515 45.1944 42.8637 44.9598Z" fill="#F57A84"/>
<path d="M31.7043 54.6462C31.776 54.6849 31.8658 54.7504 31.9354 54.7974C32.0669 55.0645 32.036 55.1868 32.009 55.4834C31.7012 55.2758 31.7078 54.984 31.7043 54.6462Z" fill="#F57A84"/>
<path d="M26.3976 31.693C27.0829 31.909 27.703 32.2823 28.4105 32.4882C28.8233 32.6083 30.8099 32.8933 30.97 33.0654L30.9348 33.2478C30.0093 33.2869 26.8717 32.6201 26.3303 31.874L26.3976 31.693Z" fill="#F6ACAD" fill-opacity="0.984314"/>
<path d="M21.6125 12.0971C21.9733 11.4162 23.878 11.3956 24.5041 11.7279C24.5543 11.7548 24.6039 11.7827 24.6531 11.8115C25.6855 13.3961 26.3755 15.0455 27.2501 16.688C28.5182 19.0696 29.6015 21.6187 30.8437 23.9906L30.9346 24.109C31.0975 24.742 31.9013 26.1911 32.243 26.8817C32.8292 28.0913 33.3848 29.3155 33.9093 30.5532C34.162 31.1337 34.7044 32.3468 34.8817 32.9278C33.7371 32.707 32.5086 32.6653 31.3624 32.3425C29.353 27.8058 27.2155 23.3268 24.9525 18.9111C23.9163 16.8532 22.9579 14.8251 21.8725 12.7846C21.7812 12.6214 21.6773 12.2862 21.6125 12.0971Z" fill="#F6ACAD"/>
<path d="M21.6125 12.0971C23.2503 12.9568 23.4661 12.7455 25.0323 11.9673C23.8499 13.2521 23.4271 12.9846 21.8725 12.7846C21.7812 12.6214 21.6773 12.2861 21.6125 12.0971Z" fill="#F34B45"/>
<path d="M28.397 24.0966C28.941 24.4636 31.0377 29.8586 31.6564 30.7194C31.8191 30.9458 32.1393 31.6721 32.0053 31.9575L31.8346 31.9C31.6753 31.2727 30.2613 29.0216 29.9254 28.2429C29.403 27.0314 28.9618 25.7763 28.3691 24.6064C28.4958 24.6384 28.4873 24.6348 28.615 24.6029L28.397 24.0966Z" fill="#F57A84"/>
<path d="M23.6123 14.5776C24.0427 14.7258 25.0945 17.0137 25.2279 17.5232C24.7224 17.3294 23.7447 15.1352 23.6123 14.5776Z" fill="#F57A84"/>
<path d="M46.2261 26.4822C47.8812 26.2778 49.438 26.4848 50.9381 27.199C51.1055 27.2787 51.5513 27.5316 51.6963 27.5753C52.5055 28.3349 52.8474 28.6512 52.8834 29.8333C52.8869 29.9275 52.8884 30.0217 52.8879 30.116C52.5042 30.5072 51.7369 30.9725 51.5133 31.3085L51.687 31.3652C51.6678 31.7992 51.5958 32.295 51.7473 32.6819L51.4644 33.0986C49.917 35.6487 47.4859 36.6711 45.2666 34.0211C45.1083 33.8321 44.935 33.4369 44.7462 33.3542L44.672 33.1084C44.7076 32.8765 44.4543 32.1045 44.3945 31.8309C43.8927 29.534 43.3068 27.1777 46.2261 26.4822Z" fill="#C01B34"/>
<path d="M51.5134 31.3085L51.6871 31.3652C51.6679 31.7992 51.5959 32.2951 51.7474 32.6819L51.4645 33.0986C51.2967 32.5397 51.3082 31.8565 51.5134 31.3085Z" fill="#F45D5A"/>
<path d="M48.2629 32.3246C48.4555 32.688 48.2531 33.0124 47.9555 33.2263C47.8618 32.8832 48.0775 32.5993 48.2629 32.3246Z" fill="#F45D5A"/>
<path d="M45.1211 23.5431C45.5024 21.8459 46.6355 23.4309 47.4533 23.7477C47.5839 23.7983 48.3318 23.7767 48.5502 23.796C48.916 23.3532 49.5051 21.6962 50.2607 22.2724C50.9077 22.7657 50.4917 24.6698 51.3601 24.732C52.1776 24.7678 53.4308 24.0211 53.9964 24.5362C54.1359 24.9848 53.7072 25.6744 53.484 26.0995L53.3581 26.3368L53.2249 26.4437C52.703 26.9094 52.3322 27.2678 51.6965 27.5754C51.5516 27.5317 51.1057 27.2788 50.9383 27.1991C49.4382 26.4849 47.8814 26.2779 46.2264 26.4823C45.6045 25.576 45.3392 24.7043 45.1408 23.6327L45.1211 23.5431Z" fill="#9FA422"/>
<path d="M53.358 26.3368C54.0105 26.6893 54.2133 27.8231 54.2364 28.5162C54.2797 29.8082 54.266 31.0806 54.3652 32.3744C54.9661 40.2095 54.0431 48.3524 51.3226 55.7453C50.7478 57.2931 49.5946 59.4734 48.8244 61.0034L48.6524 60.8534L48.4988 60.8993C48.5545 60.5824 49.5149 58.8769 49.7213 58.4464C53.2327 51.1244 54.2024 43.2656 54.1098 35.1405C54.0931 34.0268 54.0451 32.9139 53.9658 31.803C53.9075 31.0147 53.781 30.2575 53.8368 29.4702C52.572 31.1383 52.7388 30.6479 51.7473 32.6819C51.5959 32.2951 51.6678 31.7992 51.6871 31.3652L51.5133 31.3085C51.7369 30.9726 52.5043 30.5072 52.888 30.116C53.1091 29.9616 53.5147 29.318 53.5995 29.0661C53.9225 28.1061 53.6124 27.2938 53.2247 26.4437L53.358 26.3368Z" fill="#F34B45"/>
<path d="M24.5216 28.8252C24.5605 28.9644 24.7091 29.6159 24.7719 29.6715L24.8469 29.4489C24.89 30.3047 24.7706 31.1947 24.7072 32.0545C24.6266 33.2207 24.5739 34.3885 24.5493 35.5572C24.4479 42.1185 25.0563 47.3208 26.9796 53.5993C27.4153 55.0433 27.9639 56.4508 28.6201 57.809C28.8259 58.2275 29.9209 60.3332 30.014 60.6356C29.8184 60.9648 29.9345 60.8617 29.9794 61.3129C29.201 59.6435 28.3356 58.2601 27.6295 56.4908C23.981 47.3486 23.7322 38.464 24.5216 28.8252Z" fill="#F34B45" fill-opacity="0.968627"/>
<path d="M25.6012 29.6577C27.1916 31.384 29.2646 31.6953 31.3622 32.3425C32.5085 32.6653 33.737 32.707 34.8816 32.9278C35.2143 32.9787 35.5171 32.9477 35.8548 32.9679C38.5081 33.1274 41.2518 33.5574 43.8898 33.0505C44.1417 33.0022 44.4339 33.0326 44.672 33.1084L44.7462 33.3543C43.9392 33.73 38.3199 33.5463 37.1985 33.4462C36.8049 33.4111 35.3388 33.2535 35.0954 33.3251C35.0857 33.2691 35.0878 33.2316 35.0508 33.2268C34.2696 33.1272 32.2585 32.7253 31.6148 32.7579C31.4301 32.6796 30.2826 32.4298 29.9555 32.3406C28.4116 31.92 26.2566 31.0754 25.241 29.7805L25.6012 29.6577Z" fill="#F34B45" fill-opacity="0.988235"/>
<path d="M33.5612 62.1333C34.0434 62.279 34.8922 62.3856 35.3994 62.4639C38.8339 62.9943 42.1492 62.7258 45.503 61.8648C46.1856 61.6895 47.0424 61.5512 47.6958 61.3046C47.8997 61.3674 48.0628 61.4039 48.2426 61.5199C43.4456 63.2212 38.2683 63.5464 33.2961 62.4586L33.5612 62.1333Z" fill="#F34B45" fill-opacity="0.980392"/>
<path d="M32.5454 23.7272C33.2493 23.526 36.0111 23.2837 36.949 23.2315C39.3315 23.099 42.2931 23.1235 44.7119 23.2798C44.8235 23.287 45.0333 23.4657 45.1209 23.5431L45.1406 23.6327C43.1266 23.6698 41.2079 23.3674 39.1726 23.4853C37.5067 23.5819 35.8363 23.7405 34.1715 23.8675C33.783 23.8971 33.1462 24.0114 32.8116 24.0257C32.7552 23.9285 32.6289 23.8117 32.5454 23.7272Z" fill="#F34B45" fill-opacity="0.984314"/>
<path d="M48.4989 60.8993L48.6525 60.8534L48.8245 61.0034C48.5946 61.587 48.3522 62.3111 47.9759 62.7977C46.9088 63.2021 46.0757 63.6181 44.9584 63.9278C44.3947 64.0841 43.0029 64.2513 42.6277 64.3803C42.556 64.2934 42.3737 64.1258 42.2852 64.0393C44.3898 63.7061 45.8306 63.3452 47.8116 62.4518C47.9586 62.2014 48.2156 61.794 48.2426 61.5198C48.0628 61.4038 47.8997 61.3673 47.6958 61.3045C48.0782 61.2263 48.2118 61.1499 48.4989 60.8993Z" fill="#F34B45"/>
<path d="M35.6642 64.098C38.2307 64.1522 39.5981 64.3091 42.2851 64.0393C42.3737 64.1258 42.556 64.2934 42.6277 64.3803C39.9499 64.7065 38.0372 64.7949 35.3389 64.3506L35.6642 64.098Z" fill="#F34B45" fill-opacity="0.988235"/>
<path d="M24.5217 28.8251C24.5623 28.2875 24.5868 27.6752 24.7436 27.1668L24.7575 27.1204C24.9765 26.4035 26.7664 24.641 27.545 24.6732L27.6912 24.7724C27.5173 25.2686 23.8975 26.5903 25.1806 29.1902C25.277 29.3856 25.4379 29.5193 25.6014 29.6577L25.2411 29.7805C25.1675 29.6958 24.9448 29.5271 24.8471 29.4488L24.7721 29.6714C24.7093 29.6158 24.5607 28.9643 24.5217 28.8251Z" fill="#F34B45"/>
<path d="M30.6112 62.0381C31.3984 63.0034 32.6223 63.3811 33.7974 63.6989C34.3886 63.8587 35.0897 63.8944 35.664 64.098L35.3387 64.3506C34.7352 64.2957 34.1383 64.1828 33.5564 64.0136C32.4415 63.6972 30.9417 63.1733 30.364 62.1329C30.4917 62.1099 30.5043 62.1171 30.6112 62.0381Z" fill="#F34B45"/>
<path d="M27.7024 25.4489L27.8699 25.5151L27.9236 25.6475C27.7834 25.8455 27.0927 26.0868 26.7702 26.3527C25.6585 27.2695 25.9225 28.0663 25.7633 29.129L25.7527 29.1978C24.5608 28.3777 26.2413 25.8118 27.7024 25.4489Z" fill="#F6ACAD" fill-opacity="0.984314"/>
<path d="M31.0357 61.4618C32.1479 61.9005 32.5874 61.8812 33.5612 62.1332L33.2962 62.4585C32.6887 62.3496 31.3832 62.0377 30.8718 61.732L31.0357 61.4618Z" fill="#F34B45" fill-opacity="0.984314"/>
<path d="M30.0142 60.6355C30.3717 61.127 30.4463 61.3427 31.0357 61.4618L30.8718 61.732L30.6386 61.7926C30.6288 61.868 30.6126 61.9642 30.6114 62.0381C30.5044 62.1171 30.4918 62.1099 30.3642 62.1329L29.9796 61.3128C29.9347 60.8616 29.8186 60.9647 30.0142 60.6355Z" fill="#F34B45"/>
<path d="M30.8438 23.9906C31.1102 23.8013 31.575 23.7811 31.9141 23.7371L31.7943 23.9401L32.0885 24.0872C31.5687 24.1755 31.3811 24.2852 30.9347 24.109L30.8438 23.9906Z" fill="#F34B45" fill-opacity="0.960784"/>
<path d="M31.914 23.7371C32.0935 23.7272 32.3768 23.6997 32.5455 23.7272C32.629 23.8117 32.7552 23.9286 32.8117 24.0257C32.6621 24.0441 32.2071 24.1132 32.0884 24.0872L31.7942 23.9401L31.914 23.7371Z" fill="#F34B45"/>
</svg>
