<svg width="76" height="76" viewBox="0 0 76 76" fill="none" xmlns="http://www.w3.org/2000/svg">
<path d="M40.8029 24.5661C42.0576 23.1105 42.9066 22.48 44.8044 22.0366C50.5218 20.701 56.3568 22.4669 61.5922 24.7147C64.4446 25.9393 66.621 26.5679 67.8251 29.5934C68.3239 31.1904 68.5546 33.0476 67.4069 34.4866C67.2714 34.6565 67.083 34.8089 67.0089 35.0121C67.3041 35.4749 67.4467 35.7075 67.6686 36.2069C69.5999 40.905 67.085 44.1863 63.3639 46.873C62.4793 47.5115 61.8664 48.1566 60.8747 48.7312C60.253 49.0645 59.6248 49.3857 58.9906 49.6947C54.851 52.3232 47.0802 54.0815 42.0344 54.3433C32.5193 54.8372 21.4577 53.0205 13.2729 47.868C10.9268 46.3911 8.47168 43.5244 7.95608 40.7483C7.75576 39.4871 7.56413 38.0871 7.70878 36.8271C7.98339 34.4355 10.0966 31.9199 12.0138 30.5705C18.635 25.9106 28.613 24.3766 36.5877 24.4476C37.671 24.4572 39.8674 24.4268 40.8029 24.5661Z" fill="#D8E8F6"/>
<path d="M40.8029 24.5661C42.0575 23.1105 42.9065 22.48 44.8044 22.0366C50.5217 20.701 56.3567 22.4669 61.5921 24.7147C64.4446 25.9393 66.621 26.5679 67.825 29.5934C68.3238 31.1904 68.5546 33.0476 67.4069 34.4866C67.2714 34.6565 67.0829 34.8089 67.0088 35.0121C67.3041 35.4749 67.4467 35.7075 67.6686 36.2069C67.2787 36.3342 67.1427 36.7915 66.7911 37.0179C66.0868 37.4712 64.3912 38.3119 63.6228 38.5306C61.8826 42.0246 58.9372 47.9684 54.6326 48.5901C53.3111 48.5558 50.5344 47.9071 49.1759 47.577L42.5766 45.9032C40.9542 45.4771 38.7108 45.028 37.0458 44.6664C36.188 44.3883 34.5488 43.979 33.8971 43.4939C33.3775 42.4634 33.4534 41.6083 33.4802 40.5039C33.5628 39.8899 33.7038 39.2825 33.9922 38.7336C35.5782 35.7145 37.829 32.8646 39.6845 30.0391C39.9117 29.7258 40.2345 29.2598 40.3619 28.905C40.1666 28.358 40.1436 27.4475 40.1711 26.8651C40.2542 25.9399 40.4681 25.4468 40.8029 24.5661Z" fill="#EC9D38"/>
<path d="M67.825 29.5935C68.3238 31.1905 68.5546 33.0476 67.4069 34.4867C67.2714 34.6566 67.0829 34.8089 67.0088 35.0121C67.3041 35.475 67.4467 35.7076 67.6686 36.207C67.2787 36.3343 67.1427 36.7916 66.7911 37.018C66.0868 37.4713 64.3912 38.312 63.6228 38.5307C61.8826 42.0246 58.9372 47.9685 54.6326 48.5902C53.3111 48.5559 50.5344 47.9072 49.1759 47.5771L42.5766 45.9033C40.9542 45.4772 38.7108 45.0281 37.0458 44.6664C36.188 44.3883 34.5488 43.9791 33.8971 43.494C33.3775 42.4635 33.4534 41.6084 33.4802 40.504C33.7293 40.5097 34.4181 41.0193 34.7337 41.1288C35.7748 41.4899 37.1575 41.5167 38.1795 41.8427C40.7521 42.6632 43.3156 43.158 45.9391 43.7533C47.8615 44.2188 49.6963 45.1173 51.6875 45.4228C53.0028 45.6615 54.5586 45.9114 55.7033 44.9457C57.9156 43.0792 59.6132 40.0561 61.113 37.6002C61.9001 36.3113 62.4165 34.8084 63.1266 33.5106C64.6572 32.9129 66.411 32.0086 67.3355 30.5926C67.4691 30.3879 67.6764 29.8749 67.825 29.5935Z" fill="#D07128"/>
<path d="M67.0088 35.0121C67.3041 35.4749 67.4466 35.7075 67.6685 36.2069C67.2787 36.3342 67.1426 36.7916 66.7911 37.0179C66.0868 37.4712 64.3912 38.3119 63.6228 38.5306C64.6346 36.1406 64.9803 36.425 67.0088 35.0121Z" fill="#A2CBE9"/>
<path d="M40.1712 26.8651C40.6044 27.4244 40.8333 28.2985 40.362 28.905C40.1666 28.358 40.1436 27.4475 40.1712 26.8651Z" fill="#D07128"/>
<path d="M45.8076 22.5908C50.7442 21.9718 56.9555 23.8935 61.5316 25.7307C65.1315 27.1758 68.9834 30.4309 63.05 32.4649C62.2945 33.3148 61.8178 34.3282 61.1841 35.2749C59.395 37.9473 57.9625 40.9624 55.8249 43.3725C55.4416 43.8046 55.0123 44.0338 54.5103 44.2757C53.9368 44.482 53.4113 44.6259 52.8034 44.5036C50.1365 43.967 47.4226 43.1941 44.7806 42.5816C43.0733 42.1893 41.3621 41.8142 39.6472 41.4564C38.3485 41.1822 36.9718 40.9005 35.7089 40.479C35.2847 40.3375 34.9327 39.9183 34.6677 39.5727C35.5376 37.41 36.5649 36.5162 37.7063 34.6124C39.1199 32.2548 40.1999 30.2419 41.7854 27.966C40.5233 24.76 42.9134 22.9428 45.8076 22.5908Z" fill="#FEE1A1"/>
<path d="M50.9776 27.2196C51.8917 27.2485 52.8454 27.8986 51.8629 28.7557C51.4077 28.3536 50.7498 28.1387 50.603 27.7221C50.6862 27.4175 50.711 27.4707 50.9776 27.2196Z" fill="#FDC754"/>
<path d="M54.5302 32.9525C55.3106 32.9004 56.5133 33.0576 55.9611 34.1449C55.3584 34.1569 54.3905 33.6849 54.5302 32.9525Z" fill="#FDC754"/>
<path d="M48.2005 40.5282C48.6449 40.4944 49.3744 40.5128 49.4666 41.0632C49.3062 41.3344 49.3269 41.2664 49.0255 41.4461C48.5855 41.5273 47.7803 41.5691 47.7729 40.9452C47.8878 40.7071 47.9785 40.6709 48.2005 40.5282Z" fill="#FDC754"/>
<path d="M51.3091 33.2648C51.6428 33.229 51.9633 33.3951 52.0877 33.7155C51.9748 34.2498 51.458 34.1195 51.0281 34.088C50.6739 34.0405 50.3493 34.0677 50.1511 33.7534L50.2429 33.6002C50.5373 33.3772 50.9403 33.3363 51.3091 33.2648Z" fill="#FDC754"/>
<path d="M43.4621 24.6194L43.7525 24.6483C43.9884 24.8239 43.9246 24.7281 43.9979 25.0049C43.9153 25.4687 43.5939 25.8543 43.319 26.24C43.1443 26.2982 43.1309 26.2862 42.9452 26.2371C42.5712 25.7463 43.0927 24.9774 43.4621 24.6194Z" fill="#FDC754"/>
<path d="M57.5821 32.3259C58.3616 32.3803 58.8328 32.9828 58.3111 33.7024C57.5346 33.7062 57.1623 32.9986 57.5821 32.3259Z" fill="#FDC754"/>
<path d="M57.7082 35.3192C57.8748 35.3329 57.8988 35.377 58.0325 35.4941C58.1075 36.04 57.2757 36.385 56.8695 36.5346C56.5486 36.3891 56.3865 36.2888 56.4985 35.9472C56.7922 35.6672 57.3144 35.4884 57.7082 35.3192Z" fill="#FDC754"/>
<path d="M43.5956 31.2798C44.067 31.405 44.0141 32.451 43.8558 32.7938C43.7843 32.9487 43.6514 32.9477 43.5022 32.992C42.7498 32.405 43.115 31.8845 43.5956 31.2798Z" fill="#FDC754"/>
<path d="M51.94 40.7109C52.5513 40.7755 53.5376 40.8082 53.5686 41.5315C52.7836 41.6428 51.9148 41.725 51.94 40.7109Z" fill="#FDC754"/>
<path d="M56.3458 29.2228C56.7232 29.275 57.4856 29.3969 57.6982 29.7249C57.698 29.986 57.7093 29.8996 57.5005 30.1372C57.0795 30.1066 56.3441 30.0281 56.1331 29.6087C56.1584 29.3579 56.144 29.437 56.3458 29.2228Z" fill="#FDC754"/>
<path d="M50.7506 37.443L50.9824 37.5633C51.3366 38.1573 50.728 38.484 50.2437 38.6954C49.9755 38.5587 49.9555 38.5212 49.9141 38.2512C50.0506 37.8183 50.3687 37.6629 50.7506 37.443Z" fill="#FDC754"/>
<path d="M62.5026 30.2614C62.7741 30.3742 62.8308 30.4671 62.8029 30.7326C62.5457 31.0988 62.1785 31.2164 61.7688 31.352C61.5517 31.3161 61.4625 31.2377 61.4563 31.025C61.6602 30.6434 62.1235 30.4382 62.5026 30.2614Z" fill="#FDC754"/>
<path d="M54.7586 38.6823C54.9648 38.6755 55.052 38.695 55.1819 38.8325L55.1332 39.0293C54.7895 39.3989 54.6764 39.4371 54.179 39.5493C53.8843 39.4728 53.8744 39.4903 53.7119 39.2892L53.7331 39.1514C53.9946 38.8306 54.3748 38.7669 54.7586 38.6823Z" fill="#FDC754"/>
<path d="M60.4779 28.3496C60.9023 28.3291 61.3669 28.344 61.6555 28.7061C61.7001 28.967 61.7185 28.8627 61.5824 29.0963C61.4043 29.0944 61.2263 29.088 61.0485 29.0772C60.7048 29.0552 60.5892 29.0245 60.3776 28.787C60.3544 28.51 60.3376 28.6229 60.4779 28.3496Z" fill="#FDC754"/>
<path d="M37.8525 37.371C38.0628 37.3824 38.1549 37.3699 38.3201 37.5084C38.5688 37.9537 38.3734 38.1602 37.9971 38.4083C37.8069 38.4029 37.7528 38.3855 37.5686 38.3343C37.2025 37.9413 37.5347 37.6735 37.8525 37.371Z" fill="#FDC754"/>
<path d="M52.8791 36.2143C53.2246 36.2081 53.7768 36.2528 54.0068 36.5393C54.0292 36.7984 54.0534 36.6919 53.8651 36.9463C53.7504 36.9592 53.635 36.9654 53.5195 36.9649C53.1511 36.9668 53.0117 36.9477 52.764 36.7009C52.7285 36.4219 52.7408 36.5007 52.8791 36.2143Z" fill="#FDC754"/>
<path d="M39.8234 36.8082C40.2891 36.8847 41.2167 37.1885 41.1718 37.7616C40.6 37.8465 39.7242 37.5185 39.8234 36.8082Z" fill="#FDC754"/>
<path d="M58.2695 26.397C58.87 26.4846 59.5541 26.769 59.3339 27.4799C58.7759 27.3396 58.0591 27.0799 58.2695 26.397Z" fill="#FDC754"/>
<path d="M40.9897 39.2248C41.2189 39.2166 41.3806 39.2445 41.4584 39.4675L41.3755 39.614C41.1823 39.7881 40.9819 39.7614 40.7179 39.7681C40.4208 39.7477 40.2716 39.772 40.0813 39.5279L40.1611 39.3815C40.3893 39.1914 40.6887 39.2268 40.9897 39.2248Z" fill="#FDC754"/>
<path d="M54.9045 41.8977C55.0263 41.923 55.0665 41.9549 55.1779 42.0111C55.2884 42.2142 55.2746 42.1182 55.1992 42.3827C54.9351 42.7037 54.826 42.7366 54.4392 42.9071C54.2011 42.7341 54.2319 42.8106 54.1646 42.5689C54.2687 42.3018 54.6565 42.0758 54.9045 41.8977Z" fill="#FDC754"/>
<path d="M40.7362 34.8132C41.1007 34.8008 41.4744 34.7537 41.7337 35.0544C41.7881 35.3102 41.7959 35.2037 41.6911 35.4574L41.61 35.4631C41.2861 35.4842 40.9813 35.5155 40.7282 35.2934C40.6256 35.0364 40.6507 35.1225 40.7362 34.8132Z" fill="#FDC754"/>
<path d="M46.7595 24.1924C46.9923 24.2143 47.0463 24.2108 47.2334 24.3597L47.2303 24.5191C47.046 24.7781 46.8669 24.8002 46.5565 24.8948C46.4006 24.9217 46.3167 24.8857 46.1592 24.8471L46.0874 24.7262C46.1771 24.3589 46.4401 24.2971 46.7595 24.1924Z" fill="#FDC754"/>
<path d="M41.7457 30.8628C41.8984 30.8722 41.9055 30.8874 42.0325 30.9843L42.0267 31.1311C41.8485 31.3932 41.5043 31.601 41.2378 31.7876C40.9782 31.7003 41.0568 31.763 40.9106 31.5676C41.0262 31.1929 41.3937 31.0567 41.7457 30.8628Z" fill="#FDC754"/>
<path d="M45.2948 35.8774C45.6214 35.9563 45.9383 36.1039 46.1165 36.3991C46.1532 36.6936 46.1633 36.585 46.0138 36.8634C45.7442 36.7593 45.3768 36.5945 45.2119 36.3575C45.1449 36.0853 45.157 36.1765 45.2948 35.8774Z" fill="#FDC754"/>
<path d="M45.3326 38.3041C45.5428 38.3696 45.4713 38.3195 45.6044 38.4909L45.5583 38.6249C45.3289 38.8638 45.0216 38.9827 44.7211 39.1249C44.5236 38.953 44.4932 38.8926 44.5187 38.6623C44.6966 38.4596 45.0617 38.386 45.3326 38.3041Z" fill="#FDC754"/>
<path d="M48.6887 25.4935C48.7568 25.525 48.8195 25.5799 48.881 25.6265L48.8858 25.7758C48.7224 26.0691 48.3415 26.318 48.0654 26.5296C47.8453 26.463 47.9035 26.5163 47.8079 26.3498C47.8827 26.0024 48.3939 25.6979 48.6887 25.4935Z" fill="#FDC754"/>
<path d="M36.8243 39.353C37.1366 39.3262 37.654 39.268 37.8859 39.532L37.8495 39.6557L37.6054 39.7509C37.2817 39.7712 36.7019 39.846 36.4907 39.5885C36.6123 39.4161 36.6211 39.4488 36.8243 39.353Z" fill="#FDC754"/>
<path d="M50.3392 24.4019C50.8723 24.4 51.3383 24.5122 51.4804 25.0621C51.2314 25.046 50.6089 24.9607 50.426 24.7891C50.2975 24.6685 50.3381 24.5922 50.3392 24.4019Z" fill="#FDC754"/>
<path d="M49.3078 30.3839C49.6045 30.4337 49.8735 30.5439 50.0428 30.8034C50.0713 31.071 50.0942 30.9627 49.9359 31.2096C49.6849 31.1462 49.3848 31.0258 49.2133 30.8265C49.1492 30.5613 49.1464 30.6629 49.3078 30.3839Z" fill="#FDC754"/>
<path d="M42.9409 27.8685C43.2314 27.8944 43.3439 27.9897 43.4756 28.2456C43.485 28.5564 43.5212 28.4408 43.3499 28.6851C43.0465 28.6246 42.977 28.6049 42.7879 28.4006C42.7447 28.164 42.8231 28.0737 42.9409 27.8685Z" fill="#FDC754"/>
<path d="M46.2929 32.5344C46.8118 32.6461 46.9705 32.9357 46.8346 33.4259C46.5608 33.3319 46.4621 33.3147 46.2734 33.0955C46.1843 32.7661 46.2002 32.8815 46.2929 32.5344Z" fill="#FDC754"/>
<path d="M46.2601 28.627C46.4897 28.6379 46.6545 28.6346 46.7345 28.8627C46.5574 29.1136 46.5769 29.05 46.2605 29.1952C46.1083 29.237 46.081 29.2139 45.9234 29.1613L45.8787 29.0465C46 28.7414 45.9554 28.8347 46.2601 28.627Z" fill="#FDC754"/>
<path d="M42.6142 36.0499C42.896 36.0599 43.0023 36.0738 43.2277 36.2355C43.3876 36.4592 43.3894 36.4941 43.3866 36.765C42.8936 36.6695 42.6063 36.5902 42.6142 36.0499Z" fill="#FDC754"/>
<path d="M44.8388 25.9479C45.0458 25.9945 45.068 26.1048 45.1129 26.274C45.0501 26.5402 44.9976 26.5787 44.8114 26.775C44.5441 26.6442 44.6118 26.7221 44.5056 26.4975C44.5356 26.2527 44.6743 26.1344 44.8388 25.9479Z" fill="#FDC754"/>
<path d="M19.4278 30.1904C21.419 28.8539 22.4734 29.5624 24.5364 28.979C27.1219 28.2478 29.3453 27.89 32.0518 27.9702C33.4638 28.0119 34.9784 27.83 36.3704 28.296C37.183 28.568 39.2625 29.2679 39.6847 30.0392C37.8292 32.8647 35.5784 35.7145 33.9924 38.7337C33.704 39.2825 33.563 39.89 33.4804 40.5039C33.4535 41.6084 33.3777 42.4634 33.8973 43.494C34.549 43.9791 36.1882 44.3883 37.046 44.6664C35.0222 47.3061 24.5765 47.2687 21.5482 46.401C18.8727 45.6344 14.3386 43.9623 12.8057 41.4305C11.2627 38.8824 13.3584 36.7052 15.3672 35.5192C15.6982 35.4702 16.9747 34.783 17.5742 34.6349C17.2623 34.5712 16.7991 33.8891 16.7569 33.5619C16.5447 31.9132 17.8868 30.4894 19.4278 30.1904Z" fill="#FCF9E5"/>
<path d="M17.5741 34.6349C17.2622 34.5712 16.799 33.8891 16.7568 33.5619C16.5445 31.9132 17.8867 30.4895 19.4277 30.1904C18.8079 30.6909 18.4099 31.1833 18.3128 32.0201C18.235 32.6607 18.4158 33.3059 18.8153 33.8127C18.9993 34.045 19.2748 34.2171 19.5224 34.38C18.8106 34.4432 18.2788 34.5136 17.5741 34.6349Z" fill="#A2CBE9"/>
<path d="M23.8902 36.324L23.9464 36.3163C25.4018 36.1282 27.5187 36.6207 28.6717 37.5331C30.7434 39.1727 29.8161 41.483 27.5857 42.3167C26.6926 42.6506 26.1588 42.7533 25.1985 42.8582C23.768 43.0048 21.6797 42.56 20.5315 41.6641C18.4958 40.0759 19.1776 37.7735 21.4212 36.8616C22.3138 36.4989 22.9228 36.3908 23.8902 36.324Z" fill="#FFD536"/>
<path d="M22.3901 37.4209C24.1577 37.241 23.9569 38.7031 22.2602 39.2366C20.3015 39.4404 20.6844 37.8268 22.3901 37.4209Z" fill="#FEE1A1"/>
<path d="M26.3235 32.2615C27.4585 29.0982 33.3496 29.075 35.7718 30.5892C39.0179 32.8512 34.358 34.9375 32.3043 35.1013C30.4252 35.2513 26.2177 34.7893 26.3235 32.2615Z" fill="#FEDB3C"/>
<path d="M26.3235 32.2615C26.8523 32.4145 27.1474 32.6354 27.6178 32.8996C29.803 34.1272 33.5725 34.4376 35.101 32.0351C35.3609 31.6264 35.4124 30.8657 35.7718 30.5892C39.0179 32.8512 34.358 34.9376 32.3043 35.1014C30.4252 35.2513 26.2177 34.7893 26.3235 32.2615Z" fill="#FDC754"/>
<path d="M29.1588 30.7405C29.5385 30.6743 29.9427 30.6484 30.2017 30.9807C30.3342 31.7236 29.6614 32.0188 29.0785 32.216C28.6423 32.2647 28.1264 32.331 27.8679 31.8981C27.7443 31.1555 28.6264 30.9049 29.1588 30.7405Z" fill="#FEE1A1"/>
<path d="M17.9094 36.2438C18.4237 36.2148 18.9648 36.0914 19.2044 36.6407C19.1119 37.7964 17.0304 38.7515 16.0691 39.0717C15.5786 39.1614 15.0042 39.197 14.7155 38.7282C14.5904 37.3186 16.8166 36.5075 17.9094 36.2438Z" fill="#D8E8F6"/>
<path d="M15.1372 40.6587C15.9858 40.7524 17.4676 41.9813 16.4211 42.7797C15.5481 42.6065 14.0372 41.5627 15.1372 40.6587Z" fill="#D8E8F6"/>
<path d="M7.95605 40.7483C8.4741 41.09 8.91132 41.9774 9.33088 42.4741C10.3719 43.723 11.4219 44.8903 12.8021 45.7883C23.3559 52.6548 37.4455 53.4918 49.603 51.7645C52.8312 51.3059 55.1836 50.4141 58.2327 49.5246C58.9307 49.2324 59.6626 48.9181 60.3721 48.6554C60.6401 48.5561 60.6541 48.6124 60.8747 48.7312C60.253 49.0645 59.6248 49.3857 58.9906 49.6947C54.8509 52.3232 47.0802 54.0815 42.0344 54.3433C32.5193 54.8372 21.4576 53.0205 13.2729 47.868C10.9268 46.3911 8.47165 43.5244 7.95605 40.7483Z" fill="#A2CBE9"/>
<path d="M36.7102 45.9351C34.6657 46.8667 33.0122 47.2347 30.8116 47.5827C27.6881 48.0765 24.7291 47.5858 21.6717 46.982C20.3921 46.7292 18.7942 46.4114 17.5813 45.9562C16.5163 45.5566 15.5108 45.0132 14.593 44.3413C13.3185 43.395 11.6447 42.0944 11.4411 40.3947C11.1343 37.8338 12.8703 35.8696 15.3671 35.5192C13.3583 36.7052 11.2626 38.8824 12.8055 41.4305C14.3385 43.9623 18.8726 45.6344 21.548 46.401C24.5764 47.2687 35.022 47.3061 37.0458 44.6664C38.7108 45.0281 40.9542 45.4772 42.5766 45.9033L49.1759 47.577C50.5344 47.9072 53.3111 48.5558 54.6326 48.5901C54.506 48.793 54.4022 48.913 54.1782 49.015C51.1044 50.4152 40.0623 47.1804 36.7102 45.9351Z" fill="#A2CBE9"/>
</svg>
