<svg width="86" height="83" viewBox="0 0 86 83" fill="none" xmlns="http://www.w3.org/2000/svg">
<g clip-path="url(#clip0_8_451)">
<path d="M48.1562 22.8203C48.4549 22.3155 48.6803 21.9703 49.2299 21.7099C49.7145 21.4804 50.7845 20.7854 51.3088 20.9487C51.9316 21.5111 51.5021 23.8984 51.2764 24.6753C52.5914 23.0087 52.9241 23.2002 54.9886 23.1802C54.7571 23.9186 54.153 26.0319 53.7792 26.6077L53.8058 26.7094L53.8892 26.7374C54.1287 26.6832 54.3357 26.6096 54.5639 26.7011C55.0642 26.9334 55.8962 27.5614 56.0862 28.0786L56.0387 28.2095C55.7356 28.2259 55.3979 28.2155 55.1544 28.4038C57.7176 30.236 64.5715 36.2973 65.0839 39.364C65.2714 40.4866 65.2047 41.6861 65.2003 42.8209C65.1906 45.3893 65.0638 47.9517 65.0412 50.5195C65.0305 51.472 65.0334 52.4245 65.0497 53.3769C65.0756 54.7882 65.2858 55.2126 64.4277 56.4754C62.8673 58.7717 61.2017 58.2352 58.7734 58.3871C55.714 58.5782 52.5949 58.568 49.5099 58.6602L37.1794 58.9542C33.0137 59.0909 28.5983 59.2194 24.3996 59.1077C23.5306 59.0845 21.5089 58.9891 21.1389 57.971C20.7755 56.9706 21.0273 55.3117 20.9612 54.2422C20.8814 51.3306 21.249 48.4513 21.5576 45.5643C21.5787 45.3677 21.4751 44.6481 21.4132 44.4343C20.4204 41.0069 24.2705 39.1435 26.5175 37.51C28.715 35.8849 31.316 34.1091 33.5776 32.5055C34.0691 32.1586 34.4993 31.8253 35.0264 31.5205C35.0261 31.2851 34.418 30.6284 34.1973 30.1557C33.7328 28.9564 34.3258 27.8739 34.9928 26.9129L35.3472 26.7482C35.5078 26.4927 36.5624 26.1925 36.8779 26.093C37.4083 26.1496 40.141 25.5859 40.8033 25.4674L41.3243 25.3319C41.7172 25.2882 42.1132 25.2627 42.5076 25.2341L42.8099 25.2621C43.3561 25.3647 43.5451 25.462 44.0371 25.1975C44.723 24.8741 45.1762 24.69 45.9306 24.5909C45.0206 22.8873 46.4327 22.2893 47.0443 20.863C47.3182 21.3236 47.9155 22.4801 48.1562 22.8203Z" fill="#FDF6EB"/>
<path d="M22.4247 45.1592C26.8949 44.3641 59.9402 39.3857 62.0948 40.7729C62.5357 41.0569 62.6786 41.7712 62.7579 42.2522C63.0112 43.7897 62.9733 45.3562 62.8965 46.9064C62.3069 46.9043 61.8164 46.9769 61.2868 46.9828C59.6815 47.3275 56.3435 47.493 54.6329 47.5452C53.1986 47.5889 52.0468 47.4885 50.52 47.6339C46.7167 47.9959 42.7608 48.9131 39.0138 49.3216C35.3157 49.7248 31.3669 50.0193 27.6497 50.3426C26.5648 50.4365 25.4812 50.5452 24.3991 50.6686C23.5504 50.7712 22.6928 50.9481 21.8434 50.9231C21.8105 50.4222 21.8785 49.891 21.9251 49.3885C21.9817 48.5593 22.1172 45.7289 22.4247 45.1592Z" fill="#CC272B"/>
<path d="M21.9251 49.3885C23.3061 49.4125 25.4675 49.255 26.9372 49.2164C29.5546 48.9859 32.6894 49.1876 35.2527 48.8324C43.4378 47.6979 51.8032 45.2971 60.1208 46.3533C60.389 46.3873 61.642 46.5047 61.7191 46.7172C61.5682 46.8035 61.4331 46.8891 61.2868 46.9829C59.6815 47.3275 56.3435 47.4931 54.6329 47.5452C53.1986 47.589 52.0468 47.4885 50.52 47.6339C46.7167 47.996 42.7608 48.9132 39.0138 49.3217C35.3157 49.7249 31.3669 50.0193 27.6497 50.3427C26.5648 50.4366 25.4812 50.5452 24.3991 50.6686C23.5504 50.7712 22.6928 50.9482 21.8434 50.9232C21.8105 50.4223 21.8785 49.891 21.9251 49.3885Z" fill="#BD0B0A"/>
<path d="M21.7457 54.1242C23.0498 53.9622 24.5114 53.9048 25.8352 53.8065C28.5466 53.6065 31.2569 53.3911 33.9659 53.1602L62.9902 50.2931C63.0061 52.7815 63.5967 55.9358 61.248 57.4344C60.4126 57.7139 59.0959 57.6496 58.1738 57.6945L53.6052 57.9105C51.7233 57.9924 49.8314 58.1447 47.9515 58.2194C41.6751 58.4334 35.3958 58.5508 29.1158 58.5713C27.1423 58.568 24.5506 58.6416 22.5913 58.2766C22.1585 58.1959 21.8257 57.6188 21.6392 57.2441C21.6593 56.7186 21.6438 54.3975 21.7457 54.1242Z" fill="#CC272B"/>
<path d="M58.2322 54.6503C58.35 54.5812 58.3195 54.604 58.4835 54.6166C58.6053 54.8186 58.5825 54.7233 58.5412 54.9917L58.3673 55.0611C58.1641 54.9981 58.0579 54.9393 57.8451 55.006L57.4393 55.0417L57.3562 54.9586L57.3076 54.9685C57.4083 54.8917 57.8796 54.8182 58.1701 54.6803L58.2322 54.6503Z" fill="#BD0B0A"/>
<path d="M45.9305 24.5909L46.2115 24.7645L46.6225 24.8417C46.8022 25.1146 47.1213 25.4845 47.3954 25.6561C47.3498 26.6378 48.633 27.4549 48.3694 28.9984C48.0733 30.7331 46.9547 30.9664 46.5329 32.4489C46.4998 33.659 45.5769 33.3648 45.5037 34.4823C44.4452 34.6303 41.0547 35.0768 40.1615 34.8323H39.7561C37.1893 34.5691 37.0053 33.3713 35.4761 31.9483C35.3104 31.7028 35.2877 31.6682 35.0263 31.5205C35.026 31.2851 34.4179 30.6284 34.1972 30.1557C33.7327 28.9564 34.3256 27.8739 34.9926 26.9129L35.3471 26.7482C35.5077 26.4927 36.5623 26.1925 36.8778 26.093C37.4082 26.1496 40.1409 25.5859 40.8032 25.4674L41.3242 25.3319C41.7171 25.2882 42.1131 25.2627 42.5075 25.2341L42.8097 25.2621C43.356 25.3647 43.545 25.462 44.037 25.1975C44.7229 24.8741 45.1761 24.69 45.9305 24.5909Z" fill="#F1565B"/>
<path d="M42.8097 25.2622C43.356 25.3647 43.545 25.4621 44.037 25.1975L44.3288 25.314C44.377 25.4327 44.4029 25.4755 44.4075 25.6067C43.2753 26.1817 43.0244 26.8315 42.4023 27.2695L42.3046 27.4888C42.0351 27.9117 41.5678 28.7419 41.4992 29.2284L40.5792 31.6482C40.3991 32.2236 40.024 33.355 39.96 33.9132L39.7561 34.8324C37.1893 34.5692 37.0053 33.3714 35.4761 31.9483C35.3104 31.7029 35.2877 31.6683 35.0263 31.5205C35.026 31.2851 34.4179 30.6284 34.1972 30.1558C33.7327 28.9564 34.3256 27.8739 34.9926 26.9129L35.3471 26.7482C35.5077 26.4927 36.5623 26.1926 36.8778 26.093C37.4082 26.1496 40.1409 25.5859 40.8032 25.4674L41.3242 25.332C41.7171 25.2882 42.1131 25.2628 42.5075 25.2341L42.8097 25.2622Z" fill="#FEC8C3"/>
<path d="M42.8097 25.2622C43.356 25.3647 43.545 25.4621 44.037 25.1975L44.3288 25.314C44.377 25.4327 44.4029 25.4755 44.4075 25.6067C43.2753 26.1817 43.0244 26.8315 42.4023 27.2695L42.2313 27.0253L42.3695 26.6459C41.8348 25.8219 41.8386 25.7935 40.8795 25.7706C40.1272 25.9655 39.6259 26.092 38.838 26.096C38.4253 26.5581 38.1042 26.9189 37.7399 27.4179C37.3382 27.326 36.839 27.1507 36.4702 27.3065C36.229 27.731 36.0986 27.9588 35.9827 28.4334C35.9433 29.0864 36.2232 29.8212 36.5029 30.3982L36.5653 30.4368C36.8118 31.1844 37.1848 31.3834 37.4116 31.86C38.0524 31.9959 38.0604 31.7326 38.6289 31.5456C38.8078 31.4868 39.0259 31.8082 39.2222 31.9533C39.1714 32.469 38.5726 32.5938 38.7466 33.1588C39.1667 32.6823 39.315 32.5743 39.912 32.3562C40.1053 31.9399 40.1809 31.6962 40.3141 31.264C40.3848 31.3639 40.5254 31.5496 40.5792 31.6482C40.3991 32.2236 40.024 33.355 39.96 33.9132L39.7561 34.8324C37.1893 34.5692 37.0053 33.3714 35.4761 31.9483C35.3104 31.7029 35.2877 31.6683 35.0263 31.5205C35.026 31.2851 34.4179 30.6284 34.1972 30.1558C33.7327 28.9564 34.3256 27.8739 34.9926 26.9129L35.3471 26.7482C35.5077 26.4927 36.5623 26.1926 36.8778 26.093C37.4082 26.1496 40.1409 25.5859 40.8032 25.4674L41.3242 25.332C41.7171 25.2882 42.1131 25.2628 42.5075 25.2341L42.8097 25.2622Z" fill="#DD3B56"/>
<path d="M34.1973 30.1557L34.4089 29.8423C34.4498 29.8894 34.6386 30.1119 34.6728 30.1393C35.0059 30.5367 35.2122 30.7539 35.6141 31.0691C35.8622 31.2637 37.3324 32.2391 37.3829 32.3701C37.6337 32.5519 38.4627 33.2096 38.7466 33.1587C39.1667 32.6822 39.315 32.5742 39.9121 32.3561C40.1053 31.9398 40.181 31.6962 40.3141 31.264C40.3848 31.3638 40.5255 31.5495 40.5792 31.6481C40.3992 32.2235 40.024 33.3549 39.96 33.9131L39.7561 34.8323C37.1893 34.5691 37.0054 33.3713 35.4762 31.9483C35.3105 31.7028 35.2877 31.6682 35.0264 31.5205C35.026 31.2851 34.4179 30.6284 34.1973 30.1557Z" fill="#CF334A"/>
<path d="M40.3141 31.264C40.3848 31.3639 40.5255 31.5496 40.5792 31.6482C40.3991 32.2236 40.024 33.355 39.96 33.9132C39.2486 33.9289 37.7164 33.202 37.3293 32.6115L37.3828 32.3702C37.6336 32.5519 38.4626 33.2096 38.7466 33.1588C39.1667 32.6823 39.315 32.5743 39.912 32.3562C40.1053 31.9399 40.181 31.6962 40.3141 31.264Z" fill="#CC272B"/>
<path d="M34.9926 26.9129L35.3471 26.7482C34.7603 27.9299 34.2311 28.7504 34.6727 30.1393C34.6386 30.1119 34.4498 29.8894 34.4089 29.8423L34.1972 30.1558C33.7327 28.9564 34.3256 27.8739 34.9926 26.9129Z" fill="#CC272B"/>
<path d="M40.8796 25.7706C41.324 25.721 42.0007 25.6618 42.4189 25.55C42.7823 25.7631 42.8696 25.7285 43.006 26.0421C42.9074 26.2826 42.5857 26.538 42.3696 26.6459C41.8349 25.8219 41.8387 25.7934 40.8796 25.7706Z" fill="#FD8E57"/>
<path d="M42.2313 27.0254L42.4023 27.2695L42.3045 27.4888C42.035 27.9118 41.5677 28.7419 41.4992 29.2285L40.5792 31.6482C40.5254 31.5496 40.3847 31.3639 40.314 31.2641L40.2344 31.1279C39.6983 30.5055 38.5361 28.7073 39.0755 27.8991C39.3355 27.7618 40.2702 27.9779 40.8041 27.996C40.9511 27.7551 41.0971 27.451 41.3331 27.3236C41.645 27.3516 41.5978 27.3797 41.8586 27.6674L42.2313 27.0254Z" fill="#FD7C58"/>
<path d="M42.2313 27.0254L42.4023 27.2695L42.3046 27.4888C42.0351 27.9118 41.5678 28.7419 41.4992 29.2285L40.5792 31.6482C40.5254 31.5496 40.3848 31.3639 40.314 31.2641L40.2344 31.1279C40.5537 29.9244 39.7098 29.9029 39.8759 28.6227C40.1137 28.5684 40.8468 28.8646 41.1528 28.9603C41.2812 28.8846 41.7383 27.8929 41.8586 27.6674L42.2313 27.0254Z" fill="#D6413E"/>
<path d="M35.9827 28.4334C36.0985 27.9588 36.229 27.731 36.4702 27.3065C36.9322 28.0185 37.7344 27.7382 37.8499 28.1116L37.7969 28.229C37.6488 28.7384 37.9636 28.6203 37.6018 28.8812C37.4596 28.9838 36.8833 29.1349 36.6891 29.091L36.6444 29.223L36.6916 29.2774C36.6765 29.5883 36.6402 29.7893 36.7781 30.0675L37.0539 30.3539C37.3932 30.9405 37.5252 30.9494 38.0161 31.3806C37.7991 31.5414 37.6113 31.6767 37.4116 31.86C37.1848 31.3834 36.8118 31.1844 36.5653 30.4368L36.5029 30.3982C36.2232 29.8212 35.9433 29.0864 35.9827 28.4334Z" fill="#FD7C58"/>
<path d="M36.4297 28.4858C36.5146 28.3365 36.5816 28.304 36.722 28.1982C37.0796 28.0853 37.4256 28.1716 37.797 28.229C37.649 28.7384 37.9637 28.6203 37.6019 28.8813C37.4598 28.9838 36.8835 29.1349 36.6893 29.0911C36.8504 28.8976 36.9372 28.8662 36.9417 28.6565L36.4297 28.4858Z" fill="#DAA188"/>
<path d="M37.054 30.3539C37.3489 30.1972 37.939 29.8241 38.2265 29.8568L38.3011 29.976C38.1741 30.2343 38.1258 30.3157 37.9544 30.55C38.1328 30.5869 38.3119 30.6214 38.4913 30.6534C38.6394 30.9797 38.2587 31.1881 38.0161 31.3806C37.5252 30.9495 37.3932 30.9406 37.054 30.3539Z" fill="#FD8E57"/>
<path d="M36.6915 29.2773C37.0641 29.2767 37.4483 29.2158 37.7521 29.3899L37.7329 29.5305C37.3901 29.7851 37.1575 29.8861 36.7781 30.0675C36.6402 29.7892 36.6765 29.5882 36.6915 29.2773Z" fill="#FD8E57"/>
<path d="M44.4076 25.6067C44.1613 26.1088 43.8663 26.5659 44.5002 27.036C45.1283 27.5018 46.4906 26.7553 46.8437 26.8604C46.5955 27.1853 46.2022 27.296 45.9723 27.554C44.7212 28.9588 44.5999 27.5582 44.0409 27.2859C43.5219 27.3133 43.2118 28.3579 42.9162 27.4436C42.6962 27.3958 42.7868 27.3902 42.551 27.5262L42.3047 27.4888L42.4024 27.2695C43.0245 26.8315 43.2755 26.1817 44.4076 25.6067Z" fill="#FEC8C3"/>
<path d="M41.4993 29.2284L41.673 29.5659C41.5194 30.0377 41.4348 30.484 41.281 30.9394C40.8129 32.3265 40.2296 33.3429 40.1615 34.8323H39.7561L39.96 33.9131C40.024 33.355 40.3992 32.2235 40.5792 31.6481L41.4993 29.2284Z" fill="#FEC8C3"/>
<path d="M42.3046 27.4888L42.5509 27.5262C42.2013 28.2128 41.9113 28.8329 41.6729 29.566L41.4993 29.2284C41.5678 28.7419 42.0351 27.9117 42.3046 27.4888Z" fill="#FA8288"/>
<path d="M48.1561 22.8203C48.4548 22.3155 48.6801 21.9703 49.2297 21.7099C49.7143 21.4804 50.7843 20.7854 51.3087 20.9487C51.9314 21.5111 51.5019 23.8984 51.2762 24.6753C52.5913 23.0087 52.9239 23.2002 54.9884 23.1802C54.7569 23.9186 54.1529 26.0319 53.7791 26.6077L53.8057 26.7094L53.889 26.7374C54.1285 26.6832 54.3355 26.6096 54.5637 26.7011C55.064 26.9334 55.8961 27.5614 56.086 28.0786L56.0385 28.2095C55.7354 28.2259 55.3978 28.2155 55.1542 28.4038C54.9417 28.6315 54.8547 28.7024 54.6045 28.89C53.9466 29.2531 53.6722 29.4184 52.9021 29.4777C53.1008 30.4625 53.0289 30.581 52.8599 31.5115L52.7353 31.7817C52.5475 32.4453 52.3228 32.8868 52.0255 33.5121C49.9102 33.2548 49.4486 33.8212 47.4417 34.3423C47.2101 34.4024 45.91 34.4464 45.5037 34.4823C45.5769 33.3648 46.4998 33.659 46.5329 32.4488C46.9547 30.9664 48.0732 30.733 48.3694 28.9984C48.6329 27.4549 47.3497 26.6378 47.3953 25.6561C47.1213 25.4845 46.8021 25.1146 46.6225 24.8417L46.2115 24.7645L45.9305 24.5909C45.0204 22.8873 46.4325 22.2893 47.0441 20.863C47.3181 21.3236 47.9154 22.4801 48.1561 22.8203Z" fill="#DD3B56"/>
<path d="M48.1561 22.8203C48.4548 22.3155 48.6801 21.9703 49.2297 21.7099C49.7143 21.4804 50.7844 20.7854 51.3087 20.9487C51.9314 21.5111 51.5019 23.8984 51.2763 24.6753C52.5913 23.0087 52.9239 23.2002 54.9885 23.1802C54.7569 23.9186 54.1529 26.0319 53.7791 26.6077L53.8057 26.7094L53.889 26.7374C53.5043 27.0583 52.3765 27.0366 51.9089 26.9001L51.4874 26.8275C51.3483 26.7452 51.0251 26.4343 50.8498 26.3009C49.8844 25.5667 48.1201 24.8824 46.9296 24.8818L46.6225 24.8417L46.2115 24.7645L45.9305 24.5909C45.0204 22.8873 46.4325 22.2893 47.0441 20.863C47.3181 21.3236 47.9154 22.4801 48.1561 22.8203Z" fill="#6C7D36"/>
<path d="M48.1561 22.8203C48.4548 22.3155 48.6801 21.9703 49.2297 21.7099C49.7143 21.4804 50.7844 20.7854 51.3087 20.9487C51.9314 21.5111 51.5019 23.8984 51.2763 24.6753C52.5913 23.0087 52.9239 23.2002 54.9885 23.1802C54.7569 23.9186 54.1529 26.0319 53.7791 26.6077L53.8057 26.7094L53.889 26.7374C53.5043 27.0583 52.3765 27.0366 51.9089 26.9001L51.9367 26.7945C52.5367 26.2763 53.3482 27.2715 54.0084 25.0882C53.9616 25.083 53.9375 25.0844 53.8979 25.0654C53.0037 24.6369 53.0524 25.4766 52.3178 25.8387L52.2304 25.7654C52.3077 25.2176 52.4233 25.453 52.5913 25.006C52.5371 24.8299 52.4849 24.6069 52.3631 24.4727L52.1839 24.2735C51.7755 24.4595 51.4847 24.5683 51.1435 24.8692C50.8734 24.8937 50.6851 24.9453 50.4609 24.8114C50.5285 24.5699 50.7923 24.4011 51.0063 24.2107C51.2131 23.3248 51.3251 22.3117 51.1615 21.412C50.7432 21.223 49.9268 21.8028 49.4508 21.9481C47.6656 23.0611 48.8325 24.1139 48.1094 24.839C47.7071 24.4698 47.9622 23.7515 48.109 23.3192C47.8232 23.1255 47.8775 23.0994 47.5803 23.088C47.4035 23.2781 47.3492 23.3621 47.0913 23.4303C46.5608 23.4263 46.67 23.1457 46.2203 23.1718L46.1255 22.9652C45.8447 23.5768 45.9667 24.0963 46.3363 24.6362C46.273 24.7234 46.2967 24.7163 46.2115 24.7645L45.9305 24.5909C45.0204 22.8873 46.4325 22.2893 47.0441 20.863C47.3181 21.3236 47.9154 22.4801 48.1561 22.8203Z" fill="#1D5810"/>
<path d="M53.0178 23.4826C53.5174 23.4503 54.0174 23.4254 54.5177 23.4076L54.0084 25.0882C53.9615 25.083 53.9374 25.0844 53.8979 25.0654C53.0036 24.6369 53.0523 25.4766 52.3177 25.8387L52.2304 25.7654C52.3076 25.2176 52.4233 25.4529 52.5912 25.006C52.5371 24.8299 52.4848 24.6069 52.3631 24.4727L52.1838 24.2735C52.4618 23.9838 52.6947 23.7259 53.0178 23.4826Z" fill="#A4AF53"/>
<path d="M46.5365 22.4271C46.7572 22.6339 47.0898 22.9693 47.3851 22.9836C47.5499 22.8841 47.5697 22.8806 47.6774 22.7265C47.9621 22.9466 48.014 22.9773 48.1089 23.3192C47.8232 23.1255 47.8775 23.0994 47.5803 23.088C47.4035 23.2781 47.3492 23.3621 47.0913 23.4303C46.5608 23.4264 46.67 23.1457 46.2203 23.1718L46.1255 22.9652C46.2702 22.7416 46.3659 22.6282 46.5365 22.4271Z" fill="#7D8D41"/>
<path d="M47.3396 21.4979C47.3939 21.9921 47.3785 22.3208 47.6776 22.7265C47.5698 22.8806 47.55 22.8841 47.3852 22.9836C47.0899 22.9693 46.7573 22.6339 46.5366 22.4271C46.8011 22.1281 47.0945 21.8097 47.3396 21.4979Z" fill="#A4AF53"/>
<path d="M49.4509 21.9481C49.927 21.8028 50.7434 21.223 51.1616 21.412C51.3253 22.3117 51.2133 23.3248 51.0065 24.2107C50.7924 24.4012 50.5287 24.57 50.461 24.8114C50.6852 24.9453 50.8735 24.8937 51.1436 24.8692C51.0429 25.347 49.9353 25.2216 49.5305 25.2144C49.8904 24.4988 50.0702 24.4353 50.5192 23.8085C50.562 23.548 50.583 23.4831 50.4944 23.2231C50.1667 23.0234 49.8693 23.1479 49.4739 23.2435C49.4208 23.045 49.6461 22.8187 49.7695 22.5102L49.789 22.4597L49.4509 21.9481Z" fill="#7D8D41"/>
<path d="M49.4509 21.9481C49.927 21.8028 50.7434 21.223 51.1616 21.412C51.1241 21.8641 51.2081 22.5 51.0945 22.7265C50.7866 22.8642 50.2802 22.9825 49.9583 22.8863C49.8468 22.704 49.8188 22.6696 49.789 22.4597L49.4509 21.9481Z" fill="#A4AF53"/>
<path d="M52.7353 31.7817C51.2499 32.8432 49.8354 33.1721 49.533 30.9476C49.3193 30.7813 48.9723 31.3479 48.4341 31.3559C48.1753 31.2045 48.2575 31.2956 48.1367 30.9973C48.1551 29.7666 49.3649 29.2542 50.3634 29.2961C50.6206 29.3068 50.8015 29.8624 51.0032 30.0161C51.7994 30.623 52.6988 30.325 52.8598 31.5115L52.7353 31.7817Z" fill="#99093B"/>
<path d="M53.8892 26.7375C54.1287 26.6832 54.3357 26.6097 54.5639 26.7012C55.0642 26.9335 55.8962 27.5615 56.0862 28.0787L56.0387 28.2096C55.7356 28.226 55.3979 28.2156 55.1544 28.4039C54.9419 28.6316 54.8548 28.7025 54.6047 28.8901C53.9468 29.2531 53.6723 29.4184 52.9023 29.4778C52.7849 29.3398 52.7188 29.1376 52.6482 28.9654C52.3845 28.3748 52.168 27.9175 51.859 27.3503L51.4875 26.8276L51.9091 26.9002C52.3766 27.0366 53.5044 27.0584 53.8892 26.7375Z" fill="#1D5810"/>
<path d="M53.8892 26.7375C54.1287 26.6832 54.3357 26.6097 54.5639 26.7012C54.6024 26.7932 54.7276 27.0745 54.7443 27.1539C54.4325 27.2457 54.3412 27.3712 54.1891 27.6506C54.1609 27.7029 54.134 27.7558 54.1085 27.8095C53.6405 27.9196 53.5799 27.8957 53.1052 27.8362L53.1619 27.7114C52.7975 27.5835 52.4928 27.412 52.1527 27.2329L51.859 27.3503L51.4875 26.8276L51.9091 26.9002C52.3766 27.0366 53.5044 27.0584 53.8892 26.7375Z" fill="#7D8D41"/>
<path d="M51.8589 27.3503L52.1526 27.2329C52.4926 27.412 52.7973 27.5835 53.1617 27.7115L53.105 27.8362C53.0011 28.5523 53.4719 28.6664 54.0912 28.6967C53.6594 28.7884 53.0757 28.9315 52.6481 28.9654C52.3844 28.3748 52.1679 27.9176 51.8589 27.3503Z" fill="#6C7D36"/>
<path d="M54.1084 27.8094C54.5604 27.9809 54.6007 27.8904 54.901 28.2126C54.6525 28.3748 54.3583 28.5813 54.0912 28.6967C53.4719 28.6664 53.001 28.5523 53.105 27.8362C53.5798 27.8957 53.6403 27.9196 54.1084 27.8094Z" fill="#7D8D41"/>
<path d="M54.1084 27.8094C54.1338 27.7557 54.1607 27.7028 54.1889 27.6506C54.341 27.3712 54.4323 27.2456 54.7442 27.1538C54.9628 27.3176 55.2603 27.4953 55.3352 27.7439C55.2613 28.0392 55.1772 28.0579 54.901 28.2125C54.6007 27.8904 54.5604 27.9809 54.1084 27.8094Z" fill="#A4AF53"/>
<path d="M46.6226 24.8418L46.9296 24.8819C47.2244 25.0311 47.707 25.1769 47.7795 25.3955C47.634 25.5087 47.5545 25.5632 47.3954 25.6562C47.1213 25.4846 46.8022 25.1147 46.6226 24.8418Z" fill="#FA8288"/>
<path d="M55.1544 28.4038C57.7176 30.236 64.5715 36.2972 65.0839 39.3639C65.2714 40.4866 65.2047 41.6861 65.2003 42.8209C65.1906 45.3893 65.0638 47.9517 65.0412 50.5195C65.0305 51.472 65.0334 52.4245 65.0497 53.3769C65.0756 54.7882 65.2858 55.2125 64.4277 56.4754C62.8673 58.7716 61.2017 58.2352 58.7734 58.3871C55.714 58.5782 52.5949 58.568 49.5099 58.6602L37.1794 58.9541C33.0137 59.0909 28.5983 59.2194 24.3996 59.1077C23.5306 59.0845 21.5089 58.9891 21.1389 57.971C20.7755 56.9706 21.0273 55.3117 20.9612 54.2422C20.8814 51.3306 21.249 48.4513 21.5576 45.5643C21.5787 45.3677 21.4751 44.6481 21.4132 44.4342C20.4204 41.0068 24.2705 39.1435 26.5175 37.51C28.715 35.8849 31.316 34.1091 33.5776 32.5055C34.0691 32.1586 34.4993 31.8252 35.0264 31.5205C35.2878 31.6682 35.3106 31.7028 35.4763 31.9483C32.9281 33.9141 30.24 35.6338 27.653 37.5491C26.035 38.7472 24.1905 39.7541 22.8012 41.2295C21.9217 42.1636 21.7187 44.0809 22.4247 45.1592C22.1172 45.7289 21.9817 48.5593 21.9251 49.3885C21.8785 49.891 21.8106 50.4222 21.8434 50.9231C21.78 51.597 21.6713 53.4557 21.7458 54.1241C21.6439 54.3974 21.6594 56.7186 21.6392 57.244C21.8258 57.6187 22.1586 58.1958 22.5914 58.2765C24.5507 58.6415 27.1424 58.5679 29.1159 58.5712C35.3959 58.5507 41.6752 58.4333 47.9516 58.2193C49.8315 58.1446 51.7234 57.9923 53.6053 57.9104L58.1739 57.6944C59.0959 57.6495 60.4127 57.7138 61.248 57.4344C62.44 58.0762 64.2788 56.145 64.2361 54.8942C64.101 50.9295 64.315 47.0257 64.3457 43.0544C64.356 41.7316 64.4908 39.7561 63.9733 38.5023C62.4433 35.8072 59.977 33.5533 57.7508 31.4261C56.8393 30.5739 55.5797 29.6932 54.6047 28.89C54.8548 28.7024 54.9419 28.6315 55.1544 28.4038Z" fill="#DAA188"/>
<path d="M35.6365 35.3314C35.9573 35.5328 36.1489 36.556 36.6882 36.7816C37.5765 37.1531 39.3382 36.86 40.1534 37.2117L40.1822 37.3405C39.9801 37.5482 39.6519 37.5916 39.3618 37.6611C37.4081 38.0259 33.3274 38.8059 35.6365 35.3314Z" fill="#FEF0E1"/>
<path d="M38.4442 22.8926C38.4816 22.5173 38.4832 22.3254 38.469 21.9472C38.8569 21.892 39.8106 23.3575 39.867 23.7448L40.0728 23.9517C40.4925 23.7791 40.604 23.312 41.1416 23.1748C41.8441 22.9955 42.498 23.0374 43.2167 22.9613C43.1779 23.72 43.1448 24.5651 42.8098 25.2622L42.5075 25.2342C42.1131 25.2628 41.7172 25.2883 41.3243 25.332L40.8032 25.4675C40.1409 25.586 37.4083 26.1497 36.8778 26.0931C36.5624 26.1926 35.5078 26.4928 35.3471 26.7482L34.9927 26.9129C34.6676 26.8519 34.1659 26.7533 33.9576 26.4875C33.722 26.1869 33.3539 25.5611 33.3841 25.1771C33.7345 24.8493 34.6113 25.4795 35.1324 25.5295C35.5298 25.5677 35.8819 25.5669 36.2765 25.5689C36.2264 25.4288 35.5113 25.0563 35.2243 24.812C34.6862 24.3351 34.1423 23.3347 34.1138 22.6143L34.2263 22.5586C34.5506 22.6458 34.6485 23.023 34.7578 23.0779C36.3124 23.8589 36.6306 22.8205 37.9478 24.3597L38.0868 24.3543C38.1694 23.8708 38.3168 23.3685 38.4442 22.8926Z" fill="#6C7D36"/>
<path d="M39.867 23.7448L40.0728 23.9517C40.4925 23.7791 40.604 23.312 41.1416 23.1748C41.844 22.9955 42.4979 23.0374 43.2167 22.9613C43.1779 23.72 43.1448 24.5651 42.8098 25.2622L42.5075 25.2342C42.1131 25.2628 41.7171 25.2883 41.3243 25.332C40.8431 25.2741 40.8902 25.3613 40.5786 25.0822C40.3091 25.093 40.0398 25.1075 39.7708 25.1258C39.6939 24.9631 39.7191 24.9206 39.7525 24.733C39.9314 24.584 39.8738 24.6529 39.9563 24.422C39.8881 24.1587 39.87 24.0809 39.8673 23.8071L39.867 23.7448Z" fill="#7D8D41"/>
<path d="M40.5786 25.0823C41.1588 24.4232 41.3377 24.6947 42.2392 24.5266C42.3261 24.7451 42.3836 24.9208 42.5177 25.1156L42.5076 25.2342C42.1132 25.2628 41.7172 25.2883 41.3243 25.332C40.8432 25.2741 40.8903 25.3613 40.5786 25.0823Z" fill="#6C7D36"/>
<path d="M42.2393 24.5266L42.2221 24.4462C42.145 24.0969 42.1093 24.0276 41.9292 23.7218L41.9439 23.5308C42.1938 23.4096 42.0871 23.4388 42.4087 23.4714C42.8571 23.847 42.8494 24.7094 42.5178 25.1156C42.3836 24.9207 42.3261 24.745 42.2393 24.5266Z" fill="#A4AF53"/>
<path d="M35.2243 24.812C34.6861 24.3351 34.1422 23.3347 34.1138 22.6143L34.2263 22.5586C34.5506 22.6458 34.6485 23.023 34.7578 23.0779C36.3124 23.8589 36.6306 22.8205 37.9477 24.3597L37.89 24.5997L37.7196 24.6601C36.4032 23.9975 36.4709 23.7979 35.2243 24.812Z" fill="#A4AF53"/>
<path d="M38.4441 22.8926C38.4815 22.5173 38.4831 22.3254 38.4689 21.9472C38.8568 21.892 39.8105 23.3575 39.8669 23.7448L39.8672 23.8071C39.8699 24.0809 39.888 24.1587 39.9562 24.422C39.8738 24.6529 39.9313 24.584 39.7524 24.733C39.6478 24.3973 39.4134 24.0947 39.2129 23.8017C38.628 23.518 38.5413 23.5402 38.4441 22.8926Z" fill="#A4AF53"/>
</g>
<defs>
<clipPath id="clip0_8_451">
<rect width="86" height="83" fill="white"/>
</clipPath>
</defs>
</svg>
