<svg width="75" height="75" viewBox="0 0 75 75" fill="none" xmlns="http://www.w3.org/2000/svg">
<path d="M27.4574 20.1159C29.6752 18.3606 31.8422 17.9847 34.6774 18.5057C35.4137 18.6409 36.1731 19.1221 36.9599 19.1227L37.0288 19.1078C38.1654 18.8727 40.0982 19.1432 41.2755 19.1903C50.5159 19.56 65.3394 24.8591 67.3226 35.2495C68.0031 38.6311 67.3022 42.1443 65.3764 45.0059C60.3765 52.3481 50.36 55.704 41.8165 56.486C32.816 57.3097 22.7581 55.4897 15.1262 50.4882C6.56057 44.875 4.4906 34.6147 12.3749 27.3124C16.0241 23.9327 22.0929 21.0577 27.0203 20.1705C27.165 20.1452 27.3109 20.1269 27.4574 20.1159Z" fill="#E0E0E0"/>
<path d="M27.4572 20.1159C29.6751 18.3606 31.8421 17.9847 34.6773 18.5057C35.4136 18.6409 36.173 19.1221 36.9598 19.1227L36.88 19.2266C37.4263 19.5599 37.9753 19.7768 38.5334 20.1619C40.7475 21.6896 42.0388 23.5194 42.1435 26.2285C41.3504 26.4265 40.8049 27.0625 40.3059 27.6833C39.8527 27.7186 39.0269 27.775 38.678 28.0739C38.3894 28.2706 38.286 28.3803 38.0391 28.6322C37.7097 29.0571 37.6362 29.2388 37.5466 29.7701C37.6968 30.0435 37.8565 30.352 38.0301 30.6075C37.9822 31.169 37.9566 31.2845 38.2059 31.7722C38.5874 31.9675 38.9218 32.151 39.3294 32.2894L39.2252 32.4923C39.1017 33.6795 38.3007 34.5817 37.3572 35.2286C37.1635 35.3686 36.9686 35.4921 36.8204 35.6785C36.5299 36.6733 37.9829 37.8563 38.7641 38.2676C38.273 38.4366 38.2148 38.53 37.8083 38.7197C37.4153 37.7965 36.6207 37.9063 35.762 37.8738C35.6528 36.9228 35.4245 35.6148 34.9036 34.8097C34.6661 34.6697 34.5791 34.7176 34.2637 34.7081C30.9452 34.8223 30.2144 33.1854 27.2028 33.2509C26.7142 33.6001 26.5258 33.6573 25.9641 33.8076C25.7881 33.7587 25.6133 33.7057 25.4398 33.6485C24.8035 33.4345 24.635 32.9564 24.3556 32.3886C24.0656 31.5401 23.9566 31.1528 23.1978 30.6404C22.6619 30.4816 22.3704 30.3852 21.8154 30.3297L21.3812 30.162C20.5316 28.9574 21.7833 28.6277 22.6908 28.3129C22.857 28.1782 23.041 28.0563 23.2172 27.934C23.702 27.4008 24.1107 26.7585 24.1851 26.0287C24.2831 25.871 24.3691 25.6273 24.422 25.4487C24.8815 23.8969 25.6428 22.5377 26.6078 21.2447C26.867 20.8973 27.1939 20.5373 27.4272 20.1645L27.4572 20.1159Z" fill="#B0641D"/>
<path d="M23.198 30.6405C24.2161 30.1504 24.9488 32.4527 25.9612 32.5363C25.9703 32.5395 25.9794 32.5428 25.9885 32.546C26.7426 32.3213 27.3784 31.991 28.1138 31.7315C29.3306 31.9332 30.2043 32.1978 31.345 32.646C33.3773 33.4447 36.4706 33.1894 38.2061 31.7722C38.5876 31.9675 38.922 32.1511 39.3296 32.2894L39.2254 32.4924C39.1019 33.6795 38.3008 34.5817 37.3573 35.2286C37.1637 35.3686 36.9688 35.4921 36.8205 35.6786C36.5301 36.6733 37.983 37.8563 38.7643 38.2677C38.2731 38.4366 38.215 38.53 37.8084 38.7197C37.4155 37.7965 36.6209 37.9063 35.7622 37.8739C35.653 36.9229 35.4246 35.6148 34.9038 34.8098C34.6663 34.6697 34.5792 34.7176 34.2639 34.7081C30.9453 34.8224 30.2145 33.1854 27.203 33.2509C26.7144 33.6002 26.526 33.6573 25.9643 33.8076C25.7883 33.7587 25.6135 33.7057 25.4399 33.6485C24.8036 33.4345 24.6352 32.9564 24.3557 32.3886C24.0658 31.5401 23.9568 31.1529 23.198 30.6405Z" fill="#90410E"/>
<path d="M39.2252 32.4924C39.1017 33.6795 38.3006 34.5817 37.3571 35.2286C37.1635 35.3686 36.9686 35.4921 36.8203 35.6786C36.5299 36.6733 37.9828 37.8563 38.7641 38.2677C38.2729 38.4366 38.2148 38.53 37.8082 38.7197C37.4153 37.7965 36.6207 37.9063 35.762 37.8738C35.6528 36.9229 35.4244 35.6148 34.9036 34.8098C34.6661 34.6697 34.5791 34.7176 34.2637 34.7081C35.7219 34.527 37.1208 33.9831 38.2802 33.0831C38.5928 32.8404 38.8453 32.6298 39.2252 32.4924Z" fill="#AD6A38"/>
<path d="M22.6908 28.3129C22.5363 28.6872 21.7638 28.8331 22.0712 29.3728C22.3573 29.8751 23.5443 29.6106 24.0179 29.9246C24.7719 30.4247 24.9767 31.0648 25.8617 31.381C26.8991 31.1153 27.6822 30.6234 28.7809 30.5948C30.3061 30.5552 31.3944 31.4755 32.7852 31.8778C34.7876 32.457 36.2432 31.0811 37.5466 29.7701C37.6968 30.0435 37.8565 30.352 38.0301 30.6075C37.9822 31.169 37.9566 31.2845 38.2059 31.7722C36.4704 33.1893 33.3772 33.4447 31.3449 32.646C30.2042 32.1978 29.3304 31.9332 28.1136 31.7315C27.3782 31.9909 26.7424 32.3213 25.9884 32.546C25.9793 32.5427 25.9701 32.5395 25.961 32.5362C24.9486 32.4527 24.216 30.1504 23.1978 30.6404C22.6619 30.4816 22.3704 30.3852 21.8154 30.3297L21.3812 30.162C20.5316 28.9574 21.7833 28.6277 22.6908 28.3129Z" fill="#A15119"/>
<path d="M31.4208 19.4988C32.243 19.3594 33.9105 19.597 34.4895 20.1629C36.3851 22.0156 34.6993 22.726 33.0498 22.8965C32.2762 23.007 30.4017 22.8753 29.7848 22.3998C28.0302 21.0474 30.0592 19.7483 31.4208 19.4988Z" fill="#C18D56"/>
<path d="M27.8483 22.2265C28.8047 22.3315 28.9816 23.416 28.085 24.0479C26.6546 24.0083 27.1315 22.8975 27.8483 22.2265Z" fill="#C18D56"/>
<path d="M26.0015 28.2122C26.1166 28.1636 26.2495 28.216 26.3006 28.33C26.3516 28.4441 26.3021 28.5781 26.1892 28.6316C26.114 28.6672 26.0254 28.6593 25.9575 28.611C25.8897 28.5627 25.8534 28.4815 25.8625 28.3988C25.8716 28.316 25.9248 28.2447 26.0015 28.2122Z" fill="#AD6A38"/>
<path d="M49.797 25.4659C50.6569 24.6676 51.0376 24.3072 52.3338 24.3452C53.4035 24.3785 54.4141 24.8438 55.1348 25.6351C55.7016 26.2457 56.0621 27.0437 56.0187 27.8869C56.015 27.9557 56.0096 28.0242 56.0025 28.0927C57.1124 28.5354 57.4316 28.7819 57.457 30.0402C58.7834 31.0175 58.7704 32.157 57.8814 33.4318L57.8275 33.4595C57.4731 33.464 57.3859 33.4575 57.0627 33.5913C56.8241 33.8919 56.7383 33.958 56.3359 33.9971L56.2501 33.9505C56.0373 33.703 55.9953 33.1586 55.9474 32.8279C55.3432 32.8288 55.4845 31.491 54.4316 32.2476C54.2148 32.2438 54.214 32.1368 54.09 31.9435C53.9068 31.6576 53.7727 31.6832 53.4486 31.5732L53.4837 31.689C53.6572 31.7449 53.7894 31.7904 53.96 31.8597C54.0289 32.007 54.0543 31.9942 54.0254 32.117C53.6032 31.9074 53.5136 31.8123 53.0109 31.9719C52.5005 32.382 52.8753 32.6385 52.5911 33.1411C52.875 33.4292 52.8845 34.3503 52.8836 34.7788L52.883 34.825C52.8531 35.0777 52.8335 35.2918 52.7677 35.5386C52.8194 35.6361 52.7833 35.5944 52.8979 35.6439C53.128 35.4246 53.2921 34.8178 53.5284 34.4568L53.5577 34.4129C53.6112 34.6022 53.6123 34.6671 53.7547 34.7972L53.7449 34.9337C53.9404 35.2069 54.1228 35.4664 54.3379 35.7258C54.4859 35.9837 54.6727 36.2882 54.7868 36.5575C54.501 37.3488 54.0809 37.5376 53.9405 38.2299L53.8329 38.8393C53.4289 38.7382 53.1902 38.6625 52.7671 38.6683C51.6966 38.4078 49.2887 38.5324 48.1475 38.6271C47.8228 38.69 47.351 38.7955 47.0345 38.8408L47.0191 38.8939C46.5086 38.9888 46.01 39.2522 45.5536 39.4964C45.3938 39.421 45.3516 39.3853 45.2128 39.2748C45.0663 38.931 45.1173 38.4635 45.1149 38.063C44.5691 38.2353 44.4449 38.2897 43.9213 38.0842C43.8109 37.9095 43.6929 37.7674 43.7154 37.562L43.6493 37.0424C42.9769 37.2442 40.8344 38.064 40.2827 37.9069C40.1063 38.0289 39.9314 38.1532 39.7582 38.2798C39.3645 38.3511 39.1557 38.3221 38.7643 38.2676C37.983 37.8563 36.5301 36.6733 36.8205 35.6785C36.9688 35.4921 37.1637 35.3686 37.3573 35.2286C38.3008 34.5817 39.1019 33.6795 39.2254 32.4924L39.3296 32.2894C38.922 32.151 38.5876 31.9675 38.2061 31.7722C37.9568 31.2845 37.9824 31.169 38.0303 30.6075C37.8566 30.352 37.697 30.0435 37.5468 29.7701C37.6364 29.2388 37.7099 29.0571 38.0393 28.6322C38.2862 28.3803 38.3895 28.2706 38.6782 28.0739C39.0271 27.775 39.8529 27.7186 40.3061 27.6833C40.8051 27.0625 41.3506 26.4265 42.1436 26.2285C43.4696 25.946 44.6835 26.1604 45.5869 27.2478L45.7079 27.0743C46.0566 25.0668 48.2037 24.8809 49.797 25.4659Z" fill="#427B28"/>
<path d="M50.9778 31.8256C51.3406 32.1278 52.1453 32.6845 52.1835 33.0844L52.0884 33.2891L52.3157 33.3702L52.5909 33.1411C52.8749 33.4292 52.8844 34.3503 52.8835 34.7788L52.8829 34.825C52.853 35.0777 52.8334 35.2918 52.7676 35.5386C52.8193 35.6361 52.7832 35.5944 52.8978 35.6439C53.1279 35.4246 53.292 34.8178 53.5283 34.4568L53.5576 34.4129C53.6111 34.6022 53.6122 34.6671 53.7545 34.7972L53.7448 34.9337C53.9403 35.2069 54.1227 35.4664 54.3378 35.7258C54.4858 35.9837 54.6726 36.2882 54.7867 36.5575C54.5009 37.3488 54.0808 37.5376 53.9404 38.2299L53.8328 38.8393C53.4288 38.7382 53.1901 38.6625 52.7669 38.6683C51.6965 38.4078 49.2886 38.5324 48.1473 38.6271C47.8227 38.69 47.3509 38.7955 47.0344 38.8408L47.019 38.8939C46.5085 38.9888 46.0099 39.2522 45.5535 39.4964C45.3937 39.421 45.3515 39.3853 45.2127 39.2748C45.0662 38.931 45.1172 38.4635 45.1147 38.063C44.5689 38.2353 44.4448 38.2897 43.9212 38.0843C43.8108 37.9095 43.6928 37.7674 43.7153 37.562L43.6492 37.0425C43.7329 36.9714 43.8163 36.8387 43.8822 36.7443C44.3133 36.4472 44.9114 36.2032 45.1804 36.0057C45.5365 36.5443 47.106 36.0435 47.5659 35.7781L47.8391 35.5854C48.0649 35.3646 48.255 35.3405 48.4184 35.1004C48.4171 34.9527 48.4561 34.7771 48.4823 34.629C48.6343 34.4908 48.7036 34.1031 48.7621 33.8823C48.6991 33.5814 48.663 33.4775 48.5483 33.1912L48.9655 32.8857L48.9491 33.0554L49.3367 33.1659C49.7467 32.9993 50.2435 32.9875 50.4074 32.8049C50.5296 32.5148 50.5854 32.4133 50.6031 32.1015C50.6591 31.9826 50.8425 31.9072 50.9778 31.8256Z" fill="#96C334"/>
<path d="M47.5659 35.7782L47.8391 35.5854C48.1517 35.8512 48.623 36.0134 49.0109 36.1348C48.7836 36.2334 48.7183 36.2446 48.4796 36.2907C47.8632 36.793 47.7528 36.8638 47.8643 37.6977L47.8914 37.7837C47.7476 38.3508 47.2601 38.2477 47.0344 38.8408L47.019 38.8939C46.5085 38.9888 46.0099 39.2522 45.5535 39.4964C45.3937 39.421 45.3515 39.3853 45.2127 39.2748C45.0662 38.931 45.1172 38.4635 45.1147 38.063C44.5689 38.2353 44.4448 38.2897 43.9212 38.0843C43.8108 37.9095 43.6928 37.7674 43.7153 37.562L43.6492 37.0425C43.7329 36.9714 43.8163 36.8387 43.8822 36.7443C44.3133 36.4472 44.9114 36.2032 45.1804 36.0057C45.5365 36.5443 47.106 36.0435 47.5659 35.7782Z" fill="#468228"/>
<path d="M44.1109 37.1684L44.1758 37.3011C44.6471 37.3392 46.6735 36.634 47.5394 36.8623C47.0537 37.0799 45.7138 37.5846 45.2305 37.9749C45.1601 38.0317 45.2117 38.2811 45.2367 38.3925L45.3242 38.4399C45.8625 38.1426 46.3563 37.7479 46.9221 37.5564C47.1627 37.4749 47.5283 37.6938 47.8644 37.6977L47.8915 37.7836C47.7477 38.3508 47.2602 38.2476 47.0345 38.8408L47.0191 38.8939C46.5086 38.9888 46.01 39.2522 45.5536 39.4964C45.3938 39.421 45.3516 39.3853 45.2128 39.2748C45.0663 38.931 45.1174 38.4635 45.1149 38.063C44.5691 38.2353 44.4449 38.2897 43.9213 38.0842C43.8109 37.9095 43.6929 37.7674 43.7154 37.562C43.8743 37.3547 43.881 37.3115 43.9428 37.0637L44.1109 37.1684Z" fill="#65A53E"/>
<path d="M44.7817 36.5117C45.1631 36.3294 45.4078 36.2619 45.8293 36.3459L45.9081 36.4319C45.7417 36.6599 45.3451 36.6805 45.0613 36.7248L44.7871 36.7664L44.7817 36.5117Z" fill="#65A53E"/>
<path d="M44.7819 36.5117L44.7872 36.7664C44.455 36.9083 44.3878 36.9409 44.1109 37.1684L43.9429 37.0637C44.0757 36.7019 44.4493 36.5943 44.7819 36.5117Z" fill="#82BC42"/>
<path d="M49.5771 37.4345C50.8202 36.7242 51.1394 37.7166 52.1508 38.1824C53.1719 38.5831 53.7045 38.168 53.9404 38.2299L53.8328 38.8393C53.4289 38.7382 53.1902 38.6625 52.767 38.6683C51.6966 38.4078 49.2887 38.5324 48.1474 38.6271C47.8228 38.69 47.351 38.7955 47.0344 38.8408C47.2602 38.2477 47.7477 38.3508 47.8914 37.7837L47.9883 37.8454L48.0974 37.7013C48.6169 37.6488 49.2469 37.1528 49.5771 37.4345Z" fill="#468228"/>
<path d="M47.9883 37.8454L48.0974 37.7014C48.6169 37.6488 49.2469 37.1528 49.5771 37.4345C49.1664 37.7335 48.815 38.0645 48.3081 38.0667C48.1343 37.9966 48.116 37.9827 47.9883 37.8454Z" fill="#C1DB3C"/>
<path d="M50.4075 32.8049C50.4919 32.9166 50.6867 33.2762 50.693 33.4003C50.7267 34.0504 52.2196 36.1253 52.2396 36.475L52.1834 36.6103C52.2092 36.7772 52.3581 36.8109 52.3807 37.066L52.2819 37.063C51.6088 36.4592 49.766 33.9994 48.9696 33.2366C48.9617 33.1666 48.9549 33.1062 48.9492 33.0554L49.3368 33.1659C49.7468 32.9993 50.2436 32.9875 50.4075 32.8049Z" fill="#65A53E"/>
<path d="M50.4074 32.8049C50.4918 32.9166 50.6865 33.2762 50.6929 33.4003C50.7266 34.0504 52.2195 36.1253 52.2395 36.475L52.1833 36.6103C51.3697 35.7463 51.0083 34.7811 50.3281 33.8382C50.0749 33.487 49.7128 33.3696 49.3367 33.1659C49.7467 32.9993 50.2434 32.9875 50.4074 32.8049Z" fill="#C1DB3C"/>
<path d="M53.7449 34.9337C53.9404 35.2069 54.1229 35.4663 54.3379 35.7258C54.4859 35.9837 54.6727 36.2882 54.7868 36.5575C54.501 37.3488 54.081 37.5376 53.9405 38.2298C53.7046 38.168 53.1719 38.5831 52.1509 38.1824C54.4453 38.1898 52.9272 36.1746 53.7449 34.9337Z" fill="#67981D"/>
<path d="M52.591 33.1411C52.8749 33.4292 52.8844 34.3503 52.8835 34.7787L52.8829 34.825C52.853 35.0776 52.8334 35.2918 52.7676 35.5386L52.6036 35.8747C52.3595 35.2136 51.7085 33.8885 52.3157 33.3702L52.591 33.1411Z" fill="#C1DB3C"/>
<path d="M52.6036 35.8747C52.6662 36.0602 52.791 36.3705 52.622 36.5172C52.3 36.3058 51.4689 33.9325 51.4307 33.5249C51.5484 33.3914 51.8932 33.337 52.0884 33.2891L52.3157 33.3702C51.7085 33.8885 52.3595 35.2136 52.6036 35.8747Z" fill="#65A53E"/>
<path d="M48.4824 34.629C49.1322 34.9327 49.6848 35.4618 50.2393 35.9281L50.2535 36.0103C49.7065 35.8372 48.9628 35.3752 48.4185 35.1004C48.4172 34.9527 48.4561 34.7771 48.4824 34.629Z" fill="#C1DB3C"/>
<path d="M49.0108 36.1348C49.2291 36.2247 49.5167 36.2969 49.6283 36.4723C49.102 36.4416 48.9447 36.3252 48.4795 36.2907C48.7182 36.2446 48.7835 36.2334 49.0108 36.1348Z" fill="#65A53E"/>
<path d="M39.6941 32.2865C40.2746 32.3087 40.4988 32.0834 40.9255 31.729C41.2888 31.4273 41.2461 31.4132 41.5938 31.6811C41.849 31.6436 42.2036 31.5598 42.4303 31.6492L42.5573 31.7787C42.5894 32.0019 42.8243 32.2653 42.9687 32.4543C43.5329 32.8371 43.5358 32.8387 44.2274 32.8437C44.2349 33.1255 44.234 33.486 44.2677 33.7592L44.5111 34.2966L44.5372 34.4856C44.5165 35.3334 44.498 35.4487 45.1805 36.0057C44.9115 36.2032 44.3134 36.4472 43.8823 36.7443C43.8164 36.8387 43.733 36.9714 43.6493 37.0425C42.9769 37.2442 40.8344 38.064 40.2827 37.9069C40.1063 38.0289 39.9314 38.1532 39.7582 38.2798C39.3645 38.3511 39.1557 38.3221 38.7643 38.2677C37.983 37.8563 36.5301 36.6733 36.8205 35.6785C36.9688 35.4921 37.1637 35.3686 37.3573 35.2286C38.3008 34.5817 39.1019 33.6795 39.2254 32.4924L39.3296 32.2894L39.6941 32.2865Z" fill="#96C334"/>
<path d="M39.694 32.2865C40.2744 32.3087 40.4986 32.0834 40.9253 31.729C41.2887 31.4273 41.246 31.4132 41.5937 31.6811C41.8488 31.6436 42.2035 31.5598 42.4302 31.6492L42.5572 31.7787C42.5892 32.0019 42.8241 32.2653 42.9686 32.4543C43.5327 32.8371 43.5356 32.8387 44.2272 32.8437C44.2347 33.1255 44.2338 33.486 44.2676 33.7592C42.5991 34.5101 41.7809 35.1684 40.4454 36.3805C40.1567 36.6424 39.6242 36.3538 39.4228 36.1279C38.6436 35.4479 38.3858 35.3 37.3572 35.2286C38.3007 34.5817 39.1017 33.6795 39.2252 32.4924L39.3294 32.2894L39.694 32.2865Z" fill="#C1DB3C"/>
<path d="M39.6941 32.2865C40.2745 32.3087 40.4987 32.0834 40.9254 31.729C41.2888 31.4273 41.2461 31.4132 41.5937 31.6811C41.0121 32.5335 40.1299 33.5655 39.3525 34.262C39.5083 33.6459 39.8277 32.8506 39.6941 32.2865Z" fill="#AD6A38"/>
<path d="M42.5573 31.7787C42.5893 32.0019 42.8242 32.2653 42.9687 32.4543C42.4333 33.0469 42.0104 33.4653 41.4418 34.0162L41.6753 34.1524C41.2327 34.5968 40.8268 34.9993 40.3604 35.4178C40.5135 35.0928 40.8598 34.4346 40.9393 34.1205C41.3376 33.1242 42.1968 32.5043 42.5573 31.7787Z" fill="#96C334"/>
<path d="M42.9687 32.4543C43.5329 32.8371 43.5357 32.8387 44.2274 32.8437C43.2103 32.839 43.2008 33.0253 42.3885 33.6995C42.1822 33.8254 41.9097 33.9785 41.7357 34.1389L41.6754 34.1524L41.4419 34.0162C42.0104 33.4653 42.4334 33.047 42.9687 32.4543Z" fill="#A67D30"/>
<path d="M42.733 35.1442C43.0187 35.5934 43.5097 36.4208 43.8823 36.7443C43.8164 36.8387 43.733 36.9714 43.6493 37.0425C42.9769 37.2442 40.8344 38.064 40.2827 37.9069C41.1077 36.5699 41.4298 36.0554 42.733 35.1442Z" fill="#AD6A38"/>
<path d="M36.8205 35.6785C38.2255 35.4937 39.5771 36.9712 39.7582 38.2798C39.3645 38.3511 39.1557 38.3221 38.7643 38.2676C37.983 37.8563 36.5301 36.6733 36.8205 35.6785Z" fill="#67981D"/>
<path d="M44.511 34.2966L44.5372 34.4856C44.5165 35.3334 44.498 35.4487 45.1804 36.0057C44.9115 36.2032 44.3133 36.4472 43.8823 36.7443C43.5096 36.4208 43.0187 35.5934 42.7329 35.1442C43.3845 34.7691 43.7428 34.6123 44.4644 34.4411L44.511 34.2966Z" fill="#67981D"/>
<path d="M38.9236 28.2981C39.7067 28.0314 39.9904 28.1637 40.6489 28.666C40.7383 28.4149 40.7944 28.1825 40.9871 28.0011C41.2244 27.9257 41.1231 27.9223 41.3683 28.0274C41.5672 28.2841 41.6279 28.4095 41.7748 28.7024L41.8845 28.6934C42.0556 28.4076 41.8232 28.2735 41.8077 27.9612C41.7534 26.8667 43.5008 26.508 44.0086 27.4216C44.0724 28.086 43.5019 28.3373 43.5061 29.0386C43.2926 29.5466 42.9848 29.7706 42.4359 29.8325C41.737 29.9114 41.6464 29.2843 41.5963 28.8103C40.5479 28.8523 41.1283 29.0007 40.6509 29.8117C40.1054 30.7382 39.3306 30.188 38.7514 29.7291C38.6056 29.0721 38.4857 28.844 38.9236 28.2981Z" fill="#65A53E"/>
<path d="M53.4484 31.5733C53.0764 31.2811 52.8795 30.9722 52.6182 30.5878C51.9175 29.5574 51.7396 28.7909 53.2167 28.5395C53.5407 28.7501 53.7741 28.8984 54.0723 29.151C55.1357 29.0798 55.5923 29.2847 55.9469 30.2974C55.8774 30.4774 55.3962 31.4484 55.3966 31.4937C55.9388 32.0084 56.0363 32.0655 55.9473 32.828C55.3431 32.8288 55.4844 31.491 54.4315 32.2476C54.2146 32.2438 54.2139 32.1369 54.0899 31.9436C53.9066 31.6576 53.7725 31.6832 53.4484 31.5733Z" fill="#65A53E"/>
<path d="M43.5789 29.3737C44.2239 29.1749 44.1557 29.4449 44.5753 29.4669C45.3291 29.5063 46.0789 28.9282 46.4651 29.9812C46.5825 30.3015 46.21 30.8659 46.4462 31.0145C46.8023 31.1585 47.0504 31.142 47.1676 31.5642C47.3417 32.1913 46.8842 32.1315 46.6426 32.3996C46.3613 32.7118 46.4157 33.0439 45.9028 33.1868C45.1147 33.0587 45.6109 32.1787 45.503 31.8404C45.262 31.6186 44.99 31.606 44.663 31.5364C43.8601 30.8106 42.6255 30.4629 43.5789 29.3737Z" fill="#65A53E"/>
<path d="M38.6781 28.0739C38.8676 28.0852 39.0247 28.0679 39.2098 28.0382C39.0756 28.0964 38.9463 28.1667 38.8156 28.2324C38.8747 28.3039 38.8377 28.2836 38.9237 28.2981C38.4858 28.844 38.6056 29.0721 38.7515 29.7292C39.3307 30.188 40.1055 30.7382 40.6509 29.8117C41.1284 29.0007 40.548 28.8523 41.5963 28.8103C41.6464 29.2844 41.737 29.9114 42.436 29.8325C42.9849 29.7706 43.2927 29.5466 43.5061 29.0386L43.5788 29.3737C42.6254 30.4629 43.86 30.8106 44.6629 31.5364C44.2837 31.5719 43.3658 30.4666 43.0132 30.4451C42.4078 30.4082 41.7127 30.9609 41.2742 30.3056C41.0025 29.9458 40.6583 30.5684 40.4215 30.6253C38.4992 31.0876 38.0002 30.3286 38.0392 28.6322C38.2861 28.3803 38.3894 28.2706 38.6781 28.0739Z" fill="#468228"/>
<path d="M50.7454 31.018C50.8049 31.2464 50.8909 31.6215 50.9779 31.8256C50.8426 31.9072 50.6592 31.9826 50.6032 32.1016C50.5854 32.4133 50.5297 32.5149 50.4075 32.8049C50.2436 32.9875 49.7468 32.9993 49.3368 33.1659L48.9492 33.0554L48.9656 32.8857L48.5484 33.1912C48.4031 33.0812 48.3941 33.061 48.3428 32.8852C48.3704 32.6042 48.5845 32.326 48.7419 32.081C49.227 31.9598 50.2753 31.3059 50.7454 31.018Z" fill="#96C334"/>
<path d="M50.6032 32.1016C50.5854 32.4133 50.5297 32.5149 50.4075 32.8049C50.2436 32.9875 49.7468 32.9993 49.3368 33.1659L48.9492 33.0554L48.9656 32.8857C49.2599 32.7866 50.2718 32.2637 50.6032 32.1016Z" fill="#E0E0E0"/>
<path d="M49.6273 30.2612L49.6924 30.2944C50.0677 30.4841 50.4442 30.5013 50.6532 30.6647C50.6927 30.7941 50.7228 30.8847 50.7452 31.018C50.2752 31.3059 49.2269 31.9598 48.7417 32.081C48.9518 31.6366 49.0073 31.2679 49.0049 30.7805L49.6273 30.2612Z" fill="#C1DB3C"/>
<path d="M44.5372 34.4856L44.7114 34.5611C44.906 35.1453 44.9941 35.3412 45.4292 35.7731C46.1628 35.8236 46.6898 35.8336 47.4033 35.5409C47.4738 35.6287 47.517 35.6743 47.566 35.7782C47.1061 36.0435 45.5366 36.5444 45.1805 36.0057C44.498 35.4487 44.5165 35.3334 44.5372 34.4856Z" fill="#31671B"/>
<path d="M49.0051 30.7805C48.9211 30.5806 48.8801 30.5161 48.9108 30.2946C49.0616 30.0446 48.9901 30.0844 49.2261 29.9719C49.5169 30.0424 49.4195 29.9964 49.6275 30.2612L49.0051 30.7805Z" fill="#E0E0E0"/>
<path d="M45.7079 27.0743C45.8329 27.323 45.9528 27.5003 45.9287 27.7758L45.852 27.791C45.6975 27.5806 45.6749 27.491 45.5869 27.2479L45.7079 27.0743Z" fill="#ACC4AB"/>
<path d="M52.1488 25.4898C52.3856 25.4582 52.6251 25.4518 52.8633 25.4706C53.4153 25.5152 54.0294 25.8951 53.9448 26.524C53.876 27.0355 53.4747 27.301 53.0963 27.5895C52.8863 28.2055 52.8574 28.298 52.3081 28.6334C51.4556 28.9433 50.2169 28.2588 50.7909 27.2307C50.8967 27.097 51.3893 26.9223 51.4004 26.733C51.4473 25.9256 51.2348 25.8935 52.1488 25.4898Z" fill="#65A53E"/>
<path d="M48.3527 25.5089C49.1356 25.5784 49.2118 25.8852 49.6143 26.4784C49.918 26.4853 49.8745 26.1762 50.2187 26.0952C50.4052 26.0518 50.6014 26.0894 50.7587 26.1987C50.9257 26.3144 50.9581 26.4293 50.9892 26.6183C50.9418 26.8367 50.9399 26.9273 50.7671 27.0778C50.3718 27.173 50.1415 26.6368 49.824 26.9308L49.8143 27.3558C49.6805 27.6368 49.1271 28.1299 48.8338 28.211C47.9516 28.4549 47.5627 27.6797 47.2231 27.1219C47.2414 26.1278 47.2598 25.6569 48.3527 25.5089Z" fill="#65A53E"/>
<path d="M24.3556 32.3885C24.6351 32.9564 24.8035 33.4344 25.4398 33.6485C25.6134 33.7057 25.7882 33.7587 25.9642 33.8075C26.5259 33.6573 26.7143 33.6001 27.2029 33.2509C30.2144 33.1854 30.9452 34.8223 34.2638 34.7081C34.5792 34.7176 34.6662 34.6697 34.9037 34.8097C35.4245 35.6148 35.6529 36.9228 35.7621 37.8738C36.6208 37.9062 37.4154 37.7965 37.8083 38.7197C37.8754 38.9917 37.9562 39.2817 37.981 39.5587C37.9883 39.9159 37.985 40.151 37.9541 40.5064L37.8271 40.6616C37.3706 40.9545 35.6406 41.1394 35.0988 41.1641C34.3592 41.2943 31.6188 42.1558 31.1817 42.1016C28.9132 42.5349 26.6926 42.9803 24.5973 43.9756L24.6974 44.0948L24.4931 44.4303C23.9621 44.6193 23.6661 44.5941 23.1201 44.6727C22.8429 44.6547 22.4915 44.6765 22.208 44.6859L22.5298 44.4514L22.5449 44.3439C22.2737 44.298 22.0629 44.3048 21.7892 44.3046C21.0737 44.3115 19.8212 44.53 19.2551 44.4531C19.4117 44.1124 19.3284 42.8164 19.4004 42.3458C19.2726 42.0919 18.9753 41.3883 18.8685 41.2361C19.2092 41.2074 19.6338 41.1458 19.7438 40.8109C19.6957 40.5381 19.6937 40.4404 19.6943 40.1639C19.7457 39.7098 19.6178 39.3504 19.8495 38.9672C20.1041 38.8002 20.0198 38.8471 20.3634 38.8545L20.3513 38.3989L20.2224 38.2035C19.2006 37.8516 18.3496 38.3709 17.4306 37.376C17.326 37.0364 17.2296 36.2233 17.1616 36.1168L17.0461 36.106C17.2231 36.0383 17.3997 35.9696 17.5758 35.8999C17.856 35.8979 18.2152 35.8848 18.4884 35.8977C19.3884 35.899 19.9688 35.9152 20.8665 36.0073C20.869 35.8372 21.094 35.4817 21.1657 35.299C21.6848 33.9757 22.9117 33.7832 23.9672 33.084C24.0718 32.8621 24.23 32.6052 24.3556 32.3885Z" fill="#FEDC3F"/>
<path d="M19.6942 40.164C19.7456 39.7098 19.6177 39.3504 19.8494 38.9673C20.104 38.8003 20.0198 38.8471 20.3633 38.8545C20.4439 39.0385 20.5222 39.2191 20.6097 39.4001C20.9151 39.6308 21.3068 39.9532 21.6892 39.9702C22.8078 40.0197 23.9481 39.8525 25.0808 39.8319L33.158 39.6343C34.6884 39.5941 36.4561 39.5132 37.9809 39.5587C37.9882 39.9159 37.9849 40.151 37.954 40.5064L37.827 40.6616C37.3705 40.9545 35.6405 41.1394 35.0987 41.1642C34.3591 41.2943 31.6188 42.1559 31.1816 42.1016C28.9131 42.535 26.6925 42.9803 24.5972 43.9756L24.6973 44.0948L24.493 44.4303C23.962 44.6194 23.6661 44.5942 23.12 44.6727C22.8428 44.6547 22.4914 44.6766 22.2079 44.6859L22.5297 44.4514L22.5448 44.344C22.2736 44.298 22.0628 44.3049 21.7891 44.3046C21.0737 44.3115 19.8211 44.53 19.255 44.4531C19.4116 44.1124 19.3283 42.8164 19.4003 42.3458C19.2726 42.0919 18.9753 41.3883 18.8684 41.2362C19.2091 41.2074 19.6337 41.1458 19.7437 40.8109C19.6956 40.5382 19.6936 40.4404 19.6942 40.164Z" fill="#FEBD0E"/>
<path d="M20.0691 42.764C21.9723 42.9191 30.2699 41.6911 31.1118 41.9467L31.1817 42.1016C28.9133 42.535 26.6927 42.9804 24.5973 43.9757L24.6975 44.0948L24.4932 44.4303C23.9622 44.6194 23.6662 44.5942 23.1202 44.6728C22.843 44.6548 22.4916 44.6766 22.208 44.686L22.5299 44.4514L22.5449 44.344C22.2737 44.2981 22.0629 44.3049 21.7892 44.3047C21.0738 44.3115 19.8213 44.53 19.2551 44.4531C19.4118 44.1124 19.3284 42.8165 19.4004 42.3458L20.0691 42.764Z" fill="#FEBD0E"/>
<path d="M21.7891 44.3047C22.6613 44.1752 23.7157 44.0429 24.5972 43.9756L24.6973 44.0948L24.493 44.4303C23.962 44.6194 23.666 44.5942 23.12 44.6728C22.8428 44.6547 22.4914 44.6766 22.2079 44.6859L22.5297 44.4514L22.5448 44.344C22.2736 44.2981 22.0628 44.3049 21.7891 44.3047Z" fill="#FCF0CB"/>
<path d="M19.7437 40.8109C19.879 41.1807 19.8694 41.2433 20.1659 41.4843C20.3225 41.4707 20.1679 41.4786 20.2732 41.4844C25.0203 41.7489 30.3886 40.7784 35.0987 41.1642C34.3591 41.2943 31.6188 42.1559 31.1816 42.1016L31.1116 41.9467C30.2697 41.6911 21.9722 42.919 20.0689 42.764L19.4003 42.3458C19.2726 42.0919 18.9753 41.3883 18.8684 41.2362C19.2091 41.2074 19.6337 41.1458 19.7437 40.8109Z" fill="#FEDC3F"/>
<path d="M19.6944 40.164C19.7458 39.7098 19.6179 39.3504 19.8496 38.9673C20.1042 38.8003 20.02 38.8471 20.3635 38.8545C20.4441 39.0385 20.5224 39.2191 20.6099 39.4001C20.3925 40.0463 20.7286 41.0291 20.1661 41.4843C19.8696 41.2433 19.8792 41.1807 19.7439 40.8109C19.6958 40.5382 19.6938 40.4404 19.6944 40.164Z" fill="#FEA502"/>
<path d="M24.3556 32.3885C24.635 32.9564 24.8034 33.4344 25.4398 33.6485C25.6133 33.7057 25.7881 33.7587 25.9641 33.8075C26.5258 33.6573 26.7142 33.6001 27.2028 33.2509C30.2144 33.1854 30.9452 34.8223 34.2637 34.7081C34.5791 34.7176 34.6661 34.6697 34.9036 34.8097C35.4244 35.6148 35.6528 36.9228 35.762 37.8738L35.4639 37.8822C33.5532 37.854 32.2399 37.4385 30.4496 37.2249C27.2871 36.8474 24.0247 36.2689 20.8665 36.0073C20.8689 35.8372 21.0939 35.4817 21.1656 35.299C21.6847 33.9757 22.9117 33.7832 23.9671 33.084C24.0718 32.8621 24.2299 32.6052 24.3556 32.3885Z" fill="#C18D56"/>
<path d="M18.4884 35.8977C19.3884 35.899 19.9688 35.9152 20.8665 36.0073C24.0247 36.2689 27.2872 36.8474 30.4497 37.2249C32.2399 37.4385 33.5533 37.8541 35.464 37.8822C35.1285 38.0416 34.8961 38.1234 34.5189 38.1294C29.9538 38.2024 24.8825 37.773 20.3513 38.399L20.2224 38.2035C19.2006 37.8516 18.3496 38.3709 17.4306 37.376C17.326 37.0364 17.2296 36.2233 17.1616 36.1168L17.0461 36.1061C17.2231 36.0383 17.3997 35.9696 17.5758 35.8999C17.856 35.898 18.2152 35.8848 18.4884 35.8977Z" fill="#FEDC3F"/>
<path d="M18.4884 35.8977C19.3884 35.899 19.9688 35.9152 20.8665 36.0073C24.0247 36.2689 27.2872 36.8474 30.4497 37.2249C32.2399 37.4385 33.5533 37.8541 35.464 37.8822C35.1285 38.0416 34.8961 38.1234 34.5189 38.1294C29.9538 38.2024 24.8825 37.773 20.3513 38.399L20.2224 38.2035C21.29 37.4487 28.4895 38.0035 30.2754 37.704L30.2546 37.7162L30.4546 37.5822C30.1829 37.5139 28.4572 37.2972 28.0596 37.2377C25.4475 36.8476 22.8246 36.5338 20.1941 36.2967C19.5601 36.2413 17.5567 36.2986 17.1616 36.1168L17.0461 36.1061C17.2231 36.0383 17.3997 35.9696 17.5758 35.8999C17.856 35.898 18.2152 35.8848 18.4884 35.8977Z" fill="#FFF76F"/>
<path d="M48.1475 38.6271C49.2887 38.5324 51.6966 38.4078 52.7671 38.6683C53.1903 38.6625 53.429 38.7383 53.8329 38.8393C54.5391 39.0509 54.8786 39.2187 55.5106 39.6119C55.5956 39.7058 55.7952 39.9401 55.8877 40.0021C56.4384 41.247 56.4058 41.44 56.385 42.811C56.4142 44.6214 55.2696 45.1633 53.7361 45.5787C53.1741 45.6841 52.4189 45.854 51.8657 45.8474C51.4175 46.293 50.8104 46.863 50.2713 47.1939C49.9885 46.5299 49.699 46.2446 48.9957 46.6168C47.9403 47.1755 46.7808 47.5319 45.6147 47.7702C44.6152 47.9744 42.3143 48.1855 41.4336 47.5187L41.3704 47.322C41.1457 47.0885 40.9826 47.0811 40.6808 47.048L40.2974 46.0178C40.6603 46.0812 40.7293 46.0034 40.979 45.7936L40.9283 45.3495C40.9471 44.1419 41.4769 43.8656 42.0216 42.9745L42.4571 42.722L42.5942 42.3824C43.2719 41.9892 43.7485 41.8416 44.4907 41.5968C44.5242 41.3518 44.5726 41.1853 44.6378 40.948C44.7395 40.2466 45.0702 39.9598 45.5536 39.4965C46.01 39.2523 46.5086 38.9888 47.0191 38.894L47.0345 38.8409C47.351 38.7955 47.8229 38.6901 48.1475 38.6271Z" fill="#A61D19"/>
<path d="M45.2313 40.8044C45.2324 41.0063 45.222 41.0777 45.3154 41.2602C45.5869 41.2741 47.3859 40.7749 47.7669 40.675C47.8951 40.8092 47.947 40.8388 47.9861 41.0117C47.6176 41.0533 44.9303 41.4613 45.4923 42.1853C45.5941 42.4272 45.6224 42.5493 45.845 42.6861C46.0052 42.7154 46.0788 42.7428 46.2341 42.7083C46.54 42.7501 46.7227 43.034 46.9276 43.2759C47.1811 43.3455 47.1318 43.3107 47.4275 43.2011C47.5153 43.3165 47.5928 43.4198 47.6741 43.5398L47.6128 43.6397C47.3666 43.6444 47.0566 43.6324 46.8312 43.7126C47.0456 43.7247 47.3573 43.7176 47.5312 43.8188C47.3472 44.0059 47.2351 43.9616 47.0245 44.1028L46.7046 44.3121C46.4817 44.6169 46.4447 44.7518 46.114 44.8512C46.2964 45.0628 46.3139 45.1012 46.4196 45.358C46.4207 45.6845 46.448 46.0058 46.1865 46.2407C45.5224 46.8373 44.2934 46.9663 43.4318 46.9665C42.5579 46.9666 41.2828 46.723 40.9788 45.7936L40.9282 45.3494C40.947 44.1419 41.4767 43.8656 42.0214 42.9745L42.4569 42.722L42.594 42.3824C43.2718 41.9892 43.7484 41.8416 44.4906 41.5968C44.5241 41.3517 44.5725 41.1853 44.6376 40.948C44.8303 40.8978 44.9163 40.8539 45.083 40.7449C45.1179 40.7573 45.2084 40.7838 45.2313 40.8044Z" fill="#A61D19"/>
<path d="M45.2314 40.8044C45.2325 41.0063 45.2221 41.0777 45.3155 41.2602C45.587 41.2741 47.386 40.7749 47.767 40.675C47.8952 40.8092 47.9471 40.8388 47.9862 41.0117C47.6177 41.0533 44.9304 41.4613 45.4924 42.1853C45.5942 42.4272 45.6225 42.5493 45.8451 42.6861C46.0052 42.7154 46.0789 42.7428 46.2342 42.7083C46.5401 42.7501 46.7228 43.034 46.9277 43.2759C47.1812 43.3455 47.1319 43.3107 47.4276 43.2011C47.5154 43.3165 47.5929 43.4198 47.6742 43.5398L47.6129 43.6397C47.3667 43.6444 47.0567 43.6324 46.8313 43.7126C47.0457 43.7247 47.3574 43.7176 47.5313 43.8188C47.3473 44.0059 47.2352 43.9616 47.0246 44.1028L46.7047 44.3121C46.4818 44.6169 46.4448 44.7518 46.1141 44.8512C45.8034 45 45.3638 45.3204 45.135 45.3732C45.2124 45.0275 45.4083 45.0392 45.3488 44.8243C45.0588 44.7457 44.2041 45.0324 43.9356 45.1675L43.8049 45.1104L43.7785 45.0003L44.1038 44.7308C43.842 44.3708 44.1016 44.2132 43.9046 43.9839C43.8497 43.9201 43.4067 43.9364 43.2752 43.7288L43.4283 43.6332C43.847 43.227 44.7166 43.4156 44.9556 42.9193C44.7581 41.473 43.3109 42.6803 42.457 42.722L42.5941 42.3824C43.2719 41.9892 43.7485 41.8416 44.4907 41.5968C44.5242 41.3517 44.5726 41.1853 44.6377 40.948C44.8304 40.8978 44.9164 40.8539 45.0831 40.7449C45.118 40.7573 45.2085 40.7838 45.2314 40.8044Z" fill="#FA583A"/>
<path d="M43.4282 43.6332C43.7941 43.6379 44.2423 43.6312 44.5993 43.6721L44.6691 43.7654C44.3094 44.5558 45.0476 44.3215 44.1037 44.7309C43.842 44.3708 44.1015 44.2132 43.9045 43.9839C43.8497 43.9201 43.4066 43.9364 43.2751 43.7288L43.4282 43.6332Z" fill="#800D0B"/>
<path d="M46.2342 42.7083C46.54 42.7501 46.7228 43.0339 46.9277 43.2759C47.1811 43.3455 47.1318 43.3107 47.4276 43.2011C47.5153 43.3165 47.5929 43.4198 47.6742 43.5398L47.6129 43.6397C47.3667 43.6444 47.0567 43.6324 46.8312 43.7125C46.6094 43.741 46.4047 43.6961 46.1833 43.6621C46.4651 43.172 46.3783 43.266 46.2342 42.7083Z" fill="#800D0B"/>
<path d="M43.9355 45.1675C44.204 45.0323 45.0587 44.7457 45.3487 44.8243C45.4082 45.0392 45.2123 45.0274 45.1349 45.3731C45.3637 45.3203 45.8033 45 46.114 44.8511C46.2964 45.0627 46.3139 45.1011 46.4196 45.358C45.6477 45.3677 44.6045 45.936 44.2398 45.7637C44.2719 45.6264 44.2793 45.6087 44.3433 45.4809L44.3595 45.4489C44.1183 45.3241 44.0996 45.4455 43.7678 45.395C43.7894 45.2487 43.7864 45.293 43.9355 45.1675Z" fill="#800D0B"/>
<path d="M42.6677 45.2068C42.9451 45.2204 43.2283 45.2787 43.3063 45.5624L43.1063 45.7842C42.8234 45.8088 42.4741 45.7249 42.4526 45.3979L42.6677 45.2068Z" fill="#800D0B"/>
<path d="M42.9358 43.6268C43.0282 43.6382 43.0953 43.6848 43.178 43.7297L43.1633 43.8594L42.6677 44.2375L42.4026 44.2076L42.3267 44.0974C42.437 43.8995 42.7333 43.75 42.9358 43.6268Z" fill="#C18D56"/>
<path d="M47.9861 41.0117C48.2757 41.0584 48.5831 41.0937 48.8738 41.1062C49.958 41.1529 51.2301 42.0608 50.9737 43.2718C50.7084 44.5248 49.1792 45.2229 48.1058 45.6802C47.9187 45.7593 47.5321 45.8829 47.343 45.8466C47.1708 45.6583 47.0215 45.3392 46.8988 45.1051C46.8383 44.8397 46.7736 44.5754 46.7046 44.3121L47.0245 44.1028C47.2351 43.9615 47.3472 44.0059 47.5312 43.8188C47.3572 43.7176 47.0456 43.7247 46.8311 43.7125C47.0566 43.6324 47.3666 43.6444 47.6128 43.6397L47.6741 43.5398C47.5928 43.4198 47.5152 43.3165 47.4275 43.2011C47.1317 43.3107 47.181 43.3455 46.9276 43.2759C46.7227 43.0339 46.5399 42.7501 46.2341 42.7083C46.0787 42.7427 46.0051 42.7153 45.8449 42.686C45.6223 42.5493 45.5941 42.4272 45.4923 42.1853C44.9303 41.4613 47.6175 41.0533 47.9861 41.0117Z" fill="#A61D19"/>
<path d="M45.4924 42.1853C45.5695 42.146 45.6154 42.1072 45.7114 42.0982C46.6266 42.0129 46.9276 42.2011 47.4276 43.2011C47.1319 43.3108 47.1812 43.3456 46.9278 43.2759C46.7228 43.034 46.5401 42.7502 46.2342 42.7084C46.0789 42.7428 46.0053 42.7154 45.8451 42.6861C45.6225 42.5493 45.5942 42.4272 45.4924 42.1853Z" fill="#991613"/>
<path d="M46.8989 45.1051C47.0882 44.837 47.0743 44.8379 47.378 44.8118L47.6018 44.8759C47.6598 45.1417 47.4641 45.5964 47.3431 45.8466C47.1709 45.6583 47.0216 45.3392 46.8989 45.1051Z" fill="#800D0B"/>
<path d="M47.0245 44.1028C47.3162 44.4653 47.0034 44.623 47.3779 44.8118C47.0742 44.8379 47.0881 44.837 46.8988 45.1051C46.8383 44.8397 46.7736 44.5754 46.7046 44.3121L47.0245 44.1028Z" fill="#800D0B"/>
<path d="M48.2305 44.2594C48.551 44.2416 48.9266 44.182 49.1881 44.3336L49.1913 44.4973C48.9327 44.5665 48.7121 44.6475 48.4479 44.6093C48.248 44.4677 48.3124 44.546 48.2305 44.2594Z" fill="#DDB88E"/>
<path d="M48.1474 38.6271C49.2886 38.5324 51.6966 38.4078 52.767 38.6683C52.3869 38.693 51.8357 38.679 51.5378 38.8938C51.3005 38.9259 50.9928 38.9852 50.765 38.9425C50.5963 39.497 50.5936 39.9061 51.1691 40.2035L51.3243 40.3647L51.1664 40.4203L50.9474 40.4868C50.8808 40.8621 50.9827 40.7717 50.7822 41.0529C50.447 41.1957 49.6247 40.8331 49.3773 40.6059C49.081 40.768 48.8709 40.6995 48.5393 40.6239C48.3027 40.6367 47.9955 40.6448 47.767 40.6751C47.386 40.7749 45.5869 41.2741 45.3155 41.2602C45.2221 41.0777 45.2325 41.0063 45.2313 40.8044C45.2085 40.7838 45.1179 40.7573 45.083 40.7449C44.9164 40.8539 44.8304 40.8978 44.6377 40.948C44.7394 40.2466 45.0701 39.9598 45.5535 39.4965C46.01 39.2523 46.5085 38.9888 47.019 38.894L47.0344 38.8409C47.351 38.7955 47.8228 38.6901 48.1474 38.6271Z" fill="#A61D19"/>
<path d="M48.1473 38.6271C49.2886 38.5324 51.6965 38.4078 52.7669 38.6683C52.3869 38.693 51.8356 38.679 51.5378 38.8938C51.3004 38.9259 50.9927 38.9852 50.7649 38.9425C50.5962 39.497 50.5935 39.9061 51.1691 40.2035L51.3242 40.3647L51.1664 40.4203L50.9473 40.4868C50.8807 40.8621 50.9826 40.7717 50.7821 41.0529C50.4469 41.1957 49.6246 40.8331 49.3773 40.6059C49.0809 40.768 48.8708 40.6995 48.5392 40.6239C48.4469 40.5548 48.2581 40.5408 48.1475 40.5326L48.1015 40.5295L48.0193 40.3645L48.0359 40.271L48.2688 40.1886C48.7991 39.8954 49.4456 40.3956 49.9045 39.8393C49.9631 39.2703 49.5309 39.1176 49.0936 38.9754C48.5001 38.9285 48.6793 38.8549 48.191 38.6455L48.1473 38.6271Z" fill="#FA583A"/>
<path d="M48.0359 40.271L48.2688 40.1886C48.5466 40.2867 49.142 40.4767 49.3773 40.6059C49.0809 40.768 48.8708 40.6995 48.5392 40.6239C48.4469 40.5548 48.2581 40.5408 48.1475 40.5326L48.1015 40.5295L48.0193 40.3645L48.0359 40.271Z" fill="#800D0B"/>
<path d="M47.0344 38.8409C47.351 38.7955 47.8228 38.6901 48.1474 38.6271L48.1911 38.6455C48.6793 38.8548 48.5002 38.9285 49.0937 38.9754L48.0997 39.0589C46.7361 39.3443 46.1615 39.4968 45.3355 40.6964C45.2968 40.7526 45.2838 40.7635 45.2313 40.8044C45.2085 40.7838 45.1179 40.7573 45.083 40.7449C44.9164 40.8539 44.8304 40.8978 44.6377 40.948C44.7394 40.2466 45.0701 39.9598 45.5535 39.4964C46.01 39.2523 46.5085 38.9888 47.019 38.894L47.0344 38.8409Z" fill="#E33623"/>
<path d="M47.0344 38.8409C47.351 38.7955 47.8228 38.6901 48.1474 38.6271L48.1911 38.6455C48.6794 38.8548 48.5002 38.9285 49.0937 38.9754L48.0997 39.0589C47.6602 39.0394 47.4437 39.0103 47.019 38.894L47.0344 38.8409Z" fill="#F64931"/>
<path d="M48.0193 40.3645C47.7428 40.4592 47.407 40.5354 47.1892 40.3197L47.2531 40.1828C47.5443 40.0423 47.7707 40.1187 48.036 40.271L48.0193 40.3645Z" fill="#DDB88E"/>
<path d="M49.3774 40.6059C49.6248 40.8331 50.447 41.1956 50.7823 41.0528C50.9827 40.7716 50.8809 40.862 50.9474 40.4867L51.1665 40.4203C51.0911 40.6496 51.0253 40.7884 51.0637 41.0267C51.2352 41.2681 51.2797 41.2881 51.6185 41.3643L51.8693 41.4577C51.6695 41.5942 51.624 41.6042 51.3992 41.6691C51.2744 41.9814 51.5137 42.5146 51.6201 42.8802C52.0933 44.5076 49.4679 45.7643 48.2666 46.265C46.3316 47.0713 43.4468 48.0581 41.3704 47.322C41.1457 47.0884 40.9826 47.0811 40.6808 47.048L40.2974 46.0177C40.6603 46.0811 40.7293 46.0034 40.979 45.7936C41.2829 46.723 42.5581 46.9666 43.4319 46.9665C44.2935 46.9663 45.5225 46.8373 46.1866 46.2407C46.4481 46.0058 46.4208 45.6844 46.4197 45.358C46.314 45.1011 46.2966 45.0627 46.1141 44.8511C46.4448 44.7518 46.4819 44.6168 46.7047 44.3121C46.7737 44.5754 46.8385 44.8397 46.899 45.1051C47.0217 45.3392 47.171 45.6583 47.3432 45.8466C47.5322 45.8829 47.9189 45.7593 48.106 45.6802C49.1794 45.2229 50.7086 44.5248 50.9739 43.2718C51.2303 42.0608 49.9582 41.1529 48.874 41.1062C48.5833 41.0937 48.2759 41.0584 47.9863 41.0117C47.9471 40.8388 47.8952 40.8092 47.767 40.675C47.9956 40.6448 48.3027 40.6366 48.5394 40.6238C48.8709 40.6995 49.0811 40.768 49.3774 40.6059Z" fill="#E33623"/>
<path d="M52.767 38.6683C53.1902 38.6625 53.4289 38.7382 53.8328 38.8393C54.539 39.0509 54.8785 39.2187 55.5105 39.6119C55.5955 39.7058 55.7951 39.9401 55.8876 40.002C56.4383 41.247 56.4057 41.44 56.3849 42.8109C56.3591 42.589 56.3536 42.5183 56.2748 42.2997C55.3168 43.3527 54.0068 44.0189 52.5916 44.1727C52.3811 44.1965 52.2365 44.1977 52.0644 44.0616C51.9747 43.8669 51.9718 43.8411 51.9812 43.6266C53.052 42.7821 54.9481 44.001 55.7125 41.409C55.5911 40.8569 55.5202 40.4289 55.1241 40.0093C54.1905 39.0201 52.7824 38.9504 51.5378 38.8938C51.8357 38.679 52.3869 38.693 52.767 38.6683Z" fill="#E33623"/>
<path d="M51.8657 45.8473C52.1649 44.4638 53.3712 44.0906 53.736 45.5787C53.174 45.6841 52.4188 45.8539 51.8657 45.8473Z" fill="#E33623"/>
<path d="M51.3242 40.3646C51.4439 40.399 51.4779 40.3848 51.5397 40.4636C51.6315 40.645 51.6723 40.7522 51.8264 40.8915C52.0599 41.2704 52.7036 41.5155 52.7516 41.8566C52.4859 41.857 52.268 41.5713 51.8691 41.4577L51.6183 41.3643C51.2796 41.2881 51.2351 41.2681 51.0635 41.0267C51.0252 40.7884 51.0909 40.6496 51.1664 40.4203L51.3242 40.3646Z" fill="#800D0B"/>
<path d="M50.765 38.9425C51.1188 39.1556 51.0234 39.2938 50.9775 39.7036L51.328 39.824L51.354 39.9404L51.1691 40.2035C50.5936 39.9061 50.5963 39.4969 50.765 38.9425Z" fill="#800D0B"/>
<path d="M50.9775 39.7036C51.3547 39.7144 51.8686 39.8977 51.849 40.3418C51.7089 40.4344 51.7026 40.444 51.5397 40.4636C51.4779 40.3848 51.4439 40.399 51.3243 40.3646L51.1691 40.2035L51.354 39.9404L51.328 39.824L50.9775 39.7036Z" fill="#991613"/>
<path d="M52.4441 42.189C53.0249 42.1746 53.4415 42.1643 53.5993 42.782C53.0201 42.7788 52.5775 42.8318 52.4441 42.189Z" fill="#C18D56"/>
<path d="M52.6682 40.1668C52.9576 40.147 53.4126 40.0706 53.6368 40.2312L53.6634 40.4044C53.2697 40.4441 52.8369 40.5717 52.6682 40.1668Z" fill="#C18D56"/>
<path d="M54.085 41.3275C54.4408 41.3145 54.7364 41.2159 54.859 41.5764C54.4373 41.6262 54.2453 41.736 54.085 41.3275Z" fill="#DDB88E"/>
<path d="M40.2826 37.9069C40.8344 38.064 42.9769 37.2443 43.6492 37.0425L43.7154 37.5621C43.6929 37.7674 43.8109 37.9095 43.9212 38.0843C44.4449 38.2897 44.569 38.2353 45.1148 38.063C45.1173 38.4635 45.0662 38.931 45.2127 39.2748C45.3515 39.3854 45.3937 39.421 45.5535 39.4965C45.0701 39.9598 44.7394 40.2466 44.6377 40.948C44.5725 41.1853 44.5242 41.3518 44.4906 41.5968C43.7485 41.8416 43.2718 41.9892 42.5941 42.3824L42.457 42.722L42.0215 42.9745C41.7753 43.0376 41.5423 43.0948 41.3011 43.1764C40.7468 43.1648 38.299 43.9318 37.654 44.1087C36.5193 44.4088 35.3831 44.7028 34.2454 44.9909C33.9164 44.9995 33.6626 45.0864 33.3172 45.066C32.0907 44.9939 30.8503 44.8992 29.6344 44.7311C29.5222 44.7419 24.4961 44.4314 24.4932 44.4303L24.6974 44.0948L24.5973 43.9757C26.6926 42.9804 28.9133 42.535 31.1817 42.1016C31.6189 42.1559 34.3593 41.2943 35.0989 41.1642C35.6406 41.1394 37.3706 40.9546 37.8271 40.6617L37.9541 40.5065C37.985 40.151 37.9883 39.9159 37.981 39.5587C37.9563 39.2817 37.8755 38.9917 37.8084 38.7197C38.2149 38.53 38.2731 38.4366 38.7643 38.2677C39.1556 38.3222 39.3644 38.3511 39.7582 38.2798C39.9313 38.1532 40.1062 38.0289 40.2826 37.9069Z" fill="#FEDC3F"/>
<path d="M40.2826 37.9069C40.8343 38.064 42.9768 37.2443 43.6492 37.0425L43.7153 37.5621C43.6928 37.7674 43.8108 37.9095 43.9212 38.0843C44.4448 38.2897 44.569 38.2353 45.1148 38.063C45.1173 38.4635 45.0662 38.931 45.2127 39.2748C45.3515 39.3854 45.3937 39.421 45.5535 39.4965C45.0701 39.9598 44.7394 40.2466 44.6377 40.948C44.5725 41.1853 44.5241 41.3518 44.4906 41.5968C43.7484 41.8416 43.2718 41.9892 42.5941 42.3824C42.5377 42.0482 42.4936 41.874 42.3941 41.5491C42.1307 40.9112 41.9123 40.1954 41.1243 40.2053C40.298 40.189 38.2535 40.7271 37.8271 40.6617L37.9541 40.5065C37.985 40.151 37.9883 39.9159 37.981 39.5587C37.9562 39.2817 37.8754 38.9917 37.8083 38.7197C38.2149 38.53 38.2731 38.4366 38.7642 38.2677C39.1556 38.3222 39.3644 38.3511 39.7581 38.2798C39.9313 38.1532 40.1062 38.0289 40.2826 37.9069Z" fill="#E0E0E0"/>
<path d="M40.2826 37.9069C40.8343 38.064 42.9768 37.2443 43.6492 37.0425L43.7153 37.5621C43.6928 37.7674 43.8108 37.9095 43.9212 38.0843C43.1716 38.5596 42.7101 38.7826 41.8832 39.0837C40.8201 39.471 38.8472 39.8704 37.9541 40.5065C37.985 40.151 37.9883 39.9159 37.981 39.5587C37.9562 39.2817 37.8754 38.9917 37.8083 38.7197C38.2149 38.53 38.2731 38.4366 38.7642 38.2677C39.1556 38.3222 39.3644 38.3511 39.7581 38.2798C39.9313 38.1532 40.1062 38.0289 40.2826 37.9069Z" fill="#A15119"/>
<path d="M29.6343 44.7311C29.8763 44.55 30.1137 44.5297 30.3978 44.4539C33.8059 43.5442 37.2228 42.701 40.6667 41.9345C41.2053 41.8147 41.8954 41.7285 42.394 41.5491C42.4935 41.874 42.5376 42.0482 42.594 42.3824L42.4569 42.722L42.0214 42.9745C41.7752 43.0376 41.5421 43.0948 41.301 43.1764C40.7467 43.1648 38.2989 43.9318 37.6539 44.1087C36.5192 44.4088 35.383 44.7028 34.2452 44.9909C33.9163 44.9995 33.6625 45.0864 33.317 45.066C32.0906 44.9939 30.8502 44.8992 29.6343 44.7311Z" fill="#FEBD0E"/>
<path d="M37.827 40.6616C38.2534 40.7271 40.2979 40.189 41.1242 40.2053C39.6786 40.577 38.2237 40.9747 36.765 41.2875C34.157 41.8468 31.5298 42.2916 28.9429 42.9526C28.3769 43.0973 25.091 44.1354 24.8687 44.1097C24.8119 44.1032 24.7542 44.1006 24.6973 44.0948L24.5972 43.9756C26.6925 42.9803 28.9131 42.5349 31.1816 42.1016C31.6188 42.1558 34.3591 41.2943 35.0987 41.1641C35.6405 41.1394 37.3705 40.9545 37.827 40.6616Z" fill="#FFF76F"/>
<path d="M24.4932 44.4303C24.4961 44.4313 29.5222 44.7419 29.6344 44.731C30.8503 44.8992 32.0907 44.9939 33.3172 45.066C33.6626 45.0863 33.9164 44.9995 34.2454 44.9908C34.743 45.4641 36.481 45.3792 37.3741 45.5607C38.99 45.7044 39.5581 45.5959 39.7122 47.463C39.0208 47.117 33.606 47.1661 32.3931 46.9769C31.7898 46.8827 30.1891 46.7758 29.5362 46.7492L25.5667 46.6142C24.3727 46.5659 23.3047 46.7335 22.4106 45.8478C22.2077 45.1988 22.2971 45.2591 22.186 44.7229L22.208 44.6859C22.4915 44.6765 22.8429 44.6547 23.1202 44.6727C23.6662 44.5941 23.9622 44.6193 24.4932 44.4303Z" fill="#FEDC3F"/>
<path d="M24.4931 44.4303C24.496 44.4313 29.5221 44.7419 29.6344 44.731C30.8502 44.8992 32.0907 44.9939 33.3171 45.066C33.6626 45.0863 33.9164 44.9995 34.2453 44.9908C34.743 45.4641 36.481 45.3792 37.3741 45.5607C36.6069 45.6298 35.7389 45.5275 34.9607 45.4803C31.0287 45.2417 27.0548 44.84 23.1201 44.6727C23.6661 44.5941 23.9621 44.6193 24.4931 44.4303Z" fill="#FFF76F"/>
<path d="M53.4486 31.5732C53.7727 31.6832 53.9068 31.6576 54.09 31.9436C54.214 32.1368 54.2148 32.2438 54.4316 32.2476C55.4845 31.491 55.3432 32.8288 55.9475 32.828C55.9953 33.1586 56.0373 33.703 56.2501 33.9505L56.3359 33.9971C56.7383 33.958 56.8241 33.8919 57.0627 33.5913C57.3859 33.4575 57.4731 33.464 57.8275 33.4595L57.8814 33.4318C58.3755 33.8957 58.5668 34.0303 58.7444 34.7141C58.6193 35.2761 58.3374 35.5637 58.2706 35.9007C58.4568 35.9727 58.8203 36.1245 58.9985 36.1616C60.6267 36.4206 59.9019 37.9367 58.5566 37.4545C58.4175 37.7013 58.4378 37.7076 58.5177 37.9909C58.634 38.1005 58.7294 38.1705 58.7934 38.3164C58.6912 38.4607 58.5955 38.6299 58.3783 38.6068C58.122 38.5794 57.1095 38.8099 57.0118 38.8089L56.6627 38.8393C56.167 38.9853 56.2393 39.4262 55.7974 39.5243L55.5106 39.6119C54.8786 39.2187 54.5391 39.0509 53.8329 38.8393L53.9405 38.2299C54.081 37.5376 54.501 37.3488 54.7868 36.5575C54.6727 36.2882 54.4859 35.9837 54.3379 35.7258C54.1229 35.4664 53.9404 35.2069 53.7449 34.9337L53.7547 34.7972C53.6124 34.6671 53.6113 34.6022 53.5577 34.4129L53.5284 34.4568C53.2921 34.8178 53.128 35.4246 52.8979 35.6439C52.7833 35.5944 52.8194 35.6361 52.7677 35.5386C52.8335 35.2918 52.8531 35.0777 52.883 34.825L52.8836 34.7788C52.8845 34.3503 52.875 33.4292 52.5911 33.1411C52.8753 32.6386 52.5005 32.382 53.0109 31.9719C53.5136 31.8123 53.6032 31.9074 54.0254 32.117C54.0543 31.9942 54.029 32.0071 53.96 31.8597C53.7894 31.7904 53.6573 31.7449 53.4837 31.689L53.4486 31.5732Z" fill="#96C334"/>
<path d="M58.2705 35.9007C58.4567 35.9727 58.8202 36.1245 58.9984 36.1617C60.6266 36.4206 59.9018 37.9368 58.5566 37.4545C58.4174 37.7014 58.4377 37.7076 58.5176 37.991C58.6339 38.1005 58.7293 38.1705 58.7933 38.3164C58.6911 38.4607 58.5954 38.6299 58.3782 38.6068C58.1219 38.5795 57.1094 38.8099 57.0117 38.8089L56.6627 38.8393C56.5589 38.8084 56.4329 38.6523 56.3514 38.5672C55.9873 38.7094 55.7446 38.8659 55.3543 38.8012L55.0535 38.56C55.4665 38.1441 55.7162 37.9089 56.163 37.5542C56.6244 37.1879 57.9839 36.2944 58.2705 35.9007Z" fill="#96C334"/>
<path d="M58.2705 35.9007C58.4567 35.9727 58.8202 36.1245 58.9984 36.1617C58.7221 36.714 56.8411 36.7974 56.0314 38.3769C55.7989 38.493 55.52 38.6071 55.3543 38.8012L55.0535 38.56C55.4665 38.1441 55.7162 37.9089 56.163 37.5542C56.6244 37.1879 57.9839 36.2944 58.2705 35.9007Z" fill="#B6E054"/>
<path d="M58.5175 37.991C58.6338 38.1005 58.7293 38.1705 58.7932 38.3165C58.691 38.4607 58.5953 38.6299 58.3782 38.6068C58.1219 38.5795 57.1093 38.81 57.0117 38.8089L56.6626 38.8393C56.5588 38.8084 56.4328 38.6523 56.3513 38.5672C57.1977 38.1818 57.5829 37.9995 58.5175 37.991Z" fill="#C1DB3C"/>
<path d="M56.0313 38.3769C56.0615 38.3697 56.0916 38.3626 56.1217 38.3554L56.1716 38.3419C56.9355 38.1391 57.9378 37.1057 58.6005 37.3802L58.5565 37.4545C58.4173 37.7013 58.4376 37.7075 58.5175 37.9909C57.5829 37.9994 57.1977 38.1817 56.3513 38.5671C55.9872 38.7094 55.7445 38.8659 55.3542 38.8012C55.5199 38.6071 55.7988 38.4929 56.0313 38.3769Z" fill="#67981D"/>
<path d="M53.4486 31.5732C53.7727 31.6832 53.9068 31.6576 54.09 31.9436C54.214 32.1368 54.2148 32.2438 54.4316 32.2476C55.4845 31.491 55.3432 32.8288 55.9475 32.828C55.9953 33.1586 56.0373 33.703 56.2501 33.9505C55.7307 34.115 55.7271 34.7909 55.4941 35.2945C55.4485 35.2962 55.4014 35.3044 55.364 35.2908C55.4553 34.6789 55.2167 34.4623 54.8441 34.0255C55.0654 33.5768 55.2774 33.3452 55.0005 32.8692C54.5403 32.6561 54.2885 33.0467 54.0248 33.383C53.7809 33.8068 53.7175 34.123 53.5577 34.4129L53.5284 34.4568C53.2921 34.8178 53.128 35.4246 52.8979 35.6439C52.7833 35.5944 52.8194 35.6361 52.7677 35.5386C52.8335 35.2918 52.8531 35.0777 52.883 34.825L52.8836 34.7788C52.8845 34.3503 52.875 33.4292 52.5911 33.1411C52.8753 32.6386 52.5005 32.382 53.0109 31.9719C53.5136 31.8123 53.6032 31.9074 54.0254 32.117C54.0543 31.9942 54.029 32.0071 53.96 31.8597C53.7894 31.7904 53.6573 31.7449 53.4837 31.689L53.4486 31.5732Z" fill="#67981D"/>
<path d="M53.0109 31.9719C53.2836 32.0143 53.5686 32.0258 53.7636 32.2128C54.1404 32.8305 53.0693 33.955 52.883 34.8251L52.8836 34.7788C52.8845 34.3503 52.875 33.4292 52.5911 33.1412C52.8753 32.6386 52.5005 32.382 53.0109 31.9719Z" fill="#96C334"/>
<path d="M57.0626 33.5913C57.3858 33.4576 57.473 33.464 57.8274 33.4595C57.8933 33.8315 57.3259 34.3084 57.0752 34.6417C56.9563 34.9854 55.9615 36.3353 55.6411 36.4634C55.715 36.148 56.0534 35.714 56.2191 35.3171L56.1043 35.2639C55.8889 34.8853 56.2588 34.4443 56.3358 33.9971C56.7382 33.958 56.824 33.8919 57.0626 33.5913Z" fill="#C1DB3C"/>
<path d="M56.3359 33.9971C56.7383 33.958 56.8241 33.8919 57.0627 33.5913C57.0537 33.8106 57.0676 34.0834 56.9745 34.2701C56.6359 34.4222 56.5007 34.9061 56.2192 35.3171L56.1044 35.2639C55.889 34.8853 56.2588 34.4444 56.3359 33.9971Z" fill="#65A53E"/>
<path d="M55.0534 38.5601C55.0054 38.5839 54.9566 38.5716 54.8914 38.5695L54.898 38.4562C55.392 37.9447 58.2936 34.9758 58.7443 34.7141C58.6191 35.2761 58.3372 35.5637 58.2704 35.9007C57.9838 36.2945 56.6243 37.1879 56.1629 37.5542C55.7161 37.9089 55.4664 38.1441 55.0534 38.5601Z" fill="#67981D"/>
<path d="M54.0247 33.383C54.2011 33.5375 54.2555 33.7416 54.3402 33.9621C54.2913 34.3587 54.1111 34.4084 54.0993 34.6327L53.9389 34.5707C53.8128 34.657 53.8211 34.6559 53.7546 34.7972C53.6123 34.6671 53.6112 34.6022 53.5576 34.4129C53.7174 34.123 53.7808 33.8068 54.0247 33.383Z" fill="#C1DB3C"/>
<path d="M53.7546 34.7972C53.8211 34.6559 53.8128 34.657 53.939 34.5707L54.0994 34.6327C54.2167 35.0046 54.467 35.4472 54.3378 35.7258C54.1228 35.4664 53.9404 35.2069 53.7449 34.9337L53.7546 34.7972Z" fill="#C1DB3C"/>
<path d="M22.4106 45.8478C23.3047 46.7335 24.3727 46.5659 25.5667 46.6142L29.5362 46.7492C30.1891 46.7758 31.7898 46.8827 32.3931 46.9769C33.606 47.1661 39.0208 47.117 39.7122 47.463C39.6756 48.1249 39.6266 48.616 38.8321 48.6076C38.0495 48.5993 37.2741 48.558 36.4925 48.5306L31.6778 48.3538L25.0689 48.1203C24.2748 48.091 22.8411 48.1246 22.0952 47.9923C22.0958 47.9152 22.3873 45.9463 22.4106 45.8478Z" fill="#FEBD0E"/>
<path d="M21.8156 30.3297C22.3706 30.3852 22.6621 30.4816 23.198 30.6404C23.9568 31.1528 24.0658 31.5401 24.3557 32.3886C24.2301 32.6052 24.0719 32.8621 23.9673 33.084C22.9118 33.7832 21.6849 33.9757 21.1658 35.299C21.0941 35.4817 20.8691 35.8372 20.8666 36.0073C19.9689 35.9152 19.3885 35.899 18.4885 35.8977C18.2153 35.8848 17.8561 35.898 17.5759 35.8999C17.5783 35.2039 17.7157 34.5678 17.1145 34.1266L17.2307 34.0238C17.661 33.7743 17.4185 33.6461 17.7464 33.3201C17.9723 33.4384 18.0913 33.4849 18.2587 33.6788C18.8428 34.2751 19.6479 34.9729 20.4714 34.3019C21.0276 33.8251 20.5711 33.0291 20.6601 32.4007C20.7768 31.5775 22.0562 31.5685 22.1559 30.7219C22.0069 30.4221 22.0911 30.5183 21.8156 30.3297Z" fill="#DDB88E"/>
<path d="M17.7464 33.3201C17.9723 33.4384 18.0913 33.4849 18.2587 33.6788C18.2017 34.1362 18.3481 35.4474 18.4885 35.8977C18.2153 35.8848 17.8561 35.898 17.5759 35.8999C17.5783 35.2039 17.7157 34.5678 17.1145 34.1266L17.2307 34.0238C17.661 33.7743 17.4185 33.6461 17.7464 33.3201Z" fill="#C18D56"/>
<path d="M19.4957 29.4305C19.7927 29.5458 19.7253 29.4749 19.9057 29.7097C19.9722 30.071 19.8808 30.3489 20.0302 30.5677C20.1397 30.6034 20.2359 30.6377 20.3486 30.6637C20.7937 30.5055 20.9781 30.3948 21.3813 30.162L21.8155 30.3297C22.0911 30.5183 22.0069 30.4221 22.1559 30.722C22.0561 31.5686 20.7767 31.5775 20.6601 32.4007C20.5711 33.0292 21.0276 33.8251 20.4714 34.3019C19.6479 34.9729 18.8428 34.2752 18.2587 33.6788C18.0912 33.4849 17.9723 33.4384 17.7463 33.3202C17.4838 33.3164 16.9377 33.2575 16.6584 33.2353C16.3364 32.9829 16.1725 32.762 16.0046 32.3969C16.5073 30.9312 17.0694 30.9631 18.4646 30.7752C18.575 30.7212 18.8314 30.7269 18.971 30.7201L19.0167 30.6215C19.1866 30.0382 19.1978 29.9506 19.4957 29.4305Z" fill="#FCF0CB"/>
<path d="M19.4957 29.4305C19.7927 29.5458 19.7253 29.4749 19.9056 29.7097C19.9721 30.071 19.8808 30.3489 20.0302 30.5677C20.1397 30.6034 20.2359 30.6377 20.3485 30.6637C19.5169 30.9107 19.4088 31.0161 18.4646 30.7752C18.575 30.7212 18.8314 30.7269 18.971 30.7201L19.0166 30.6215C19.1865 30.0382 19.1978 29.9506 19.4957 29.4305Z" fill="#DDB88E"/>
<path d="M41.3702 47.322L41.4335 47.5186C42.3142 48.1855 44.6151 47.9743 45.6146 47.7701C46.7806 47.5319 47.9401 47.1755 48.9956 46.6168C49.6989 46.2446 49.9884 46.5299 50.2711 47.1939C48.227 48.2529 45.8467 49.0851 43.5251 49.1298C41.676 49.1655 41.2327 48.668 40.6807 47.048C40.9825 47.0811 41.1456 47.0884 41.3702 47.322Z" fill="#E33623"/>
<path d="M57.0117 38.8089C57.1094 38.8099 58.1219 38.5794 58.3782 38.6067C58.5954 38.6299 58.6911 38.4607 58.7933 38.3164C59.3439 38.8385 59.531 38.3398 60.2798 38.7404C60.5438 39.6479 59.706 39.8534 59.9817 40.1405C60.8326 41.0266 58.901 42.2646 58.3499 41.7866C57.2028 40.7916 57.8433 39.9166 55.8876 40.002C55.7951 39.94 55.5955 39.7057 55.5105 39.6118L55.7973 39.5243C56.2393 39.4262 56.167 38.9853 56.6627 38.8393L57.0117 38.8089Z" fill="#67981D"/>
<path d="M57.0098 39.1255C57.1807 39.2055 57.889 39.4606 58.0691 39.491C58.3199 39.6175 58.5864 39.7448 58.8226 39.8944C59.0532 39.9872 59.3754 40.2112 59.4609 40.4555C59.4448 40.6946 59.4478 40.7432 59.3036 40.9431C58.3062 41.3274 57.9038 39.8108 56.6904 39.4856C56.7473 39.3892 56.925 39.2146 57.0098 39.1255Z" fill="#96C334"/>
<path d="M58.0689 39.491C58.3198 39.6175 58.5862 39.7448 58.8224 39.8944L58.6981 40.0497C58.3117 40.1815 57.8227 39.9301 58.0689 39.491Z" fill="#C1DB3C"/>
<path d="M57.0117 38.8089C57.1094 38.8099 58.1219 38.5794 58.3782 38.6067C58.5954 38.6299 58.6911 38.4607 58.7933 38.3164C59.3439 38.8385 59.531 38.3398 60.2798 38.7404C60.103 39.2758 59.9487 39.8447 59.1814 39.5644C58.5197 39.3227 57.7554 38.8074 57.0122 38.9155L57.0117 38.8089Z" fill="#96C334"/>
<path d="M56.6627 38.8393L57.0118 38.8089L57.0123 38.9155L56.6115 39.0453C56.6854 39.0595 56.9555 39.1057 57.0097 39.1255C56.925 39.2145 56.7473 39.3891 56.6904 39.4856C56.4496 39.5757 56.0663 39.5347 55.7974 39.5243C56.2393 39.4262 56.167 38.9853 56.6627 38.8393Z" fill="#82BC42"/>
<path d="M24.1852 26.0287C24.1108 26.7585 23.702 27.4009 23.2173 27.934C23.041 28.0563 22.8571 28.1783 22.6909 28.3129C21.7834 28.6277 20.5317 28.9574 21.3813 30.162C20.9781 30.3948 20.7936 30.5055 20.3485 30.6637C20.2359 30.6377 20.1397 30.6034 20.0302 30.5677C19.8808 30.349 19.9721 30.071 19.9056 29.7097C19.7253 29.475 19.7927 29.5459 19.4957 29.4305C19.1977 29.9506 19.1865 30.0382 19.0166 30.6215C18.7575 30.6073 18.5264 30.6244 18.3223 30.4706C19.1214 28.3453 22.0381 26.4247 24.1852 26.0287Z" fill="#AD6A38"/>
<path d="M19.4956 29.4305C19.6697 28.4977 22.3548 27.7633 23.2173 27.934C23.041 28.0563 22.8571 28.1783 22.6908 28.3129C21.7833 28.6277 20.5316 28.9574 21.3812 30.162C20.978 30.3948 20.7935 30.5055 20.3484 30.6637C20.2358 30.6377 20.1396 30.6034 20.0301 30.5677C19.8807 30.3489 19.972 30.071 19.9055 29.7097C19.7252 29.4749 19.7926 29.5458 19.4956 29.4305Z" fill="#C18D56"/>
<path d="M17.4307 37.376C18.3496 38.3709 19.2006 37.8516 20.2224 38.2035L20.3514 38.3989L20.3634 38.8545C20.0199 38.8471 20.1041 38.8002 19.8496 38.9672C19.6179 39.3504 19.7458 39.7098 19.6944 40.1639C19.682 39.9368 19.6905 39.8083 19.5844 39.602C19.1056 39.4816 17.6076 39.419 16.9619 39.3341C16.9416 39.1326 17.3541 37.5922 17.4307 37.376Z" fill="#FEBD0E"/>
<path d="M18.3223 30.4706C18.5264 30.6244 18.7575 30.6073 19.0167 30.6215L18.971 30.7201C18.8314 30.7269 18.575 30.7211 18.4646 30.7752C17.0694 30.9631 16.5073 30.9312 16.0046 32.3969C16.1725 32.762 16.3364 32.9829 16.6584 33.2353C16.9377 33.2574 17.4838 33.3164 17.7463 33.3201C17.4185 33.6461 17.6609 33.7743 17.2307 34.0239L17.1145 34.1266C14.7237 33.6694 15.1645 31.4858 17.1619 30.8079C17.4638 30.7055 18.1396 30.6858 18.3223 30.4706Z" fill="#C18D56"/>
<path d="M17.2306 34.0238C16.4965 33.6381 15.5331 33.3586 16.0045 32.3969C16.1724 32.762 16.3362 32.9829 16.6582 33.2353C16.9375 33.2574 17.4837 33.3164 17.7462 33.3201C17.4183 33.6461 17.6608 33.7743 17.2306 34.0238Z" fill="#DDB88E"/>
<path d="M22.0951 47.9923C20.9764 47.5724 21.3237 46.052 21.6716 45.172C21.7632 44.9403 21.9492 44.7987 22.1859 44.7229C22.2969 45.2591 22.2076 45.1988 22.4105 45.8478C22.3872 45.9463 22.0957 47.9152 22.0951 47.9923Z" fill="#FEA502"/>
<path d="M18.8684 41.2361C18.9753 41.3883 19.2726 42.0919 19.4003 42.3458C19.3283 42.8164 19.4117 44.1124 19.255 44.4531C18.1027 44.102 18.2004 41.9764 18.8684 41.2361Z" fill="#FEA502"/>
<path d="M17.0462 36.1061L17.1616 36.1168C17.2297 36.2233 17.3261 37.0365 17.4307 37.376C17.3541 37.5922 16.9416 39.1327 16.9619 39.3342C15.8312 38.787 16.3295 36.7439 17.0462 36.1061Z" fill="#FEA502"/>
<path d="M41.3011 43.1763C41.5422 43.0947 41.7752 43.0376 42.0214 42.9745C41.4767 43.8656 40.9469 44.1419 40.9282 45.3494L40.9788 45.7936C40.7291 46.0034 40.6601 46.0811 40.2972 46.0178L40.2068 45.5808C39.9927 44.6119 40.6827 43.8273 41.3011 43.1763Z" fill="#E33623"/>
<path d="M40.2068 45.5808C40.3279 45.4139 40.3745 45.3649 40.5251 45.2235C40.7814 45.1988 40.676 45.1773 40.9281 45.3495L40.9788 45.7936C40.7291 46.0034 40.6601 46.0812 40.2972 46.0178L40.2068 45.5808Z" fill="#FA583A"/>
</svg>
