<svg width="77" height="77" viewBox="0 0 77 77" fill="none" xmlns="http://www.w3.org/2000/svg">
<path d="M12.7644 49.5093C11.9097 48.6991 10.3085 46.7068 9.55894 45.6875C8.02533 43.602 7.84509 40.0624 7.63033 37.5499C7.49612 33.6191 9.80445 29.1113 12.468 26.292C18.4721 19.9368 27.837 16.9186 36.4065 16.6592C43.5376 16.3775 50.5239 17.4162 56.9154 20.7156C59.1373 21.8627 61.1667 23.0819 63.0218 24.7541C70.5929 31.578 71.5559 41.5371 64.5698 49.1868C63.8791 49.9431 63.0808 50.6621 62.3455 51.3763C62.0223 51.6932 59.5381 53.5515 59.1769 53.6555C57.9742 54.6261 56.1009 55.4185 54.8409 56.2302C54.535 56.4818 53.6247 56.9201 53.2182 57.1231C44.8923 61.2729 34.2211 61.2524 25.5343 58.2419C23.5245 57.5453 19.8169 55.5798 18.258 54.2019C17.1477 53.29 16.0885 52.5016 14.9618 51.629C14.3239 51.135 13.3512 50.1119 12.7644 49.5093Z" fill="#F2E3C0"/>
<path d="M18.2581 54.2019C18.8979 54.1802 19.5395 54.678 20.1094 54.9918C20.6478 55.2847 21.1999 55.5517 21.7639 55.7919C23.6167 56.5828 25.5096 57.2765 27.4347 57.8701C32.484 59.4303 40.2869 59.5779 45.4852 58.7734C47.2685 58.4948 49.0279 58.0807 50.7482 57.5345C51.526 57.2957 53.4611 56.7202 54.0439 56.2849C54.3879 56.1935 54.5023 56.1437 54.841 56.2301C54.5351 56.4818 53.6248 56.9201 53.2182 57.123C44.8924 61.2728 34.2212 61.2523 25.5343 58.2418C23.5246 57.5453 19.817 55.5797 18.2581 54.2019Z" fill="#786147"/>
<path d="M12.7644 49.5094C12.8773 49.5202 13.1556 49.5522 13.2388 49.6207C14.7893 50.8974 16.2837 52.2142 18.0238 53.2334C28.4889 59.3637 41.9127 60.3323 53.2629 56.1704C53.4666 56.0958 53.7352 56.0105 53.9287 55.9097L54.0105 55.9982C53.9903 56.1895 53.9634 56.154 54.0438 56.285C53.4611 56.7203 51.5259 57.2958 50.7482 57.5346C49.0279 58.0808 47.2685 58.4949 45.4851 58.7735C40.2869 59.578 32.4839 59.4304 27.4347 57.8702C25.5096 57.2766 23.6167 56.5829 21.7639 55.792C21.1999 55.5518 20.6478 55.2848 20.1093 54.9919C19.5394 54.6781 18.8979 54.1803 18.258 54.202C17.1478 53.2901 16.0886 52.5016 14.9618 51.6291C14.324 51.135 13.3512 50.1119 12.7644 49.5094Z" fill="#D5B98E"/>
<path d="M53.9287 55.9097C54.0361 55.8241 55.0627 55.4955 55.3115 55.3647C56.6912 54.6392 57.6593 54.0693 59.177 53.6555C57.9743 54.6261 56.101 55.4186 54.841 56.2302C54.5024 56.1438 54.3879 56.1936 54.0439 56.285C53.9634 56.154 53.9904 56.1895 54.0106 55.9982L53.9287 55.9097Z" fill="#F5EFD1"/>
<path d="M40.2725 20.1627C41.8773 20.1092 43.3968 20.3499 44.9758 20.5945L44.9934 20.8149C44.4695 21.3498 44.0111 21.9736 43.4898 22.5078C43.1426 22.8637 42.9502 22.7225 42.6743 23.2192C42.7306 23.2868 42.9136 23.4992 42.9787 23.515C44.0276 23.7685 44.2136 23.4949 45.2313 24.0348L46.0565 23.6141C48.1853 24.9849 49.4651 24.5893 51.4916 25.7384C52.4376 26.2749 53.7226 27.2121 54.5747 27.9359C55.5183 28.7374 55.912 29.3251 57.0584 29.9652C57.4091 30.8465 58.5546 32.077 58.9941 33.0774C59.1544 33.442 59.2697 34.1161 59.4031 34.2341C59.6046 34.255 59.7391 34.262 59.9351 34.3265L59.9771 34.4601C59.8587 34.6448 59.7438 34.8273 59.6162 35.0058C60.2103 36.8375 60.0866 37.0446 59.8311 38.9571C59.7557 39.5212 59.778 40.0883 59.6435 40.7593C60.3202 41.1387 59.8445 44.7316 59.5134 45.3976C59.452 46.5878 59.0954 48.4258 58.4633 49.439C57.7676 50.5542 56.3156 51.8846 55.0489 52.3051C54.3231 52.6246 53.3721 53.0558 52.5969 53.2334C50.3883 53.7394 48.4812 54.4965 46.3083 55.1668C42.1096 56.4619 37.0898 57.0816 32.8434 55.7285C31.4363 55.2802 30.5417 54.2619 28.9646 53.8639C28.5231 53.7887 27.5881 53.5309 27.1922 53.5079C26.1903 53.4495 25.7109 53.629 24.6752 53.3492C24.5315 53.353 24.4272 53.4838 24.274 53.4951C23.3556 53.5633 22.2318 53.3053 21.3766 53.1101C20.8851 52.9979 19.8939 52.5624 19.5665 52.6394C19.5107 52.8421 19.6089 52.9196 19.7273 53.1582L19.6627 53.1873C19.2715 52.9881 18.3533 52.5246 18.0419 52.23C17.7943 52.1108 17.5169 51.9044 17.286 51.7439C16.3486 51.1793 14.7081 49.813 13.8958 49.0648C12.9502 48.1935 10.4853 45.4333 10.4507 44.2536C10.6245 43.8603 10.9258 43.9716 11.2361 43.4039L11.2695 43.0435C10.824 42.6113 10.6727 40.7264 10.6183 40.1361C10.1214 34.7492 12.7841 30.4982 16.6852 27.0745C19.1269 24.9315 20.9849 24.0293 24.0244 22.7704C26.6114 21.6989 28.9552 21.015 31.7592 20.6429C32.2976 20.5875 32.826 20.4227 33.3569 20.349C35.5696 20.0415 38.0368 20.3613 40.2051 20.169L40.2725 20.1627Z" fill="#FAFBED"/>
<path d="M29.5112 52.8385C29.7499 52.7201 30.55 52.5254 30.8356 52.4554L31.1059 52.7638L30.8752 52.96C30.3305 53.0683 29.7874 53.1099 29.2577 53.212C28.8345 53.1257 27.9769 53.1208 27.6951 53.0239C27.9378 53.004 28.1808 52.9877 28.4241 52.975L28.4854 52.8796C28.9108 52.8982 29.0804 52.9076 29.5112 52.8385Z" fill="#D27915"/>
<path d="M40.2725 20.1627C41.8773 20.1092 43.3968 20.3499 44.9758 20.5945L44.9934 20.8149C44.4695 21.3498 44.0111 21.9736 43.4898 22.5078C43.1426 22.8637 42.9502 22.7225 42.6743 23.2192C42.3455 23.1187 42.0529 23.455 41.707 23.4517C40.1049 23.4368 38.2073 23.5624 36.642 23.8891C36.4034 24.0739 36.2545 24.3777 35.9585 24.2844C34.7816 23.9135 34.9816 24.9558 34.5084 25.1384C34.1451 24.9682 34.3033 24.7983 33.9892 24.7221C33.7036 24.9067 32.461 25.7894 32.33 26.0262C32.0522 26.6319 31.6312 26.3629 31.2781 26.7276C31.8199 27.2595 32.5349 27.8853 32.8617 28.5537C32.4907 28.5719 31.2585 28.627 30.8933 28.5993C30.4789 28.7308 30.2951 28.7853 29.9539 29.0558L29.328 29.7021L29.2207 29.8672C29.4846 30.0264 29.7501 30.1314 30.0442 30.2212C30.8318 30.4617 31.6076 30.7627 32.4231 30.8949C32.5314 30.9125 32.6528 31.0732 32.7083 31.1599C31.3842 31.6855 31.1562 31.9018 30.1294 32.8948C30.6569 33.198 31.4089 32.9305 31.7118 33.3323C31.673 34.2492 28.5203 35.8652 28.5543 37.3255C29.15 39.233 29.6638 40.1763 31.5016 41.0638C31.8704 41.2419 32.7957 41.7053 33.09 41.9066C33.3839 42.4218 33.7066 42.6436 34.3011 42.776C36.548 43.2764 37.3074 42.7295 39.5023 43.7494C39.5462 43.273 39.5298 42.5913 39.8684 42.2743C40.053 42.1977 40.0639 42.1844 40.2499 42.2276C41.7755 43.9175 42.2772 43.6205 44.0504 44.4567C44.5714 44.6336 44.4905 45.1706 44.49 45.6339C43.2271 45.2796 41.7018 44.0346 40.3568 43.8079C40.078 43.7609 39.7429 44.292 39.2612 44.3185C39.6038 44.4269 39.5828 44.3586 39.7392 44.6002L39.7349 44.6643C39.4671 44.9248 39.4079 45.0238 39.3174 45.3987C39.15 45.3815 38.8489 45.1014 38.6849 44.994C37.5672 44.2612 36.0247 44.074 34.8277 44.6875C34.0427 45.3508 33.4499 45.9339 33.0955 46.9204C33.0133 47.1492 33.0118 47.2323 32.808 47.3563L32.802 47.4107C32.9825 48.2081 32.7163 48.6113 33.0669 49.5287C32.9437 50.14 32.8908 50.5178 32.594 51.0748C32.4434 51.2602 32.4904 51.1802 32.4436 51.4521C32.2233 51.8889 31.2946 52.302 30.8356 52.4554C30.55 52.5253 29.7499 52.72 29.5112 52.8384C29.0804 52.9075 28.9108 52.8981 28.4855 52.8796L28.4241 52.975C28.1808 52.9876 27.9378 53.0039 27.6951 53.0239C27.9769 53.1207 28.8345 53.1256 29.2577 53.2119C29.0286 53.4344 29.008 53.5356 28.9646 53.8639C28.5231 53.7887 27.5881 53.5309 27.1922 53.5079C26.1903 53.4495 25.7109 53.629 24.6752 53.3492C24.5315 53.353 24.4272 53.4838 24.274 53.4951C23.3556 53.5633 22.2318 53.3052 21.3766 53.1101C20.8851 52.9979 19.8939 52.5624 19.5665 52.6394C19.5107 52.8421 19.6089 52.9196 19.7273 53.1582L19.6627 53.1873C19.2715 52.9881 18.3533 52.5246 18.0419 52.23C17.7943 52.1108 17.5169 51.9044 17.286 51.7439C16.3486 51.1793 14.7081 49.813 13.8958 49.0648C12.9502 48.1935 10.4853 45.4333 10.4507 44.2536C10.6245 43.8603 10.9258 43.9716 11.2361 43.4039L11.2695 43.0435C10.824 42.6113 10.6727 40.7264 10.6183 40.1361C10.1214 34.7492 12.7841 30.4982 16.6852 27.0745C19.1269 24.9315 20.9849 24.0293 24.0244 22.7704C26.6114 21.6989 28.9552 21.015 31.7592 20.6429C32.2976 20.5875 32.826 20.4227 33.3569 20.349C35.5696 20.0415 38.0368 20.3613 40.2051 20.169L40.2725 20.1627Z" fill="#EAD0A7"/>
<path d="M40.2727 20.1627C41.8774 20.1092 43.397 20.3499 44.9759 20.5945L44.9935 20.8149C44.4696 21.3498 44.0112 21.9736 43.49 22.5078C43.1427 22.8637 42.9503 22.7225 42.6744 23.2192C42.3457 23.1187 42.0531 23.455 41.7072 23.4517C40.105 23.4368 38.2074 23.5624 36.6422 23.8891C36.4036 24.0739 36.2546 24.3777 35.9586 24.2844C34.7817 23.9135 34.9817 24.9558 34.5086 25.1384C34.1452 24.9682 34.3034 24.7983 33.9893 24.7221C33.7038 24.9067 32.4611 25.7894 32.3302 26.0262C32.0523 26.6319 31.6314 26.3629 31.2782 26.7276C29.7325 25.5331 27.9041 24.125 25.7383 24.2183C24.557 24.2691 23.7262 25.7981 23.0205 26.6353C22.5507 27.1927 22.0811 27.9299 21.7723 28.6207C21.7866 29.0799 21.6654 29.4667 21.4604 29.8755C20.2515 30.5087 18.7499 31.6465 17.7483 32.6154L17.6083 32.5513C17.321 32.8138 16.8338 33.4057 16.6576 33.5447C16.5218 33.752 16.3105 34.0554 16.1971 34.2634C14.7698 35.9756 14.5775 37.5385 13.664 39.1612C12.6383 40.983 12.1423 40.536 11.2696 43.0435C10.8241 42.6113 10.6729 40.7264 10.6184 40.1361C10.1215 34.7492 12.7842 30.4982 16.6853 27.0745C19.1271 24.9315 20.985 24.0293 24.0245 22.7704C26.6115 21.6989 28.9553 21.015 31.7594 20.6429C32.2978 20.5875 32.8261 20.4227 33.357 20.349C35.5697 20.0415 38.037 20.3613 40.2052 20.169L40.2727 20.1627Z" fill="#F5EFD1"/>
<path d="M18.7707 29.9612C18.8917 29.9177 19.5118 29.5531 19.7123 29.4579C20.4118 29.1257 21.0497 28.8865 21.7722 28.6207C21.7865 29.0799 21.6652 29.4667 21.4603 29.8756C20.2513 30.5087 18.7498 31.6466 17.7482 32.6155L17.6082 32.5514C17.7237 32.4029 18.5907 30.3207 18.7707 29.9612Z" fill="#D5B98E"/>
<path d="M16.6574 33.5448C16.3404 32.3468 17.5213 30.1415 18.7707 29.9612C18.5906 30.3208 17.7236 32.4029 17.6081 32.5514C17.3208 32.8139 16.8336 33.4058 16.6574 33.5448Z" fill="#F2E3C0"/>
<path d="M21.7721 28.6207C22.081 27.9299 22.5505 27.1927 23.0204 26.6353C23.726 25.7981 24.5568 24.2691 25.7382 24.2183C27.9039 24.125 29.7324 25.5331 31.278 26.7276C31.8199 27.2595 32.5348 27.8852 32.8616 28.5537C32.4906 28.5719 31.2585 28.627 30.8932 28.5993C30.4788 28.7308 30.2951 28.7853 29.9538 29.0558L29.328 29.7021L29.2207 29.8672C29.4846 30.0264 29.75 30.1314 30.0442 30.2212C30.8317 30.4617 31.6076 30.7627 32.4231 30.8949C32.5314 30.9125 32.6527 31.0731 32.7083 31.1598C31.3841 31.6855 31.1561 31.9018 30.1294 32.8948C30.6569 33.198 31.4089 32.9305 31.7117 33.3323C31.6729 34.2492 28.5202 35.8652 28.5543 37.3255C28.2601 36.3125 28.3966 36.4935 28.3683 35.5701L28.2258 35.4425C27.7226 36.0998 27.5522 37.1031 27.1145 37.6703L26.9268 37.5698C26.7032 37.9862 25.5109 40.3279 25.3132 40.5405C25.1945 40.3658 25.0912 40.3139 24.9183 40.1952L24.742 40.3878C24.7041 40.5933 24.7008 40.7296 24.5481 40.8758L24.4033 40.8609C24.1032 40.566 23.9327 39.9005 23.8079 39.483L23.6576 39.6289C23.325 39.1085 22.9471 38.8872 22.4948 38.4791L22.4929 38.3199L22.3436 37.7292L22.0436 37.2871C21.9167 36.649 21.6372 35.2142 21.6881 34.5917C21.5441 34.082 21.4832 33.8555 21.2478 33.3807C21.1573 33.0128 21.2958 32.6767 20.9973 32.3069L21.4459 32.1008L21.5828 31.8431C21.5592 31.3758 21.5824 30.712 21.5842 30.2298L21.4602 29.8755C21.6652 29.4667 21.7865 29.0799 21.7721 28.6207Z" fill="#FABA22"/>
<path d="M29.2208 29.8673C29.4847 30.0265 29.7502 30.1315 30.0443 30.2213C30.8319 30.4617 31.6077 30.7627 32.4232 30.8949C32.5315 30.9125 32.6529 31.0732 32.7084 31.1599C31.3842 31.6855 31.1562 31.9019 30.1295 32.8948C30.657 33.1981 31.409 32.9305 31.7119 33.3324C31.6731 34.2492 28.5204 35.8653 28.5544 37.3256C28.2603 36.3125 28.3967 36.4936 28.3685 35.5701L28.226 35.4426C27.7228 36.0999 27.5523 37.1032 27.1146 37.6703L26.927 37.5699C26.7033 37.9863 25.511 40.328 25.3133 40.5405C25.1946 40.3659 25.0913 40.314 24.9184 40.1953L24.7422 40.3879C24.7043 40.5933 24.701 40.7296 24.5482 40.8758L24.4034 40.861C24.1033 40.5661 23.9328 39.9005 23.808 39.4831L23.6578 39.629C23.3251 39.1086 22.9472 38.8873 22.4949 38.4792L22.493 38.32L22.3437 37.7293L22.0437 37.2872C21.9168 36.649 21.6373 35.2143 21.6883 34.5918C21.9607 34.7255 22.6536 35.3801 22.973 35.6361C23.3523 35.3076 23.7782 34.8231 24.1874 34.5464C24.3402 34.4431 24.3281 34.4723 24.5015 34.3306L24.5436 34.2958C24.6193 34.1328 24.8281 33.7915 24.9253 33.6211L25.0459 33.8675C25.5381 32.8268 25.5922 32.5051 26.6063 32.0023C26.7963 31.8956 27.3199 31.875 27.6911 31.7618C28.07 31.4982 28.4383 31.2978 28.8393 31.0723C28.7075 30.8021 28.7124 30.7612 28.7501 30.464C28.9937 30.2339 29.0415 30.1544 29.2208 29.8673Z" fill="#EA9919"/>
<path d="M26.6063 32.0022C26.7963 31.8956 27.3199 31.875 27.6911 31.7617C27.7062 32.4434 27.4608 32.4467 27.3573 32.9254C27.1325 33.6727 26.3869 35.4876 26.6014 36.1227C26.3495 37.0697 25.5813 37.579 25.2214 38.4686C25.0602 38.8669 25.0999 39.9411 24.9184 40.1952L24.7422 40.3878C24.7043 40.5933 24.701 40.7296 24.5482 40.8758L24.4034 40.861C24.1033 40.566 23.9328 39.9005 23.808 39.483L23.6578 39.629C23.3251 39.1085 22.9472 38.8872 22.4949 38.4791L22.493 38.32L22.3437 37.7292L22.0437 37.2871C21.9168 36.649 21.6373 35.2142 21.6883 34.5917C21.9607 34.7254 22.6536 35.38 22.973 35.636C23.3523 35.3076 23.7782 34.823 24.1874 34.5464C24.3402 34.443 24.3281 34.4723 24.5015 34.3305L24.5436 34.2957C24.6193 34.1328 24.8281 33.7915 24.9253 33.621L25.0459 33.8675C25.5381 32.8268 25.5922 32.505 26.6063 32.0022Z" fill="#F1A724"/>
<path d="M24.9253 33.621L25.0459 33.8675C24.7349 34.6707 24.5315 35.3885 24.3233 36.225C24.2837 36.3645 24.1447 36.8912 24.0865 36.984C23.5862 37.2753 23.6072 37.9421 22.493 38.3199L22.3437 37.7292L22.0437 37.2871C21.9168 36.6489 21.6373 35.2142 21.6883 34.5917C21.9607 34.7254 22.6536 35.38 22.973 35.636C23.3523 35.3075 23.7782 34.823 24.1874 34.5463C24.3402 34.443 24.3281 34.4723 24.5015 34.3305L24.5436 34.2957C24.6193 34.1328 24.8281 33.7914 24.9253 33.621Z" fill="#F1981A"/>
<path d="M24.9254 33.621L25.0459 33.8675C24.735 34.6707 24.5315 35.3885 24.3233 36.225C24.2837 36.3645 24.1448 36.8912 24.0865 36.984C23.5862 37.2753 23.6072 37.9421 22.493 38.3199L22.3438 37.7292C22.5224 37.6979 22.5454 37.687 22.7024 37.5956C23.2871 36.5771 24.2657 35.3914 24.5436 34.2957C24.6193 34.1328 24.8281 33.7914 24.9254 33.621Z" fill="#B86210"/>
<path d="M26.6062 32.0022C26.7963 31.8956 27.3199 31.875 27.691 31.7617C27.7061 32.4434 27.4607 32.4467 27.3572 32.9254C27.174 32.6835 27.272 32.7547 26.9892 32.6539C26.0804 32.8008 25.1788 35.0857 24.791 35.8136C24.6047 36.1632 24.6438 36.0619 24.3232 36.225C24.5314 35.3885 24.7349 34.6707 25.0458 33.8675C25.538 32.8268 25.5921 32.505 26.6062 32.0022Z" fill="#FBC022"/>
<path d="M22.4929 38.3199C23.6071 37.9421 23.5861 37.2753 24.0864 36.984C23.9872 37.8163 23.8944 38.6493 23.8079 39.483L23.6577 39.6289C23.325 39.1085 22.9471 38.8872 22.4948 38.4791L22.4929 38.3199Z" fill="#6C3009"/>
<path d="M29.2209 29.8673C29.4848 30.0265 29.7502 30.1315 30.0444 30.2213C30.8319 30.4617 31.6078 30.7627 32.4233 30.8949C32.5316 30.9125 32.6529 31.0732 32.7085 31.1599C31.3843 31.6855 31.1563 31.9019 30.1296 32.8948C29.809 33.0275 29.2931 33.571 28.9894 33.4968C28.9384 33.3127 29.1037 32.701 29.1421 32.4171C29.2828 32.1144 29.4052 31.8057 29.33 31.4787C29.2082 31.2353 29.0832 31.1968 28.8394 31.0723C28.7076 30.8021 28.7125 30.7612 28.7501 30.464C28.9938 30.2339 29.0416 30.1544 29.2209 29.8673Z" fill="#F5551A"/>
<path d="M28.8392 31.0723C29.083 31.1967 29.208 31.2352 29.3298 31.4787C29.4051 31.8056 29.2826 32.1144 29.142 32.4171C29.0206 32.2011 28.9376 31.9125 28.7791 31.8612C27.9632 32.3937 27.1213 35.3046 26.6013 36.1228C26.3868 35.4876 27.1324 33.6727 27.3572 32.9255C27.4607 32.4467 27.7061 32.4435 27.691 31.7617C28.0699 31.4982 28.4382 31.2978 28.8392 31.0723Z" fill="#FBD945"/>
<path d="M26.927 37.5699C27.6122 35.8041 28.0287 34.7991 29.5791 33.6721C29.2918 34.2862 28.6814 34.9157 28.226 35.4426C27.7228 36.0999 27.5523 37.1032 27.1147 37.6703L26.927 37.5699Z" fill="#AC5711"/>
<path d="M26.7181 25.5046C28.1551 24.7465 30.1529 26.5457 30.7608 27.7264C30.8875 27.9719 30.9495 28.2458 30.9409 28.522L30.8933 28.5994C30.4789 28.7309 30.2952 28.7854 29.9539 29.0559C29.3756 28.624 28.7085 28.9563 28.6368 28.0079C28.1904 27.3323 26.4779 25.9199 26.3345 25.5239L26.4403 25.4397L26.7181 25.5046Z" fill="#FBD945"/>
<path d="M28.6368 28.0078C28.1904 27.3323 26.4779 25.9198 26.3345 25.5238L26.4403 25.4397L26.7181 25.5046C27.4532 26.3908 28.4256 27.0492 29.5215 27.4024C29.1693 27.6914 29.048 27.7861 28.6368 28.0078Z" fill="#FBE36E"/>
<path d="M21.5829 31.8431C22.2469 31.597 24.3669 30.4053 24.6943 31.4583C24.8282 31.8889 24.6968 32.6095 24.6357 33.0703C23.8797 32.9473 23.1587 33.2262 22.9062 32.8976C22.8814 32.6317 22.9011 32.2926 22.7393 32.1345C22.305 32.1097 21.7614 32.2659 21.446 32.1009L21.5829 31.8431Z" fill="#FBD945"/>
<path d="M28.0109 30.0585C28.3695 30.1853 28.4394 30.2374 28.75 30.4639C28.7123 30.7612 28.7074 30.802 28.8392 31.0723C28.4382 31.2978 28.0699 31.4982 27.691 31.7617C27.3198 31.875 26.7962 31.8956 26.6061 32.0022L26.4797 31.7541C27.5774 31.7328 27.0165 30.6443 28.0109 30.0585Z" fill="#F1981A"/>
<path d="M25.318 31.7346C25.7343 31.7188 26.0666 31.7339 26.4798 31.7541L26.6062 32.0022C25.5921 32.505 25.5381 32.8268 25.0458 33.8675L24.9253 33.621C25.1498 33.0307 25.2246 32.3613 25.318 31.7346Z" fill="#D27915"/>
<path d="M28.011 30.0585C28.3631 29.6658 28.8385 29.5874 29.3281 29.7022L29.2208 29.8673C29.0415 30.1544 28.9937 30.2339 28.7501 30.464C28.4395 30.2374 28.3697 30.1853 28.011 30.0585Z" fill="#F1A724"/>
<path d="M28.226 35.4425L28.3685 35.57C28.3968 36.4935 28.2603 36.3124 28.5545 37.3255C29.1501 39.233 29.664 40.1763 31.5018 41.0638C31.8706 41.2419 32.7959 41.7053 33.0902 41.9066C33.3841 42.4218 33.7068 42.6436 34.3012 42.776C36.5481 43.2764 37.3076 42.7295 39.5025 43.7494C39.5464 43.273 39.5299 42.5912 39.8685 42.2743C40.0531 42.1977 40.064 42.1844 40.2501 42.2275C41.7756 43.9175 42.2773 43.6205 44.0506 44.4567C44.5715 44.6336 44.4907 45.1706 44.4902 45.6339C43.2273 45.2796 41.7019 44.0346 40.3569 43.8079C40.0782 43.7609 39.7431 44.2919 39.2614 44.3185C39.604 44.4269 39.5829 44.3586 39.7393 44.6002L39.735 44.6643C39.4673 44.9248 39.4081 45.0238 39.3176 45.3987C39.1502 45.3815 38.8491 45.1014 38.6851 44.994C37.5673 44.2612 36.0248 44.074 34.8278 44.6875C34.0428 45.3508 33.4501 45.9339 33.0957 46.9204C33.0135 47.1491 33.0119 47.2323 32.8081 47.3563C32.1633 44.8189 31.403 45.3035 29.0992 45.7446C27.8553 45.9826 26.665 46.4813 25.5904 47.1516C25.5033 47.1305 24.5133 46.3138 24.2692 46.1522C23.3046 46.0833 21.6684 46.6929 20.9771 45.9917C21.623 45.9911 22.1123 46.2327 22.6512 45.7115C23.2682 44.8267 23.7422 43.3979 23.936 42.3316C24.34 43.1803 25.2855 44.9579 26.4616 44.435C27.5176 43.3154 25.0156 41.1522 25.3134 40.5404C25.5111 40.3279 26.7034 37.9862 26.927 37.5698L27.1147 37.6702C27.5524 37.1031 27.7228 36.0998 28.226 35.4425Z" fill="#CB781A"/>
<path d="M26.927 37.5698L27.1147 37.6703C26.7135 40.2782 26.3098 43.616 29.5004 44.5409C29.827 44.6356 30.3935 44.7388 30.7283 44.7286C31.2487 44.6307 32.209 44.6621 32.7732 44.6686C33.1063 44.3113 33.4513 44.2202 33.7935 43.7979C33.6537 43.6719 33.4773 43.5518 33.4398 43.382C33.8239 43.4925 35.1449 43.8918 35.4919 43.9268C36.7407 44.0525 38.0238 43.937 39.2614 44.3185C39.604 44.427 39.5829 44.3586 39.7393 44.6002L39.735 44.6644C39.4673 44.9248 39.4081 45.0239 39.3176 45.3987C39.1502 45.3816 38.8491 45.1015 38.6851 44.994C37.5673 44.2612 36.0248 44.0741 34.8278 44.6875C34.0428 45.3508 33.4501 45.934 33.0957 46.9204C33.0135 47.1492 33.0119 47.2323 32.8081 47.3563C32.1633 44.819 31.403 45.3036 29.0992 45.7446C27.8553 45.9827 26.665 46.4813 25.5904 47.1517C25.5033 47.1305 24.5133 46.3138 24.2692 46.1522C23.3046 46.0834 21.6684 46.693 20.9771 45.9918C21.623 45.9912 22.1123 46.2327 22.6512 45.7115C23.2682 44.8267 23.7422 43.3979 23.936 42.3316C24.34 43.1803 25.2855 44.958 26.4616 44.4351C27.5176 43.3154 25.0156 41.1522 25.3134 40.5405C25.5111 40.3279 26.7034 37.9863 26.927 37.5698Z" fill="#7A330B"/>
<path d="M33.7935 43.7979C34.0386 43.8983 34.1638 43.928 34.3192 44.1421C34.3548 44.3386 34.3707 44.2591 34.2481 44.438C33.5703 44.8599 31.5519 44.7768 30.7283 44.7285C31.2486 44.6306 32.209 44.6621 32.7732 44.6686C33.1062 44.3113 33.4512 44.2201 33.7935 43.7979Z" fill="#AC5711"/>
<path d="M28.8624 40.7058C29.3991 40.8715 30.241 41.9678 30.8451 42.2382C31.0096 42.3118 31.4414 42.5895 31.5151 42.7619L31.4332 42.8853C30.4255 42.8627 28.0335 42.0351 28.8624 40.7058Z" fill="#FBC022"/>
<path d="M22.0435 37.2872L22.3436 37.7293L22.4928 38.32L22.4947 38.4792C22.947 38.8873 23.3249 39.1086 23.6576 39.629L23.8079 39.4831C23.9327 39.9006 24.1031 40.5661 24.4032 40.861L24.5481 40.8759C24.7008 40.7297 24.7041 40.5933 24.742 40.3879L24.9183 40.1953C25.0911 40.314 25.1945 40.3659 25.3132 40.5406C25.0154 41.1523 27.5174 43.3155 26.4613 44.4351C25.2853 44.9581 24.3398 43.1804 23.9358 42.3317C23.742 43.398 23.268 44.8268 22.651 45.7116C22.112 46.2328 21.6228 45.9912 20.9768 45.9918C20.047 45.042 17.4638 45.6196 15.9276 44.123C15.906 43.6187 15.8767 43.4776 16.127 43.0459C16.522 41.878 16.9414 41.1651 17.6106 40.1331L18.2858 39.3911L18.9656 38.9434C19.5363 38.6986 20.6594 38.0775 21.218 38.1036C21.3881 37.671 21.6552 37.5236 22.0435 37.2872Z" fill="#F1981A"/>
<path d="M18.9656 38.9433C19.5363 38.6985 20.6594 38.0774 21.218 38.1035C21.2115 38.6867 20.2305 41.6976 19.7645 42.1178C19.2083 42.6192 17.0126 42.8636 16.127 43.0458C16.522 41.8779 16.9414 41.165 17.6106 40.133L18.2858 39.391L18.9656 38.9433Z" fill="#FBC022"/>
<path d="M23.6577 39.629L23.808 39.483C23.9328 39.9005 24.1032 40.5661 24.4034 40.861L24.5482 40.8758C24.7009 40.7296 24.7042 40.5933 24.7421 40.3879L24.9184 40.1953C25.0912 40.3139 25.1946 40.3658 25.3133 40.5405C25.0155 41.1522 27.5175 43.3154 26.4614 44.4351L26.4462 44.3561C26.3026 44.1221 25.1152 43.7966 24.8197 43.4003C23.9863 42.2827 24.0453 40.9067 23.6577 39.629Z" fill="#D27915"/>
<path d="M20.9771 45.9917C21.4165 45.3341 21.5338 45.1759 22.1005 44.6633C22.2918 45.0086 22.4754 45.3581 22.6512 45.7115C22.1123 46.2327 21.623 45.9911 20.9771 45.9917Z" fill="#AC5711"/>
<path d="M22.0436 37.2872L22.3436 37.7293L22.4929 38.32L22.4948 38.4792C22.0915 38.3298 21.6396 38.188 21.218 38.1036C21.3881 37.671 21.6552 37.5236 22.0436 37.2872Z" fill="#8B3B0C"/>
<path d="M25.5902 47.1517C26.6648 46.4813 27.8551 45.9827 29.099 45.7446C31.4028 45.3036 32.163 44.8189 32.8079 47.3563L32.8019 47.4107C32.9825 48.2081 32.7163 48.6113 33.0669 49.5287C32.9437 50.14 32.8908 50.5178 32.5939 51.0748C32.4433 51.2602 32.4903 51.1802 32.4435 51.4521C32.2233 51.8889 31.2945 52.302 30.8356 52.4554C30.55 52.5253 29.7498 52.72 29.5111 52.8384C29.0803 52.9076 28.9107 52.8982 28.4854 52.8796C26.5028 52.1314 23.851 52.5089 23.5339 49.782L23.5565 49.3635C23.7373 49.062 23.9146 48.7521 24.0924 48.4482C24.4006 48.0838 24.5825 47.9171 24.9351 47.6013C25.156 47.4553 25.3744 47.3054 25.5902 47.1517Z" fill="#FBC022"/>
<path d="M23.5565 49.3635C24.1339 49.5916 25.3213 49.4485 25.9868 49.4905C26.2192 49.6337 29.4223 52.4265 29.507 52.569L29.5111 52.8384C29.0803 52.9076 28.9107 52.8982 28.4854 52.8796C26.5028 52.1314 23.851 52.5089 23.5339 49.782L23.5565 49.3635Z" fill="#F1A724"/>
<path d="M32.802 47.4108C32.9826 48.2081 32.7164 48.6114 33.067 49.5288C32.9438 50.1401 32.8909 50.5178 32.594 51.0749C32.4434 51.2603 32.4904 51.1802 32.4436 51.4521L32.0017 51.4106C32.0029 51.0293 32.6983 49.5514 32.7723 49.1873C32.8268 48.9193 32.7947 47.7713 32.802 47.4108Z" fill="#F1981A"/>
<path d="M32.0017 51.4106L32.4436 51.4522C32.2234 51.889 31.2946 52.3021 30.8356 52.4555C30.55 52.5254 29.7499 52.7201 29.5112 52.8385L29.5071 52.5691C29.6584 52.4775 29.8887 52.4508 30.068 52.3981C30.8653 52.1637 31.407 52.0368 32.0017 51.4106Z" fill="#FBE36E"/>
<path d="M30.8779 46.0104L30.9205 46.0805C30.8573 46.4808 28.9739 47.8275 28.6789 48.2364C28.3482 48.6948 28.8654 49.1924 28.6828 49.6125C28.5311 49.5866 27.9544 49.0671 27.7648 48.9261L27.6785 48.9731C27.6967 49.2869 27.9124 49.5576 28.0861 49.8262C28.1995 49.9746 28.1744 49.9015 28.1604 50.108L28.0462 50.1378C27.7091 49.9629 27.235 49.282 26.9878 48.9578C27.835 48.2525 29.9348 46.5671 30.8779 46.0104Z" fill="#FBE36E"/>
<path d="M29.3899 48.4153C30.0019 48.4241 30.1147 48.7164 30.3436 49.2108C29.9689 49.1424 29.5577 48.7499 29.3899 48.4153Z" fill="#FBE36E"/>
<path d="M15.6448 43.9942C15.6839 43.8088 15.6734 43.6673 15.7934 43.5779C15.8508 43.7767 15.8856 43.9215 15.9278 44.1229C17.4641 45.6195 20.0472 45.0419 20.977 45.9917C21.6684 46.6929 23.3045 46.0833 24.2692 46.1522C24.5133 46.3138 25.5033 47.1305 25.5903 47.1516C25.3746 47.3053 25.1562 47.4553 24.9353 47.6013C24.5827 47.9171 24.4007 48.0838 24.0926 48.4481C23.9148 48.7521 23.7375 49.0619 23.5567 49.3635L23.5341 49.7819C23.8511 52.5089 26.503 52.1313 28.4856 52.8795L28.4242 52.975C28.181 52.9876 27.9379 53.0039 27.6952 53.0238C27.977 53.1207 28.8346 53.1256 29.2578 53.2119C29.0287 53.4343 29.0081 53.5355 28.9647 53.8638C28.5232 53.7887 27.5882 53.5309 27.1924 53.5079C26.1905 53.4494 25.711 53.6289 24.6753 53.3492C21.2337 51.9148 21.2364 50.2464 18.6293 48.0818C18.579 47.4949 18.1883 47.2113 18.0569 46.5476C17.9994 46.4261 17.7623 46.208 17.6564 46.1014L17.3668 45.8207C16.5861 45.3714 15.9728 44.8517 15.6448 43.9942Z" fill="#F1981A"/>
<path d="M15.6448 43.9942C15.6839 43.8088 15.6734 43.6673 15.7934 43.5779C15.8508 43.7767 15.8856 43.9215 15.9278 44.1229C17.4641 45.6195 20.0472 45.0419 20.977 45.9917C21.6684 46.6929 23.3045 46.0833 24.2692 46.1522C24.5133 46.3138 25.5033 47.1305 25.5903 47.1516C25.3746 47.3053 25.1562 47.4553 24.9353 47.6013C24.5827 47.9171 24.4007 48.0838 24.0926 48.4481C23.3036 47.7596 21.6842 48.2204 20.5622 47.8595C19.5158 47.5228 18.9592 47.1636 18.0569 46.5476C17.9994 46.4261 17.7623 46.208 17.6564 46.1014L17.3668 45.8207C16.5861 45.3714 15.9728 44.8517 15.6448 43.9942Z" fill="#AC5711"/>
<path d="M17.3667 45.8208C17.8359 45.6546 18.1924 45.893 18.6043 46.0753C20.1487 46.7588 21.4024 47.307 23.1282 47.0658C23.7731 46.9757 24.5569 46.9075 24.9352 47.6014C24.5826 47.9172 24.4006 48.0839 24.0925 48.4482C23.3034 47.7597 21.684 48.2205 20.562 47.8596C19.5157 47.5229 18.959 47.1637 18.0568 46.5477C17.9992 46.4262 17.7622 46.2081 17.6563 46.1015L17.3667 45.8208Z" fill="#D27915"/>
<path d="M22.6414 50.4739C22.806 50.1007 23.001 49.5135 23.3471 49.3418C23.5351 49.4808 23.4796 49.4776 23.5341 49.7821C23.8511 52.509 26.5029 52.1315 28.4855 52.8797L28.4242 52.9751C28.1809 52.9877 27.9379 53.004 27.6952 53.024C26.1996 52.937 24.1262 53.017 23.1008 51.7283C22.7928 51.3414 22.7323 50.9428 22.6414 50.4739Z" fill="#AC5711"/>
<path d="M20.5531 32.4543L20.9974 32.3069C21.2958 32.6767 21.1573 33.0128 21.2479 33.3807C21.4833 33.8555 21.5441 34.082 21.6882 34.5917C21.6373 35.2142 21.9167 36.649 22.0436 37.2871C21.6553 37.5235 21.3882 37.6709 21.2181 38.1035C20.6595 38.0774 19.5364 38.6985 18.9657 38.9433C18.514 38.625 18.1817 38.2614 18.0009 37.7379C17.4034 37.1296 17.2657 36.9383 16.908 36.1763L16.9679 35.7798C16.9677 35.2087 17.0796 35.0174 17.3123 34.5064C17.6409 33.4541 19.0184 32.8696 19.9747 32.512L20.5531 32.4543Z" fill="#E23A17"/>
<path d="M20.5533 32.4543L20.9975 32.3069C21.296 32.6767 21.1574 33.0128 21.248 33.3807C21.0316 33.7724 21.2222 34.7522 21.0098 35.5497C19.4592 35.6279 18.6895 35.8893 16.968 35.7798C16.9678 35.2087 17.0798 35.0174 17.3124 34.5064C17.641 33.4541 19.0185 32.8696 19.9749 32.512L20.5533 32.4543Z" fill="#FC811C"/>
<path d="M19.9747 32.5121L20.5531 32.4543C20.2968 32.8554 19.9354 33.2051 19.6055 33.5516C19.3041 33.5543 18.939 33.5472 18.6437 33.5632C18.2471 33.8288 17.639 34.4027 17.3123 34.5065C17.6409 33.4541 19.0184 32.8696 19.9747 32.5121Z" fill="#F1981A"/>
<path d="M16.9679 35.7798C18.6893 35.8893 19.4591 35.6279 21.0097 35.5497C20.5212 37.1317 19.716 37.836 18.0009 37.7379C17.4034 37.1296 17.2657 36.9383 16.908 36.1763L16.9679 35.7798Z" fill="#F5551A"/>
<path d="M17.7481 32.6154C18.7497 31.6465 20.2513 30.5086 21.4602 29.8755L21.5842 30.2298C21.5824 30.712 21.5592 31.3758 21.5827 31.843L21.4459 32.1008L20.9973 32.3069L20.553 32.4542L19.9746 32.512C19.0183 32.8695 17.6408 33.454 17.3122 34.5064C17.0795 35.0174 16.9676 35.2086 16.9678 35.7797L16.9079 36.1763C17.2656 36.9383 17.4033 37.1296 18.0008 37.7378C18.1816 38.2614 18.5139 38.625 18.9656 38.9433L18.2858 39.391L17.6106 40.133C16.9414 41.165 16.522 41.8779 16.1269 43.0458C15.8767 43.4775 15.9059 43.6186 15.9276 44.1229C15.8854 43.9215 15.8506 43.7767 15.7932 43.5779C15.6732 43.6673 15.6837 43.8088 15.6446 43.9942C15.6783 43.3654 15.7747 42.6851 15.7503 42.0607C15.7449 41.9214 15.64 41.666 15.6119 41.4218L15.6064 41.3713C15.8685 39.4699 15.1429 36.2594 16.2567 34.6838L16.1969 34.2634C16.3103 34.0554 16.5216 33.752 16.6574 33.5447C16.8336 33.4057 17.3208 32.8137 17.6081 32.5513L17.7481 32.6154Z" fill="#D27915"/>
<path d="M19.9747 32.512C19.9163 32.4765 19.9041 32.4382 19.8596 32.3737C19.9647 31.6597 20.8842 30.4552 21.5842 30.2299C21.5824 30.712 21.5593 31.3758 21.5828 31.8431L21.4459 32.1009L20.9973 32.3069L20.5531 32.4543L19.9747 32.512Z" fill="#B86210"/>
<path d="M16.9079 36.1763C17.2657 36.9383 17.4034 37.1296 18.0009 37.7379C18.1817 38.2614 18.514 38.625 18.9657 38.9433L18.2859 39.391C17.6237 38.6326 17.0657 37.5471 16.7158 36.6153L16.9079 36.1763Z" fill="#8B3B0C"/>
<path d="M16.7158 36.6154C17.0657 37.5472 17.6237 38.6327 18.2859 39.3911L17.6107 40.1331C17.5011 39.9169 17.5547 39.4322 17.4173 39.1182C17.1155 38.4286 16.6682 37.9705 16.28 37.3044L16.7158 36.6154Z" fill="#B86210"/>
<path d="M17.6082 32.5514L17.7482 32.6155C17.5618 33.2345 16.8139 34.3499 16.2569 34.6839L16.197 34.2634C16.3104 34.0554 16.5218 33.752 16.6575 33.5448C16.8337 33.4058 17.321 32.8138 17.6082 32.5514Z" fill="#F1A724"/>
<path d="M11.2361 43.4039C11.6056 43.822 12.045 45.1137 12.3706 45.6598C13.5268 47.599 14.7608 49.2941 16.4967 50.764C16.7163 50.9499 17.1388 51.3916 17.3408 51.5252C17.5496 51.6697 17.8916 51.8776 18.0242 52.0732L18.0419 52.2301C17.7943 52.1108 17.5169 51.9045 17.286 51.7439C16.3486 51.1793 14.7081 49.8131 13.8958 49.0648C12.9502 48.1935 10.4853 45.4333 10.4507 44.2536C10.6245 43.8603 10.9258 43.9717 11.2361 43.4039Z" fill="#D5B98E"/>
<path d="M16.98 46.9563C15.4343 45.7718 14.3533 44.8003 15.0843 42.6679C15.2242 42.2595 15.4803 41.7948 15.592 41.4216L15.6067 41.3713L15.6121 41.4219C15.6402 41.6661 15.7451 41.9215 15.7505 42.0608C15.7749 42.6852 15.6785 43.3654 15.6448 43.9943C15.9728 44.8518 16.5862 45.3714 17.3668 45.8207L17.6564 46.1015L16.98 46.9563Z" fill="#D5B98E"/>
<path d="M17.6564 46.1014C17.7622 46.208 17.9993 46.4261 18.0569 46.5476C18.1882 47.2113 18.579 47.4949 18.6292 48.0818C18.0479 47.8667 17.4622 47.3494 16.98 46.9563L17.6564 46.1014Z" fill="#F1A724"/>
<path d="M59.6435 40.7593C60.3202 41.1387 59.8445 44.7315 59.5134 45.3976C59.452 46.5877 59.0954 48.4258 58.4633 49.439C57.7676 50.5541 56.3156 51.8846 55.049 52.3051C54.3231 52.6246 53.3721 53.0557 52.5969 53.2334C50.3883 53.7393 48.4812 54.4965 46.3083 55.1668C42.1096 56.4619 37.0898 57.0816 32.8434 55.7285C31.4363 55.2802 30.5417 54.2619 28.9646 53.8639C29.008 53.5356 29.0286 53.4343 29.2577 53.2119C29.7874 53.1098 30.3305 53.0682 30.8752 52.9599L31.1059 52.7638L30.8356 52.4554C31.2946 52.302 32.2233 51.8889 32.4436 51.452C32.4904 51.1801 32.4434 51.2602 32.594 51.0748C32.8908 50.5177 32.9437 50.14 33.067 49.5287C32.7163 48.6113 32.9825 48.208 32.802 47.4107L32.808 47.3563C33.0118 47.2323 33.0133 47.1491 33.0955 46.9204C33.4499 45.9339 34.0427 45.3508 34.8277 44.6875C36.0247 44.074 37.5672 44.2612 38.6849 44.994C38.849 45.1014 39.15 45.3815 39.3174 45.3987C39.4079 45.0238 39.4671 44.9248 39.7349 44.6643L39.7392 44.6002C39.5828 44.3586 39.6038 44.4269 39.2612 44.3185C39.7429 44.292 40.078 43.7609 40.3568 43.8079C41.7018 44.0346 43.2271 45.2796 44.49 45.6339C44.6807 45.8035 45.4262 46.5146 45.5474 46.5276C46.6138 46.6419 46.8002 47.4016 47.5857 47.8064C46.707 49.8808 47.897 50.3223 49.7139 50.748C50.7548 50.9919 51.7613 50.3034 52.6144 50.8539C52.8644 50.461 53.0179 50.1799 53.2297 49.7673C53.0068 49.6816 52.8568 49.6404 52.6847 49.4691C53.0149 49.1464 52.6693 48.7971 52.3935 48.6001C51.9283 47.8254 52.2086 47.4787 50.968 46.8628C51.1483 46.5936 51.6128 46.2667 51.8954 45.9571C52.1986 46.2321 52.4463 46.4513 52.8178 46.6444L53.1552 46.208L53.3604 46.3925L53.4369 46.1145C53.3031 46.0026 53.284 45.9981 53.2336 45.8385L53.3684 45.6734C53.6129 44.4729 54.1783 45.1 55.2255 44.1456C55.3694 44.2897 55.6026 44.6088 55.7368 44.7822C55.9048 44.5533 56.1082 44.2913 56.2459 44.0485C57.294 43.8315 56.9321 43.306 58.0935 43.3025C58.8556 43.0862 58.5828 42.6541 58.5019 42.069C58.6091 41.8434 58.5516 41.9244 58.7835 41.7607C59.0214 41.7565 59.1418 41.7736 59.3467 41.6435C59.5521 41.3987 59.5824 41.0762 59.6435 40.7593Z" fill="#FBC022"/>
<path d="M34.8277 44.6876C36.0247 44.0741 37.5672 44.2613 38.685 44.9941C38.849 45.1015 39.15 45.3816 39.3174 45.3988C39.408 45.0239 39.4671 44.9249 39.7349 44.6644C39.8521 44.6946 40.1578 44.7645 40.2555 44.8015C40.5415 45.1815 40.6628 45.3052 40.9996 45.625C40.873 45.9568 40.7729 46.0603 40.5478 46.3405C40.8607 46.7241 41.3337 47.5988 41.5101 48.0719L41.4862 48.1548C41.6807 48.689 41.8235 49.0009 41.8228 49.5772L41.7992 49.8643C41.4743 50.8671 41.071 51.796 39.9876 52.1694L40.1841 52.2265L40.1826 52.3203C40.015 52.3904 39.8543 52.4525 39.6956 52.5414L39.7563 52.6215C39.2828 52.8287 38.9578 52.8939 38.5363 53.0599C37.4169 52.7778 37.2995 52.7792 36.0941 52.6299C34.771 52.5314 34.4103 51.4356 33.2867 51.0078C33.171 50.9638 32.7375 51.0482 32.594 51.0749C32.8909 50.5178 32.9437 50.1401 33.067 49.5288C32.7163 48.6114 32.9825 48.2081 32.802 47.4108L32.808 47.3564C33.0118 47.2324 33.0134 47.1492 33.0955 46.9205C33.4499 45.934 34.0427 45.3509 34.8277 44.6876Z" fill="#FC811C"/>
<path d="M34.8277 44.6875L35.0542 44.7299C35.1503 44.9998 35.2056 45.2354 35.4883 45.3621C35.2487 45.4461 34.7975 45.7171 34.7235 45.717C33.8291 46.575 33.7387 47.8868 34.3418 48.9396C35.1701 50.4229 36.5489 51.5206 38.1802 51.9954C38.9363 52.2114 39.2195 52.2162 39.9876 52.1694L40.1841 52.2264L40.1826 52.3202C40.015 52.3903 39.8543 52.4525 39.6956 52.5413L39.7563 52.6214C39.2828 52.8287 38.9578 52.8938 38.5363 53.0598C37.4169 52.7778 37.2995 52.7791 36.0941 52.6299C34.771 52.5313 34.4103 51.4355 33.2867 51.0077C33.171 50.9637 32.7375 51.0481 32.594 51.0748C32.8909 50.5178 32.9437 50.14 33.067 49.5287C32.7163 48.6113 32.9825 48.2081 32.802 47.4107L32.808 47.3563C33.0118 47.2323 33.0134 47.1492 33.0955 46.9204C33.4499 45.9339 34.0427 45.3508 34.8277 44.6875Z" fill="#F5551A"/>
<path d="M33.067 49.5287L33.1401 49.4426C33.2962 49.7145 33.3987 50.0341 33.5635 50.3299C34.1499 51.3829 35.0016 52.1327 36.0941 52.6299C34.771 52.5313 34.4103 51.4355 33.2867 51.0077C33.171 50.9637 32.7375 51.0481 32.594 51.0748C32.8909 50.5178 32.9437 50.14 33.067 49.5287Z" fill="#8B3B0C"/>
<path d="M34.8276 44.6876C36.0247 44.0741 37.5672 44.2613 38.6849 44.9941C38.8489 45.1015 39.15 45.3816 39.3174 45.3988C39.4079 45.0239 39.4671 44.9249 39.7349 44.6644C39.852 44.6946 40.1578 44.7645 40.2555 44.8015C40.5415 45.1815 40.6627 45.3052 40.9996 45.625C40.873 45.9568 40.7729 46.0603 40.5477 46.3405C40.8607 46.7241 41.3337 47.5988 41.51 48.0719L41.4862 48.1548C41.0437 48.1321 40.6924 47.7392 40.0207 47.6128C38.6286 46.5455 37.2187 45.6039 35.4883 45.3622C35.2056 45.2355 35.1503 44.9999 35.0542 44.73L34.8276 44.6876Z" fill="#E23A17"/>
<path d="M39.7349 44.6643C39.852 44.6945 40.1578 44.7644 40.2554 44.8014C40.5415 45.1814 40.6627 45.3051 40.9996 45.6249C40.873 45.9567 40.7729 46.0602 40.5477 46.3404C40.0012 46.1957 39.6253 45.8493 39.3174 45.3987C39.4079 45.0238 39.4671 44.9248 39.7349 44.6643Z" fill="#F1A724"/>
<path d="M40.0208 47.6127C40.6926 47.7391 41.0439 48.132 41.4863 48.1548C41.6808 48.6889 41.8236 49.0009 41.8229 49.5771L41.7993 49.8642C40.7231 49.5729 39.9663 48.7702 40.0208 47.6127Z" fill="#F5551A"/>
<path d="M34.7234 45.717C34.9792 45.9305 35.0784 45.9315 35.1259 46.1867C34.847 46.5799 34.5264 46.5873 34.3023 47.0906C34.0774 47.596 34.5608 48.6133 34.3418 48.9396C33.7387 47.8869 33.829 46.575 34.7234 45.717Z" fill="#F1A724"/>
<path d="M39.2612 44.3186C39.7429 44.292 40.078 43.761 40.3567 43.808C41.7018 44.0347 43.2271 45.2796 44.49 45.634C44.6807 45.8036 45.4262 46.5147 45.5474 46.5277C46.6138 46.642 46.8002 47.4017 47.5857 47.8065C46.707 49.8809 47.897 50.3224 49.7139 50.7481C50.7548 50.992 51.7612 50.3034 52.6143 50.854C52.5161 51.0291 52.4661 51.1236 52.3888 51.3096L52.4363 51.4045C52.3358 51.5109 52.3035 51.5639 52.1632 51.6098L51.6826 51.9203C51.0945 52.0844 50.681 52.197 50.0814 52.2939C49.397 52.4981 49.7742 52.6651 48.9389 52.6662C47.9955 52.2989 45.4546 51.459 44.742 50.806C43.6185 49.7765 44.9377 50.0072 42.9081 49.9779L42.2116 49.8936L42.0729 49.6885L41.8228 49.5772C41.8234 49.0009 41.6807 48.689 41.4862 48.1548L41.51 48.0719C41.3337 47.5987 40.8607 46.7241 40.5477 46.3405C40.7729 46.0603 40.873 45.9568 40.9996 45.6249C40.6627 45.3052 40.5415 45.1815 40.2555 44.8015C40.1578 44.7645 39.852 44.6946 39.7349 44.6644L39.7392 44.6003C39.5828 44.3587 39.6038 44.427 39.2612 44.3186Z" fill="#8B3B0C"/>
<path d="M39.2612 44.3186C39.7429 44.292 40.078 43.761 40.3567 43.808C41.7018 44.0347 43.2271 45.2796 44.49 45.634C44.6807 45.8036 45.4262 46.5147 45.5474 46.5277C46.6138 46.642 46.8002 47.4017 47.5857 47.8065C46.707 49.8809 47.897 50.3224 49.7139 50.7481C50.7548 50.992 51.7612 50.3034 52.6143 50.854C52.5161 51.0291 52.4661 51.1236 52.3888 51.3096L52.4363 51.4045C52.3358 51.5109 52.3035 51.5639 52.1632 51.6098C51.8809 51.4808 50.6591 52.0153 49.831 51.7704C48.1174 51.2635 46.7802 49.8514 45.8374 48.4263C44.728 48.1045 44.8141 46.0581 40.9996 45.6249C40.6627 45.3052 40.5415 45.1815 40.2555 44.8015C40.1578 44.7645 39.852 44.6946 39.7349 44.6644L39.7392 44.6003C39.5828 44.3587 39.6038 44.427 39.2612 44.3186Z" fill="#AC5711"/>
<path d="M40.2556 44.8014C41.693 44.3049 45.1806 46.9868 45.8375 48.4262C44.7282 48.1045 44.8143 46.058 40.9997 45.6249C40.6629 45.3052 40.5417 45.1815 40.2556 44.8014Z" fill="#6C3009"/>
<path d="M42.0729 49.6884C42.0579 49.5183 42.0456 49.3479 42.0361 49.1774C42.0175 48.8232 42.0201 48.6783 42.2716 48.3991C42.9673 47.9723 43.5107 49.0021 44.646 48.9857C46.4252 50.9112 47.4434 51.6822 50.0814 52.2938C49.397 52.498 49.7742 52.665 48.9389 52.6662C47.9955 52.2988 45.4546 51.4589 44.742 50.8059C43.6185 49.7764 44.9377 50.0072 42.9081 49.9779L42.2116 49.8935L42.0729 49.6884Z" fill="#B86210"/>
<path d="M41.5102 48.0718L41.6852 48.0799C41.8055 47.7569 41.5193 47.2026 41.8584 47.1058C42.9606 46.7912 44.2586 48.0987 44.6462 48.9857C43.5109 49.0021 42.9675 47.9723 42.2717 48.3991C42.0203 48.6783 42.0177 48.8232 42.0362 49.1774C42.0458 49.348 42.058 49.5183 42.073 49.6884L41.8229 49.5772C41.8236 49.0009 41.6809 48.6889 41.4863 48.1548L41.5102 48.0718Z" fill="#AC5711"/>
<path d="M51.8955 45.9572C52.1987 46.2322 52.4464 46.4513 52.8178 46.6444L53.1552 46.2081L53.3605 46.3926L53.437 46.1145C53.7218 46.3427 53.8501 46.4461 54.0898 46.7172C54.585 47.6741 55.1349 48.5274 54.79 49.6245C54.5979 49.5595 54.6748 49.5698 54.4544 49.6367L54.4068 49.7869C54.0161 50.8048 53.6601 51.0946 52.7818 51.7388C52.5456 51.9119 52.3645 51.9844 52.1799 52.2236L52.0864 52.219C51.954 52.1442 51.8048 52.0171 51.6827 51.9203L52.1632 51.6098C52.3036 51.5639 52.3359 51.5109 52.4364 51.4045L52.3888 51.3096C52.4661 51.1236 52.5162 51.0291 52.6144 50.854C52.8644 50.4611 53.0179 50.18 53.2297 49.7674C53.0069 49.6817 52.8568 49.6405 52.6848 49.4692C53.015 49.1465 52.6694 48.7972 52.3936 48.6002C51.9283 47.8255 52.2087 47.4787 50.968 46.8629C51.1484 46.5937 51.6129 46.2667 51.8955 45.9572Z" fill="#F1A724"/>
<path d="M53.4368 46.1145C53.7217 46.3426 53.8499 46.446 54.0897 46.7171C54.5848 47.6741 55.1347 48.5274 54.7899 49.6245C54.5978 49.5594 54.6747 49.5698 54.4543 49.6367C54.4182 48.8174 54.45 47.8114 53.9628 47.1416C53.844 46.8752 53.5971 46.5693 53.3604 46.3926L53.4368 46.1145Z" fill="#FBE36E"/>
<path d="M53.2298 49.7673C53.3271 49.4283 53.5541 48.8855 53.9482 48.8615C54.0819 48.9696 54.0767 48.9976 54.124 49.1728C53.445 49.9637 53.759 50.5326 52.4365 51.4045L52.3889 51.3095C52.4662 51.1235 52.5163 51.029 52.6145 50.854C52.8645 50.4611 53.018 50.1799 53.2298 49.7673Z" fill="#8B3B0C"/>
<path d="M52.8179 46.6444L53.1553 46.208L53.3606 46.3925C53.5974 46.5692 53.8442 46.8751 53.9631 47.1416C53.5553 47.5364 53.4961 47.6054 53.1353 47.3768C53.129 47.3728 52.8012 47.4844 52.6087 47.4275C52.6052 47.2146 52.7447 46.8623 52.8179 46.6444Z" fill="#FBC022"/>
<path d="M56.246 44.0486C57.294 43.8316 56.9322 43.3061 58.0936 43.3026C58.1283 43.7438 58.1144 44.1263 57.8091 44.4578C56.9625 45.377 55.2892 46.4429 54.0898 46.7172C53.8501 46.4461 53.7218 46.3427 53.437 46.1145C53.3032 46.0027 53.2841 45.9981 53.2336 45.8386L53.3685 45.6735C53.613 44.473 54.1783 45.1001 55.2256 44.1457C55.3695 44.2898 55.6027 44.6089 55.7369 44.7823C55.9048 44.5534 56.1083 44.2914 56.246 44.0486Z" fill="#F1A724"/>
<path d="M32.5941 51.0748C32.7376 51.0481 33.1711 50.9637 33.2868 51.0077C34.4104 51.4355 34.7711 52.5313 36.0942 52.6299C37.2996 52.7791 37.4169 52.7778 38.5364 53.0598C38.0305 53.3999 37.8407 53.494 37.2348 53.5479C35.7661 53.6145 34.9779 52.9088 33.6464 52.4965C32.9755 52.2887 31.7261 52.4089 31.106 52.7638L30.8357 52.4554C31.2947 52.302 32.2234 51.8889 32.4437 51.4521C32.4904 51.1802 32.4434 51.2603 32.5941 51.0748Z" fill="#D27915"/>
<path d="M42.9082 49.9779C44.9379 50.0073 43.6186 49.7765 44.7421 50.806C45.4548 51.459 47.9957 52.2989 48.939 52.6662C49.2926 52.8142 49.6619 52.7939 50.0457 52.8016C48.7025 52.9531 48.6258 53.3277 47.1637 52.9945C46.5274 52.8405 45.8059 52.732 45.3129 52.3079C44.8704 52.0813 43.0775 50.4416 42.9082 49.9779Z" fill="#F1981A"/>
<path d="M45.3127 52.3078C45.9282 51.6887 47.2065 52.0517 47.3632 52.7472C47.2922 52.9516 47.346 52.8863 47.1635 52.9944C46.5271 52.8404 45.8057 52.7319 45.3127 52.3078Z" fill="#FC811C"/>
<path d="M55.049 52.3051C54.8134 52.2719 54.6081 52.277 54.4485 52.1188C54.4416 52.1365 56.4995 50.5713 56.6934 50.4753C58.4132 49.6235 58.6203 46.0177 59.5134 45.3977C59.4521 46.5878 59.0954 48.4259 58.4634 49.4391C57.7677 50.5542 56.3157 51.8847 55.049 52.3051Z" fill="#FBE36E"/>
<path d="M31.106 52.7638C31.7261 52.4088 32.9755 52.2887 33.6464 52.4964C34.9779 52.9087 35.7661 53.6144 37.2348 53.5479C34.8664 54.0931 35.0289 53.7226 33.1013 52.9217C32.9933 52.9502 32.8848 52.9764 32.7758 53.0003C32.1194 53.1489 31.4665 53.3341 30.8752 52.9599L31.106 52.7638Z" fill="#F1981A"/>
<path d="M41.8228 49.5771L42.0729 49.6884L42.2116 49.8935C41.8864 51.0971 41.5478 51.6797 40.3961 52.3462C40.1847 52.4686 40.0034 52.5814 39.7563 52.6214L39.6956 52.5413C39.8542 52.4525 40.015 52.3903 40.1825 52.3202L40.1841 52.2264L39.9875 52.1694C41.071 51.7959 41.4743 50.867 41.7991 49.8642L41.8228 49.5771Z" fill="#E23A17"/>
<path d="M51.6827 51.9203C51.8048 52.0171 51.954 52.1441 52.0864 52.219C51.6587 52.3992 50.4977 52.7829 50.0457 52.8016C49.6619 52.7938 49.2925 52.8142 48.939 52.6662C49.7743 52.6651 49.3971 52.4981 50.0815 52.2939C50.6811 52.197 51.0946 52.0844 51.6827 51.9203Z" fill="#D27915"/>
<path d="M54.4545 49.6366C54.6749 49.5698 54.598 49.5594 54.7901 49.6244C54.7078 49.8808 54.5954 50.1994 54.4836 50.4404C54.1753 51.1051 52.9262 52.316 52.1799 52.2235C52.3646 51.9843 52.5457 51.9119 52.7819 51.7387C53.6602 51.0945 54.0161 50.8047 54.4069 49.7868L54.4545 49.6366Z" fill="#F2E3C0"/>
<path d="M44.2761 51.9242C44.5503 51.9506 44.4778 51.9071 44.6529 52.0477C44.8689 53.5219 40.8538 56.1007 39.1888 54.4416C39.1232 54.2549 39.1327 54.2271 39.1842 54.0343C39.3901 53.8371 39.3079 53.8621 39.5325 53.8281C39.7611 53.991 39.7352 54.3359 39.9086 54.5429C40.1547 54.8366 40.6741 54.5696 40.989 54.5081C41.9887 54.3128 42.8448 53.9635 43.4539 53.1014C43.7091 52.7404 43.9428 52.3063 44.2328 51.9731L44.2761 51.9242Z" fill="#FBD945"/>
<path d="M33.5165 30.293C34.0112 30.4827 33.8845 30.6683 34.2716 30.9972C34.8795 31.0114 35.6667 31.0121 36.252 31.1047C36.4891 31.4252 38.0621 32.1695 38.5468 32.5288C39.7177 33.3968 40.7651 34.4982 41.6413 35.6563C42.1004 35.4995 42.3148 35.5193 42.7077 35.8378C43.203 36.9668 44.5651 36.6791 44.2344 37.7255C44.4829 38.1471 44.991 38.0638 45.1234 38.5579C45.1977 38.8355 45.1523 38.9008 45.3442 39.103L45.5661 39.1107C45.8401 38.7442 45.4874 38.6052 45.8705 38.0441C46.4565 38.1707 46.4956 37.3136 46.7886 36.8846L46.8221 36.8364L47.023 37.2892C47.5105 37.4431 47.7348 37.6526 48.1391 37.9612C48.3641 37.7543 48.5777 37.5174 48.8711 37.4456C49.7539 37.6218 49.2787 38.6633 50.5995 38.1733C50.8746 38.392 51.5856 38.9298 51.596 39.2772C51.7572 39.5243 51.735 39.4174 51.7061 39.6798C51.3136 40.3171 50.4756 40.3916 50.5272 40.98C50.5424 41.1535 50.9261 41.71 50.9382 41.8455C50.9575 42.0622 50.7348 42.3856 50.7535 42.6567L50.8574 42.8121C50.8033 43.0803 50.753 43.2073 50.8747 43.4501C51.3917 44.0105 51.9578 43.7173 51.4472 44.6777C51.777 44.7834 52.1369 44.8812 52.4333 45.0552C52.671 45.2545 53.0733 45.6413 53.3686 45.6735L53.2337 45.8385C53.2842 45.9981 53.3033 46.0026 53.4371 46.1145L53.3606 46.3926L53.1553 46.2081L52.8179 46.6444C52.4464 46.4513 52.1987 46.2322 51.8956 45.9571C51.613 46.2667 51.1485 46.5937 50.9681 46.8629C52.2087 47.4787 51.9284 47.8254 52.3936 48.6002C52.6695 48.7972 53.0151 49.1465 52.6849 49.4692C52.8569 49.6405 53.0069 49.6816 53.2298 49.7674C53.018 50.1799 52.8645 50.4611 52.6145 50.854C51.7614 50.3034 50.755 50.992 49.7141 50.748C47.8971 50.3224 46.7071 49.8809 47.5859 47.8065C46.8003 47.4016 46.6139 46.6419 45.5476 46.5276C45.4263 46.5146 44.6809 45.8036 44.4902 45.6339C44.4907 45.1707 44.5715 44.6337 44.0506 44.4568C42.2773 43.6206 41.7756 43.9175 40.2501 42.2276C40.064 42.1844 40.0531 42.1977 39.8685 42.2744C39.5299 42.5913 39.5464 43.273 39.5025 43.7495C37.3076 42.7295 36.5481 43.2764 34.3012 42.7761C33.7068 42.6437 33.384 42.4218 33.0902 41.9067C32.7959 41.7054 31.8706 41.2419 31.5018 41.0639C29.664 40.1763 29.1501 39.233 28.5545 37.3255C28.5204 35.8652 31.6731 34.2492 31.7119 33.3324C31.409 32.9305 30.6571 33.1981 30.1296 32.8948C31.1563 31.9018 31.3843 31.6855 32.7085 31.1599C32.9708 31.1389 33.2749 31.1579 33.4641 30.9914C33.6049 30.7712 33.5472 30.5567 33.5165 30.293Z" fill="#FBC027"/>
<path d="M41.6411 35.6563C42.1002 35.4995 42.3146 35.5193 42.7075 35.8378C43.2028 36.9668 44.5649 36.6791 44.2342 37.7255C44.4827 38.1471 44.9908 38.0638 45.1232 38.5579C45.1975 38.8356 45.1521 38.9008 45.344 39.103L45.5659 39.1107C45.8399 38.7443 45.4872 38.6052 45.8703 38.0441C46.4563 38.1707 46.4954 37.3136 46.7884 36.8846L46.8219 36.8364L47.0228 37.2892C47.5103 37.4432 47.7346 37.6527 48.1389 37.9612C48.3639 37.7543 48.5775 37.5175 48.8709 37.4456C49.7537 37.6218 49.2785 38.6634 50.5993 38.1733C50.8744 38.392 51.5854 38.9298 51.5958 39.2772C51.757 39.5243 51.7348 39.4174 51.7059 39.6798C51.3134 40.3171 50.4754 40.3916 50.527 40.98C50.5422 41.1535 50.9259 41.71 50.938 41.8455C50.9573 42.0623 50.7346 42.3856 50.7533 42.6567L50.8572 42.8121C50.8031 43.0803 50.7528 43.2073 50.8745 43.4501C51.3915 44.0105 51.9576 43.7173 51.447 44.6777C50.8883 44.5662 50.3284 44.4615 49.7672 44.3635C47.3326 43.9149 45.9691 42.4573 44.635 40.5181C43.6326 39.167 42.5594 37.1701 41.6411 35.6563Z" fill="#F2E3C0"/>
<path d="M44.635 40.518C44.8374 40.4204 45.9506 40.0579 46.1505 40.0706C46.5756 40.3352 46.4903 41.5505 47.3861 41.3561C47.7243 40.8878 47.259 40.4241 47.4898 40.0557C47.7952 39.9426 47.7151 39.9228 47.9955 39.9874C48.7012 40.6357 48.1217 43.1033 49.6221 42.9847C49.9585 42.9581 50.4246 42.7757 50.7533 42.6566L50.8572 42.812C50.8031 43.0802 50.7528 43.2073 50.8745 43.4501C51.3915 44.0104 51.9576 43.7172 51.447 44.6776C50.8883 44.5661 50.3284 44.4614 49.7672 44.3634C47.3326 43.9148 45.9691 42.4572 44.635 40.518Z" fill="#EAD0A7"/>
<path d="M47.0228 37.2892C47.5103 37.4431 47.7346 37.6526 48.1389 37.9611C48.3639 37.7543 48.5775 37.5174 48.8709 37.4456C49.7537 37.6218 49.2785 38.6633 50.5993 38.1733C50.8744 38.392 51.5854 38.9297 51.5958 39.2772C51.3624 39.4868 51.0932 39.703 50.851 39.9064C49.4484 38.8992 49.8222 39.7437 48.9543 39.5061C48.7834 39.1246 49.0708 39.1098 48.9094 38.7365L48.7239 38.6971C48.4164 38.8366 48.3669 39.0978 48.059 39.4216C47.4357 39.6409 47.5025 39.2637 46.9261 39.0818C46.7958 39.0407 46.5598 39.1454 46.2667 39.0776C46.1189 38.8387 46.167 38.8878 46.184 38.5573C46.6163 37.9641 46.6696 37.9577 47.0228 37.2892Z" fill="#F5EFD1"/>
<path d="M44.0505 44.4568C44.4051 44.2975 44.5107 43.9962 44.7811 43.9437C45.3119 44.2147 45.3465 44.8685 45.9404 45.0462C46.5601 45.1541 46.1719 45.4561 46.4711 45.8901C47.172 45.8684 47.6226 45.6333 48.1818 46.1782C49.3554 47.3216 48.9092 49.661 51.0891 49.7375C51.5002 49.752 52.2395 49.4992 52.6848 49.4692C52.8569 49.6405 53.0069 49.6817 53.2298 49.7674C53.018 50.18 52.8645 50.4611 52.6145 50.854C51.7614 50.3034 50.7549 50.992 49.714 50.7481C47.8971 50.3224 46.7071 49.8809 47.5858 47.8065C46.8003 47.4017 46.6139 46.642 45.5475 46.5277C45.4263 46.5147 44.6808 45.8036 44.4901 45.634C44.4907 45.1707 44.5715 44.6337 44.0505 44.4568Z" fill="#D27915"/>
<path d="M45.9403 45.0461C46.56 45.154 46.1718 45.456 46.4709 45.89C46.4564 46.0545 46.4306 46.0729 46.3354 46.2154L46.1802 46.2232C45.8442 45.9318 45.8118 45.4465 45.9403 45.0461Z" fill="#6C3009"/>
<path d="M36.9977 38.3469C37.4023 38.339 37.6552 38.3078 38.019 38.4888L38.0667 38.5121C38.4198 38.6878 38.8535 39.0132 39.1811 39.2489C39.0528 40.3428 39.1341 40.4199 40.1744 40.7178C40.4377 41.2859 40.6347 41.6588 40.25 42.2276C40.0639 42.1845 40.053 42.1978 39.8684 42.2744C39.5298 42.5913 39.5463 43.2731 39.5024 43.7495C37.3075 42.7295 36.548 43.2764 34.3011 42.7761C33.7067 42.6437 33.384 42.4218 33.0901 41.9067L33.1638 41.9102C34.0827 41.9577 36.4727 42.366 37.3954 42.0046C37.3585 41.7585 37.3556 41.697 37.2316 41.4689C37.1236 41.4273 37.0021 41.3556 36.8992 41.2993C36.5298 40.8191 37.0629 40.3901 36.3163 39.8072C36.5464 39.6055 36.7378 39.448 36.9333 39.2123C36.7583 38.8639 36.8681 38.6922 36.9977 38.3469Z" fill="#F1A724"/>
<path d="M38.1971 40.9465C38.6798 41.0862 39.3722 41.4297 39.2612 42.0242C38.7146 42.55 38.0283 42.0532 37.3953 42.0046C37.3583 41.7585 37.3555 41.697 37.2315 41.4689C37.1711 40.5858 37.6235 41.2214 38.1971 40.9465Z" fill="#FBC022"/>
<path d="M36.9332 39.2123C37.3083 39.4237 38.0066 40.5445 38.1971 40.9465C37.6235 41.2214 37.1711 40.5858 37.2315 41.4689C37.1235 41.4273 37.002 41.3556 36.8991 41.2993C36.5297 40.8191 37.0628 40.3901 36.3162 39.8072C36.5463 39.6055 36.7377 39.448 36.9332 39.2123Z" fill="#FBD945"/>
<path d="M33.7167 37.059L33.6053 36.8868C33.1719 36.8077 33.1995 37.0967 32.8251 36.9617C32.7261 36.6276 32.847 36.3985 33.0089 36.0962C33.8364 34.5523 35.9902 36.0799 36.3838 37.1997C36.4744 37.4571 36.3508 37.5799 36.2008 37.7666L36.1955 37.8254C35.5738 38.0055 35.896 38.5951 35.4319 38.6815C34.577 37.7605 35.7186 37.3863 33.7167 37.059Z" fill="#FBD945"/>
<path d="M33.7168 37.0591C35.7186 37.3863 34.5771 37.7606 35.4319 38.6816C35.8961 38.5951 35.5738 38.0056 36.1955 37.8255C36.3759 37.9318 36.8889 38.2089 36.9978 38.3469C36.8682 38.6922 36.7584 38.8639 36.9334 39.2123C36.7379 39.448 36.5465 39.6055 36.3164 39.8072C35.6992 39.6738 35.384 39.6347 34.881 39.2152C34.2785 38.7129 33.7929 37.8468 33.7168 37.0591Z" fill="#FBE36E"/>
<path d="M50.9679 46.8628C52.2086 47.4786 51.9283 47.8254 52.3935 48.6001C51.4597 49.4286 51.1753 49.0785 51.0064 48.0494C50.9388 47.6375 50.8642 47.6161 50.5742 47.3327C50.6043 47.1066 50.753 47.0527 50.9679 46.8628Z" fill="#6C3009"/>
<path d="M51.8955 45.9571C52.0758 45.6832 51.9931 45.7288 52.2648 45.6013C52.6318 45.624 52.9852 45.8894 53.1553 46.2081L52.8179 46.6444C52.4464 46.4513 52.1987 46.2322 51.8955 45.9571Z" fill="#FBE36E"/>
<path d="M40.217 34.9521C41.7551 36.2326 42.3549 38.0134 43.4333 39.6258C43.5871 39.8559 43.8569 40.3584 44.0201 40.547L43.785 40.707C43.6793 41.0927 43.588 41.4717 43.4222 41.8362C43.3163 41.6608 41.818 40.7013 41.4982 40.4567L41.8982 39.8423C41.7372 39.5997 41.8287 39.6782 41.5196 39.5658L41.3739 39.5315C41.0499 39.1477 41.2498 38.7469 41.519 38.3893C41.5714 38.3288 41.5927 38.2419 41.6224 38.1618C41.485 37.3425 40.3764 36.0639 39.8398 35.399C40.0639 35.2422 40.1329 35.2135 40.217 34.9521Z" fill="#FBE36E"/>
<path d="M41.9475 39.8376C42.2032 40.0373 42.7076 40.5241 43.0072 40.3813C43.2937 40.2837 43.2029 40.2742 43.4828 40.3259C43.6483 40.4818 43.6722 40.51 43.7851 40.7071C43.6794 41.0927 43.5881 41.4718 43.4223 41.8363C43.3164 41.6609 41.8181 40.7013 41.4983 40.4567L41.8983 39.8423L41.9475 39.8376Z" fill="#FBC022"/>
<path d="M41.5189 38.3893C41.7914 38.4499 41.9578 38.7495 42.135 38.9804L41.5195 39.5659L41.3738 39.5316C41.0498 39.1478 41.2497 38.7469 41.5189 38.3893Z" fill="#F2E3C0"/>
<path d="M41.9475 39.8377C42.0164 39.5339 41.9559 39.6229 42.1479 39.4382C42.5297 39.5135 42.846 40.039 43.0072 40.3813C42.7076 40.5241 42.2032 40.0373 41.9475 39.8377Z" fill="#F5EFD1"/>
<path d="M39.8399 35.3991C38.8761 34.2635 38.2162 34.2971 37.0516 33.6195C36.7703 33.4558 36.1368 32.7068 36.0811 32.3387L36.1507 32.2462C36.8929 32.0878 37.455 32.9637 37.8894 33.1782C39.0346 33.7437 39.3997 33.9754 40.2171 34.9523C40.133 35.2136 40.0639 35.2423 39.8399 35.3991Z" fill="#FBE36E"/>
<path d="M38.6133 36.5703C38.8823 36.4019 38.8691 36.3487 39.1355 36.3543C39.9364 36.7952 40.8673 37.1859 41.2135 38.0691L41.196 38.2534C40.4121 38.5861 39.1112 37.0957 38.6133 36.5703Z" fill="#F2E3C0"/>
<path d="M38.6133 36.5704C37.9912 35.9835 37.2895 35.5649 36.7308 34.9677C36.6478 34.879 36.6824 34.8354 36.707 34.7185C37.2338 34.4079 37.9262 34.7891 38.3381 35.1342C38.762 35.4893 38.9117 35.8687 39.1355 36.3543C38.8691 36.3488 38.8823 36.4019 38.6133 36.5704Z" fill="#FBE36E"/>
<path d="M44.02 40.547C44.2734 40.9334 46.1307 43.1301 46.1343 43.284L45.9766 43.2273L46.0914 43.1342L45.9104 43.1842C45.3088 42.7083 44.6819 42.1541 43.9222 41.9634C43.7249 41.914 43.6001 41.9567 43.4221 41.8362C43.5879 41.4717 43.6792 41.0927 43.7849 40.707L44.02 40.547Z" fill="#FBE36E"/>
<path d="M50.2386 45.0429C50.6315 45.0402 51.2138 45.0717 51.403 45.4486C51.2944 45.7415 51.2936 45.6746 51.0105 45.8963C50.605 45.9872 50.1143 45.6467 50.061 45.2175L50.2386 45.0429Z" fill="#FBE36E"/>
<path d="M47.376 44.1239C47.8233 44.129 48.1579 44.2451 48.321 44.6703C48.0271 44.6802 47.8314 44.6976 47.5618 44.5798C47.3433 44.3415 47.3957 44.4615 47.376 44.1239Z" fill="#FBE36E"/>
<path d="M31.278 26.7277C31.6312 26.363 32.0522 26.6319 32.33 26.0262C32.9883 26.4682 33.7126 26.8028 34.476 27.0174C34.8058 27.11 35.7032 27.2587 35.7877 27.5469C35.6375 27.6752 35.5498 27.7499 35.4154 27.9011L35.4139 28.0872C35.9234 28.5336 36.6019 28.0037 36.9048 28.5313C36.9181 29.3027 36.8146 29.921 37.8462 29.8877C38.3902 29.8701 39.0581 29.6959 39.5768 29.5383C39.9883 29.9535 40.2388 30.226 40.7427 30.528C41.33 30.402 42.0914 29.923 42.396 30.0191C42.4172 30.2342 42.2987 30.3905 42.1532 30.5479C42.2866 30.6543 42.3091 30.6866 42.4698 30.7266C44.6038 30.849 44.206 31.5596 45.5309 32.4249C46.0429 32.0771 46.2954 31.7705 46.9095 31.7701C47.3116 32.1053 46.8948 32.6159 47.1161 33.0883C47.4332 33.3352 48.1289 33.0166 48.6733 33.0926C48.8792 33.1896 49.5512 33.2588 49.7726 33.2473C49.5489 33.3741 49.577 33.3114 49.5185 33.4977C49.5833 33.5936 49.6395 33.6941 49.7299 33.7636C49.5143 34.0103 49.5386 33.9151 49.4943 34.2111C49.6382 34.7412 50.4758 35.3584 50.91 35.7821C50.4457 36.1578 49.7431 36.766 49.24 37.032C48.6333 36.6858 47.954 35.8905 47.2689 35.9565C46.8933 35.9926 46.659 36.4778 46.822 36.8364L46.7884 36.8846C46.4955 37.3136 46.4564 38.1707 45.8704 38.0441C45.4873 38.6052 45.84 38.7443 45.5659 39.1107L45.3441 39.103C45.1522 38.9008 45.1975 38.8355 45.1232 38.5579C44.9909 38.0638 44.4828 38.1471 44.2343 37.7255C44.565 36.6791 43.2028 36.9668 42.7076 35.8378C42.3146 35.5193 42.1002 35.4995 41.6412 35.6563C40.7649 34.4982 39.7175 33.3968 38.5466 32.5288C38.0619 32.1695 36.4889 31.4252 36.2518 31.1047C35.6665 31.0121 34.8793 31.0114 34.2715 30.9973C33.8844 30.6684 34.011 30.4827 33.5164 30.293C33.5471 30.5567 33.6047 30.7712 33.464 30.9914C33.2747 31.1579 32.9706 31.1389 32.7083 31.1599C32.6528 31.0732 32.5314 30.9125 32.4231 30.8949C31.6076 30.7627 30.8318 30.4617 30.0442 30.2212C29.7501 30.1315 29.4846 30.0265 29.2207 29.8673L29.328 29.7022L29.9539 29.0559C30.2951 28.7854 30.4789 28.7309 30.8933 28.5994C31.2585 28.627 32.4906 28.5719 32.8617 28.5538C32.5349 27.8853 31.8199 27.2595 31.278 26.7277Z" fill="#F2E3C0"/>
<path d="M44.4037 36.3372L44.4809 36.2606C45.6907 35.0559 44.8598 35.4133 44.8616 34.7084C45.1375 34.2089 45.7899 32.7509 46.4112 32.8658C46.6618 33.1332 46.6243 33.2167 46.7225 33.5931L46.7612 33.6017C47.6592 33.8089 47.6259 33.8914 48.3027 34.576C48.3951 33.929 48.4461 33.6945 48.6732 33.0927C48.8792 33.1896 49.5511 33.2588 49.7726 33.2473C49.5489 33.3741 49.5769 33.3114 49.5184 33.4977C49.5832 33.5936 49.6394 33.6942 49.7298 33.7636C49.5142 34.0103 49.5386 33.9152 49.4943 34.2111C49.6381 34.7412 50.4757 35.3584 50.91 35.7821C50.4456 36.1579 49.743 36.766 49.24 37.032C48.6332 36.6858 47.9539 35.8905 47.2689 35.9565C46.8932 35.9926 46.659 36.4778 46.8219 36.8364L46.7884 36.8846C46.4954 37.3136 46.4563 38.1707 45.8703 38.0441C45.4872 38.6052 45.8399 38.7443 45.5658 39.1107L45.344 39.103C45.1521 38.9008 45.1975 38.8356 45.1232 38.5579C44.9908 38.0638 44.4827 38.1471 44.2342 37.7255C44.5649 36.6791 43.2028 36.9668 42.7075 35.8378C43.4644 35.4716 43.7842 35.8859 44.4037 36.3372Z" fill="#F5EFD1"/>
<path d="M32.8617 28.5537C34.35 28.792 36.2687 29.1456 36.2518 31.1046C35.6665 31.0121 34.8793 31.0113 34.2715 30.9972C33.8844 30.6683 34.011 30.4826 33.5164 30.2929C33.5471 30.5566 33.6047 30.7711 33.464 30.9913C33.2747 31.1578 32.9706 31.1388 32.7083 31.1598C32.6528 31.0731 32.5314 30.9124 32.4231 30.8948C31.6076 30.7626 30.8318 30.4616 30.0442 30.2212C29.7501 30.1314 29.4846 30.0264 29.2207 29.8672L29.328 29.7021L29.9539 29.0558C30.2951 28.7853 30.4789 28.7308 30.8933 28.5993C31.2585 28.627 32.4906 28.5718 32.8617 28.5537Z" fill="#FB8221"/>
<path d="M33.5164 30.2929C33.4198 29.9184 33.5652 29.718 33.9297 29.6366C34.3562 29.8756 34.2668 30.5535 34.2715 30.9972C33.8844 30.6683 34.011 30.4826 33.5164 30.2929Z" fill="#FBC022"/>
<path d="M40.832 31.3746C41.1825 31.1083 41.7204 30.5463 42.1534 30.5479C42.2867 30.6543 42.3092 30.6865 42.4699 30.7266C42.9704 31.6165 44.452 32.2716 45.2648 32.7596C45.3903 32.8351 45.3689 32.9441 45.3675 33.0685C45.2389 33.3135 44.9825 33.3796 44.7192 33.4909C44.4463 33.8998 44.2375 34.195 43.93 34.5785C43.5218 34.2964 42.8447 33.8139 42.5326 33.4342C42.406 33.2803 42.4186 33.0408 42.1922 32.7499C41.9047 32.7823 41.628 33.9124 40.902 33.4768C40.4579 33.2103 40.7695 32.6297 40.6388 32.3156C40.3887 31.715 39.6022 31.9015 39.4646 31.1293C39.571 30.916 39.4997 30.9798 39.737 30.897C40.0861 30.9346 40.5101 31.2018 40.832 31.3746Z" fill="#F5EFD1"/>
<path d="M43.9739 34.8882C44.3005 34.948 44.4466 34.9505 44.6057 35.2592C44.537 35.5122 44.554 35.441 44.3498 35.6432C44.1267 35.575 43.8519 35.5082 43.7285 35.3148C43.7424 35.0583 43.7541 35.1222 43.9739 34.8882Z" fill="#F5EFD1"/>
<path d="M50.5995 38.1732C50.4362 37.6845 50.1411 37.1585 50.6065 36.7887C50.8348 36.7902 51.0616 36.7626 51.238 36.9012L51.1231 37.1131C51.4189 37.8008 52.5291 36.9018 53.0183 37.4547C53.1372 38.2032 52.2783 37.8342 52.0024 38.3083C52.0592 38.7431 52.74 39.3469 53.0794 39.6089C53.1287 39.6468 53.1791 39.6836 53.2304 39.7191C53.5708 39.425 53.9936 38.9832 54.3553 38.8018C54.6344 38.8997 55.2817 40.2566 55.7049 40.771L55.6615 40.9039C54.8714 40.91 54.7644 39.5995 54.0538 39.5461C52.5697 40.5483 55.8013 41.5166 56.4594 41.5353C56.8602 41.5466 55.7424 43.6784 56.246 44.0485C56.1084 44.2913 55.9049 44.5533 55.737 44.7822C55.6027 44.6088 55.3696 44.2897 55.2256 44.1456C54.1784 45.1 53.6131 44.4729 53.3685 45.6734C53.0732 45.6412 52.671 45.2544 52.4333 45.0552C52.1368 44.8812 51.777 44.7833 51.4471 44.6776C51.9578 43.7172 51.3917 44.0104 50.8747 43.4501C50.753 43.2073 50.8033 43.0802 50.8574 42.812L50.7535 42.6566C50.7348 42.3855 50.9575 42.0622 50.9381 41.8455C50.926 41.7099 50.5424 41.1534 50.5272 40.98C50.4756 40.3916 51.3136 40.317 51.7061 39.6798C51.735 39.4173 51.7572 39.5243 51.596 39.2772C51.5856 38.9297 50.8746 38.392 50.5995 38.1732Z" fill="#F5EFD1"/>
<path d="M50.8574 42.8121C51.4437 42.6401 51.9193 42.1638 52.4843 42.3395C52.5753 42.3677 52.8026 41.973 53.1308 41.8734C53.6302 42.1604 52.7907 43.5035 52.6733 43.9504C52.583 44.2944 52.6136 44.7738 52.4333 45.0552C52.1368 44.8812 51.777 44.7834 51.4471 44.6777C51.9578 43.7173 51.3917 44.0105 50.8747 43.4501C50.753 43.2073 50.8033 43.0803 50.8574 42.8121Z" fill="#F2E3C0"/>
<path d="M49.7727 33.2473C50.0041 33.3175 50.9472 33.6124 51.0746 33.5901C51.7936 33.464 51.8007 33.1145 52.3981 33.8853C52.5084 34.0275 52.5526 34.1567 52.5371 34.3698C52.3573 34.6392 52.1969 34.6578 51.8702 34.7242L51.785 34.8708C51.8088 34.9424 51.8465 35.1054 51.9427 35.1172C52.998 35.2465 54.0813 35.3562 55.145 35.4388C55.4706 35.4641 55.4427 35.4387 55.5962 35.7345C55.5155 36.2106 54.8399 36.1249 54.4811 36.008C53.6202 35.7275 52.7631 35.7288 51.906 35.499C51.3952 35.2905 50.2706 34.0422 49.7299 33.7636C49.6395 33.6941 49.5834 33.5936 49.5186 33.4977C49.5771 33.3114 49.549 33.3741 49.7727 33.2473Z" fill="#F2E3C0"/>
<path d="M50.6064 36.7887C51.266 36.6005 51.7201 36.2358 52.3619 35.9259C52.0033 36.3448 51.7573 36.6859 51.2379 36.9013C51.0615 36.7626 50.8347 36.7902 50.6064 36.7887Z" fill="#F5EFD1"/>
<path d="M38.541 24.8401C38.9852 25.1037 38.6192 25.2908 38.7707 25.7936L38.9381 25.8446C39.3696 25.687 39.3332 25.1302 39.823 25.1548C40.2359 25.4865 40.4542 26.5873 40.6017 27.1332L40.0594 27.9767C40.2153 28.2702 40.3114 28.5365 40.4286 28.8443C40.0665 28.6646 39.7648 28.5538 39.3895 28.4136C38.3199 27.9796 38.1748 28.622 37.6631 28.5678L37.6117 28.4009C38.1485 26.8756 36.5717 27.433 36.4417 26.224C36.4309 26.1237 36.6897 25.6102 36.7567 25.4735C37.2194 25.5321 37.6367 25.5611 38.1009 25.5916C38.2575 25.2473 38.3168 25.1444 38.541 24.8401Z" fill="#F2E3C0"/>
<path d="M37.3737 26.0929C38.1709 26.1668 39.0138 26.2648 39.8108 26.2475C39.8763 26.677 39.9825 26.7973 39.9837 27.2536C39.8479 27.5137 39.8835 27.4396 39.6025 27.607C38.367 27.9334 37.905 27.5014 37.1934 26.4903C37.1877 26.2276 37.1644 26.3224 37.3737 26.0929Z" fill="#FAFBED"/>
<path d="M50.9127 30.4516C51.0978 30.427 51.1266 30.436 51.3086 30.4816C51.47 30.6179 51.5421 30.7488 51.6094 30.9486C51.8881 31.7765 50.7919 31.8567 50.1789 32.0027C50.3349 32.2259 50.6827 32.6275 50.5767 32.8799L50.3463 32.8616C49.7069 32.1171 49.7538 31.8835 48.855 31.3973C49.8887 31.0741 50.0081 30.7906 50.9127 30.4516Z" fill="#F2E3C0"/>
<path d="M47.6525 29.3834C47.8511 29.4237 48.2359 29.8421 48.4238 29.9723C48.6999 30.1635 49.0375 30.1419 49.2171 30.4281C48.8478 30.7293 48.2679 30.4552 47.7528 30.5976L47.6877 30.6161C47.4854 30.7434 47.4271 30.7855 47.1895 30.8586C46.8746 30.7356 47.0963 30.3339 46.7164 30.0786C46.6809 30.0548 46.4196 29.7925 46.3687 29.742L46.3908 29.6574C47.055 29.825 47.1396 29.8477 47.6525 29.3834Z" fill="#F2E3C0"/>
<path d="M56.5747 37.873C56.7556 37.8664 56.7644 37.87 56.9385 37.9258C57.1292 38.2527 56.9663 39.1862 56.8714 39.5669C56.7063 39.7489 56.3632 39.7966 56.1119 39.8575C55.8322 39.8526 55.8768 39.8965 55.6915 39.7524C55.6347 39.354 56.238 38.1634 56.5747 37.873Z" fill="#F2E3C0"/>
<path d="M41.5903 28.3612C42.2063 28.478 42.9421 29.0083 43.6896 28.9315C43.91 28.9089 43.9746 29.0031 44.0917 29.1279C44.1589 29.3767 44.0768 29.524 43.9865 29.7675C43.7342 29.7055 43.3988 29.4267 43.1637 29.3646C42.5892 29.2127 41.9809 29.5149 41.5264 29.104C41.4067 28.8668 41.5158 28.6285 41.5903 28.3612Z" fill="#F2E3C0"/>
<path d="M50.0885 27.6048C50.3692 27.5851 50.4854 27.5733 50.6985 27.7161C50.7826 27.9397 50.6655 28.132 50.6221 28.3945C50.4858 29.2188 51.3604 28.9077 51.6649 29.3215C51.5775 29.4727 51.5904 29.4264 51.3633 29.4952C50.6006 29.4492 50.4724 29.4834 50.3253 28.7492C50.2585 28.4158 49.7929 28.2786 49.4947 28.1456L49.458 28.0201C49.5885 27.7955 49.8442 27.7171 50.0885 27.6048Z" fill="#F2E3C0"/>
<path d="M44.3416 27.9981C44.4001 27.9915 44.4588 27.9867 44.5177 27.984C45.0052 27.9596 46.4969 28.0467 46.8331 28.4374C46.9858 28.615 46.9706 28.7658 46.973 28.9843C46.4495 28.9673 46.2759 28.672 45.2598 28.7037C44.9742 28.4562 44.4584 28.2649 44.3416 27.9981Z" fill="#F2E3C0"/>
<path d="M52.9592 30.3398C53.5759 30.4613 54.173 31.3176 54.1462 31.9043C54.0572 31.9069 53.8422 31.9268 53.7795 31.8947C53.3649 31.6819 53.0903 30.7788 52.9592 30.3398Z" fill="#F2E3C0"/>
<path d="M35.5218 25.7115L35.6147 25.751C35.9287 26.6324 34.6569 26.469 34.1877 26.4547C34.0667 26.3232 34.0515 26.3177 34.0242 26.1482C34.4001 25.9046 34.7606 26.2878 35.5218 25.7115Z" fill="#F5EFD1"/>
<path d="M43.5104 25.0146C43.7756 25.0725 43.8533 25.1276 43.8753 25.3846C43.7433 25.7315 43.4095 25.8959 43.0938 26.0387C42.7979 25.922 42.7862 25.9768 42.6746 25.7582C42.7615 25.5726 43.2615 25.253 43.5104 25.0146Z" fill="#F2E3C0"/>
<path d="M40.9872 25.8369C41.5334 26.0325 41.9201 26.6877 41.7499 27.2648C41.2215 26.984 40.7241 26.4735 40.9872 25.8369Z" fill="#F2E3C0"/>
<path d="M43.0883 26.5675C43.7867 26.7013 43.9823 27.0444 43.5477 27.6366C43.302 27.4732 42.98 27.2998 42.8552 27.0445C42.8661 26.7662 42.8824 26.8303 43.0883 26.5675Z" fill="#F2E3C0"/>
<path d="M52.4822 28.1357C52.7512 28.1018 52.9984 28.0451 53.2084 28.2534C53.1396 28.4824 53.1863 28.3986 52.9402 28.5728C52.6971 28.5735 52.5197 28.5961 52.3082 28.478L52.2947 28.3328L52.4822 28.1357Z" fill="#F2E3C0"/>
<path d="M40.2725 20.1627C40.3343 19.3423 41.407 19.0582 41.0965 17.5639L40.9413 17.3623C41.0471 17.2665 41.3139 17.2897 41.4619 17.2965C53.0972 17.8335 69.1408 24.7792 68.4076 38.5782C68.0795 44.7547 63.0509 49.932 57.9699 52.8865L57.9889 52.861C58.3205 52.4261 59.1341 51.8603 59.584 51.4925C68.4994 44.2058 68.671 33.1076 59.2103 26.2179C56.0541 23.9195 52.5797 22.4812 48.8037 21.3805C47.5631 21.0265 46.2308 20.8341 44.9757 20.5945C43.3968 20.3499 41.8772 20.1092 40.2725 20.1627Z" fill="#D5B98E"/>
</svg>
