<svg width="84" height="84" viewBox="0 0 84 84" fill="none" xmlns="http://www.w3.org/2000/svg">
<g clip-path="url(#clip0_8_2)">
<path d="M36.7065 13.7398C37.0955 13.6811 37.6242 13.7213 38.0269 13.6901C49.6705 12.7886 61.7339 21.6543 65.2933 32.8337C70.3062 48.5791 59.8959 64.1106 43.371 66.2852C42.0087 66.3592 38.9883 66.3619 37.6637 66.1943C34.4686 65.7902 30.5148 64.4269 27.724 62.8275C26.7475 62.2678 24.6045 60.6346 23.721 59.8744C22.4616 58.7906 20.5725 57.0302 19.5198 55.7872C16.0501 51.6239 13.9724 46.478 13.5786 41.0729C12.6175 27.9658 21.783 16.3646 34.5944 14.0043C35.3215 13.8703 35.9707 13.7937 36.7065 13.7398ZM47.1276 54.5794C48.1002 54.0522 49.3482 53.4186 50.1482 52.6721C49.6253 52.8145 48.3472 53.817 47.5154 54.168C47.3565 54.3162 47.2554 54.3994 47.1276 54.5794Z" fill="#EBE0CA"/>
<path d="M42.886 19.3531C43.7991 19.1097 44.9305 19.0454 45.8614 19.1933C46.6362 19.196 48.4412 19.7575 48.9426 20.3448C50.5816 21.5192 51.3543 23.6391 52.5865 24.7934C54.0593 25.1879 54.2509 24.6855 55.4256 25.5249C57.1604 26.7645 59.0893 26.6939 59.3934 29.4778C59.457 30.0601 59.5305 31.4093 59.803 31.9231C60.0985 32.4805 60.5733 32.859 60.8007 33.562C61.0548 34.1196 60.473 35.3225 60.5677 35.7579C60.9656 37.586 61.9477 38.5187 61.6156 40.551C61.2541 42.7627 59.46 43.1805 58.4315 44.9468C58.2007 45.4157 58.0479 46.1336 58.007 46.6512C57.8482 48.6595 57.3012 50.042 55.3444 50.89C54.1424 51.411 52.9961 52.0757 51.6692 51.45C51.52 51.6707 50.3773 52.5446 50.1481 52.6722C49.6252 52.8145 48.3472 53.8171 47.5153 54.168C47.3564 54.3163 47.2553 54.3995 47.1275 54.5794C46.8755 54.785 46.2879 55.2627 46.0201 55.3563C44.7435 55.8026 41.7597 56.9503 40.4784 56.4723C39.2321 57.3243 38.254 58.1603 36.6071 57.561C34.3729 56.748 31.8204 55.6496 29.6725 54.5975C28.9542 54.2458 27.9905 53.357 27.3182 52.8833C26.854 52.5562 26.4602 51.9987 25.9384 51.6385L25.872 51.5934C24.1105 50.8667 23.3088 48.8526 22.5785 47.211C22.4768 46.9824 22.6313 46.5703 22.7053 46.3359C22.5363 46.0609 21.6184 45.4627 21.2672 44.8983C20.8116 44.166 20.8777 43.2703 21.008 42.4635L20.9546 42.3068C21.2181 41.8118 21.0456 41.0134 21.6234 39.9068C21.4566 39.6339 21.3465 39.2464 21.3002 38.9317C20.9964 36.8672 21.2992 35.3421 22.2669 33.5425C23.3589 31.8104 23.0076 29.3709 25.1518 28.541C25.39 28.4488 25.6273 28.3505 25.8656 28.2576C27.4185 26.1429 28.9994 25.3022 31.0734 24.0399L31.1117 24.0161C30.3252 22.7021 30.6796 21.3875 32.1464 20.8172C32.9052 20.5222 33.5083 20.5585 34.3081 20.552C36.9591 17.7091 38.1663 20.2286 41.7401 19.4904C42.7164 19.1209 43.8115 21.3354 43.6148 22.2388C43.7078 22.337 43.7349 22.3817 43.8644 22.4269L44.1778 22.3462C43.8273 20.7906 44.0328 20.613 42.886 19.3531Z" fill="#F5F2EF"/>
<path d="M42.886 19.3531C43.7991 19.1097 44.9305 19.0454 45.8614 19.1933C46.6362 19.196 48.4411 19.7575 48.9426 20.3448C50.5816 21.5192 51.3543 23.6391 52.5864 24.7934C54.0593 25.1879 54.2509 24.6855 55.4255 25.5249C57.1604 26.7645 59.0893 26.6939 59.3934 29.4778C59.457 30.0601 59.5305 31.4093 59.8029 31.9231C60.0985 32.4805 60.5733 32.859 60.8007 33.562C61.0548 34.1196 60.473 35.3225 60.5677 35.7579C60.9656 37.586 61.9477 38.5187 61.6155 40.551C61.2541 42.7627 59.46 43.1805 58.4315 44.9468C58.2007 45.4157 58.0478 46.1336 58.0069 46.6512C57.8482 48.6595 57.3011 50.042 55.3444 50.89C54.1423 51.411 52.9961 52.0757 51.6691 51.45C51.5199 51.6707 50.3772 52.5446 50.1481 52.6722C49.6252 52.8145 48.3471 53.8171 47.5152 54.168L47.7921 53.7424C48.2125 53.3695 48.3053 52.6261 49.3706 51.8291C49.2587 51.7696 49.2068 51.7128 49.1152 51.6282C49.1029 51.4289 49.3319 50.795 49.3961 50.4614C49.4906 50.0374 49.4059 50.1483 49.6955 49.872C49.6116 49.2717 49.5251 49.1553 49.9346 48.6952C50.1369 48.6123 50.1493 48.5842 50.305 48.4221C50.4268 48.1143 50.3913 48.0214 50.3355 47.6968L49.6992 47.0786L49.3505 46.6537C48.6348 45.7872 48.5071 45.3929 48.3367 44.3251C48.1834 43.5115 48.0113 42.8562 48.1154 42.0313C48.2541 41.704 48.4215 41.3647 48.5739 41.0415C48.8431 40.7467 49.3115 40.012 49.4321 39.6303C49.5392 39.2916 49.5014 39.3236 49.3533 39.041C48.9158 38.4002 48.0969 37.9148 47.687 37.0677C47.1467 35.9507 47.4472 34.9937 46.6194 34.1018C46.2817 33.7614 44.9519 32.9552 44.502 32.7024C44.2939 32.4622 44.009 32.1972 43.7783 31.9706C43.2249 31.3685 43.1128 30.5387 43.3359 29.7667C43.3317 29.4978 43.3149 29.2849 43.2903 29.0173C43.0355 28.9568 42.7981 28.8857 42.5475 28.8114C42.4171 28.8349 42.1981 28.882 42.0745 28.8887C41.9087 28.7626 41.243 28.5483 41.0075 28.4671C40.6634 28.5189 40.3434 28.4646 40.0023 28.4029C39.4972 28.1896 39.4144 28.1114 39.2701 27.5801C39.0087 27.3585 38.121 27.3224 37.8729 27.6139L37.7303 27.9132L37.617 27.7798C37.5957 27.6418 37.5778 27.5032 37.5633 27.3642C37.5211 26.944 37.5822 26.8793 37.8514 26.5542V26.3234L37.9526 26.1794L37.9226 26.0191C36.4254 24.8989 35.6086 25.0807 33.8321 24.9426C32.8443 24.8667 32.5751 24.8405 31.6702 24.411L31.1117 24.0161C30.3252 22.7021 30.6796 21.3875 32.1464 20.8172C32.9052 20.5222 33.5083 20.5585 34.3081 20.552C36.959 17.7091 38.1663 20.2286 41.7401 19.4904C42.7164 19.1209 43.8114 21.3354 43.6148 22.2388C43.7078 22.337 43.7349 22.3817 43.8644 22.4269L44.1778 22.3462C43.8272 20.7906 44.0328 20.613 42.886 19.3531Z" fill="#E37704"/>
<path d="M44.178 22.3462C44.8254 22.1432 45.0403 22.1919 45.6944 22.2884C46.0154 22.4606 46.3031 22.5162 46.6065 22.664C47.4836 23.0912 48.5157 23.6547 49.2334 24.3301C49.4929 24.5722 49.494 24.497 49.5422 24.7871L49.48 24.9484C49.112 25.4147 48.3697 25.929 48.2381 26.1029C48.22 26.3744 47.7992 27.6002 47.5486 27.8404L47.7719 27.9087C46.4018 28.3364 47.2049 28.3983 46.6469 28.907C46.4881 28.7317 46.4692 28.6734 46.3726 28.4558C46.1269 28.3022 45.8097 28.1622 45.5228 28.2662C45.0097 28.1689 44.8742 28.0394 44.4572 27.758L44.0443 27.5858C43.8043 27.5627 43.8975 27.5925 43.6795 27.4169C43.7482 27.3033 43.7277 27.2488 43.7138 27.116C43.551 26.9147 42.9375 26.7156 42.5637 26.4871C42.572 26.1175 42.2903 25.9048 42.4066 25.4552C42.5334 25.3 42.586 25.2089 42.6552 25.0209L42.3135 24.6475L42.1755 24.6083L42.1828 24.2282C42.471 23.7445 42.457 23.0344 42.6618 22.7947L42.6892 22.9341C42.7457 22.9972 42.7807 22.9954 42.8715 23.0332C43.209 22.9078 43.5628 22.6363 43.8646 22.4269L44.178 22.3462Z" fill="#E38730"/>
<path d="M42.3132 24.6475C42.6667 24.6078 42.8446 24.7408 43.1376 24.953C43.4553 24.8144 43.6789 24.9058 44.0291 24.9799C45.083 25.3171 45.4734 26.1737 46.379 26.7002C46.7406 26.9103 47.0542 26.4736 47.3737 27.0109C47.2914 27.4139 47.1523 27.5125 47.2712 27.7912C47.3988 27.8259 47.4151 27.8409 47.5484 27.8404L47.7716 27.9087C46.4015 28.3364 47.2047 28.3983 46.6466 28.907C46.4879 28.7317 46.469 28.6734 46.3724 28.4558C46.1266 28.3022 45.8095 28.1623 45.5226 28.2662C45.0094 28.169 44.874 28.0394 44.4569 27.758L44.0441 27.5858C43.8041 27.5627 43.8972 27.5925 43.6793 27.4169C43.748 27.3033 43.7275 27.2488 43.7136 27.1161C43.5508 26.9147 42.9373 26.7156 42.5635 26.4871C42.5718 26.1175 42.2901 25.9048 42.4064 25.4552C42.5331 25.3 42.5857 25.2089 42.655 25.0209L42.3132 24.6475Z" fill="#BB6813"/>
<path d="M42.3132 24.6475C42.6667 24.6078 42.8446 24.7408 43.1376 24.953C43.4367 25.3274 44.1987 26.6407 44.3605 26.7702C44.4568 26.6736 44.5518 26.5758 44.6457 26.4769L44.7814 26.6069C44.6763 27.0898 44.4421 26.8255 44.5396 27.2083C44.7313 27.3387 44.7827 27.3389 45.0138 27.3756L45.0676 27.4743C45.2144 27.6873 45.4893 28.0331 45.5226 28.2662C45.0094 28.169 44.874 28.0394 44.4569 27.758L44.0441 27.5858C43.8041 27.5627 43.8972 27.5925 43.6793 27.4169C43.748 27.3033 43.7275 27.2488 43.7136 27.1161C43.5508 26.9147 42.9373 26.7156 42.5635 26.4871C42.5718 26.1175 42.2901 25.9048 42.4064 25.4552C42.5331 25.3 42.5857 25.2089 42.655 25.0209L42.3132 24.6475Z" fill="#9D781E"/>
<path d="M42.6552 25.0209C43.1644 25.577 44.0644 26.8169 44.0376 27.5607C44.0398 27.569 44.0421 27.5774 44.0443 27.5858C43.8043 27.5626 43.8974 27.5925 43.6795 27.4169C43.7482 27.3033 43.7277 27.2488 43.7138 27.116C43.551 26.9147 42.9375 26.7156 42.5637 26.4871C42.572 26.1175 42.2903 25.9048 42.4066 25.4552C42.5334 25.3 42.5859 25.2089 42.6552 25.0209Z" fill="#BB6813"/>
<path d="M45.0676 27.4744C45.7251 27.1302 46.1724 27.9273 46.3724 28.4559C46.1266 28.3023 45.8095 28.1623 45.5226 28.2663C45.4893 28.0332 45.2144 27.6873 45.0676 27.4744Z" fill="#E37704"/>
<path d="M44.1937 24.6415C45.3197 25.0325 46.0376 26.1949 46.7287 26.1848C46.9175 26.0619 46.9359 25.969 47.0293 25.764C47.2347 25.8675 47.1719 25.8377 47.3111 26.0641V26.3342C47.607 26.4721 47.9478 26.2416 48.238 26.1029C48.22 26.3744 47.7991 27.6002 47.5485 27.8404C47.4152 27.8409 47.3989 27.8259 47.2714 27.7912C47.1524 27.5125 47.2916 27.4139 47.3738 27.0109C47.0544 26.4736 46.7407 26.9103 46.3792 26.7002C45.4736 26.1737 45.0831 25.3171 44.0293 24.9799L44.1937 24.6415Z" fill="#A75C15"/>
<path d="M49.2333 24.3302C49.4927 24.5723 49.4938 24.4971 49.5421 24.7872L49.4798 24.9485C49.1119 25.4148 48.3695 25.9291 48.238 26.103C47.9477 26.2416 47.607 26.4722 47.311 26.3343V26.0642C47.8763 26.0807 48.8993 24.751 49.2333 24.3302Z" fill="#DC8736"/>
<path d="M42.6618 22.7947L42.6892 22.9341C42.5453 24.1264 42.9139 24.6111 44.1938 24.6415L44.0294 24.9799C43.6792 24.9058 43.4555 24.8144 43.1379 24.953C42.8448 24.7408 42.6669 24.6078 42.3135 24.6475L42.1755 24.6083L42.1828 24.2282C42.471 23.7445 42.457 23.0344 42.6618 22.7947Z" fill="#C97423"/>
<path d="M44.457 27.7581C44.874 28.0394 45.0095 28.169 45.5226 28.2663C45.8095 28.1623 46.1267 28.3023 46.3724 28.4559C46.469 28.6735 46.4879 28.7317 46.6467 28.907C47.2779 29.018 47.4511 28.9708 48.0778 28.9088C48.1904 29.0478 47.9902 30.2651 47.9906 30.7378C47.644 31.0664 47.0947 31.5981 47.207 32.1298C47.2131 32.2702 47.2502 32.6014 47.0727 32.6483C45.7893 32.9877 44.9103 31.2462 44.7728 30.2427C44.6705 29.4959 44.1727 28.3855 44.457 27.7581Z" fill="#DC8736"/>
<path d="M37.8516 26.5541C38.2734 26.787 38.561 26.9332 39.0254 27.0846C40.7923 27.6602 42.6026 26.8039 43.2905 29.0172C43.0357 28.9567 42.7983 28.8856 42.5476 28.8113C42.4173 28.8349 42.1983 28.882 42.0746 28.8887C41.9089 28.7625 41.2432 28.5483 41.0077 28.467C40.6635 28.5188 40.3436 28.4646 40.0025 28.4028C39.4974 28.1896 39.4145 28.1113 39.2703 27.58C39.0089 27.3585 38.1212 27.3224 37.8731 27.6139L37.7305 27.9131L37.6171 27.7797C37.5959 27.6417 37.5779 27.5031 37.5634 27.3641C37.5212 26.9439 37.5823 26.8792 37.8516 26.5541Z" fill="#EDD39B"/>
<path d="M41.0076 28.467C41.1349 28.1096 41.0501 28.1703 41.3219 28.0414C41.7778 28.0782 42.3344 28.4009 42.5475 28.8114C42.4171 28.8349 42.1981 28.882 42.0745 28.8887C41.9087 28.7626 41.243 28.5483 41.0076 28.467Z" fill="#E1CFB1"/>
<path d="M39.2703 27.5801C39.5425 27.5832 39.9204 27.8744 40.066 28.1006C40.0581 28.2215 40.0653 28.2991 40.0025 28.4028C39.4973 28.1896 39.4145 28.1113 39.2703 27.5801Z" fill="#F4DDAB"/>
<path d="M42.886 19.3531C43.7991 19.1097 44.9305 19.0454 45.8614 19.1933L43.9573 19.2507C44.6496 19.9914 45.0189 20.3701 45.5167 21.2478C45.5901 21.5835 45.6836 21.9483 45.6943 22.2885C45.0401 22.192 44.8253 22.1433 44.1778 22.3462C43.8273 20.7906 44.0328 20.613 42.886 19.3531Z" fill="#DC8736"/>
<path d="M50.873 50.6381C51.1493 50.9846 51.2952 51.1997 51.6693 51.4499C51.5201 51.6706 50.3774 52.5445 50.1483 52.6721C49.6253 52.8144 48.3473 53.817 47.5154 54.1679L47.7922 53.7423C48.2127 53.3694 48.3054 52.626 49.3708 51.829C50.0089 51.4267 50.3584 51.1863 50.873 50.6381Z" fill="#E1CFB1"/>
<path d="M41.7401 19.4904C42.7165 19.1209 43.8115 21.3353 43.6149 22.2388C43.7079 22.3369 43.7349 22.3817 43.8644 22.4269C43.5627 22.6363 43.2089 22.9078 42.8714 23.0333C42.7806 22.9955 42.7456 22.9973 42.6891 22.9341L42.6616 22.7947C42.7677 22.1184 42.5784 20.9601 42.1649 20.4019C41.9571 20.7325 41.8261 21.026 41.4681 21.1829C41.3693 20.8255 41.386 20.2628 41.6763 19.9948C41.7349 19.8711 41.7922 19.7469 41.8482 19.6221L41.7401 19.4904Z" fill="#D6B77D"/>
<path d="M41.7401 19.4904C42.7165 19.1209 43.8115 21.3353 43.6149 22.2388C43.3432 21.4978 43.428 21.1913 42.9027 20.389C42.6591 20.3408 42.3596 20.2126 42.1649 20.4019C41.9571 20.7325 41.8261 21.026 41.4681 21.1829C41.3693 20.8255 41.386 20.2628 41.6763 19.9948C41.7349 19.8711 41.7922 19.7469 41.8482 19.6221L41.7401 19.4904Z" fill="#F4DDAB"/>
<path d="M41.6763 19.9948C42.2664 20.4294 42.3824 19.8002 42.9027 20.3889C42.6591 20.3407 42.3596 20.2126 42.1649 20.4018C41.9571 20.7325 41.8261 21.026 41.4681 21.1828C41.3693 20.8255 41.386 20.2628 41.6763 19.9948Z" fill="#E1CFB1"/>
<path d="M50.3355 47.6968C51.0279 48.3578 51.0249 48.8458 50.6386 49.7399C50.6587 50.1806 50.6704 50.2502 50.8729 50.6382C50.3583 51.1864 50.0087 51.4268 49.3706 51.8291C49.2587 51.7696 49.2068 51.7128 49.1152 51.6282C49.1029 51.4289 49.3319 50.795 49.3961 50.4614C49.4906 50.0375 49.4059 50.1483 49.6955 49.872C49.6116 49.2717 49.5251 49.1553 49.9346 48.6952C50.1369 48.6124 50.1493 48.5842 50.305 48.4221C50.4268 48.1143 50.3913 48.0214 50.3355 47.6968Z" fill="#E2C481"/>
<path d="M42.165 20.4019C42.5784 20.9601 42.7678 22.1184 42.6617 22.7947C42.4569 23.0345 42.4709 23.7446 42.1827 24.2282C41.994 24.0675 41.7505 23.7258 41.5899 23.5166C41.2673 23.5005 40.7236 23.5167 40.491 23.3121C40.2115 21.9205 42.0265 22.5264 42.4826 21.6906C42.4678 21.4228 42.514 21.4051 42.3622 21.2374C42.0063 21.1429 41.8383 21.1658 41.4681 21.1829C41.8261 21.026 41.9571 20.7325 42.165 20.4019Z" fill="#C7A266"/>
<path d="M45.8614 19.1932C46.6362 19.196 48.4411 19.7574 48.9426 20.3448L48.8093 20.4312C48.6036 20.3085 48.5083 20.3739 48.2863 20.3141C47.4995 20.1022 46.111 19.3475 45.5714 20.3506C45.4747 20.5303 45.5182 21.0267 45.5167 21.2477C45.0189 20.3701 44.6496 19.9913 43.9573 19.2506L45.8614 19.1932Z" fill="#E38730"/>
<path d="M43.6795 27.417C42.0296 27.048 42.332 26.6023 41.1498 25.6682C41.0976 25.6269 40.4452 25.461 40.3152 25.4286C40.34 25.2231 40.461 25.0569 40.5675 24.8734C40.9911 24.8831 41.5605 25.5064 41.8997 25.8145C42.1291 26.0838 42.277 26.28 42.5637 26.4871C42.9375 26.7157 43.551 26.9148 43.7138 27.1161C43.7277 27.2489 43.7481 27.3034 43.6795 27.417Z" fill="#9D781E"/>
<path d="M48.2381 26.103C48.3696 25.929 49.112 25.4148 49.4799 24.9485C49.281 25.8556 48.3781 27.2646 47.7719 27.9088L47.5486 27.8405C47.7992 27.6003 48.22 26.3744 48.2381 26.103Z" fill="#C97423"/>
<path d="M42.1754 24.6083L42.3134 24.6475L42.6551 25.0209C42.5859 25.2089 42.5333 25.3 42.4065 25.4552C42.2902 25.9048 42.5719 26.1175 42.5636 26.487C42.2769 26.2798 42.129 26.0837 41.8997 25.8144C42.0808 25.4803 41.9821 25.2913 42.1036 25.0081C42.1815 25.1431 42.1742 25.1462 42.3103 25.2372L42.3627 25.0525C42.2242 24.8884 42.2017 24.8208 42.1754 24.6083Z" fill="#E38730"/>
<path d="M53.3354 26.0492C54.1727 25.4932 54.9422 25.6208 55.5425 26.4394C55.5466 26.4579 55.5506 26.4764 55.5547 26.4949C56.0233 27.5811 56.1488 28.1418 55.4572 29.2903C55.3307 29.496 55.1746 29.6822 54.9941 29.8425C55.2426 30.0813 55.3703 30.2115 55.5799 30.4808C55.7899 30.7507 56.0631 31.5395 56.2035 31.6544C56.9304 32.3074 56.251 32.9467 56.1414 33.6404L55.9415 33.6875C55.8168 34.2589 55.8275 34.8147 55.8145 35.3994C55.2849 35.4202 55.4801 35.1376 55.1984 34.8051C54.8858 34.9922 54.6928 35.1182 54.3359 35.1922L54.2493 35.1718C54.3284 34.7243 54.153 34.5014 53.9306 34.1188C53.623 34.0017 53.2882 33.8906 52.9758 33.7804L52.3072 34.226L52.2923 34.6078L52.1811 34.6243C52.0717 34.7205 51.9097 34.8855 51.786 34.9331L51.7422 35.0069C51.2919 35.7763 51.6355 35.9262 50.9609 36.244C50.9744 35.6254 50.7169 34.8773 50.2969 34.4162L50.2593 34.3756C49.6248 33.6772 48.5684 33.5423 48.335 32.5904L48.0588 31.6939C48.4743 30.5057 48.7255 30.8686 49.1407 30.2206C48.9752 29.9358 48.9302 29.8031 48.964 29.4672C49.0069 29.0321 49.2224 28.6323 49.5624 28.3573C49.913 28.1856 49.8903 28.1195 50.1808 28.1977C50.3147 28.3975 50.4233 28.583 50.6108 28.736C50.8732 28.7853 50.944 28.755 51.1928 28.6892C51.0037 28.3232 50.4393 27.5813 50.1322 27.026C51.4449 25.7743 51.7354 26.0575 52.9153 27.2411L53.362 27.3061L53.5209 27.1135C53.5045 26.772 53.4295 26.7884 53.1795 26.4596C53.1767 26.1937 53.1493 26.3002 53.3354 26.0492Z" fill="#DC8736"/>
<path d="M53.3353 26.0492C54.1726 25.4932 54.942 25.6208 55.5424 26.4394C55.5464 26.4579 55.5505 26.4764 55.5545 26.4949C56.0231 27.5811 56.1487 28.1418 55.4571 29.2903C55.3306 29.496 55.1745 29.6822 54.994 29.8425C54.2726 29.4307 53.8782 29.6271 53.2217 29.3222C52.247 29.9578 51.368 29.7852 50.2576 30.0096C49.9368 30.0744 49.678 30.1852 49.3643 30.2766L49.1406 30.2206C48.9751 29.9358 48.93 29.8031 48.9639 29.4672C49.0068 29.0321 49.2223 28.6323 49.5623 28.3573C49.9129 28.1856 49.8902 28.1195 50.1807 28.1977C50.3146 28.3975 50.4232 28.583 50.6107 28.736C50.8731 28.7853 50.9439 28.755 51.1927 28.6892C51.0035 28.3232 50.4392 27.5813 50.132 27.026C51.4448 25.7743 51.7353 26.0575 52.9151 27.2411L53.3618 27.3061L53.5208 27.1135C53.5044 26.772 53.4294 26.7884 53.1794 26.4596C53.1765 26.1937 53.1491 26.3002 53.3353 26.0492Z" fill="#E1CFB1"/>
<path d="M53.3353 26.0492C53.7209 26.3306 53.9572 26.143 54.0198 26.1941C55.4384 27.3508 51.6639 30.1566 50.5596 29.245C50.3935 29.2705 50.1436 29.4593 49.9908 29.5592C49.5975 29.1938 49.5844 29.0891 49.5667 28.5539C49.5646 28.4884 49.5631 28.4228 49.5623 28.3572C49.9129 28.1855 49.8902 28.1194 50.1807 28.1976C50.3146 28.3974 50.4232 28.583 50.6107 28.7359C50.8731 28.7853 50.9439 28.7549 51.1927 28.6891C51.0035 28.3232 50.4392 27.5813 50.132 27.026C51.4448 25.7743 51.7353 26.0574 52.9151 27.2411L53.3618 27.306L53.5208 27.1134C53.5044 26.7719 53.4294 26.7883 53.1794 26.4595C53.1765 26.1937 53.1491 26.3001 53.3353 26.0492Z" fill="#D6B77D"/>
<path d="M50.1321 27.026C51.4449 25.7743 51.7353 26.0575 52.9152 27.2411C52.7114 27.6658 51.7793 28.0257 51.2837 28.5425L51.4248 28.6323L51.1927 28.6891C51.0036 28.3232 50.4392 27.5813 50.1321 27.026Z" fill="#C7A266"/>
<path d="M52.9151 27.2411L53.3618 27.3061C52.6733 27.6825 52.3444 28.191 51.4684 28.6111L51.4247 28.6323L51.2837 28.5425C51.7793 28.0257 52.7114 27.6658 52.9151 27.2411Z" fill="#BB6813"/>
<path d="M55.5426 26.4395C55.5466 26.4579 55.5507 26.4765 55.5547 26.495C56.0233 27.5811 56.1489 28.1419 55.4572 29.2903C55.3307 29.4961 55.1747 29.6822 54.9941 29.8426C54.2728 29.4308 53.8784 29.6271 53.2219 29.3222C54.0912 28.4068 55.3048 27.7761 55.5426 26.4395Z" fill="#DC8736"/>
<path d="M52.4461 32.748C52.7772 32.877 52.9888 32.9609 53.3257 33.0543C53.6711 33.1501 54.7458 33.1513 54.9082 33.2614C54.8008 33.5675 54.7671 33.5195 54.8263 33.7989C55.2262 33.9466 55.4917 33.6094 55.9414 33.6874C55.8167 34.2588 55.8274 34.8147 55.8144 35.3994C55.2848 35.4202 55.48 35.1375 55.1982 34.805C54.8857 34.9922 54.6927 35.1182 54.3358 35.1922L54.2492 35.1717C54.3283 34.7243 54.1529 34.5013 53.9305 34.1187C53.6229 34.0017 53.2881 33.8906 52.9757 33.7804L52.3071 34.226L52.2922 34.6077L52.181 34.6243C52.0604 34.1695 51.6561 34.4487 51.3452 33.4134C51.4737 33.0133 52.053 32.8886 52.4461 32.748Z" fill="#BB6813"/>
<path d="M51.3452 33.4133C51.6341 33.4038 52.007 33.3484 52.2254 33.5055C52.3404 33.8527 52.2079 33.9786 52.3071 34.226L52.2922 34.6077L52.181 34.6243C52.0604 34.1694 51.6561 34.4487 51.3452 33.4133Z" fill="#C97423"/>
<path d="M48.335 32.5903C49.2394 33.129 49.7864 32.9428 50.7599 32.714L50.9232 32.8403C50.9417 33.0445 50.9582 33.4147 51.0254 33.5929L50.9931 33.8867L51.1238 33.8638C51.3398 33.6763 51.2759 33.7395 51.3453 33.4134C51.6561 34.4487 52.0604 34.1694 52.181 34.6243C52.0716 34.7205 51.9096 34.8855 51.786 34.9331L51.7421 35.0069C51.2918 35.7762 51.6354 35.9262 50.9608 36.244C50.9744 35.6254 50.7168 34.8772 50.2968 34.4162L50.2592 34.3755C49.6247 33.6772 48.5683 33.5423 48.335 32.5903Z" fill="#BB6813"/>
<path d="M51.3454 33.4135C51.6562 34.4488 52.0606 34.1695 52.1811 34.6244C52.0717 34.7206 51.9098 34.8856 51.7861 34.9332C51.6773 34.8688 51.6472 34.8711 51.5258 34.8383C51.3353 35.0082 51.21 35.1361 50.9632 35.0399C50.8366 34.888 50.7746 34.846 50.7542 34.6595L50.9127 34.6646C51.0887 34.4071 51.0033 34.2703 50.9932 33.8868L51.1239 33.8639C51.34 33.6764 51.276 33.7396 51.3454 33.4135Z" fill="#E38730"/>
<path d="M50.7541 34.6594C50.6563 34.1864 50.2028 34.0397 50.4491 33.5493C50.7073 33.4667 50.7773 33.5075 51.0255 33.5929L50.9932 33.8867C51.0033 34.2702 51.0887 34.407 50.9127 34.6645L50.7541 34.6594Z" fill="#C97423"/>
<path d="M56.2034 31.6544C56.9303 32.3074 56.2509 32.9467 56.1413 33.6404L55.9414 33.6874C55.4917 33.6094 55.2262 33.9466 54.8263 33.7989C54.7671 33.5195 54.8008 33.5676 54.9082 33.2614C56.016 32.8009 56.022 32.896 56.2034 31.6544Z" fill="#A75C15"/>
<path d="M50.76 32.7141L50.8288 32.7066C51.8408 32.5898 51.4829 32.1813 52.4463 32.7481C52.0532 32.8887 51.4739 33.0134 51.3454 33.4134C51.2761 33.7396 51.34 33.6764 51.124 33.8639L50.9932 33.8868L51.0256 33.593C50.9584 33.4148 50.9419 33.0446 50.9234 32.8404L50.76 32.7141Z" fill="#C97423"/>
<path d="M56.1413 33.6405C56.9405 33.6052 57.1219 33.587 57.6968 34.2016C57.9991 34.3932 58.1828 34.7442 58.3778 35.0506C59.1966 34.8956 59.558 35.2138 59.9119 35.9375C59.9519 36.3795 59.9941 36.6501 59.7791 37.0516C59.908 37.8669 59.6961 37.893 59.2994 38.6035C59.0347 38.7361 58.6593 38.8828 58.511 39.1223C58.3569 39.2628 56.169 40.8291 56.0951 40.8554C55.7773 41.0972 55.487 41.4915 55.1895 41.7745L54.5608 42.2322C54.1635 42.0158 53.3029 41.9534 52.8699 42.0332C52.6047 40.9599 51.3677 40.925 51.238 40.2296C51.1061 39.988 50.8643 39.7572 50.6706 39.5522C50.6961 38.8359 50.6549 38.5047 51.0427 37.889L51.3876 37.0677L51.3508 37.003C51.0342 36.8408 50.962 37.179 50.6433 37.0921C50.614 36.8812 50.7166 36.7182 50.8063 36.5154C51.3206 36.4743 51.3645 37.0971 51.8724 36.3652C52.0708 36.0793 52.3925 35.7082 52.633 35.4554C53.1175 34.9461 53.7404 35.4409 54.2492 35.1718L54.3358 35.1922C54.6927 35.1183 54.8857 34.9923 55.1982 34.8051C55.48 35.1376 55.2848 35.4202 55.8144 35.3994C55.8274 34.8147 55.8167 34.2589 55.9414 33.6875L56.1413 33.6405Z" fill="#DC8736"/>
<path d="M54.2492 35.1718L54.3358 35.1922C54.5424 35.4906 55.1497 35.723 55.4962 35.8177C55.6724 36.0013 55.9529 36.2678 56.0657 36.4808C55.8202 36.8399 55.7953 36.9313 55.8182 37.3808C55.7577 37.9631 55.6311 38.0024 55.2702 38.3958C54.3788 39.3677 54.3591 39.9444 52.9541 39.5824C53.1778 39.6214 51.7985 38.975 51.8203 38.9851C51.4899 38.8294 51.4222 38.81 51.2367 38.4981C51.3405 38.1578 51.2428 38.1448 51.0427 37.8889L51.3876 37.0677L51.3508 37.003C51.0342 36.8407 50.962 37.179 50.6433 37.092C50.614 36.8811 50.7166 36.7182 50.8063 36.5154C51.3206 36.4743 51.3645 37.0971 51.8724 36.3652C52.0708 36.0793 52.3925 35.7082 52.633 35.4553C53.1175 34.9461 53.7404 35.4409 54.2492 35.1718Z" fill="#DC8736"/>
<path d="M54.2493 35.1718L54.3358 35.1922C54.5424 35.4906 55.1497 35.723 55.4962 35.8177C55.6724 36.0013 55.9529 36.2678 56.0657 36.4808C55.8202 36.8399 55.7954 36.9313 55.8182 37.3808C55.7577 37.9631 55.6311 38.0024 55.2703 38.3958C54.3789 39.3677 54.3592 39.9444 52.9541 39.5824C53.3858 39.2838 54.1575 37.7324 53.9976 37.2175C53.8766 37.0594 53.7765 36.9043 53.806 36.713C53.9566 36.7527 54.7893 37.3217 55.0943 37.487L55.1278 36.3733C54.7647 35.8263 54.3964 35.7206 54.1763 35.3665L54.2493 35.1718Z" fill="#E38730"/>
<path d="M53.9975 37.2175C54.1575 37.7325 53.3858 39.2838 52.9541 39.5824C53.1779 39.6215 51.7985 38.975 51.8203 38.9852C52.1367 38.8024 52.2629 38.7015 52.5462 38.4671C52.8448 38.0742 53.5417 37.4245 53.9975 37.2175Z" fill="#C7A266"/>
<path d="M51.3876 37.0677C51.8703 37.2801 51.9229 37.9428 52.5462 38.4671C52.2629 38.7015 52.1366 38.8024 51.8203 38.9852C51.4899 38.8295 51.4222 38.81 51.2367 38.4982C51.3405 38.1579 51.2428 38.1449 51.0427 37.889L51.3876 37.0677Z" fill="#E38730"/>
<path d="M56.1415 33.6405C56.9407 33.6052 57.1221 33.587 57.697 34.2016C57.9993 34.3932 58.1829 34.7442 58.378 35.0506C59.1968 34.8956 59.5582 35.2138 59.9121 35.9375C59.5253 36.1125 59.1428 36.6829 58.7775 37.0359L57.7283 37.041C57.4367 37.1146 56.8206 37.1843 56.6752 37.333C56.5436 37.2179 56.1844 36.6567 56.0659 36.4808C55.953 36.2678 55.6725 36.0013 55.4964 35.8178C55.1499 35.723 54.5425 35.4906 54.3359 35.1922C54.6928 35.1183 54.8859 34.9923 55.1984 34.8051C55.4802 35.1376 55.2849 35.4202 55.8146 35.3994C55.8276 34.8147 55.8169 34.2589 55.9416 33.6875L56.1415 33.6405Z" fill="#C7A266"/>
<path d="M55.4963 35.8177C55.9445 35.8374 56.3834 36.1153 56.8731 36.1732C57.4347 36.2397 58.7333 35.7686 59.0933 36.0982C58.9795 36.781 58.231 36.8174 57.7283 37.041C57.4367 37.1145 56.8205 37.1842 56.6751 37.333C56.5436 37.2178 56.1844 36.6567 56.0658 36.4808C55.953 36.2678 55.6725 36.0013 55.4963 35.8177Z" fill="#D6B77D"/>
<path d="M57.6969 34.2017C57.9993 34.3932 58.1829 34.7442 58.378 35.0506C58.3458 35.3408 58.3431 35.7074 58.1631 35.9197C57.9085 35.968 57.8952 35.9532 57.6737 35.7735C57.3367 35.104 57.4818 34.9231 57.6969 34.2017Z" fill="#BB6813"/>
<path d="M58.7775 37.036C59.1428 36.6829 59.5252 36.1125 59.912 35.9375C59.952 36.3795 59.9942 36.6501 59.7793 37.0516C59.9082 37.8669 59.6963 37.893 59.2996 38.6035C59.0349 38.7361 58.6594 38.8828 58.5111 39.1223C58.357 39.2628 56.1691 40.8291 56.0952 40.8554C56.2818 40.468 56.5117 39.7811 56.6633 39.3631C56.4502 39.1742 56.5142 39.2736 56.462 38.9247L56.3507 38.7417C56.5387 38.3761 56.494 37.9652 56.7398 37.6624L56.7619 37.6175L56.6751 37.333C56.8205 37.1843 57.4367 37.1146 57.7283 37.041L58.7775 37.036Z" fill="#DC8736"/>
<path d="M58.7774 37.036C59.1427 36.6829 59.5252 36.1125 59.912 35.9375C59.9519 36.3795 59.9941 36.6501 59.7792 37.0516C59.0635 37.5853 57.5913 37.8961 56.7618 37.6175L56.675 37.333C56.8205 37.1843 57.4366 37.1146 57.7282 37.041L58.7774 37.036Z" fill="#E1CFB1"/>
<path d="M56.6633 39.3631C57.3892 39.2496 57.6273 39.3312 58.5111 39.1222C58.357 39.2627 56.1691 40.8291 56.0952 40.8553C56.2818 40.468 56.5117 39.7811 56.6633 39.3631Z" fill="#E38730"/>
<path d="M56.3506 38.7416C56.5386 38.3761 56.4938 37.9651 56.7397 37.6624C56.7841 38.184 56.8713 38.4346 56.5403 38.8335C56.5146 38.8643 56.4885 38.8947 56.4619 38.9246L56.3506 38.7416Z" fill="#C97423"/>
<path d="M55.8182 37.3809C56.3935 37.8791 55.908 38.4933 55.628 39.0968C55.3796 39.6321 54.8134 40.9813 54.2675 41.1727C54.1739 41.1048 54.1092 41.0418 54.0319 40.9742C53.6191 40.6131 49.826 39.5007 51.2367 38.4982C51.4222 38.8101 51.4899 38.8295 51.8203 38.9852C51.7985 38.9751 53.1779 39.6215 52.9541 39.5825C54.3592 39.9445 54.3788 39.3678 55.2703 38.3959C55.6311 38.0024 55.7577 37.9632 55.8182 37.3809Z" fill="#C97423"/>
<path d="M56.3506 38.7417L56.4619 38.9247C56.5142 39.2736 56.4501 39.1741 56.6632 39.3631C56.5116 39.7811 56.2817 40.468 56.0951 40.8553C55.7773 41.0972 55.487 41.4915 55.1895 41.7745L54.5609 42.2322C54.1636 42.0157 53.3029 41.9534 52.87 42.0332C52.6048 40.9598 51.3678 40.9249 51.238 40.2296C51.3347 40.2552 51.8331 40.6024 51.9665 40.6888C52.6428 41.1266 53.3085 41.4416 54.0423 41.7675C56.0614 40.7441 55.4683 40.5404 56.3506 38.7417Z" fill="#A75C15"/>
<path d="M54.561 42.2322L55.1896 41.7745C55.4497 42.0868 56.0688 42.7131 56.132 43.0139C57.144 43.9485 57.2373 44.1425 56.9961 45.4656C57.0325 45.9785 56.9449 46.1109 56.6319 46.5249L56.1368 46.5619C56.1305 46.8304 56.141 47.0461 56.0666 47.3049L55.6191 48.0084C56.0255 49.2423 53.636 50.6513 52.5656 50.1717L52.5586 50.1042L52.948 50.0822L52.9858 50.0196C51.6816 49.2206 52.1528 49.4267 51.548 48.0885C51.4391 47.8475 50.5746 47.7761 50.5546 47.1221C49.5147 45.7171 48.652 45.5785 49.6978 43.8062C49.974 42.9997 49.769 42.6709 50.5298 42.2313C50.8977 42.1268 51.4014 42.3094 51.7889 42.4102L51.8402 42.4018C52.1054 42.109 52.479 42.0991 52.8701 42.0332C53.303 41.9534 54.1637 42.0158 54.561 42.2322Z" fill="#9F5312"/>
<path d="M54.5609 42.2322L55.1895 41.7745C55.4495 42.0868 56.0686 42.7131 56.1319 43.0139C57.1439 43.9485 57.2372 44.1425 56.996 45.4656C57.0323 45.9785 56.9448 46.1109 56.6318 46.5249L56.1367 46.5619C55.8681 46.2593 55.6325 46.0136 55.3444 45.7292C54.7264 45.2775 53.9823 44.8691 53.3146 44.482C53.2923 44.3376 53.2197 44.2526 53.142 44.1223C53.0363 43.8461 52.7863 43.4641 52.6264 43.1998C52.4298 42.9208 52.0967 42.6483 51.8401 42.4018C52.1053 42.109 52.4789 42.0991 52.87 42.0332C53.3029 41.9534 54.1636 42.0158 54.5609 42.2322Z" fill="#DC8736"/>
<path d="M52.6265 43.1998C52.9455 43.087 53.0607 43.1141 53.3628 43.309C54.7593 43.7724 56.1355 44.1698 56.996 45.4655C57.0324 45.9785 56.9448 46.1108 56.6318 46.5249L56.1368 46.5619C55.8681 46.2592 55.6326 46.0135 55.3445 45.7292C54.7264 45.2775 53.9824 44.8691 53.3147 44.4819C53.2923 44.3376 53.2198 44.2526 53.1421 44.1223C53.0364 43.8461 52.7864 43.464 52.6265 43.1998Z" fill="#D6B77D"/>
<path d="M53.3627 43.3091C54.7592 43.7725 56.1354 44.1699 56.996 45.4656C57.0323 45.9786 56.9448 46.1109 56.6318 46.525C56.0781 44.298 55.0346 44.8639 53.4121 43.646C53.3102 43.5696 53.3547 43.4323 53.3627 43.3091Z" fill="#E1CFB1"/>
<path d="M54.5608 42.2322L55.1894 41.7745C55.4495 42.0868 56.0686 42.7131 56.1318 43.0139C55.5529 42.6048 55.242 42.4208 54.5608 42.2322Z" fill="#C97423"/>
<path d="M51.7887 42.4102L51.8401 42.4017C52.0967 42.6482 52.4298 42.9207 52.6264 43.1997C52.7863 43.464 53.0363 43.8461 53.142 44.1223C53.2197 44.2526 53.2922 44.3376 53.3146 44.4819C53.9823 44.8691 54.7263 45.2775 55.3444 45.7291C55.2304 46.0093 55.1315 46.3445 55.027 46.6378C54.7014 46.8886 54.327 46.7642 53.8196 46.8923C53.7003 47.0713 53.6946 47.102 53.5103 47.1965C53.1048 47.0296 51.2986 45.1241 51.2034 44.6811C51.1134 44.2626 51.4172 43.8534 51.1333 42.9976C51.2335 42.5847 51.4383 42.9547 51.7887 42.4102Z" fill="#C97423"/>
<path d="M53.1421 44.1223C53.2198 44.2526 53.2923 44.3376 53.3147 44.482C53.363 45.0365 54.2549 46.2501 54.5949 46.761C53.1105 45.9745 53.2286 45.7072 53.1421 44.1223Z" fill="#7E8F39"/>
<path d="M50.5298 42.2312C50.8978 42.1267 51.4014 42.3093 51.7889 42.4101C51.4385 42.9546 51.2337 42.5847 51.1335 42.9976C51.4174 43.8534 51.1136 44.2626 51.2036 44.6811C51.2988 45.124 53.105 47.0295 53.5105 47.1965C53.6948 47.102 53.7005 47.0713 53.8198 46.8923C54.3272 46.7642 54.7016 46.8886 55.0271 46.6377C55.1316 46.3445 55.2306 46.0093 55.3446 45.7291C55.6327 46.0135 55.8682 46.2592 56.1369 46.5619C56.1305 46.8303 56.141 47.046 56.0666 47.3048L55.9426 47.0703L55.7781 47.0227C55.3647 47.2898 55.2392 47.5453 54.8095 47.6026C54.1859 47.8816 53.9939 47.838 53.32 47.6885C53.1867 47.7716 53.1245 47.7878 52.9802 47.838C52.6347 47.6478 52.2949 46.6008 51.9742 46.298C51.6131 45.9571 50.9007 45.7216 50.5608 45.3854C49.8968 44.7286 50.6576 44.1698 50.6647 42.9905L50.5298 42.2312Z" fill="#BB6813"/>
<path d="M53.3198 47.6885C53.8772 47.5109 53.895 47.2962 54.3922 47.2128C54.6906 47.3458 54.6036 47.3066 54.8093 47.6026C54.1857 47.8816 53.9937 47.838 53.3198 47.6885Z" fill="#A75C15"/>
<path d="M50.5544 47.1221C50.816 47.3648 51.3337 47.6867 51.5379 47.9312C52.0567 48.5523 52.1341 49.6935 53.1634 49.6968C54.5082 49.701 54.7799 48.4449 55.619 48.0084C56.0254 49.2422 53.6359 50.6513 52.5655 50.1717L52.5584 50.1042L52.9479 50.0822L52.9857 50.0196C51.6814 49.2206 52.1526 49.4267 51.5479 48.0884C51.439 47.8475 50.5745 47.7761 50.5544 47.1221Z" fill="#E38730"/>
<path d="M49.6978 43.8062C49.974 42.9997 49.769 42.6709 50.5297 42.2313L50.6646 42.9906C50.4091 43.044 50.0471 43.534 49.6978 43.8062Z" fill="#A75C15"/>
<path d="M34.5467 21.2127C36.053 21.0116 37.0935 21.0514 38.36 22.0186C38.8414 22.3863 39.3064 22.7885 38.9997 23.408C38.7619 23.5714 38.6452 23.6363 38.3882 23.7648L37.8974 23.7815C37.7352 23.8269 37.1429 23.9874 37.0134 23.9776C36.2118 23.9172 33.5457 24.0445 32.9848 23.646C32.8356 23.3538 32.8619 23.4851 32.9 23.1442C32.9636 22.9644 33.0831 22.7326 33.1672 22.5547C33.4882 21.7645 33.7959 21.5467 34.5467 21.2127Z" fill="#DC8736"/>
<path d="M32.9 23.1442C33.2662 23.24 33.4755 23.0106 33.8821 22.9744C35.0286 22.8722 37.0256 22.9986 37.8974 23.7815C37.7352 23.8269 37.1429 23.9874 37.0134 23.9776C36.2118 23.9172 33.5457 24.0444 32.9848 23.646C32.8356 23.3538 32.8619 23.4851 32.9 23.1442Z" fill="#D6B77D"/>
<path d="M33.8878 22.2778C34.9185 22.272 38.0015 22.6929 38.3881 23.7648L37.8973 23.7816C37.0255 22.9987 35.0286 22.8723 33.882 22.9745C33.4754 23.0107 33.2662 23.2401 32.8999 23.1443C32.9635 22.9645 33.083 22.7326 33.1672 22.5547C33.4472 22.4661 33.6185 22.3965 33.8878 22.2778Z" fill="#E1CFB1"/>
<path d="M33.1672 22.5546C33.4882 21.7645 33.7959 21.5467 34.5467 21.2126C34.4923 21.8569 34.5778 22.1382 33.8878 22.2777C33.6186 22.3964 33.4473 22.466 33.1672 22.5546Z" fill="#C97423"/>
<path d="M31.1118 24.0161L31.6703 24.411C32.5752 24.8405 32.8444 24.8667 33.8322 24.9426C35.6087 25.0807 36.4255 24.8989 37.9227 26.0191L37.9527 26.1794L37.8515 26.3234V26.5542C37.5823 26.8793 37.5212 26.944 37.5634 27.3642C37.5779 27.5032 37.5958 27.6418 37.6171 27.7798L37.7304 27.9132L37.873 27.614C38.1211 27.3225 39.0088 27.3586 39.2703 27.5801C39.4145 28.1114 39.4973 28.1897 40.0024 28.4029C40.3435 28.4647 40.6635 28.5189 41.0076 28.4671C41.2431 28.5484 41.9088 28.7626 42.0746 28.8888C42.1982 28.8821 42.4172 28.835 42.5476 28.8114C42.7982 28.8857 43.0356 28.9568 43.2904 29.0173C43.315 29.2849 43.3318 29.4978 43.336 29.7667C43.1129 30.5387 43.225 31.3685 43.7784 31.9706C44.0091 32.1972 44.294 32.4622 44.5021 32.7024C44.952 32.9552 46.2818 33.7614 46.6195 34.1018C47.4473 34.9938 47.1468 35.9507 47.6871 37.0677C48.097 37.9149 48.9159 38.4002 49.3534 39.041C49.5015 39.3236 49.5393 39.2916 49.4322 39.6304C49.3116 40.012 48.8432 40.7468 48.574 41.0415C48.4217 41.3647 48.2542 41.704 48.1155 42.0314C48.0114 42.8562 48.1835 43.5115 48.3368 44.3251L47.8567 44.2131C47.3986 44.3723 47.2965 44.391 46.8117 44.4069L46.9533 43.7761C46.7017 43.5342 46.7804 43.5364 46.4869 43.4951C46.2081 43.7891 46.227 44.109 46.2023 44.5261L45.7502 44.1045L44.8114 43.6413C44.3636 43.291 44.1805 43.1383 43.6202 43.0581C43.6348 42.501 43.8936 41.4259 43.7646 41.0867L43.4722 40.9568L43.4594 40.7952C43.561 40.7184 43.773 40.5676 43.785 40.4446C43.8646 39.6285 42.9714 38.3161 42.5675 37.6855L41.8782 37.0219L41.7667 36.9257C41.5132 36.7265 41.4203 36.7845 41.1003 36.4629L40.4899 36.1505L39.7217 35.8743L39.0777 35.7529C38.2833 35.6317 37.7191 35.5806 36.9151 35.5339L36.3711 35.5543C36.1699 35.5642 35.6038 35.3773 35.3036 35.3216L34.931 35.1358C33.5696 34.7153 33.6803 33.1034 32.9297 32.1603C32.7595 31.9464 32.3435 31.1213 32.2836 30.83C31.7707 30.2504 30.9937 29.3637 30.3906 28.9095L30.2012 28.8974C29.9825 29.1606 30.1651 29.2278 30.0048 29.6391L29.855 29.6143C29.5897 29.331 29.7556 29.1046 29.5582 28.7242L29.4353 28.7936C29.3355 28.9365 29.3279 28.9272 29.1719 28.9903C29.002 28.8705 28.8894 28.8036 28.6929 28.7354C28.3796 28.5888 27.9301 28.643 27.5724 28.6552C27.6664 28.5203 27.7557 28.31 27.8278 28.1562C27.2531 28.2605 27.0884 28.2561 26.5065 28.213C26.3582 28.2407 26.0306 28.2486 25.8657 28.2576C27.4186 26.1429 28.9995 25.3023 31.0734 24.0399L31.1118 24.0161Z" fill="#F4DDAB"/>
<path d="M31.1118 24.0161L31.6703 24.411C32.5752 24.8405 32.8444 24.8667 33.8322 24.9426C35.6087 25.0807 36.4255 24.8989 37.9227 26.0191L37.9527 26.1794L37.8515 26.3234V26.5542C37.5823 26.8793 37.5212 26.944 37.5634 27.3642C37.5779 27.5032 37.5958 27.6418 37.6171 27.7798L37.7304 27.9132L37.873 27.614C37.852 27.8543 37.8535 28.0567 37.7544 28.2749C37.5757 28.4071 37.5708 28.4865 37.4966 28.7027L37.4418 28.727L37.2448 28.6487L37.0552 28.6818C36.7206 28.4679 36.5324 28.3183 36.1341 28.2618C35.8713 28.1667 35.4847 28.1055 35.2015 28.0516L34.7509 27.8972C34.399 27.9346 34.3331 27.9505 34.0006 27.833C33.7104 27.6196 33.7277 27.6835 33.3158 27.642C32.815 27.5684 31.6657 27.4426 31.3236 27.8577C31.0297 27.7861 30.5888 27.776 30.2762 27.7579C30.0592 27.968 29.8443 28.2269 29.5598 28.2859C29.43 28.2625 29.3263 28.255 29.2127 28.1884L29.0648 28.2851C29.0704 28.5106 29.2003 28.5719 29.3996 28.7605L29.4353 28.7936C29.3355 28.9365 29.3279 28.9272 29.1719 28.9903C29.002 28.8705 28.8894 28.8036 28.6929 28.7354C28.3796 28.5888 27.9301 28.643 27.5724 28.6552C27.6664 28.5203 27.7557 28.31 27.8278 28.1562C27.2531 28.2605 27.0884 28.2561 26.5065 28.213C26.3582 28.2407 26.0306 28.2486 25.8657 28.2576C27.4186 26.1429 28.9995 25.3023 31.0734 24.0399L31.1118 24.0161Z" fill="#EED59D"/>
<path d="M31.1118 24.0161L31.6703 24.411C31.1914 24.8121 30.7418 24.7779 30.4682 25.0539C30.918 25.2571 30.9428 25.2583 31.2413 25.6331C31.0927 25.7936 30.9854 25.934 30.795 26.0399C30.6555 26.1515 30.2814 26.4762 30.134 26.5136C30.3169 26.6619 30.3315 26.6846 30.393 26.9119C30.1882 27.3049 29.7805 27.2658 29.3195 27.5725C29.2948 27.7522 29.2675 28.024 29.2127 28.1884L29.0648 28.2851C29.0704 28.5106 29.2003 28.5719 29.3996 28.7605L29.4353 28.7936C29.3355 28.9365 29.3279 28.9272 29.1719 28.9903C29.002 28.8705 28.8894 28.8036 28.6929 28.7354C28.3796 28.5888 27.9301 28.643 27.5724 28.6552C27.6664 28.5203 27.7557 28.31 27.8278 28.1562C27.2531 28.2605 27.0884 28.2561 26.5065 28.213C26.3582 28.2407 26.0306 28.2486 25.8657 28.2576C27.4186 26.1429 28.9995 25.3023 31.0734 24.0399L31.1118 24.0161Z" fill="#F4DDAB"/>
<path d="M31.1118 24.0161L31.6703 24.411C31.1914 24.8121 30.7418 24.7779 30.4682 25.0539C28.8546 24.9667 28.5186 27.0254 27.9808 27.403C27.9117 27.6658 27.8411 27.884 27.8278 28.1562C27.2531 28.2605 27.0884 28.2561 26.5065 28.213C26.3582 28.2407 26.0306 28.2486 25.8657 28.2576C27.4186 26.1429 28.9995 25.3023 31.0734 24.0399L31.1118 24.0161Z" fill="#E1CFB1"/>
<path d="M26.5063 28.213C26.8706 28.0046 27.632 27.4493 27.9807 27.403C27.9116 27.6658 27.841 27.8839 27.8276 28.1562C27.253 28.2604 27.0882 28.2561 26.5063 28.213Z" fill="#C7A266"/>
<path d="M30.134 26.5135C30.3168 26.6618 30.3314 26.6846 30.393 26.9119C30.1882 27.3048 29.7805 27.2658 29.3194 27.5724L28.3584 27.8853C28.669 27.3508 28.7194 27.2385 29.2516 26.92L30.134 26.5135Z" fill="#D6B77D"/>
<path d="M29.2515 26.9201C29.2496 26.7876 29.2893 26.7072 29.3334 26.5832C29.753 26.2211 30.2538 25.8191 30.7949 26.0398C30.6554 26.1514 30.2812 26.4762 30.1339 26.5136L29.2515 26.9201Z" fill="#E1CFB1"/>
<path d="M31.6704 24.4109C32.5753 24.8404 32.8444 24.8666 33.8323 24.9425C32.8032 24.9527 32.0806 24.9151 31.2414 25.633C30.9429 25.2582 30.9181 25.257 30.4683 25.0538C30.7419 24.7778 31.1915 24.812 31.6704 24.4109Z" fill="#C7A266"/>
<path d="M37.2448 28.6487C37.4204 27.8737 36.8159 28.0472 36.478 27.4021L36.5777 27.3168C36.9688 27.3049 36.8452 27.2998 37.2162 27.5408C37.3378 27.6215 37.4854 27.729 37.617 27.7798L37.7304 27.9131L37.873 27.6139C37.852 27.8543 37.8535 28.0566 37.7544 28.2748C37.5757 28.407 37.5708 28.4864 37.4966 28.7026L37.4417 28.727L37.2448 28.6487Z" fill="#E2C481"/>
<path d="M37.2163 27.5408C37.3435 26.9722 37.1625 26.5213 37.8516 26.3234V26.5541C37.5823 26.8792 37.5212 26.9439 37.5634 27.3642C37.5779 27.5031 37.5959 27.6417 37.6171 27.7797C37.4855 27.729 37.3379 27.6214 37.2163 27.5408Z" fill="#BFBF6F"/>
<path d="M33.7084 25.7288L34.0263 25.6167C34.1626 25.6999 34.2071 25.718 34.3147 25.8425L34.3373 26.1607C34.2957 26.4866 34.3419 26.6595 34.1448 26.8225L33.5885 26.8246C33.1383 26.8948 32.8358 26.9555 32.3742 26.9308L31.0959 26.9338C31.8757 26.0765 32.0725 25.9664 33.2026 25.6867C33.5341 25.6253 33.4011 25.6118 33.7084 25.7288Z" fill="#E2C481"/>
<path d="M33.2026 25.6868C33.034 26.4068 32.7024 26.1432 32.3742 26.9308L31.0959 26.9338C31.8757 26.0765 32.0725 25.9664 33.2026 25.6868Z" fill="#D6B77D"/>
<path d="M33.7083 25.7288L34.0262 25.6167C34.1625 25.6999 34.207 25.718 34.3146 25.8425L34.3372 26.1607C34.2956 26.4866 34.3418 26.6595 34.1447 26.8225L33.5884 26.8246C33.5892 26.3707 33.5764 26.1738 33.7083 25.7288Z" fill="#F4DDAB"/>
<path d="M34.3147 25.8426C34.599 25.7089 35.2938 25.8889 35.5312 26.064L35.5097 26.1861C35.2645 26.3455 34.5297 26.3634 34.3373 26.1607L34.3147 25.8426Z" fill="#E2C481"/>
<path d="M36.6444 26.4167C36.7494 26.4858 36.8014 26.5742 36.8824 26.6765L36.8398 26.8211C36.5629 26.983 36.2721 26.9605 35.9485 26.9709C35.8396 26.9335 35.8333 26.9038 35.7551 26.8145C35.9203 26.6098 36.3697 26.5062 36.6444 26.4167Z" fill="#D6B77D"/>
<path d="M43.4854 35.3551C43.7998 35.2364 43.7538 35.1952 44.0148 35.2775L44.247 35.5481C43.9727 36.2154 44.227 37.1772 44.1843 37.8802C44.1523 38.4082 43.7792 38.1936 43.7037 38.6676C43.8172 38.9002 43.8398 38.9758 44.1161 39.0655L44.4197 39.1103C44.4934 39.6158 44.6143 39.854 44.9284 40.2644C45.1812 40.5091 45.1582 40.4181 45.2287 40.7241L45.163 40.9366C45.5866 41.0389 45.6957 41.199 46.1425 41.2947C46.2067 41.54 46.15 41.4679 46.3337 41.5968C46.5823 41.5132 46.5087 41.5786 46.6175 41.3609C46.8715 41.6756 46.7935 41.6862 47.107 41.7435L47.4139 41.5913C47.6382 41.749 47.8649 41.9279 48.1154 42.0313C48.0114 42.8561 48.1835 43.5115 48.3368 44.325L47.8567 44.213C47.3986 44.3722 47.2964 44.3909 46.8117 44.4068L46.9533 43.776C46.7017 43.5341 46.7804 43.5363 46.4868 43.495C46.208 43.789 46.227 44.1089 46.2023 44.526L45.7502 44.1044L44.8114 43.6412C44.3636 43.2909 44.1804 43.1382 43.6201 43.058C43.6348 42.5009 43.8936 41.4258 43.7646 41.0866L43.4721 40.9567L43.4594 40.7951C43.561 40.7183 43.7729 40.5675 43.785 40.4445C43.8646 39.6284 42.9714 38.316 42.5675 37.6854L41.8782 37.0218C41.9878 36.8477 42.0857 36.7839 42.2413 36.6556C42.1814 36.3901 41.964 36.3236 42.0618 35.8634L42.3805 35.835C42.9545 35.2682 42.9492 35.8419 43.4086 35.6641L43.4854 35.3551Z" fill="#ECD292"/>
<path d="M44.1161 39.0656L44.4198 39.1104C44.4935 39.6159 44.6143 39.854 44.9284 40.2645C45.1813 40.5092 45.1582 40.4182 45.2288 40.7241L45.163 40.9367C44.5589 40.8769 44.9416 40.7305 44.559 40.7056L44.3765 41.0154L44.2212 41.0541L44.0498 40.9227C43.7873 40.2873 43.9929 39.7045 44.1161 39.0656Z" fill="#9FAE65"/>
<path d="M42.3805 35.8351C42.7284 35.9817 43.3458 36.971 43.3316 37.3124C42.7652 37.2097 42.6139 37.0954 42.2412 36.6557C42.1813 36.3902 41.964 36.3237 42.0618 35.8634L42.3805 35.8351Z" fill="#F4DDAB"/>
<path d="M41.8782 37.0218C41.9878 36.8477 42.0857 36.7839 42.2413 36.6556C42.6139 37.0954 42.7652 37.2096 43.3316 37.3124C43.4646 37.5798 43.4605 37.484 43.4299 37.7287C43.1999 37.8535 42.8465 37.7397 42.5675 37.6854L41.8782 37.0218Z" fill="#E2C481"/>
<path d="M44.8113 43.6413C45.1168 43.3137 45.0801 43.2444 45.4444 43.1582C45.7663 43.3333 45.8494 43.7808 45.7501 44.1045L44.8113 43.6413Z" fill="#D6B77D"/>
<path d="M46.9534 43.776C47.4936 43.7801 47.5629 43.7549 47.8568 44.2131C47.3987 44.3722 47.2965 44.391 46.8118 44.4069L46.9534 43.776Z" fill="#D6B77D"/>
<path d="M45.417 42.0677C45.6994 42.042 46.0771 42.0225 46.3212 42.1661C46.5442 42.4342 46.483 42.3268 46.5154 42.705C46.0776 42.8138 45.6831 42.3749 45.417 42.0677Z" fill="#F4DDAB"/>
<path d="M44.5902 41.4097C44.6837 41.5028 44.7705 41.618 44.8544 41.7219C44.8723 42.052 44.8959 41.9183 44.7299 42.2354C44.4567 42.0562 44.4541 42.1142 44.342 41.8561L44.5902 41.4097Z" fill="#EDD39B"/>
<path d="M43.7783 31.9705C44.009 32.1971 44.2939 32.4621 44.502 32.7023C44.9519 32.9551 46.2817 33.7613 46.6194 34.1017C46.1065 34.0141 45.9857 33.6482 45.6422 33.6467C45.3384 34.2496 46.1819 34.726 46.1301 35.3292L45.9414 35.3958C45.5714 35.3342 45.6962 35.2259 45.3705 35.0047C44.8016 34.6182 44.844 35.0214 44.4953 35.0568C44.452 34.9093 44.4638 34.8141 44.4669 34.6623C44.1475 34.4956 44.1429 34.7878 43.824 34.6159C43.5118 34.4476 43.0742 34.117 42.7507 33.97C42.554 33.8806 41.579 34.0673 41.4913 34.021C41.0948 33.8113 40.784 33.6236 40.386 33.4655L40.3203 33.4398L40.3244 33.2097C40.5135 32.9275 40.4554 33.0102 40.7782 32.842C41.527 33.1282 41.6088 33.106 42.3084 32.7064C42.4851 32.5082 42.5807 32.4879 42.8219 32.3964C42.9857 32.2737 43.1143 32.2056 43.2906 32.1066C43.4234 32.0805 43.6405 32.0101 43.7783 31.9705Z" fill="#9FAE65"/>
<path d="M43.7784 31.9705C44.0091 32.1971 44.294 32.4621 44.5022 32.7023C43.7866 32.7857 42.5478 33.1887 41.8865 33.4693C42.1639 33.184 42.5414 32.8596 42.84 32.5855L42.822 32.3964C42.9859 32.2737 43.1144 32.2056 43.2907 32.1066C43.4236 32.0805 43.6406 32.0101 43.7784 31.9705Z" fill="#E2C481"/>
<path d="M45.1666 33.6289C45.4166 33.8119 45.5387 33.9548 45.6908 34.2217C45.606 34.7171 44.984 34.5025 44.6234 34.4353C44.3644 34.2886 44.0007 34.1491 43.8911 33.9241C44.1706 33.7683 44.663 33.8109 45.104 33.6521L45.1666 33.6289Z" fill="#D6B77D"/>
<path d="M38.6017 31.852C38.7923 31.1529 38.6667 31.1611 39.3222 30.7814L39.4756 30.7956C39.6125 31.3161 39.1009 31.6251 39.4181 32.1116L40.0515 32.3955C40.1135 31.9255 40.0368 32.0626 40.3122 31.7257L40.4554 31.6784C40.8331 32.0566 40.5939 32.4477 40.7783 32.842C40.4555 33.0102 40.5136 32.9276 40.3244 33.2097L40.3204 33.4398L40.2287 33.4567C39.7891 33.6776 39.6473 33.5931 39.2069 33.4394C38.8748 33.4912 37.0958 33.6789 36.8156 33.5451C36.4119 33.3522 35.9187 32.6845 35.2829 32.9438C35.3266 32.8522 35.32 32.7446 35.2656 32.659C35.2112 32.5733 35.1166 32.5217 35.0151 32.5222C35.0497 32.5088 35.0843 32.4957 35.119 32.4827C36.073 32.1278 35.8604 32.431 36.4475 32.3875L36.4523 32.239C36.6425 31.9535 36.7007 31.9255 36.9912 31.7414L37.1666 31.739L37.3501 31.8363C37.3513 32.236 37.2862 32.6931 37.5308 32.9817C37.6551 33.0411 37.7718 33.1177 37.9031 33.1072C38.0247 32.5851 37.949 31.9281 38.0995 31.614L38.6017 31.852Z" fill="#ECD292"/>
<path d="M38.0995 31.614L38.6017 31.852C38.5961 32.2139 38.6553 32.9947 38.5131 33.234L38.3322 33.3101L37.9031 33.1072C38.0247 32.5851 37.949 31.9281 38.0995 31.614Z" fill="#D6B77D"/>
<path d="M39.418 32.1116L40.0514 32.3955C40.3253 32.5157 40.283 32.4483 40.4105 32.6617C40.1318 32.918 39.6408 32.8539 39.3606 32.6136C39.2834 32.3198 39.284 32.445 39.418 32.1116Z" fill="#D6B77D"/>
<path d="M39.2068 33.4394C39.4296 33.1181 39.3212 33.2161 39.6961 33.0698C40.0076 33.1146 40.115 33.1233 40.2286 33.4567C39.7889 33.6777 39.6472 33.5931 39.2068 33.4394Z" fill="#D6B77D"/>
<path d="M36.9911 31.7415C37.1629 32.0707 37.1533 31.9393 37.071 32.2426C36.8454 32.4252 36.9538 32.3829 36.6614 32.3997L36.4521 32.2391C36.6424 31.9536 36.7006 31.9256 36.9911 31.7415Z" fill="#E2C481"/>
<path d="M31.3235 27.8576C31.6656 27.4426 32.8148 27.5684 33.3157 27.6419C32.6476 28.3424 32.1616 27.7412 31.288 29.0515C31.6681 29.4995 32.6727 30.3362 32.6629 30.7291C32.5059 30.7825 32.4464 30.8025 32.2835 30.83C31.7706 30.2503 30.9936 29.3636 30.3905 28.9094L30.201 28.8974C29.9823 29.1605 30.165 29.2277 30.0047 29.639L29.8549 29.6142C29.5896 29.331 29.7555 29.1045 29.5581 28.7242L29.4352 28.7936L29.3995 28.7604C29.2001 28.5719 29.0703 28.5106 29.0647 28.2851L29.2126 28.1883C29.3261 28.2549 29.4298 28.2624 29.5597 28.2859C29.8442 28.2268 30.0591 27.968 30.2761 27.7579C30.5886 27.776 31.0296 27.7861 31.3235 27.8576Z" fill="#ECD292"/>
<path d="M30.2761 27.7578C30.5887 27.7759 31.0296 27.786 31.3235 27.8576C31.2116 28.133 31.0944 28.31 30.8066 28.3681C30.4776 28.1764 30.5037 28.0473 30.2761 27.7578Z" fill="#EDD39B"/>
<path d="M37.873 27.6139C38.1211 27.3224 39.0088 27.3585 39.2702 27.58C39.4145 28.1113 39.4973 28.1896 40.0024 28.4028C40.3435 28.4646 40.6635 28.5188 41.0076 28.467C41.2431 28.5483 41.9088 28.7625 42.0746 28.8887C41.4552 29.362 40.3338 29.4913 39.5777 29.5298C39.0533 29.2511 38.2176 28.6583 37.7544 28.2748C37.8535 28.0566 37.852 27.8542 37.873 27.6139Z" fill="#D6B77D"/>
<path d="M34.7509 27.8972L35.2015 28.0516C35.4847 28.1055 35.8713 28.1667 36.134 28.2618C36.5323 28.3183 36.7205 28.4679 37.0552 28.6818C37.0133 28.9451 36.9782 29.2119 36.9062 29.4681L37.0157 30.062C36.3396 30.1413 35.2974 29.8345 34.7315 29.4508L34.7304 29.1688C34.8737 29.0773 34.9299 29.0401 35.0546 28.9231L35.0822 28.8968C34.8694 28.6681 34.8082 28.5787 34.6393 28.3168C34.6154 28.0059 34.5796 28.1145 34.7509 27.8972Z" fill="#ECD292"/>
<path d="M34.7509 27.8972L35.2015 28.0516C35.3141 28.3621 35.5209 28.7966 35.5357 29.0972L35.42 29.1584C35.332 29.0946 35.1463 28.969 35.0822 28.8968C34.8694 28.6681 34.8082 28.5787 34.6393 28.3168C34.6154 28.0059 34.5796 28.1145 34.7509 27.8972Z" fill="#D6B77D"/>
<path d="M36.134 28.2617C36.5324 28.3183 36.7206 28.4679 37.0552 28.6818C37.0133 28.945 36.9782 29.2118 36.9062 29.468C36.6761 29.1917 36.4334 28.6492 36.134 28.2617Z" fill="#E2C481"/>
<path d="M38.0813 34.4294C38.5704 33.9717 38.832 34.1743 39.4654 34.2656C39.4694 34.6324 39.4342 35.0223 39.6192 35.3323L39.7617 35.3912C40.1885 35.0706 40.2694 34.5951 40.6865 34.3613C41.1514 34.4311 41.2539 34.8756 41.3464 35.3064C41.3704 35.7277 41.2942 36.0824 41.1003 36.4628L40.4899 36.1504L39.7217 35.8742L39.0777 35.7528C38.9019 35.4083 39.0789 35.1027 38.9612 34.5595C38.6468 34.3423 38.781 34.6634 38.0813 34.4294Z" fill="#ECD292"/>
<path d="M41.3463 35.3064C41.3703 35.7277 41.2941 36.0824 41.1002 36.4628L40.4897 36.1504L40.5362 35.7174C40.7859 35.6469 41.1112 35.4411 41.3463 35.3064Z" fill="#D6B77D"/>
<path d="M39.7217 35.8742C39.7756 35.6429 39.7316 35.7297 39.908 35.5482C40.1574 35.4995 40.2998 35.6037 40.5364 35.7175L40.4899 36.1504L39.7217 35.8742Z" fill="#E2C481"/>
<path d="M42.3084 32.7065C42.1339 32.3848 41.9018 31.537 41.704 31.3811C41.3878 31.1319 40.6373 31.1122 40.4736 30.5474C40.6351 30.1792 40.8181 30.2076 41.1531 30.2085C41.5424 30.6361 42.2943 31.0268 42.7572 31.2116C42.6245 31.1587 43.2186 32.018 43.2906 32.1066C43.1143 32.2056 42.9858 32.2738 42.8219 32.3964C42.5807 32.4879 42.4851 32.5082 42.3084 32.7065Z" fill="#ECD292"/>
<path d="M48.5739 41.0415C48.2057 40.7022 47.5067 39.1322 48.0972 38.651C48.7401 38.6649 48.7861 39.1869 49.1595 39.2639L49.3533 39.041C49.5013 39.3236 49.5391 39.2916 49.4321 39.6303C49.3115 40.012 48.843 40.7468 48.5739 41.0415Z" fill="#E2C481"/>
<path d="M34.0005 27.833C34.3331 27.9505 34.3989 27.9346 34.7508 27.8972C34.5796 28.1145 34.6154 28.0059 34.6393 28.3167C34.8082 28.5787 34.8693 28.6681 35.0822 28.8967L35.0546 28.9231C34.9299 29.0401 34.8736 29.0773 34.7304 29.1688L34.7315 29.4508C34.6299 29.5545 34.5898 29.5819 34.5343 29.7197C34.4932 29.7204 34.4521 29.7205 34.411 29.7203C33.8824 29.7155 33.8427 29.6204 33.4608 29.234L33.4523 29.0502C33.1941 28.8681 33.1271 28.8391 33.0332 28.5346C33.2131 28.3921 33.4987 28.2636 33.7098 28.1569L34.0005 27.833Z" fill="#EDD39B"/>
<path d="M33.7098 28.1569C34.3713 28.5694 33.988 29.0508 34.5343 29.7196C34.4932 29.7203 34.4521 29.7205 34.411 29.7202C33.8824 29.7154 33.8427 29.6204 33.4608 29.2339L33.4523 29.0502C33.1941 28.8681 33.1271 28.839 33.0332 28.5346C33.2131 28.3921 33.4987 28.2635 33.7098 28.1569Z" fill="#D6B77D"/>
<path d="M33.461 29.2339C33.8429 29.6203 33.8826 29.7154 34.4112 29.7202C34.4522 29.7205 34.4933 29.7203 34.5344 29.7196C34.5899 29.5818 34.63 29.5544 34.7316 29.4507C35.2975 29.8344 36.3397 30.1412 37.0158 30.0619L37.5474 30.0675C37.6309 30.3001 37.6923 30.4194 37.6898 30.6686C36.7875 30.468 35.2037 30.4544 34.6934 30.1806C34.2039 29.9561 33.3896 29.9738 33.1353 29.8486C33.1365 29.4734 33.2061 29.4895 33.461 29.2339Z" fill="#9FAE65"/>
<path d="M44.9282 40.2644C45.1928 39.7887 45.3511 39.5928 45.8568 39.3816C46.2333 39.4269 46.216 39.5458 46.2493 39.9254C45.9385 40.3486 45.8103 39.9516 45.7491 40.3468C46.1534 40.7497 46.2659 40.697 46.1423 41.2947C45.6956 41.1991 45.5865 41.0389 45.1628 40.9366L45.2286 40.7241C45.158 40.4182 45.1811 40.5092 44.9282 40.2644Z" fill="#D6B77D"/>
<path d="M42.0846 34.7372C42.7619 34.8575 43.0207 34.8482 43.4854 35.3552L43.4085 35.6641C42.9492 35.8419 42.9545 35.2682 42.3805 35.835L42.0618 35.8634L41.9795 35.7119C42.0275 35.3985 42.0539 35.0554 42.0846 34.7372Z" fill="#D6B77D"/>
<path d="M36.3711 35.5542C36.4468 34.7776 37.0316 33.8873 37.7943 34.5596C37.6619 34.9136 37.2226 35.3058 36.9152 35.5338L36.3711 35.5542Z" fill="#ECD292"/>
<path d="M33.0332 28.5345C33.1272 28.839 33.1941 28.8681 33.4523 29.0502L33.4609 29.2339C33.206 29.4895 33.1364 29.4734 33.1352 29.8486C32.9595 29.6469 32.4471 29.6064 32.1733 29.1406L32.2277 28.9611C32.5118 28.6916 32.6568 28.6626 33.0332 28.5345Z" fill="#E2C481"/>
<path d="M46.6174 41.361C46.6552 41.0221 46.6018 41.1223 46.7785 40.8915C47.1596 40.9798 47.2629 41.2523 47.4138 41.5914L47.1068 41.7436C46.7934 41.6863 46.8714 41.6757 46.6174 41.361Z" fill="#E2C481"/>
<path d="M41.9794 35.7119L42.0618 35.8634C41.964 36.3237 42.1813 36.3901 42.2412 36.6557C42.0857 36.784 41.9878 36.8478 41.8781 37.0219L41.7667 36.9257C41.7138 36.379 41.7251 36.1935 41.9794 35.7119Z" fill="#EDD39B"/>
<path d="M34.9309 35.1358C35.1615 34.8976 35.2175 34.8719 35.5106 34.7173C35.7858 34.713 35.7017 34.6733 35.8676 34.8277C35.8352 35.0962 35.873 34.9929 35.646 35.231L35.3035 35.3216L34.9309 35.1358Z" fill="#E2C481"/>
<path d="M35.2828 32.9438C35.2201 33.0756 35.0706 33.1416 34.931 33.0993C34.7915 33.0569 34.7038 32.9189 34.7248 32.7746C34.7458 32.6302 34.8692 32.523 35.0151 32.5222C35.1166 32.5217 35.2112 32.5734 35.2656 32.659C35.32 32.7446 35.3265 32.8522 35.2828 32.9438Z" fill="#E2C481"/>
<path d="M44.46 35.5516C44.9086 35.8149 45.3977 36.0887 45.8906 36.2533C45.614 36.924 45.406 37.9227 45.0425 38.3743C44.9439 38.3101 44.9341 38.2809 44.8589 38.1894C44.8923 37.5336 44.5867 36.2708 44.46 35.5516Z" fill="#D6B77D"/>
<path d="M34.5242 30.653C35.3855 30.5229 35.4746 30.5527 36.1199 31.1601C36.0423 31.2729 36.0544 31.246 35.9182 31.3106C35.2868 31.0606 35.0333 31.3546 34.528 30.8705L34.5242 30.653Z" fill="#D6B77D"/>
<path d="M34.7145 33.4286C34.9553 33.6032 34.9798 33.6619 35.0268 33.8997C34.9073 34.177 34.7715 34.2159 34.503 34.3588C34.3161 34.2435 34.3018 34.2418 34.198 34.0554C34.2883 33.7346 34.4354 33.6853 34.7145 33.4286Z" fill="#EDD39B"/>
<path d="M33.7222 31.3224C34.0001 31.3119 34.2874 31.2986 34.5204 31.4487C34.6732 31.732 34.6438 31.6019 34.5888 31.9677C34.0968 31.9996 33.836 31.8343 33.7222 31.3224Z" fill="#EDD39B"/>
<path d="M47.0614 38.295C47.2643 38.3275 47.2885 38.3343 47.4457 38.4657C47.4289 38.7583 47.3349 38.7795 47.1197 39.0607C46.9422 39.0312 46.9956 39.0388 46.8386 38.9084C46.8064 38.6546 46.9247 38.5225 47.0614 38.295Z" fill="#E2C481"/>
<path d="M37.782 29.0031C38.0067 29.33 38.0851 29.3218 38.0729 29.6419C37.9221 29.7596 37.9012 29.7804 37.7268 29.8539C37.513 29.4476 37.5864 29.355 37.782 29.0031Z" fill="#ECD292"/>
<path d="M26.5064 28.2129C27.0883 28.256 27.253 28.2604 27.8277 28.1561C27.7556 28.3099 27.6663 28.5202 27.5723 28.6551C26.7572 28.6316 25.2082 29.4678 24.6643 30.0583C24.2783 31.1818 23.9718 33.7839 23.6504 34.4456C22.3941 36.5926 22.8355 37.6927 23.3567 40.0421C23.3957 40.2183 23.5263 40.5129 23.5148 40.669L23.6431 40.7596L23.9891 41.6905C24.278 42.0556 25.162 43.2283 25.392 43.4551L26.0943 44.1417C26.3587 44.5139 26.5136 44.761 26.8657 45.0616L26.9598 45.0532C26.9399 44.8479 26.8794 44.5619 26.9858 44.3968C27.3427 44.7702 27.2901 45.0352 27.3176 45.5778C27.5626 45.784 28.6268 46.7039 28.7624 46.9201L28.7576 47.048C28.6785 47.874 28.8046 48.2052 29.0509 48.9946L29.3691 49.5325L29.444 49.9764L29.5622 50.5416L29.5859 50.5755C29.8 50.8852 29.9537 51.2181 30.1812 51.5214C30.9273 52.5165 32.1091 53.1386 33.2085 53.6693C34.1711 53.8822 34.5383 53.9793 35.5086 54.0323L36.7515 53.8661L37.0675 53.6858C37.2916 53.9675 37.5353 54.2892 37.7744 54.5536L37.8973 54.5621C38.404 54.5837 38.1847 54.7052 38.5711 54.8501L38.7196 54.6122C38.9074 54.8873 38.8251 54.8557 39.0938 54.9409C39.4605 54.8566 39.7981 54.5096 40.0929 54.256C40.5559 54.4572 40.7437 54.5328 41.2221 54.3465L41.2848 54.3215C41.3802 54.1771 41.3353 54.2236 41.5418 54.1649C42.1611 53.4974 42.3342 53.393 42.4868 52.4845L43.1801 52.1611C43.4868 51.9726 44.1542 51.5735 44.2647 51.2401C44.3137 51.0924 44.295 51.0993 44.4642 50.9778C44.598 50.9891 44.6787 50.9814 44.8113 50.9755L44.9625 50.7633C45.3044 51.3429 45.7693 51.3642 46.3867 51.4418L46.815 51.6408C47.1035 51.5986 47.0333 51.5933 47.2831 51.3624C47.5175 51.3051 47.6567 51.3826 47.8803 51.466L47.9507 51.4941C48.0699 51.6777 48.2336 51.9153 48.3402 52.0993C48.5141 51.7503 48.7673 51.5904 48.9752 51.2456C49.1929 50.8844 49.1166 50.804 49.3961 50.4613C49.3319 50.7949 49.1029 51.4288 49.1153 51.6282C49.2068 51.7127 49.2587 51.7695 49.3707 51.829C48.3053 52.626 48.2126 53.3694 47.7921 53.7423L47.5153 54.1679C47.3564 54.3162 47.2553 54.3994 47.1275 54.5793C46.8755 54.7849 46.2879 55.2626 46.0201 55.3562C44.7435 55.8025 41.7597 56.9502 40.4784 56.4722C39.2321 57.3242 38.254 58.1602 36.6071 57.5609C34.3729 56.7479 31.8204 55.6495 29.6725 54.5975C28.9542 54.2457 27.9905 53.357 27.3182 52.8832C26.854 52.5561 26.4602 51.9986 25.9384 51.6384L25.872 51.5933C24.1105 50.8666 23.3088 48.8525 22.5785 47.2109C22.4768 46.9823 22.6313 46.5702 22.7053 46.3359C22.5363 46.0609 21.6184 45.4626 21.2672 44.8982C20.8116 44.1659 20.8777 43.2702 21.008 42.4634L20.9546 42.3067C21.2181 41.8117 21.0456 41.0133 21.6234 39.9067C21.4566 39.6338 21.3465 39.2463 21.3002 38.9317C20.9964 36.8671 21.2992 35.342 22.2669 33.5424C23.3589 31.8103 23.0076 29.3709 25.1518 28.541C25.39 28.4487 25.6273 28.3504 25.8656 28.2575C26.0306 28.2485 26.3582 28.2406 26.5064 28.2129Z" fill="#ECD292"/>
<path d="M48.3402 52.0994C48.5141 51.7503 48.7673 51.5904 48.9752 51.2456C49.1929 50.8844 49.1166 50.804 49.3961 50.4613C49.3319 50.7949 49.1029 51.4288 49.1153 51.6282C49.2068 51.7127 49.2587 51.7695 49.3707 51.829C48.3053 52.626 48.2126 53.3694 47.7921 53.7423L47.5153 54.168C47.3564 54.3162 47.2553 54.3994 47.1275 54.5793C46.8755 54.7849 46.2879 55.2626 46.0201 55.3562C44.7435 55.8025 41.7597 56.9502 40.4784 56.4722L40.3644 56.2779C39.4477 56.2927 38.5416 56.853 37.6253 57.1886C36.3585 56.4691 35.8904 56.9583 34.2688 55.6077C33.901 55.2139 33.6238 55.1935 33.1174 55.0744C32.9123 54.9603 31.8412 54.637 31.3274 54.3821C30.3109 53.8779 30.468 53.7323 29.7279 53.2611L29.6674 53.2231C29.0468 52.755 28.5855 52.226 28.2378 51.5322C28.6188 51.5294 28.9202 51.7549 29.2422 51.9707C30.018 53.009 31.0864 53.637 32.2632 54.1486C32.5592 54.4161 32.9954 54.5551 33.3461 54.3247C33.4192 54.0803 33.3115 53.9169 33.2085 53.6693C34.1711 53.8822 34.5383 53.9793 35.5086 54.0323L36.7515 53.8661L37.0675 53.6859C37.2916 53.9676 37.5353 54.2892 37.7744 54.5536L37.8973 54.5621C38.404 54.5837 38.1847 54.7052 38.5711 54.8501L38.7196 54.6122C38.9074 54.8873 38.8251 54.8557 39.0938 54.9409C39.4605 54.8567 39.7981 54.5096 40.093 54.256C40.5559 54.4572 40.7438 54.5329 41.2221 54.3465L41.2848 54.3215C41.3802 54.1771 41.3353 54.2236 41.5418 54.165C42.1611 53.4974 42.3342 53.393 42.4868 52.4845L43.1801 52.1611C43.4868 51.9726 44.1542 51.5735 44.2647 51.2402C44.3137 51.0924 44.295 51.0993 44.4642 50.9778C44.5981 50.9891 44.6788 50.9814 44.8113 50.9755L44.9625 50.7633C45.3044 51.3429 45.7693 51.3643 46.3868 51.4419L46.815 51.6408C47.1035 51.5986 47.0334 51.5933 47.2831 51.3624C47.5175 51.3051 47.6567 51.3826 47.8803 51.466L47.9507 51.4941C48.0699 51.6777 48.2336 51.9153 48.3402 52.0994Z" fill="#F4DDAB"/>
<path d="M48.3403 52.0994C48.5142 51.7503 48.7674 51.5904 48.9753 51.2456C49.1929 50.8844 49.1167 50.804 49.3962 50.4613C49.332 50.7949 49.103 51.4288 49.1153 51.6282C49.2069 51.7127 49.2588 51.7695 49.3708 51.829C48.3054 52.626 48.2127 53.3694 47.7922 53.7423L47.5154 54.168C47.3565 54.3162 47.2554 54.3994 47.1276 54.5793C46.8756 54.7849 46.288 55.2626 46.0201 55.3562C44.7436 55.8025 41.7598 56.9502 40.4785 56.4722L40.3645 56.2779C40.9038 56.0868 41.454 55.9381 42.0044 55.7815C42.6961 55.4465 42.6051 54.1787 43.6694 53.5278C44.0054 53.3642 44.6458 53.1513 45.0213 53.1987C46.2384 53.4897 47.3113 53.2818 48.1363 52.3203C48.1679 52.2988 48.305 52.1389 48.3403 52.0994Z" fill="#ECD292"/>
<path d="M42.0044 55.7816C42.508 55.8274 42.8673 55.8373 43.3566 55.6905C44.8515 55.2418 46.2351 54.491 47.5696 53.694C47.5696 53.694 47.7722 53.7381 47.7922 53.7424L47.5154 54.168C47.3565 54.3162 47.2554 54.3994 47.1276 54.5794C46.8756 54.7849 46.288 55.2627 46.0201 55.3563C44.7436 55.8025 41.7598 56.9502 40.4785 56.4722L40.3645 56.2779C40.9038 56.0868 41.454 55.9381 42.0044 55.7816Z" fill="#C7A266"/>
<path d="M43.6694 53.5279C44.0054 53.3642 44.6459 53.1514 45.0213 53.1987C44.6815 53.6658 44.2087 53.8781 43.6694 53.5279Z" fill="#E2C481"/>
<path d="M44.4643 50.9778C44.5981 50.9892 44.6788 50.9814 44.8114 50.9755L44.9626 50.7633C45.3045 51.343 45.7694 51.3643 46.3868 51.4419L46.8151 51.6408C47.1036 51.5986 47.0334 51.5933 47.2832 51.3625C47.5176 51.3051 47.6568 51.3827 47.8804 51.466L47.9508 51.4941C48.07 51.6778 48.2337 51.9153 48.3403 52.0994C48.3051 52.1389 48.1679 52.2988 48.1363 52.3203C47.6844 52.2723 47.5817 52.3085 47.1371 52.4285C46.8009 52.6666 46.3951 52.6222 45.9851 52.5759C45.6047 52.6447 44.5441 52.7687 44.1889 52.7144L44.1704 52.5841L44.0184 52.4428C43.7769 52.3379 43.538 52.4411 43.2812 52.5138L43.1802 52.1612C43.4869 51.9726 44.1543 51.5735 44.2648 51.2402C44.3138 51.0924 44.2951 51.0993 44.4643 50.9778Z" fill="#D6B77D"/>
<path d="M44.4643 50.9778C44.5981 50.9892 44.6788 50.9814 44.8114 50.9755L44.9626 50.7633C45.3045 51.343 45.7694 51.3643 46.3868 51.4419C45.976 51.8052 45.5538 52.2551 45.0076 52.3703C44.6213 52.4517 44.5447 52.4332 44.1704 52.5841L44.0184 52.4428C43.7769 52.3379 43.538 52.4411 43.2812 52.5138L43.1802 52.1612C43.4869 51.9726 44.1543 51.5735 44.2648 51.2402C44.3138 51.0924 44.2951 51.0993 44.4643 50.9778Z" fill="#E2C481"/>
<path d="M46.8149 51.6409C47.1034 51.5987 47.0333 51.5934 47.283 51.3625C47.5175 51.3052 47.6567 51.3827 47.8802 51.4661L47.9507 51.4942C48.0699 51.6778 48.2336 51.9154 48.3402 52.0994C48.3049 52.139 48.1678 52.2989 48.1361 52.3204C47.6843 52.2723 47.5816 52.3085 47.137 52.4286L47.0282 52.3419C47.1253 52.173 47.2194 52.0248 47.3245 51.8616C47.192 51.6791 47.1956 51.7303 46.9196 51.6821L46.8149 51.6409Z" fill="#7E8F39"/>
<path d="M46.9198 51.6821C47.1958 51.7303 47.1921 51.6791 47.3246 51.8616C47.2195 52.0248 47.1255 52.173 47.0283 52.3419L47.1371 52.4286C46.8009 52.6666 46.3951 52.6223 45.9851 52.576C46.1977 52.0841 46.4752 52.1831 46.9198 51.6821Z" fill="#ECD292"/>
<path d="M37.0676 53.6859C37.2916 53.9676 37.5353 54.2893 37.7745 54.5537L37.8974 54.5621C38.1163 54.8001 38.1869 54.7905 38.2065 55.0569C38.0565 55.1776 38.033 55.1899 37.8506 55.2519C37.9876 55.2974 34.3985 54.8817 34.5867 54.8577C34.6419 54.7313 34.6995 54.4997 34.7399 54.3588L34.6748 54.2134L34.7573 54.0848C35.0189 54.0549 35.2466 54.0441 35.5087 54.0323L36.7516 53.8661L37.0676 53.6859Z" fill="#EDD39B"/>
<path d="M35.5087 54.0323L36.7516 53.8661L36.9397 54.09C36.8613 54.4721 36.105 54.5684 35.7368 54.6788C35.3617 54.582 35.0967 54.5221 34.7399 54.3588L34.6748 54.2134L34.7573 54.0848C35.0189 54.0549 35.2465 54.0441 35.5087 54.0323Z" fill="#D6B77D"/>
<path d="M34.5867 54.8577C34.3985 54.8817 37.9876 55.2974 37.8506 55.2519C38.1134 55.5455 38.5029 55.781 38.8322 56.0115C38.4176 56.5274 34.7739 56.3997 34.5867 54.8577Z" fill="#D6B77D"/>
<path d="M40.0929 54.2561C40.5559 54.4573 40.7437 54.5329 41.222 54.3466L41.2848 54.3216C41.1325 54.8761 39.9616 55.2745 39.4205 55.4874C39.1584 55.3014 38.7987 55.063 38.571 54.8502L38.7195 54.6122C38.9074 54.8874 38.8251 54.8558 39.0938 54.9409C39.4605 54.8567 39.7981 54.5097 40.0929 54.2561Z" fill="#D6B77D"/>
<path d="M42.4868 52.4845L43.1801 52.1611L43.281 52.5137L43.097 52.8137C42.4582 53.0169 42.3558 54.297 41.5417 54.1649C42.1611 53.4974 42.3342 53.393 42.4868 52.4845Z" fill="#ECD292"/>
<path d="M43.2812 52.5138C43.538 52.4411 43.7769 52.338 44.0184 52.4429L44.1704 52.5841L44.1889 52.7145C43.8886 52.8651 43.5597 53.0733 43.2346 53.0433C43.1631 52.9562 43.1191 52.9226 43.0972 52.8138L43.2812 52.5138Z" fill="#C7A266"/>
<path d="M21.008 42.4635L21.2052 42.4307C21.3573 42.6397 21.8071 43.9447 21.8912 44.2445C22.5677 45.786 22.5066 44.9987 23.3674 45.1896L23.6951 45.4252C23.9004 45.7926 24.93 47.4907 24.9896 47.679C24.93 47.812 24.8932 47.8872 24.8219 48.0139C25.1249 48.9561 25.5291 48.7201 25.51 49.9265C25.6401 50.3666 25.9265 51.1753 25.872 51.5934C24.1105 50.8666 23.3088 48.8526 22.5785 47.2109C22.4768 46.9823 22.6313 46.5703 22.7053 46.3359C22.5363 46.0609 21.6184 45.4626 21.2672 44.8983C20.8116 44.166 20.8777 43.2703 21.008 42.4635Z" fill="#E2C481"/>
<path d="M22.7053 46.3359L22.8095 46.1886C23.5124 46.28 23.4961 49.7018 25.51 49.9264C25.6402 50.3665 25.9265 51.1753 25.872 51.5934C24.1105 50.8666 23.3089 48.8526 22.5786 47.2109C22.4768 46.9823 22.6313 46.5702 22.7053 46.3359Z" fill="#D6B77D"/>
<path d="M27.052 46.8351L27.1847 46.8836C27.7623 46.8941 28.1012 46.8844 28.6576 47.0943L28.7576 47.048C28.6785 47.874 28.8047 48.2052 29.051 48.9946L29.3692 49.5325L29.444 49.9764L29.5622 50.5417C28.1274 50.637 26.4005 48.2494 26.8327 46.9204L27.052 46.8351Z" fill="#F4DDAB"/>
<path d="M27.1846 46.8837C27.7622 46.8942 28.1011 46.8844 28.6575 47.0943C28.5976 47.365 28.63 48.1799 28.6374 48.4953C28.3222 48.3554 28.0773 48.263 27.8031 48.0534C27.3923 47.4058 28.0494 47.4512 27.1846 46.8837Z" fill="#EDD39B"/>
<path d="M29.051 48.9946L29.3693 49.5325L29.4441 49.9765C28.9947 49.817 28.1293 49.7035 27.9966 49.2095C28.3274 49.0339 28.5431 49.2127 29.051 48.9946Z" fill="#ECD292"/>
<path d="M22.2669 33.5425C22.5475 33.9645 21.902 39.4679 21.6234 39.9068C21.4566 39.6338 21.3465 39.2463 21.3002 38.9317C20.9964 36.8671 21.2992 35.342 22.2669 33.5425Z" fill="#D6B77D"/>
<path d="M26.0945 44.1417C26.3588 44.5139 26.5138 44.761 26.8658 45.0616L26.9599 45.0533C26.94 44.8479 26.8795 44.562 26.986 44.3968C27.3428 44.7702 27.2902 45.0352 27.3177 45.5778C27.5627 45.784 28.627 46.704 28.7626 46.9201L28.7578 47.048L28.6577 47.0943C28.1013 46.8844 27.7624 46.8941 27.1848 46.8836L27.0521 46.8351C26.7503 46.7351 26.3891 46.8476 26.0695 46.9148L25.6646 46.828C25.3842 46.8494 25.3107 46.821 25.1648 46.6109C25.3374 46.4368 25.805 46.4577 26.105 46.4318C25.865 46.3021 25.6453 46.22 25.5061 45.9963L25.5456 45.9131C26.1438 45.9145 27.0885 46.5883 27.577 46.4408C27.5289 46.4121 27.482 46.3817 27.4362 46.3495C26.8634 45.954 26.5063 45.4944 26.0331 44.9826L25.8496 44.3047L26.0945 44.1417Z" fill="#BFBF6F"/>
<path d="M22.0209 40.3182C22.2348 40.601 22.5917 40.9943 22.647 41.324L22.4829 41.5499C22.1277 42.3821 23.5573 44.6291 23.3675 45.1896C22.5068 44.9987 22.5679 45.786 21.8914 44.2445C22.0171 44.1685 22.3746 44.4422 22.7004 44.3454C22.2804 43.625 22.0122 43.4723 22.3363 42.7936C22.3973 42.6659 22.025 42.3767 22.0193 42.2976C21.9734 41.6488 22.0084 40.9722 22.0209 40.3182Z" fill="#EDD39B"/>
<path d="M22.4827 41.5499C23.1048 41.8572 24.0872 44.3227 23.8565 44.9873C23.8071 45.1295 23.7271 45.1919 23.6951 45.4253L23.3674 45.1896C23.5572 44.6292 22.1276 42.3821 22.4827 41.5499Z" fill="#F4DDAB"/>
<path d="M26.8108 51.1777L27.5444 51.0656C27.7476 51.1981 28.0556 51.3866 28.2379 51.5322C28.5856 52.2261 29.0469 52.755 29.6674 53.2231L29.4729 53.2748C28.3065 52.8854 27.5196 52.1393 26.8108 51.1777Z" fill="#C7A266"/>
<path d="M23.9892 41.6906C24.2781 42.0556 25.162 43.2283 25.3921 43.4551L25.1312 43.6956C24.2893 43.8981 24.006 42.7692 23.8542 42.1643L23.9892 41.6906Z" fill="#EDD39B"/>
<path d="M29.2422 51.9708C30.0193 51.9178 30.7366 53.0756 31.4662 53.4395C31.7668 53.5895 32.198 53.8413 32.2631 54.1487C31.0863 53.637 30.0179 53.009 29.2422 51.9708Z" fill="#D6B77D"/>
<path d="M26.8107 51.1777C26.4682 50.8836 26.2605 50.0259 26.4235 49.6315L26.524 49.6414C26.9141 49.9466 27.2731 50.6219 27.5443 51.0656L26.8107 51.1777Z" fill="#E2C481"/>
<path d="M25.6646 46.8281L26.0695 46.9148C26.2497 47.169 26.345 47.5699 26.1985 47.8522C25.8296 47.82 25.4502 47.2754 25.4104 46.9431L25.6646 46.8281Z" fill="#F4DDAB"/>
<path d="M23.515 40.6691L23.6433 40.7597L23.9892 41.6906L23.8543 42.1644C23.8014 42.1475 23.6971 42.0847 23.6431 42.055C23.5172 41.7282 23.304 40.9506 23.515 40.6691Z" fill="#D6B77D"/>
<path d="M26.033 44.9827C25.6664 45.089 25.1999 44.7463 25.2908 44.3025C25.5515 44.1866 25.5154 44.2347 25.8495 44.3047L26.033 44.9827Z" fill="#F4DDAB"/>
<path d="M33.1174 55.0745C33.6239 55.1935 33.901 55.2139 34.2688 55.6077C33.8869 55.7086 33.2378 55.4998 33.1174 55.0745Z" fill="#E2C481"/>
<path d="M24.6091 45.1239C25.0485 45.3209 25.3167 45.7158 25.3451 46.187C24.8859 46.19 24.8026 46.2412 24.5271 45.8643C24.4678 45.5399 24.5169 45.439 24.6091 45.1239Z" fill="#F4DDAB"/>
<path d="M43.6201 43.0581C44.1804 43.1383 44.3636 43.291 44.8114 43.6413L45.7502 44.1045L46.2023 44.5261C46.2269 44.1089 46.208 43.7891 46.4868 43.4951C46.7804 43.5363 46.7017 43.5342 46.9533 43.776L46.8117 44.4069C47.2964 44.391 47.3986 44.3723 47.8567 44.2131L48.3368 44.3251C48.5072 45.3929 48.6348 45.7872 49.3506 46.6536L49.6993 47.0786L50.3355 47.6968C50.3914 48.0214 50.4269 48.1143 50.305 48.4221C50.1494 48.5841 50.137 48.6123 49.9346 48.6952C49.5251 49.1553 49.6117 49.2716 49.6956 49.872C49.4059 50.1483 49.4907 50.0374 49.3961 50.4614C49.1167 50.8041 49.1929 50.8844 48.9752 51.2456C48.7673 51.5905 48.5142 51.7503 48.3402 52.0994C48.2337 51.9153 48.07 51.6778 47.9508 51.4942L47.8803 51.4661C47.6568 51.3827 47.5176 51.3052 47.2831 51.3625C47.0334 51.5933 47.1035 51.5987 46.815 51.6409L46.3868 51.4419C45.7693 51.3643 45.3044 51.343 44.9625 50.7633L44.8113 50.9755C44.6788 50.9815 44.5981 50.9892 44.4642 50.9778L44.585 50.7865C44.3509 50.3925 44.2195 50.6672 44.0919 50.3083L44.1772 50.2078C44.4021 50.2798 44.441 50.289 44.6766 50.2937L44.788 50.1534C44.8345 49.5925 44.9255 49.3782 45.1343 48.8741L45.071 48.4504L45.0507 48.3537C44.9538 47.9194 44.7179 46.4761 44.6031 46.1644C44.0901 44.7712 43.8072 44.6101 43.6201 43.0581Z" fill="#F4DDAB"/>
<path d="M49.3506 46.6536L49.6993 47.0785L50.3355 47.6967C50.3914 48.0213 50.4269 48.1142 50.305 48.422C50.1494 48.5841 50.137 48.6123 49.9346 48.6951C49.0707 48.5983 47.8392 49.4027 47.0014 48.9112C46.7703 48.5818 46.9018 48.7185 46.883 48.2157L46.5823 47.9718C46.4995 47.7121 46.5141 47.8036 46.6578 47.4995L46.8874 47.4628C47.1673 47.9274 47.0255 48.0746 47.232 48.41C47.4958 48.4482 47.4221 48.4777 47.6118 48.3677L47.6304 48.1401C47.8611 47.6978 48.5495 47.4027 49.0226 47.1345C49.1192 47.1144 49.1561 47.0846 49.244 47.038L49.3506 46.6536Z" fill="#ECD292"/>
<path d="M49.0226 47.1345C49.2422 47.4577 49.193 47.5615 49.193 47.9955C48.5088 47.8198 48.3563 48.5559 47.6304 48.1402C47.861 47.6978 48.5495 47.4027 49.0226 47.1345Z" fill="#D6B77D"/>
<path d="M49.3505 46.6536L49.6991 47.0785C49.6481 47.4825 49.6787 47.8021 49.4033 48.0261L49.1929 47.9955C49.1929 47.5614 49.2421 47.4577 49.0225 47.1345C49.1191 47.1144 49.156 47.0846 49.2438 47.038L49.3505 46.6536Z" fill="#EDD39B"/>
<path d="M44.9626 50.7634C45.321 50.7095 45.5355 50.9225 45.7565 50.8207C45.7871 50.6194 45.7847 50.5379 45.8825 50.3637C46.196 50.4906 46.246 50.933 46.6606 51.1587L46.7637 51.0923C46.6936 50.7432 46.1986 50.0099 46.0138 49.5209L46.0651 49.4265C46.1701 49.4654 46.6064 49.6657 46.647 49.6695C47.0441 49.7069 46.99 49.6473 47.3766 49.8229L47.3442 49.9443C47.5533 50.1691 47.614 50.225 47.759 50.5009L47.9536 50.7257C47.9166 50.9962 47.8937 51.193 47.8804 51.4661C47.6569 51.3827 47.5177 51.3052 47.2832 51.3625C47.0335 51.5933 47.1036 51.5987 46.8151 51.6409L46.3869 51.4419C45.7694 51.3643 45.3045 51.343 44.9626 50.7634Z" fill="#9FAE65"/>
<path d="M46.2023 44.5261C46.2269 44.109 46.208 43.7891 46.4868 43.4951C46.7804 43.5364 46.7017 43.5342 46.9533 43.7761L46.8117 44.4069C46.7774 44.7344 46.8859 45.0264 46.9767 45.3434L46.7025 45.489C46.4511 45.4691 46.2208 45.4759 46.0169 45.3271L45.9973 45.155L46.101 45.0798L46.3933 45.17L46.4479 45.0328C46.369 44.8625 46.2871 44.6935 46.2023 44.5261Z" fill="#E2C481"/>
<path d="M45.0508 48.3537C45.064 48.0181 45.0422 47.8368 45.2395 47.5671C45.4912 47.4133 45.3776 47.4336 45.6644 47.4893C46.0231 47.7583 46.2683 48.143 46.1355 48.595C45.902 48.7153 45.2431 48.6103 45.0711 48.4504L45.0508 48.3537Z" fill="#ECD292"/>
<path d="M46.9767 45.3433C47.1759 45.2858 47.4354 45.2033 47.6317 45.1577C47.5567 45.8407 47.3022 46.0085 47.2694 46.3363C47.1061 46.4912 47.0228 46.5649 46.8394 46.6947C46.5386 46.6685 46.6099 46.721 46.4443 46.5484C46.4867 46.0972 46.8059 46 46.832 45.6096L46.7026 45.4889L46.9767 45.3433Z" fill="#ECD292"/>
<path d="M47.6315 45.1577L47.8531 45.2073C48.0314 45.5506 48.0674 46.4836 47.7749 46.8009C47.4747 46.716 47.4962 46.6397 47.2693 46.3363C47.302 46.0085 47.5566 45.8407 47.6315 45.1577Z" fill="#D6B77D"/>
<path d="M48.5297 49.5903L48.6246 49.748C48.3129 50.1256 48.1837 50.4071 47.759 50.5009C47.614 50.2251 47.5533 50.1691 47.3442 49.9443L47.3766 49.823C47.4051 49.8106 47.4335 49.7983 47.4621 49.7859L47.5119 49.7662C47.9247 49.6002 48.0746 49.6114 48.5297 49.5903Z" fill="#D6B77D"/>
<path d="M48.5295 49.5902L48.7659 49.5217C49.0679 49.8837 48.9188 50.3211 48.6684 50.6668L48.5388 50.5263C48.2376 50.4807 48.2842 50.5291 47.9534 50.7256L47.7588 50.5008C48.1835 50.407 48.3127 50.1254 48.6244 49.7479L48.5295 49.5902Z" fill="#ECD292"/>
<path d="M45.1343 48.874L45.5491 48.955C45.7373 49.4565 45.1988 49.7312 45.0705 50.1578C44.9369 50.1869 44.9118 50.2083 44.7881 50.1534C44.8346 49.5925 44.9256 49.3781 45.1343 48.874Z" fill="#E2C481"/>
<path d="M47.9536 50.7257C48.2844 50.5292 48.2378 50.4808 48.539 50.5264L48.6686 50.6669C48.3101 51.4307 48.078 51.1395 47.9508 51.4941L47.8804 51.466C47.8937 51.1929 47.9165 50.9961 47.9536 50.7257Z" fill="#C7A266"/>
<path d="M37.228 53.2633C37.5492 53.133 39.3704 52.4364 39.578 52.4693C39.5405 52.6684 39.2562 52.799 39.0438 52.9466L39.074 53.052C39.9499 53.2088 40.5908 52.7551 41.5273 52.7172C41.7747 52.5871 42.1977 52.5352 42.4868 52.4846C42.3342 53.393 42.1611 53.4974 41.5418 54.165C41.3353 54.2237 41.3802 54.1771 41.2848 54.3216L41.2221 54.3466C40.7438 54.5329 40.5559 54.4573 40.093 54.2561C39.7981 54.5097 39.4606 54.8567 39.0939 54.9409C38.8251 54.8558 38.9075 54.8874 38.7196 54.6122L38.5711 54.8502C38.1847 54.7053 38.404 54.5838 37.8973 54.5621L37.7745 54.5537C37.5353 54.2893 37.2916 53.9676 37.0675 53.6859C36.8244 53.5056 36.3689 53.3979 36.3731 53.0598C36.6835 53.018 36.9335 53.1488 37.228 53.2633Z" fill="#9FAE65"/>
<path d="M41.5273 52.7172C41.7748 52.5871 42.1978 52.5352 42.4869 52.4846C42.3343 53.3931 42.1612 53.4975 41.5419 54.165C41.3354 54.2237 41.3803 54.1772 41.2849 54.3216L41.2222 54.3466C40.7439 54.5329 40.556 54.4573 40.0931 54.2561C39.7909 54.1413 39.6535 53.9666 39.427 53.736L39.3818 53.4918C39.7891 53.0597 40.3727 53.6346 40.8626 53.501C41.0353 53.0645 41.0971 52.9979 41.4913 52.7405L41.5273 52.7172Z" fill="#F4DDAB"/>
<path d="M37.3706 53.6795C38.0897 53.6544 38.5676 53.6758 39.2679 53.8459L39.4271 53.736C39.6535 53.9666 39.7909 54.1413 40.0931 54.2561C39.7983 54.5097 39.4607 54.8567 39.094 54.9409C38.8253 54.8558 38.9076 54.8874 38.7197 54.6122C38.1799 54.2313 37.9482 54.1407 37.3706 53.6795Z" fill="#ECD292"/>
<path d="M27.5723 28.6551C27.9301 28.6429 28.3795 28.5887 28.6929 28.7353L28.641 28.9504C27.4025 28.9543 25.1041 29.2726 24.6328 30.6143C24.2683 31.6523 24.5302 33.6716 23.6504 34.4456C23.9719 33.784 24.2783 31.1819 24.6644 30.0583C25.2083 29.4678 26.7572 28.6317 27.5723 28.6551Z" fill="#EBE0CA"/>
<path d="M23.6431 40.7596C24.1658 41.2198 23.8025 41.2208 24.38 41.8331L24.4473 41.8055L24.4946 41.6202C24.5773 41.7739 24.5643 41.7819 24.6066 41.8938C24.8963 42.6611 26.5093 43.6709 26.9858 44.3968C26.8793 44.5619 26.9398 44.8479 26.9597 45.0533L26.8656 45.0616C26.5136 44.761 26.3586 44.5139 26.0943 44.1417L25.392 43.4551C25.1619 43.2283 24.278 42.0556 23.9891 41.6905L23.6431 40.7596Z" fill="#EBE0CA"/>
<path d="M29.4353 28.7936L29.5582 28.7241C29.7556 29.1045 29.5898 29.3309 29.8551 29.6142L30.0049 29.639C30.1651 29.2277 29.9825 29.1605 30.2012 28.8974L30.3906 28.9094C30.3871 29.0067 30.389 29.0819 30.3615 29.1765C30.1291 29.9754 30.4461 30.8405 30.3161 31.6961L30.2263 31.7085C29.45 30.1778 30.7507 30.435 28.6411 28.9504L28.6929 28.7353C28.8895 28.8035 29.0021 28.8704 29.1719 28.9902C29.3279 28.9271 29.3356 28.9365 29.4353 28.7936Z" fill="#9FAE65"/>
<path d="M28.7625 46.9202C29.2631 47.4847 29.2998 48.7762 29.3692 49.5326L29.051 48.9947C28.8047 48.2053 28.6785 47.8741 28.7577 47.0481L28.7625 46.9202Z" fill="#EBE0CA"/>
<path d="M32.7275 37.9491C33.1048 37.9216 34.0459 38.2542 34.4209 38.2372C35.944 38.151 36.987 37.6178 38.5104 38.2546C41.48 39.4959 42.6354 43.1736 41.4788 46.0492C41.0564 47.0995 39.7097 48.8792 38.668 49.299C36.2108 50.5874 33.9359 49.5194 31.8276 48.1444C29.1818 46.4187 29.1127 41.7507 30.5554 39.2668C30.9967 38.5072 31.907 38.0944 32.7275 37.9491Z" fill="#EBE0CA"/>
<path d="M35.4605 38.9156C38.2198 38.5724 40.7295 40.545 41.0479 43.3072C41.3663 46.0694 39.3712 48.5613 36.6062 48.8548C33.8763 49.1447 31.4228 47.1802 31.1083 44.4529C30.794 41.7257 32.7362 39.2546 35.4605 38.9156Z" fill="#FEB204"/>
<path d="M34.4125 40.6336C34.8268 40.1766 35.7755 39.9869 36.3675 39.9785C39.9321 39.9284 42.0389 43.5694 39.445 46.3542C38.7967 47.0501 37.5144 47.7259 36.5469 47.7009C35.4002 48.4869 32.7728 45.9925 32.5407 44.8674C32.4654 44.5018 32.8101 43.54 32.5272 42.9179C32.3943 42.6255 33.2426 41.4598 33.46 41.2068C33.7716 40.8567 33.9144 40.6716 34.4125 40.6336Z" fill="#FED803"/>
<path d="M36.5469 47.7009C35.4002 48.4869 32.7728 45.9925 32.5407 44.8673C32.4654 44.5018 32.8101 43.54 32.5272 42.9178C32.3943 42.6255 33.2426 41.4597 33.46 41.2068C33.7716 40.8566 33.9144 40.6716 34.4125 40.6335L34.3733 40.6788C33.8618 41.26 33.3563 41.5335 33.1429 42.4409C33.4286 42.2291 33.822 41.4054 34.0848 41.0652C34.0892 41.3012 33.8834 41.7065 33.7802 41.9401C32.9154 43.8962 33.0277 44.8259 34.4605 46.3667C34.1095 46.1201 33.8261 45.9166 33.5199 45.6137C33.5979 46.4296 35.3481 47.4859 36.0939 47.7065L36.4462 47.6249L36.5469 47.7009Z" fill="#FDBB00"/>
<path d="M37.6663 42.2455C38.2817 42.5812 38.827 43.3091 39.3613 43.7805C39.2279 43.6629 39.5143 45.7386 39.5411 45.8654L38.7043 44.6888C38.2522 44.3717 37.8697 44.1096 37.6767 43.5885C37.8289 43.4905 38.1924 44.0704 38.6047 44.102C39.0149 43.404 37.7536 42.8253 37.6663 42.2455Z" fill="#AAB119"/>
<path d="M31.7489 35.4832C31.3171 34.9271 30.6104 34.3245 29.9912 33.99C30.5015 34.1763 31.5528 34.8082 31.6661 34.803C31.6525 34.5674 31.5873 34.4373 31.5022 34.2218C31.7623 34.2459 33.27 36.9585 33.2927 37.2434L33.182 37.2786C31.8865 36.3625 32.975 36.1386 31.2049 35.7585C31.3339 35.6586 31.5915 35.5545 31.7489 35.4832Z" fill="#9FAE65"/>
<path d="M26.007 37.0519L26.0956 37.1314C26.2294 37.9753 26.7985 40.1645 26.8289 40.757L26.7641 40.8116C26.4837 40.4988 26.323 40.0216 26.1597 39.6254C26.0219 39.3232 25.0393 37.7779 25.0586 37.547C25.4589 37.9449 25.6167 38.2613 25.8957 38.7448C25.9481 38.1816 25.9852 37.6171 26.007 37.0519Z" fill="#9FAE65"/>
<path d="M32.9669 49.9957C34.017 50.5606 34.3078 50.4068 35.5256 50.4037C34.912 50.6497 34.1388 50.9035 33.4888 51.0079C33.2466 51.1084 33.0174 51.1898 32.7706 51.2771L32.6902 51.2161L33.0696 50.697L33.0361 50.6057C32.8001 50.6337 32.3122 50.6965 32.1755 50.4511C32.5537 50.3193 32.6832 50.2771 32.9669 49.9957Z" fill="#A5BF8B"/>
<path d="M31.2049 35.7585C30.9306 35.6871 30.5224 35.516 30.2454 35.4092C30.8373 35.3537 31.1609 35.5871 31.7489 35.4832C31.5916 35.5545 31.3339 35.6587 31.2049 35.7585Z" fill="#A5BF8B"/>
<path d="M44.1165 63.4402C45.1525 63.145 46.6411 62.7993 47.599 62.4314C51.7522 60.8812 55.4237 58.2642 58.2439 54.844C58.6851 54.3179 59.7417 53.0234 60.0267 52.456C60.6628 51.1894 61.4455 49.9295 61.9371 48.6112C62.0918 48.2942 62.3202 48.0015 62.4229 47.6595C62.7431 46.5925 63.019 45.5163 63.2449 44.4254C63.3507 43.9148 63.2934 43.1018 63.6481 42.7485C63.5871 41.9616 63.5966 41.2631 63.6429 40.4791C64.4086 40.7892 64.0045 41.9766 63.9388 42.5317C62.8596 51.6574 56.5594 59.3298 48.053 62.6253C47.3569 62.895 44.6555 63.8033 44.0297 63.6664C43.7177 63.9749 43.2476 63.8008 42.8993 63.8214C42.5605 63.8415 42.3734 64.0978 41.958 64.0109C42.7422 63.5275 43.2326 63.4415 44.1165 63.4402Z" fill="#F5F2EF"/>
<path d="M35.833 63.569C36.3677 63.5374 38.1103 63.7676 38.7754 63.8047C39.5407 63.8473 40.807 63.7858 41.4624 63.8511C40.9519 64.186 40.6012 64.151 40.0182 64.1392C39.8748 64.2092 37.4721 64.1368 37.1481 64.115C37.1059 64.0479 36.9791 63.8615 36.9208 63.8715C36.3201 63.9749 36.0787 64.1299 35.4731 63.9415C36.1679 63.6983 36.072 64.0496 36.5604 63.9431L36.6308 63.7735C36.502 63.662 36.0261 63.6036 35.833 63.569Z" fill="#F5F2EF"/>
<path d="M47.5154 54.1679C48.3473 53.817 49.6254 52.8144 50.1483 52.6721C49.3482 53.4186 48.1002 54.0522 47.1277 54.5793C47.2555 54.3994 47.3565 54.3162 47.5154 54.1679Z" fill="#F4DDAB" fill-opacity="0.858824"/>
</g>
<defs>
<clipPath id="clip0_8_2">
<rect width="84" height="84" fill="white"/>
</clipPath>
</defs>
</svg>
