<svg width="92" height="92" viewBox="0 0 92 92" fill="none" xmlns="http://www.w3.org/2000/svg">
<path d="M47.9808 29.4196C48.3046 29.4864 48.6435 29.5561 48.928 29.6551C49.503 29.8603 50.8547 30.7023 51.4143 30.1953C52.5898 29.1304 52.0962 26.1885 54.3588 26.3884C55.6953 26.5065 55.4221 28.7454 55.6479 28.9302C58.3619 28.2904 57.4298 30.2277 57.88 31.3601C58.2247 31.3545 58.6923 30.6849 58.9778 30.5434C61.4816 29.3022 62.2591 32.2656 61.4534 34.1023C62.0695 33.8498 62.2205 33.7929 62.8433 34.0508C62.9457 34.0933 63.0461 34.1405 63.1443 34.1921C63.6537 34.9232 63.4771 34.9288 63.7478 35.6818C64.0332 35.6927 64.5621 35.5766 64.8633 35.5185C66.1917 35.2626 68.1376 35.9435 68.1211 37.5371C68.6269 37.7175 72.0433 35.0452 70.2481 39.673C70.0591 40.1602 69.3142 41.4737 69.2449 41.8872C69.998 42.8876 69.6991 45.1706 69.4963 46.3368C67.1105 60.0458 56.2403 67.7601 42.3675 65.6277C31.1392 63.9018 23.1815 56.4251 22.3329 44.8421C22.3006 44.2474 22.1572 42.7333 22.4302 42.2333C22.4437 41.7044 19.9919 38.9679 21.3647 38.1473C21.8044 37.8845 22.1631 37.9564 22.6376 38.0675C22.9427 37.9534 23.0062 37.9321 23.2766 37.7382C23.4055 37.3044 23.0493 36.0471 23.143 35.4167C23.2102 34.965 23.2665 34.2387 23.7082 33.9276C25.0432 32.9877 25.8751 34.3082 27.0629 34.7827C27.3445 34.8952 27.9948 34.9408 28.2929 34.9673C28.3535 31.3054 30.2786 30.4771 33.6726 30.6681C33.9368 30.683 35.4014 31.0761 35.5419 30.9763C36.0261 30.6326 36.5166 30.0603 37.1366 29.9028C38.4088 29.4786 40.5652 29.8872 40.9525 31.3837C41.9217 30.8046 42.6758 30.6567 42.9745 32.0672C43.2478 32.8685 43.4553 33.8035 43.6595 34.6339C44.3035 34.9272 44.7863 35.1654 45.2906 35.6834C45.583 34.6425 45.8433 34.1821 46.7695 33.6275C46.3461 32.9486 46.2457 32.275 46.2521 31.5041C46.4774 30.3148 46.8541 29.8761 47.9434 29.4343L47.9808 29.4196Z" fill="#F8F8F8"/>
<path d="M47.9808 29.4196C48.3046 29.4864 48.6436 29.5561 48.928 29.6551C49.503 29.8603 50.8547 30.7023 51.4144 30.1953C52.5899 29.1304 52.0963 26.1885 54.3588 26.3884C55.6953 26.5065 55.4221 28.7454 55.648 28.9302C58.3619 28.2904 57.4299 30.2277 57.8801 31.3601C58.2247 31.3545 58.6923 30.6849 58.9779 30.5434C61.4816 29.3022 62.2591 32.2656 61.4534 34.1023C62.0696 33.8498 62.2205 33.7929 62.8433 34.0508C62.9457 34.0933 63.0462 34.1405 63.1444 34.1921C63.6538 34.9232 63.4771 34.9288 63.7478 35.6818C64.0333 35.6927 64.5622 35.5766 64.8633 35.5185C66.1918 35.2626 68.1376 35.9435 68.1212 37.5371C68.627 37.7175 72.0434 35.0452 70.2481 39.673C70.0592 40.1602 69.3142 41.4737 69.2449 41.8872C68.9309 42.0579 68.399 43.0315 68.1748 43.4065C63.831 48.9082 54.6834 50.966 47.9651 50.8497C47.6232 48.3506 44.8755 46.8134 49.6172 46.9009C49.213 46.4703 48.7537 45.4926 48.4728 44.9304C48.3255 44.3242 48.1819 43.8058 48.1388 43.1811C48.156 42.917 48.1122 42.5113 48.0908 42.2358C47.142 41.8502 46.2627 40.5607 45.7621 39.6982C45.13 38.1071 44.9491 37.4321 45.2906 35.6834C45.5831 34.6425 45.8433 34.1821 46.7695 33.6275C46.3462 32.9486 46.2457 32.275 46.2521 31.5041C46.4775 30.3148 46.8542 29.8761 47.9434 29.4343L47.9808 29.4196Z" fill="#87C92D"/>
<path d="M47.9808 29.4196C48.3046 29.4864 48.6436 29.5561 48.928 29.6551C49.503 29.8603 50.8547 30.7023 51.4144 30.1953C52.5899 29.1304 52.0963 26.1885 54.3588 26.3884C55.6953 26.5065 55.4221 28.7454 55.648 28.9302C58.3619 28.2904 57.4299 30.2277 57.8801 31.3601C58.2247 31.3545 58.6923 30.6849 58.9779 30.5434C61.4816 29.3022 62.2591 32.2656 61.4534 34.1023C61.2383 34.3246 60.6543 34.8942 60.5909 35.1616L60.5172 36.8706C58.6631 37.7001 58.1801 38.2464 56.7742 39.7669C56.5554 40.1912 56.2404 40.7409 56.1307 41.1917C55.5686 41.0478 55.0092 40.8011 54.4678 40.6658C51.0232 39.8052 48.6589 36.4095 48.0908 42.2358C47.142 41.8502 46.2627 40.5607 45.7621 39.6982C45.13 38.1071 44.9491 37.4321 45.2906 35.6834C45.5831 34.6425 45.8433 34.1821 46.7695 33.6275C46.3462 32.9486 46.2457 32.275 46.2521 31.5041C46.4775 30.3148 46.8542 29.8761 47.9434 29.4343L47.9808 29.4196Z" fill="#87C92D"/>
<path d="M47.9809 29.4196C48.3047 29.4864 48.6437 29.5561 48.9281 29.6551C49.5031 29.8603 50.8548 30.7023 51.4145 30.1953C52.59 29.1304 52.0964 26.1885 54.3589 26.3884C55.6954 26.5065 55.4222 28.7454 55.6481 28.9302C58.362 28.2904 57.43 30.2277 57.8802 31.3601C58.2248 31.3545 58.6924 30.6849 58.978 30.5434C61.4817 29.3022 62.2592 32.2656 61.4535 34.1023C61.2384 34.3246 60.6544 34.8942 60.591 35.1616C60.5816 34.3768 60.1476 32.7694 59.3267 32.4479C59.0162 32.4168 58.7756 32.6136 58.4998 32.7811L57.7061 33.1713C58.3341 34.11 58.5716 34.6831 58.5896 35.837C57.669 35.5369 56.2031 34.2143 55.0816 34.0048C53.9535 33.7941 53.3017 34.0408 52.3758 34.6057C51.5415 33.5093 48.967 33.4551 48.3641 34.4691C48.0159 33.8713 47.4618 33.5489 46.7696 33.6275C46.3463 32.9486 46.2459 32.275 46.2522 31.5041C46.4776 30.3148 46.8543 29.8761 47.9435 29.4343L47.9809 29.4196Z" fill="#59A22F"/>
<path d="M58.4997 32.7811C58.7754 32.6137 59.0161 32.4168 59.3265 32.448C60.1475 32.7694 60.5815 34.3768 60.5909 35.1616L60.5172 36.8706C58.6631 37.7002 58.1801 38.2464 56.7742 39.7669C54.6385 39.5277 53.4842 38.6607 52.2734 36.9447C52.5283 36.6757 52.883 36.3756 53.1646 36.1236C53.3061 35.9579 53.4198 35.8969 53.5989 35.7777C54.337 35.9067 57.3651 39.9646 58.5895 35.8371C58.5715 34.6831 58.3339 34.11 57.7059 33.1713L58.4997 32.7811Z" fill="#D6628D"/>
<path d="M58.4999 32.7811C61.2168 36.6839 57.4819 41.2315 53.1648 36.1236C53.3063 35.9579 53.42 35.8969 53.5991 35.7777C54.3372 35.9067 57.3653 39.9646 58.5897 35.8371C58.5717 34.6831 58.3341 34.11 57.7061 33.1713L58.4999 32.7811Z" fill="#F8F8F8"/>
<path d="M48.364 34.4691C48.967 33.4551 51.5414 33.5093 52.3757 34.6057C49.9067 36.4547 50.0661 38.6234 48.364 34.4691Z" fill="#307E30"/>
<path d="M48.0908 42.2358C48.659 36.4095 51.0232 39.8052 54.4678 40.6658C55.0092 40.8011 55.5686 41.0478 56.1308 41.1917L57.0484 41.4522C58.2645 41.6687 59.4676 41.9437 60.6836 42.168C61.3647 42.4679 62.0438 42.5385 62.744 42.8061C62.7344 43.7849 62.3293 44.9367 61.6284 45.6253C61.0588 46.185 60.7176 46.2236 59.9701 46.2036C59.8959 46.2015 59.8219 46.1983 59.7479 46.1941C59.2271 45.8757 59.083 45.7777 58.6352 45.3563C58.2663 44.9578 57.8365 44.5788 57.4356 44.2097C56.1718 43.7254 55.4912 43.8455 54.4902 44.7506C54.0843 45.3328 53.8084 45.77 53.4542 46.3853C52.5782 47.7913 50.9614 47.2212 49.6173 46.9009C49.2131 46.4703 48.7538 45.4926 48.4728 44.9304C48.3256 44.3242 48.1819 43.8058 48.1389 43.1811C48.156 42.917 48.1123 42.5112 48.0908 42.2358Z" fill="#FE2A1B"/>
<path d="M53.4542 46.3853C53.0261 46.178 51.9467 45.4597 51.6885 45.0882C51.0914 44.2283 50.0909 41.4348 51.0708 40.6774C51.6549 40.5622 53.1427 41.3598 53.7097 41.6533C51.9522 43.0175 52.8541 43.8754 54.4901 44.7506C54.0842 45.3328 53.8083 45.77 53.4542 46.3853Z" fill="#CD1B34"/>
<path d="M53.1688 44.5589C53.3495 44.5545 53.5103 44.5727 53.689 44.5887C53.9193 44.762 53.862 44.6655 53.9042 44.9484C53.8003 45.2833 53.5781 45.4352 53.3145 45.6699C53.1192 45.7383 53.0807 45.7284 52.8697 45.7274C52.481 45.3714 52.9066 44.8741 53.1688 44.5589Z" fill="#F9C874"/>
<path d="M51.6012 42.6678C52.0216 42.5915 52.3824 42.7294 52.4788 43.1599C52.3815 43.3819 52.3386 43.3843 52.1125 43.5081C51.7231 43.496 51.2303 43.5393 51.0845 43.1141C51.2762 42.7892 51.2377 42.8773 51.6012 42.6678Z" fill="#F9C874"/>
<path d="M53.7099 41.6534C54.2434 41.7791 56.7584 42.7048 57.2971 42.947C57.3674 43.3938 57.4334 43.7529 57.4357 44.2097C56.172 43.7254 55.4913 43.8456 54.4903 44.7507C52.8543 43.8754 51.9524 43.0176 53.7099 41.6534Z" fill="#FE6060"/>
<path d="M57.2969 42.9469C57.8531 42.9996 58.9282 43.0833 59.3891 43.328C60.0904 43.7003 58.8017 45.0571 58.6351 45.3563C58.2663 44.9578 57.8365 44.5788 57.4355 44.2097C57.4333 43.7528 57.3672 43.3938 57.2969 42.9469Z" fill="#CD1B34"/>
<path d="M60.5174 36.8706C62.2373 36.6257 64.0313 36.6315 64.2173 38.8621C64.333 40.2484 63.5578 41.7132 62.7441 42.8062C62.0439 42.5385 61.3648 42.4679 60.6837 42.1681C59.4677 41.9437 58.2646 41.6687 57.0485 41.4522L56.1309 41.1917C56.2406 40.7409 56.5555 40.1912 56.7743 39.7669C58.1803 38.2464 58.6633 37.7002 60.5174 36.8706Z" fill="#E7FDAE"/>
<path d="M60.5174 36.8706C62.2373 36.6257 64.0313 36.6315 64.2173 38.8621C64.333 40.2484 63.5578 41.7132 62.7441 42.8062C62.0439 42.5385 61.3648 42.4679 60.6837 42.1681C61.1063 41.9005 61.501 41.7236 61.8329 41.3384C62.844 40.1647 64.048 38.4328 61.9446 37.7101C59.6591 38.1345 58.1241 39.3965 57.0485 41.4522L56.1309 41.1917C56.2406 40.7409 56.5555 40.1912 56.7743 39.7669C58.1803 38.2464 58.6633 37.7002 60.5174 36.8706Z" fill="#307E30"/>
<path d="M28.2929 34.9674C28.3535 31.3054 30.2786 30.4772 33.6726 30.6682C33.9368 30.683 35.4014 31.0762 35.5419 30.9763C36.0261 30.6327 36.5166 30.0604 37.1366 29.9028C38.4088 29.4786 40.5652 29.8872 40.9525 31.3838C41.9217 30.8046 42.6758 30.6568 42.9745 32.0672C43.2478 32.8685 43.4553 33.8035 43.6595 34.634C43.7414 39.2225 42.3232 40.2981 38.1989 41.7585C38.4919 42.2783 38.8398 42.5116 39.0021 42.7787C39.1712 43.0818 39.432 43.5855 39.636 43.8451C39.8203 44.3177 40.145 44.9308 40.2856 45.3432C38.1581 45.9844 37.0141 46.8308 35.9919 48.8466C35.9484 48.9326 35.9453 48.9291 35.9221 49.027L35.8193 49.4798C35.455 49.4336 34.245 49.0664 33.9063 48.9169C32.8465 48.7092 29.9038 47.4628 28.8335 46.9593L28.2498 46.6082C27.8563 46.4587 26.9263 45.8327 26.56 45.5804C25.7762 45.236 24.4156 44.0579 23.7391 43.4808C23.5363 43.1786 22.7338 42.477 22.4302 42.2333C22.4437 41.7044 19.9919 38.9679 21.3647 38.1473C21.8044 37.8845 22.1631 37.9565 22.6376 38.0675C22.9427 37.9534 23.0062 37.9321 23.2766 37.7382C23.4055 37.3044 23.0493 36.0471 23.143 35.4168C23.2102 34.965 23.2665 34.2387 23.7082 33.9276C25.0432 32.9878 25.8751 34.3083 27.0629 34.7827C27.3445 34.8952 27.9948 34.9409 28.2929 34.9674Z" fill="#87C92D"/>
<path d="M40.9526 31.3838C41.9218 30.8046 42.6759 30.6568 42.9746 32.0672C43.2479 32.8685 43.4554 33.8035 43.6596 34.634C43.7415 39.2225 42.3233 40.2981 38.199 41.7585C36.896 40.9172 36.4829 40.9766 35.0329 41.2379C34.7563 40.5153 34.1519 39.3506 33.7956 38.6062C33.4517 37.8229 33.0737 37.1629 32.6579 36.4199C32.3734 35.9627 32.1903 35.7062 31.8608 35.2846C32.7038 35.142 34.406 34.5883 35.1648 34.1985C35.4213 34.1516 35.8804 33.942 36.1412 33.8331C36.4351 33.7016 36.731 33.5469 37.0191 33.4014C38.4588 32.7501 39.5864 32.1621 40.9526 31.3838Z" fill="#FE2A1B"/>
<path d="M38.2961 33.9675C39.1283 33.5445 40.2191 33.0473 41.0849 32.7334C41.2775 33.481 41.3142 33.7416 41.2667 34.5421L41.2548 35.2162C41.42 35.8087 41.1901 36.5666 40.9017 37.087C40.3347 38.1214 39.3749 38.8838 38.2391 39.2022C37.1551 39.498 35.3859 39.6132 34.5471 38.7544L34.1165 38.3843L33.7956 38.6062C33.4517 37.8229 33.0738 37.1629 32.658 36.4199C33.1694 36.1416 35.1698 35.3952 35.7518 35.281C36.4823 34.6508 37.373 34.2245 38.2961 33.9675Z" fill="#CD1B34"/>
<path d="M38.2961 33.9675C39.1314 34.3746 39.366 34.6477 40.0876 35.2143C39.7584 35.8667 39.6338 36.0502 39.0071 36.4275C37.4935 37.3388 34.3005 38.5393 35.7518 35.281C36.4823 34.6507 37.3729 34.2245 38.2961 33.9675Z" fill="#FE6060"/>
<path d="M34.1165 38.3843C34.1929 37.8321 34.2952 37.3899 34.9116 37.3084C35.6862 37.7611 35.2019 38.511 34.5471 38.7544L34.1165 38.3843Z" fill="#F9C874"/>
<path d="M41.2549 35.2162C40.8446 35.2269 40.5371 35.2955 40.2054 35.0776C40.0169 34.8161 40.0508 34.9355 40.0635 34.6306C40.4817 34.159 40.7738 34.2259 41.2667 34.5421L41.2549 35.2162Z" fill="#F9C874"/>
<path d="M37.0588 37.4935C37.8688 37.6464 37.6822 38.6797 37.3455 39.202C36.4232 38.8282 36.5817 38.1591 37.0588 37.4935Z" fill="#F9C874"/>
<path d="M39.2919 36.4315C40.0917 36.5794 40.4448 36.9563 40.1419 37.7732C39.4245 37.6543 38.9963 37.1718 39.2919 36.4315Z" fill="#F9C874"/>
<path d="M28.2929 34.9674C28.3536 31.3054 30.2786 30.4772 33.6727 30.6682C33.9368 30.683 35.4014 31.0762 35.542 30.9763C36.0261 30.6327 36.5167 30.0604 37.1367 29.9028C38.4089 29.4786 40.5652 29.8872 40.9525 31.3838C39.5864 32.1621 38.4587 32.7501 37.0191 33.4014C36.7309 33.5469 36.435 33.7017 36.1411 33.8331C35.8803 33.942 35.4213 34.1516 35.1647 34.1985C34.406 34.5883 32.7038 35.142 31.8608 35.2846C29.7873 33.8044 29.0714 36.1251 28.3002 37.4845C27.658 36.9118 25.9842 35.3926 25.1944 36.4151C24.5205 37.2874 24.9729 39.0823 25.0895 40.1292C24.4828 39.9815 23.8804 39.2248 23.2626 38.7723C22.9077 38.496 22.8402 38.4699 22.6377 38.0675C22.9427 37.9534 23.0062 37.9321 23.2767 37.7382C23.4056 37.3044 23.0494 36.0471 23.1431 35.4168C23.2103 34.965 23.2665 34.2387 23.7083 33.9276C25.0433 32.9878 25.8751 34.3083 27.0629 34.7827C27.3445 34.8952 27.9948 34.9409 28.2929 34.9674Z" fill="#59A22F"/>
<path d="M31.3377 33.2921L31.3304 33.2495C31.2885 33.0149 31.1141 32.7105 31.2748 32.5401C32.8184 30.9016 35.8867 31.6819 37.019 33.4014C36.7309 33.5469 36.4349 33.7016 36.1411 33.8331C35.8802 33.942 35.4212 34.1516 35.1646 34.1985C34.1544 33.1108 32.9931 33.5628 31.7541 33.6525C31.5579 33.6667 31.453 33.451 31.3377 33.2921Z" fill="#D6628D"/>
<path d="M31.3379 33.2922C32.0651 32.7737 32.1698 32.7809 33.0213 32.5564C33.8391 32.3407 36.0207 32.834 36.1413 33.8331C35.8805 33.942 35.4215 34.1516 35.1649 34.1985C34.1547 33.1109 32.9933 33.5629 31.7543 33.6525C31.5581 33.6667 31.4533 33.451 31.3379 33.2922Z" fill="#F8F8F8"/>
<path d="M28.418 45.122C28.6792 43.7655 29.4783 42.9652 30.9375 43.2722C32.6096 43.624 33.7447 45.0984 34.6654 46.4149C35.306 47.3307 35.4667 48.1197 35.9223 49.027L35.8196 49.4798C35.4552 49.4335 34.2452 49.0663 33.9065 48.9168C32.8467 48.7092 29.9041 47.4627 28.8338 46.9592L28.7085 46.1534C28.6522 46.0871 28.5911 45.5015 28.418 45.122Z" fill="#307E30"/>
<path d="M28.7085 46.1535C29.1895 41.8084 33.3646 47.1938 33.9065 48.9169C32.8467 48.7092 29.904 47.4628 28.8337 46.9593L28.7085 46.1535Z" fill="#E7FDAE"/>
<path d="M22.4302 42.2333C22.4437 41.7044 19.9919 38.968 21.3647 38.1473C21.8044 37.8845 22.1631 37.9565 22.6376 38.0675C22.8401 38.4699 22.9076 38.496 23.2626 38.7724C23.8804 39.2248 24.4828 39.9815 25.0895 40.1292C25.1859 40.4944 25.3478 40.8929 25.2234 41.2205C25.4834 41.7398 25.9733 43.2018 25.8597 43.7348C26.3119 44.4147 26.4294 44.7837 26.56 45.5805C25.7762 45.236 24.4156 44.0579 23.7391 43.4808C23.5363 43.1787 22.7338 42.477 22.4302 42.2333Z" fill="#307E30"/>
<path d="M23.2626 38.7723C23.8804 39.2248 24.4828 39.9815 25.0895 40.1292C25.1859 40.4944 25.3478 40.8929 25.2234 41.2205C25.4835 41.7398 25.9733 43.2018 25.8597 43.7348C24.7416 42.6407 23.6834 41.4894 22.7368 40.2397C22.4095 39.8075 22.0116 39.2446 22.3828 38.7536C22.7538 38.6632 22.7277 38.9511 23.2626 38.7723Z" fill="#E7FDAE"/>
<path d="M23.2627 38.7723C23.8804 39.2248 24.4828 39.9815 25.0895 40.1292C25.1859 40.4944 25.3478 40.8929 25.2235 41.2205C24.3505 40.1347 23.6204 39.3776 22.3828 38.7536C22.7539 38.6632 22.7277 38.9511 23.2627 38.7723Z" fill="#46922F"/>
<path d="M28.4179 45.1221C28.591 45.5016 28.6521 46.0872 28.7085 46.1535L28.8337 46.9593L28.25 46.6082C28.2727 46.0344 28.2708 45.6836 28.4179 45.1221Z" fill="#307E30"/>
<path d="M68.1749 43.4066C68.3991 43.0315 68.931 42.0579 69.245 41.8872C69.9981 42.8876 69.6993 45.1706 69.4964 46.3368C67.1106 60.0458 56.2404 67.7601 42.3676 65.6277C31.1393 63.9018 23.1816 56.4251 22.333 44.8421C22.3008 44.2474 22.1574 42.7333 22.4303 42.2333C22.7339 42.4769 23.5365 43.1786 23.7393 43.4808C23.5566 43.8141 23.7193 44.6854 23.7522 45.0815C24.0056 48.1278 24.8733 51.0166 26.4357 53.6528C29.3353 58.529 34.0705 62.0374 39.5797 63.3914C52.2594 66.599 63.9926 61.6339 67.4818 48.1813C67.6604 47.4926 68.4302 43.835 68.1749 43.4066Z" fill="#D7D6D6"/>
<path d="M43.6595 34.634C44.3035 34.9272 44.7863 35.1654 45.2906 35.6834C44.9491 37.4322 45.13 38.1072 45.7621 39.6983C46.2627 40.5607 47.142 41.8502 48.0908 42.2358C48.1122 42.5113 48.156 42.917 48.1388 43.1812C48.1819 43.8059 48.3255 44.3242 48.4728 44.9304C48.7537 45.4927 49.213 46.4703 49.6172 46.901C44.8755 46.8135 47.6232 48.3507 47.9651 50.8497L46.0998 50.8401C45.2952 49.2484 44.8075 49.0787 43.5865 48.0573C43.3897 48.004 42.9119 47.7753 42.7016 47.6805L42.9821 47.5857C43.1736 47.3037 43.112 47.3252 43.1274 46.9286C43.29 46.6439 43.3142 46.5663 43.4088 46.2532C43.1707 45.206 41.1452 45.2793 40.2856 45.3432C40.145 44.9308 39.8203 44.3177 39.636 43.8451C39.4321 43.5855 39.1713 43.0818 39.0021 42.7787C38.8398 42.5116 38.492 42.2783 38.199 41.7585C42.3233 40.2981 43.7414 39.2225 43.6595 34.634Z" fill="#307E30"/>
<path d="M43.6595 34.634C44.3035 34.9272 44.7863 35.1654 45.2906 35.6834C44.9491 37.4322 45.13 38.1072 45.7621 39.6983C46.2627 40.5607 47.142 41.8502 48.0908 42.2358C48.1122 42.5113 48.156 42.917 48.1388 43.1812C48.1819 43.8059 48.3255 44.3242 48.4728 44.9304C48.3912 44.9644 47.7769 45.1492 47.7168 45.1491C47.27 45.1336 46.3108 45.9376 46.22 45.2633C45.7105 41.4809 41.785 39.859 39.0021 42.7787C38.8398 42.5116 38.492 42.2783 38.199 41.7585C42.3233 40.2981 43.7414 39.2225 43.6595 34.634Z" fill="#59A22F"/>
<path d="M45.7621 39.6982C46.2627 40.5607 47.142 41.8502 48.0908 42.2358C48.1122 42.5112 48.156 42.917 48.1388 43.1811C46.8242 43.0004 45.5005 41.0244 45.7621 39.6982Z" fill="#307E30"/>
<path d="M39.636 43.8451C40.9633 42.4839 42.6803 42.05 44.1332 43.528C44.6807 44.0764 44.9755 44.8277 44.9467 45.6022C44.9213 46.4308 44.5682 47.2156 43.965 47.7843C43.8431 47.8974 43.7292 47.9729 43.5864 48.0574C43.3897 48.004 42.9119 47.7753 42.7015 47.6806L42.982 47.5857C43.1736 47.3037 43.112 47.3252 43.1273 46.9286C43.2899 46.6439 43.3142 46.5663 43.4088 46.2532C43.1707 45.206 41.1452 45.2793 40.2856 45.3432C40.145 44.9308 39.8203 44.3177 39.636 43.8451Z" fill="#E7FDAE"/>
<path d="M37.6333 50.0662L37.6564 50.0199C38.8492 47.673 40.1035 46.7874 42.7017 47.6805C42.912 47.7753 43.3898 48.004 43.5865 48.0573C44.8076 49.0787 45.2953 49.2484 46.0999 50.8401C43.0268 50.9781 40.5051 50.3102 37.6333 50.0662Z" fill="#87C92D"/>
<path d="M40.2856 45.3431C41.1452 45.2793 43.1707 45.2059 43.4088 46.2532C43.3142 46.5663 43.2899 46.6439 43.1273 46.9285C40.2507 45.8439 38.1463 47.2544 36.9941 49.8724C36.5241 49.6767 36.3168 49.6002 35.8193 49.4798L35.9221 49.027C35.9453 48.9291 35.9484 48.9326 35.9919 48.8466C37.0141 46.8308 38.1581 45.9843 40.2856 45.3431Z" fill="#D6628D"/>
<path d="M42.9746 32.0672C43.87 31.7423 44.5644 31.6873 45.5087 31.9683C45.7794 32.0488 45.8979 32.2142 46.158 32.2044L46.2522 31.5042C46.2458 32.275 46.3463 32.9486 46.7696 33.6275C45.8434 34.1821 45.5831 34.6425 45.2907 35.6834C44.7864 35.1654 44.3036 34.9272 43.6596 34.6339C43.4555 33.8035 43.2479 32.8685 42.9746 32.0672Z" fill="#307E30"/>
</svg>
