<svg width="74" height="74" viewBox="0 0 74 74" fill="none" xmlns="http://www.w3.org/2000/svg">
<path d="M27.4631 22.4331C28.8256 21.417 30.3619 20.6586 31.6653 22.3115C32.2784 23.0891 32.6108 25.2879 32.1726 26.1902C32.9855 26.1975 33.1932 26.2459 33.232 27.103C33.2901 27.5326 33.2874 27.672 33.2656 28.1023C33.9468 27.5498 34.9071 27.1807 35.7546 26.9571C36.4656 27.2795 37.8698 27.6751 38.2642 28.1878C38.1973 28.5142 38.4005 28.7625 38.4631 29.0756C38.6159 29.8392 38.5718 30.6496 38.2573 31.3672C38.1099 31.7032 37.4982 32.3368 37.1572 32.4645C35.8864 33.003 35.6387 32.9081 34.3495 32.4934C34.1844 33.1161 33.829 33.9459 33.8059 34.5526C33.7852 35.0956 33.7196 36.0417 33.7432 36.5661C33.2518 36.9244 32.6718 37.2009 32.158 37.544C31.8339 37.6938 31.6147 37.8155 31.307 37.9954C30.7181 38.4222 30.193 38.6676 29.5439 38.9881C29.4026 38.8484 29.2658 38.6871 29.1333 38.5377L29.0151 38.4543L28.8251 38.4906L28.5012 38.7091C28.2568 38.8121 27.9242 38.9402 27.6931 39.0538L27.9336 39.8267C26.8084 40.3253 25.6555 41.0885 24.5191 41.6175C24.4334 41.5193 23.3694 39.3595 23.3475 39.2197L23.0028 38.8633C22.8768 38.7372 22.69 38.6131 22.5425 38.5063L22.4395 38.1076C22.4485 38.2171 22.4255 38.2296 22.3663 38.3234C22.0533 38.4071 20.692 37.9357 20.6548 37.579C20.6225 37.5182 20.432 37.1501 20.4258 37.0964C20.2908 35.9283 20.0415 34.9559 19.6646 33.8417C19.2396 32.5853 18.4934 31.5079 18.0114 30.2936L17.5598 29.4372C15.2545 26.8873 17.766 23.8946 20.947 25.4398L21.0534 25.4077C21.7842 24.7799 21.8037 24.6664 22.7298 24.2367L23.0629 24.1241C24.2337 22.4805 25.4803 22.0405 27.4631 22.4331Z" fill="#FAB625"/>
<path d="M26.8161 30.6301C28.1011 30.0546 30.0182 29.9515 30.829 31.4555C30.9299 31.6425 31.0393 32.027 31.0122 32.2434C31.0747 32.5095 31.1266 32.6876 30.9536 32.9308L30.9607 32.9875C30.9916 33.2445 30.9783 33.3041 30.9231 33.5555L31.077 33.7014L31.0826 33.7737C31.2087 34.102 31.2313 34.1871 31.4836 34.4242C31.6922 35.3902 31.7885 35.7927 31.4765 36.8076C31.4604 36.8603 31.4653 36.8521 31.4609 36.9181C30.8718 37.8358 30.6757 37.9799 29.6155 38.3547C29.4584 38.4103 29.2565 38.4377 29.1333 38.5377L29.0151 38.4543L28.8252 38.4906L28.5013 38.7091C28.2569 38.8121 27.9243 38.9402 27.6932 39.0538L27.9337 39.8267C26.8085 40.3253 25.6556 41.0885 24.5191 41.6174C24.4335 41.5193 23.3695 39.3595 23.3475 39.2196L23.0029 38.8633C22.8769 38.7371 22.6901 38.613 22.5426 38.5063L22.4396 38.1076C22.3248 37.6088 22.3065 37.4246 22.2831 36.9124C22.3731 35.7536 22.8623 35.7661 22.8785 35.1676C23.1753 33.8994 22.7229 33.3079 21.418 33.4893C21.7735 30.8131 23.0183 30.2898 25.5201 30.556C26.0029 30.6609 26.3412 30.7928 26.8161 30.6301Z" fill="#FEDE6C"/>
<path d="M21.418 33.4894C21.7735 30.8132 23.0183 30.2898 25.5201 30.556C26.0558 30.8184 27.0021 31.3956 26.7595 32.1337C26.7123 32.2773 26.0381 32.7052 25.9036 32.7528L25.6193 31.8271C25.3525 31.9451 25.0378 32.0748 24.7817 32.2058C24.8875 32.4387 25.0527 32.7107 24.9862 32.945C24.6787 33.3429 24.2321 32.9824 24.2946 33.7166L24.3066 34.0224C24.7309 34.1899 24.9733 34.2791 25.1555 34.7164C25.2598 34.967 25.2248 35.5204 25.0686 35.7264C25.2436 35.9346 25.3348 36.3794 25.461 36.6588C25.8445 37.5081 26.7403 37.4097 27.3006 37.7359C27.5076 37.6547 27.6171 37.5828 27.8115 37.7622C28.2129 38.0875 28.6565 38.2028 28.8252 38.4906L28.5013 38.7091C28.2569 38.8121 27.9243 38.9402 27.6932 39.0538L27.9337 39.8267C26.8085 40.3253 25.6556 41.0885 24.5191 41.6175C24.4335 41.5193 23.3695 39.3595 23.3475 39.2197L23.0029 38.8633C22.8769 38.7372 22.6901 38.6131 22.5426 38.5063L22.4396 38.1076C22.3248 37.6088 22.3065 37.4246 22.2831 36.9125C22.3731 35.7537 22.8623 35.7662 22.8785 35.1677C23.1753 33.8994 22.7229 33.3079 21.418 33.4894Z" fill="#FEDE6C"/>
<path d="M27.3005 37.7358C27.5075 37.6546 27.6169 37.5827 27.8114 37.7621C28.2128 38.0874 28.6564 38.2028 28.8251 38.4905L28.5012 38.7091C28.2568 38.812 27.9241 38.9402 27.693 39.0538L27.9335 39.8266C26.8084 40.3253 25.6554 41.0885 24.519 41.6174C24.4333 41.5193 23.3694 39.3594 23.3474 39.2196C23.4226 39.2251 23.4979 39.2285 23.5732 39.2297C24.5158 39.2397 25.8913 39.1015 26.5956 38.4656C26.7636 38.3139 27.0896 37.9393 27.3005 37.7358Z" fill="#FAB625"/>
<path d="M24.3064 34.0223C24.7308 34.1899 24.9732 34.279 25.1553 34.7164C25.2597 34.9669 25.2246 35.5203 25.0685 35.7263C23.2171 36.9701 22.0592 34.5523 24.3064 34.0223Z" fill="#E3231F"/>
<path d="M23.9968 34.7009C24.1748 34.6471 24.3643 34.7387 24.4326 34.9117C24.5008 35.0847 24.4249 35.281 24.2581 35.3632C24.1374 35.4226 23.9935 35.4092 23.8858 35.3283C23.7782 35.2475 23.7252 35.1131 23.7487 34.9805C23.7721 34.848 23.868 34.7399 23.9968 34.7009Z" fill="#E3B04E"/>
<path d="M26.816 30.6301C28.101 30.0546 30.018 29.9515 30.8289 31.4555C30.9298 31.6425 31.0392 32.027 31.0121 32.2434C30.7703 32.2282 30.2255 32.1678 30.0266 32.2678C29.9044 31.7248 29.9187 31.16 29.2298 31.2208C28.9063 31.5237 29.0289 31.8549 29.1118 32.2696L29.0424 32.3297L28.9992 32.3225C28.7989 32.34 28.6061 32.3272 28.464 32.4509C28.2108 32.3693 28.1253 32.325 27.8613 32.3653L27.7507 32.4471C27.7452 32.6021 27.7237 32.5759 27.7876 32.6946C27.4719 32.6725 27.458 32.6224 27.212 32.7432C27.2362 32.9653 27.3813 33.0753 27.5661 33.2236C27.6658 33.3025 27.7665 33.3802 27.8682 33.4566L27.131 33.7189L26.8975 33.5939L26.8842 33.1846C26.5669 32.723 26.4058 33.0961 25.9414 32.9132L25.9035 32.7528C26.0379 32.7051 26.7122 32.2772 26.7594 32.1337C27.002 31.3955 26.0557 30.8184 25.52 30.556C26.0028 30.6609 26.3411 30.7928 26.816 30.6301Z" fill="#FEDE6C"/>
<path d="M25.52 30.556C26.0028 30.6609 26.3411 30.7928 26.816 30.6301C26.6926 30.7934 26.6077 30.8394 26.6511 31.0088C26.6912 31.1656 27.0053 32.0358 27.1581 32.0652C27.7044 32.1704 28.4419 32.2113 28.9992 32.3226C28.7989 32.34 28.6061 32.3272 28.464 32.4509C28.2108 32.3693 28.1253 32.325 27.8613 32.3653L27.7507 32.4471C27.7452 32.6022 27.7237 32.5759 27.7876 32.6947C27.4719 32.6725 27.458 32.6224 27.212 32.7432C27.2362 32.9653 27.3813 33.0754 27.5661 33.2236C27.6658 33.3026 27.7665 33.3802 27.8682 33.4566L27.131 33.7189L26.8975 33.5939L26.8842 33.1846C26.5669 32.7231 26.4058 33.0962 25.9414 32.9133L25.9035 32.7528C26.0379 32.7051 26.7122 32.2773 26.7594 32.1337C27.002 31.3955 26.0557 30.8184 25.52 30.556Z" fill="#E3B04E"/>
<path d="M30.1775 33.5448C30.6287 33.6759 30.5392 33.8151 31.0826 33.7737C31.2087 34.102 31.2313 34.187 31.4836 34.4242C31.6922 35.3902 31.7885 35.7927 31.4765 36.8075C31.4604 36.8603 31.4653 36.852 31.4609 36.9181C30.8718 37.8358 30.6757 37.9799 29.6155 38.3547C29.4584 38.4102 29.2565 38.4376 29.1333 38.5376L29.0151 38.4542L28.8252 38.4905C28.6565 38.2028 28.2129 38.0874 27.8115 37.7621C27.989 37.6412 28.5861 37.5091 28.9033 37.3455C29.6456 36.9627 30.6414 34.6771 30.2323 33.9836L30.1775 33.5448Z" fill="#FEDE6C"/>
<path d="M28.9991 32.3226L29.0423 32.3297L29.1117 32.2696C29.0288 31.8549 28.9062 31.5238 29.2297 31.2208C29.9186 31.16 29.9043 31.7248 30.0265 32.2679C30.2253 32.1678 30.7702 32.2282 31.012 32.2434C31.0745 32.5095 31.1263 32.6876 30.9533 32.9308L30.9605 32.9875C30.9914 33.2445 30.9781 33.3042 30.9229 33.5555L31.0768 33.7014L31.0824 33.7737C30.539 33.8152 30.6284 33.676 30.1773 33.5449L30.2321 33.9837C30.2286 34.317 30.2793 34.4658 30.1267 34.7308C29.9464 34.8045 29.9093 34.8064 29.7144 34.8227C29.3746 34.5291 29.4248 33.501 29.4057 33.0303C28.9089 33.1572 28.8701 33.2163 28.4746 32.9819L28.4639 32.4509C28.6059 32.3272 28.7988 32.34 28.9991 32.3226Z" fill="#E3231F"/>
<path d="M30.1773 33.5448C30.1192 33.358 30.0774 33.2922 30.1429 33.1101C30.3301 32.9598 30.6958 32.9574 30.9534 32.9308L30.9605 32.9874C30.9914 33.2445 30.9781 33.3041 30.9229 33.5554L31.0768 33.7014L31.0824 33.7737C30.539 33.8151 30.6285 33.6759 30.1773 33.5448Z" fill="#E3B04E"/>
<path d="M24.7816 32.2058C25.0377 32.0748 25.3524 31.9451 25.6192 31.827L25.9035 32.7528L25.9414 32.9133C26.4058 33.0962 26.5669 32.723 26.8842 33.1846L26.8976 33.5939C26.5667 33.6873 26.241 33.7874 25.9014 33.8413C26.0428 34.2919 26.5712 35.6053 25.664 35.5379C25.4095 35.3295 25.3199 34.214 25.2649 33.834C24.9341 33.8361 24.5778 33.8742 24.2945 33.7166C24.232 32.9824 24.6786 33.3429 24.9861 32.945C25.0526 32.7107 24.8874 32.4387 24.7816 32.2058Z" fill="#E3231F"/>
<path d="M27.8681 33.4566C27.7664 33.3802 27.6657 33.3025 27.5661 33.2235C27.3812 33.0753 27.2361 32.9652 27.2119 32.7432C27.458 32.6223 27.4718 32.6725 27.7875 32.6946C27.9942 32.8375 28.1417 32.9381 28.3311 33.1053C28.4686 33.3621 28.9116 34.5374 28.9521 34.8279L28.9067 34.9666C28.7009 35.0398 28.6406 35.0763 28.4273 35.004L28.2057 34.8169C27.804 34.9267 27.1919 35.2998 26.8002 35.0633C26.2597 34.7369 26.7567 33.9585 27.131 33.7188L27.8681 33.4566Z" fill="#E3231F"/>
<path d="M24.2944 33.7166C24.5777 33.8742 24.9341 33.8361 25.2649 33.834C25.3198 34.214 25.4095 35.3295 25.6639 35.5379L25.438 35.5337C25.0503 36.0142 25.9438 36.9186 26.2731 37.258C28.1961 37.7042 29.1509 37.5712 29.8697 35.5762C29.9593 35.3276 30.09 35.1447 29.9979 34.8796L29.7144 34.8227C29.9094 34.8064 29.9465 34.8044 30.1268 34.7308C30.2793 34.4657 30.2287 34.317 30.2321 33.9836C30.6412 34.6772 29.6454 36.9627 28.9032 37.3455C28.5859 37.5091 27.9889 37.6412 27.8114 37.7621C27.6169 37.5828 27.5074 37.6547 27.3005 37.7358C26.7402 37.4097 25.8444 37.508 25.4609 36.6588C25.3347 36.3794 25.2435 35.9346 25.0685 35.7263C25.2246 35.5204 25.2597 34.967 25.1553 34.7164C24.9732 34.2791 24.7308 34.1899 24.3064 34.0224L24.2944 33.7166Z" fill="#E3B04E"/>
<path d="M27.4631 22.4331C28.8256 21.417 30.3619 20.6586 31.6653 22.3115C32.2784 23.0891 32.6108 25.2879 32.1725 26.1902C30.7993 26.1681 29.0535 26.2565 27.6904 26.4097L27.2956 26.4754L26.1498 26.7218L25.7329 26.7707C25.4706 26.4097 25.7826 26.0259 25.2635 25.3466C24.6862 24.591 23.6378 24.3695 22.7297 24.2367L23.0629 24.1241C24.2337 22.4805 25.4803 22.0405 27.4631 22.4331Z" fill="#FEDE6C"/>
<path d="M23.0629 24.124L23.1281 24.1543C24.1957 24.6388 25.2631 24.3115 25.706 25.835C25.7932 26.1352 25.8708 26.6816 26.1498 26.7218L25.7329 26.7706C25.4706 26.4096 25.7826 26.0258 25.2635 25.3465C24.6862 24.5909 23.6378 24.3694 22.7297 24.2366L23.0629 24.124Z" fill="#E3B04E"/>
<path d="M27.2956 26.4754C27.2217 26.3687 27.1506 26.2602 27.0821 26.1501C26.6897 25.5127 26.4999 23.1909 27.1557 22.814L27.2573 22.851C26.8659 24.1132 26.5827 25.1982 27.4325 26.3691L27.6904 26.4096L27.2956 26.4754Z" fill="#E3B04E"/>
<path d="M35.7545 26.957C36.4655 27.2795 37.8696 27.6751 38.264 28.1877C38.1972 28.5141 38.4003 28.7624 38.463 29.0756C38.6158 29.8391 38.5717 30.6495 38.2571 31.3671C38.1098 31.7031 37.498 32.3368 37.1571 32.4645C35.8862 33.003 35.6386 32.9081 34.3493 32.4934C33.9905 32.2305 33.568 32.0732 33.1786 31.762C31.8074 30.6664 32.238 29.2994 33.2654 28.1022C33.9467 27.5498 34.9069 27.1807 35.7545 26.957Z" fill="#FEDE6C"/>
<path d="M22.7298 24.2367C23.6378 24.3694 24.6862 24.591 25.2635 25.3465C25.7826 26.0259 25.4706 26.4096 25.7329 26.7707C23.4171 27.4016 21.154 28.0314 18.9132 28.9017C18.587 29.0285 17.8133 29.288 17.5598 29.4372C15.2545 26.8873 17.766 23.8946 20.947 25.4398L21.0534 25.4077C21.7842 24.7799 21.8037 24.6664 22.7298 24.2367Z" fill="#FEDE6C"/>
<path d="M20.9469 25.4398L21.0534 25.4077C20.9024 25.7993 20.5258 26.3724 20.4529 26.7666C20.4049 27.0263 20.6284 27.7506 20.5771 28.0353L20.4852 28.0779C19.9712 27.2615 20.4544 26.1414 20.9469 25.4398Z" fill="#E3B04E"/>
<path d="M27.6904 26.4096C29.0535 26.2564 30.7994 26.168 32.1726 26.1901C32.9855 26.1974 33.1932 26.2458 33.2321 27.103C30.2003 27.1814 27.4549 27.5331 24.554 28.4105C22.5647 29.0123 19.8738 29.4044 18.0114 30.2936L17.5598 29.4372C17.8133 29.2879 18.587 29.0284 18.9132 28.9017C21.154 28.0313 23.4172 27.4015 25.7329 26.7706L26.1498 26.7218L27.2957 26.4754L27.6904 26.4096Z" fill="#E3231F"/>
<path d="M21.418 33.4894C22.7229 33.3079 23.1753 33.8994 22.8785 35.1677C22.8623 35.7662 22.3731 35.7537 22.2831 36.9125L22.2482 36.8583C22.045 36.7495 21.9979 36.7555 21.7737 36.7553C21.6351 36.7507 21.4888 36.7348 21.35 36.7225C20.8576 36.3909 20.5019 34.3399 20.6351 33.7675C20.8197 33.5867 21.1553 33.5469 21.418 33.4894Z" fill="#E3231F"/>
<path d="M21.658 35.6271C22.0983 35.5076 22.4826 35.397 22.8783 35.1676C22.8621 35.7661 22.373 35.7536 22.283 36.9124L22.2481 36.8582C22.0448 36.7494 21.9978 36.7554 21.7736 36.7552L21.658 35.6271Z" fill="#FAB625"/>
<path d="M31.077 33.7013C31.0593 33.3127 31.1017 33.1363 31.3801 32.8365C31.6066 32.5963 31.9215 32.4591 32.2516 32.4566C33.2752 32.4464 33.2406 33.2524 33.0346 33.9768C32.4227 34.5651 32.3496 34.7406 31.4835 34.4242C31.2312 34.187 31.2087 34.102 31.0826 33.7737L31.077 33.7013Z" fill="#E3231F"/>
<path d="M31.8656 33.0573C31.9758 32.9877 32.1153 32.9841 32.229 33.048C32.3427 33.1118 32.4121 33.2329 32.4099 33.3632C32.4078 33.4935 32.3344 33.6122 32.2187 33.6723C32.0499 33.7599 31.842 33.6989 31.7473 33.534C31.6527 33.3691 31.7048 33.1588 31.8656 33.0573Z" fill="#FAB625"/>
<path d="M37.1572 32.4645C38.0748 33.1656 38.7361 33.9967 39.5413 34.8138C40.4033 35.6888 41.2876 36.5368 42.1416 37.4207L42.2511 37.4637C41.7186 37.8559 40.8472 38.4577 40.3784 38.8681C40.5271 39.0037 41.0819 39.4932 41.1826 39.6178C41.0952 40.1026 40.8386 40.2249 40.6839 40.6175L40.5064 40.9857C40.5237 41.3862 40.4551 41.8248 40.5002 42.192C40.5442 42.3316 40.6399 42.6678 40.6913 42.7866C40.7908 42.9339 40.8989 43.1385 41.0478 43.2096C41.168 43.9522 41.4398 43.8548 41.4213 44.3691C41.5584 44.6855 41.7914 44.7467 41.9066 45.0278C42.0318 45.2609 42.2719 45.8232 42.2885 46.0893C42.3556 46.2642 42.4146 46.4434 42.5128 46.6016C42.7111 47.4101 42.7259 47.6682 42.7187 48.4988C42.6478 48.7031 42.5353 49.0601 42.4414 49.2381L42.3271 49.8348L42.6364 50.0744C42.4623 50.3287 42.2869 50.582 42.1103 50.8345L41.7927 50.9237C41.4974 51.1509 41.2108 51.513 40.9634 51.801L40.862 51.7264C40.4186 52.6477 39.1771 53.0959 38.2211 53.233C37.2453 53.4527 36.391 53.3086 35.4273 53.148C34.5137 52.9778 33.9203 52.6479 33.155 52.1538C32.7583 51.8872 32.4255 51.4878 31.9441 51.1576L31.6427 50.7274C31.5449 50.4606 31.4509 50.2681 31.3255 50.0124L30.9795 49.3498L30.7575 48.6922C30.677 48.4408 30.5172 48.0921 30.4111 47.8406L30.4761 47.5089L30.3384 47.3041C30.5441 46.8393 30.6417 46.2499 30.8808 45.7103C31.12 45.0204 31.2634 44.6943 31.6058 44.0518C30.5741 43.9148 30.5042 43.8356 30.3432 42.8277C29.6338 42.5505 28.428 42.372 28.231 41.5811L28.1128 41.055L27.9336 39.8267L27.6931 39.0538C27.9242 38.9402 28.2569 38.8121 28.5013 38.7091L28.8252 38.4906L29.0151 38.4543L29.1333 38.5377C29.2658 38.6871 29.4026 38.8484 29.5439 38.988C30.193 38.6676 30.7181 38.4222 31.307 37.9953C31.6147 37.8155 31.8339 37.6938 32.158 37.544C32.6718 37.2008 33.2518 36.9243 33.7432 36.5661C33.7196 36.0417 33.7853 35.0955 33.8059 34.5526C33.829 33.9459 34.1844 33.1161 34.3495 32.4934C35.6387 32.9081 35.8864 33.003 37.1572 32.4645Z" fill="#69330E"/>
<path d="M39.0018 42.5714C39.4245 42.7183 39.695 42.8879 40.0515 43.1589C40.366 43.0635 40.4325 42.9968 40.6913 42.7866C40.7908 42.9339 40.8988 43.1386 41.0478 43.2096C41.168 43.9522 41.4398 43.8548 41.4213 44.3691C41.5584 44.6855 41.7914 44.7467 41.9066 45.0278C42.0318 45.2609 42.2719 45.8232 42.2885 46.0893C42.3556 46.2643 42.4145 46.4434 42.5128 46.6016C42.7111 47.4101 42.7259 47.6682 42.7186 48.4989C42.6478 48.7031 42.5353 49.0601 42.4414 49.2381L42.3271 49.8348L42.6364 50.0744C42.4623 50.3287 42.2869 50.582 42.1102 50.8345L41.7927 50.9237C41.4973 51.1509 41.2108 51.5131 40.9634 51.801L40.862 51.7264C40.4186 52.6477 39.1771 53.0959 38.221 53.233C37.2452 53.4527 36.391 53.3086 35.4273 53.148C34.5137 52.9778 33.9203 52.6479 33.1549 52.1538C32.7583 51.8872 32.4255 51.4878 31.9441 51.1576L31.6427 50.7275C31.5449 50.4606 31.4509 50.2681 31.3255 50.0124L30.9794 49.3498L30.7575 48.6922C30.6769 48.4408 30.5172 48.0921 30.4111 47.8407L30.476 47.5089L30.3384 47.3041C30.5441 46.8393 30.6417 46.2499 30.8808 45.7103C31.12 45.0204 31.2634 44.6943 31.6058 44.0518C31.7969 43.8955 32.1965 43.4107 32.3873 43.2047C32.8881 43.6896 33.6587 44.7172 34.164 44.9546C35.2019 43.8931 35.4683 43.958 36.976 43.9059C37.4013 44.0081 37.9665 44.1493 38.3545 44.3582C38.5647 43.9587 38.5797 43.171 39.0018 42.5714Z" fill="#9C136B"/>
<path d="M32.3873 43.2047C32.8881 43.6896 33.6587 44.7172 34.164 44.9546C33.6659 45.6796 33.6078 45.8319 33.4496 46.698C33.4635 47.4002 33.565 47.6604 33.9671 48.2518C33.4329 48.6367 32.7052 49.099 32.374 49.663C32.3163 50.1981 33.294 51.0114 33.7279 51.2625C33.4911 51.563 33.2839 51.7902 33.1549 52.1538C32.7583 51.8872 32.4255 51.4879 31.9441 51.1576L31.6427 50.7275C31.5449 50.4606 31.4509 50.2682 31.3255 50.0124L30.9794 49.3498L30.7575 48.6923C30.6769 48.4409 30.5172 48.0921 30.4111 47.8407L30.476 47.5089L30.3384 47.3041C30.5441 46.8393 30.6417 46.25 30.8808 45.7103C31.12 45.0205 31.2634 44.6943 31.6058 44.0519C31.7969 43.8955 32.1965 43.4107 32.3873 43.2047Z" fill="#E64772"/>
<path d="M32.3874 43.2047C32.8882 43.6896 33.6588 44.7172 34.164 44.9546C33.6659 45.6796 33.6079 45.8319 33.4496 46.698C33.1779 46.6409 31.5491 45.9033 30.8809 45.7103C31.1201 45.0205 31.2634 44.6943 31.6058 44.0519C31.797 43.8955 32.1965 43.4107 32.3874 43.2047Z" fill="#F192AD"/>
<path d="M30.4761 47.5089C31.1615 47.8086 32.4177 49.3228 31.3255 50.0124L30.9795 49.3498L30.7576 48.6923C30.677 48.4408 30.5172 48.0921 30.4111 47.8407L30.4761 47.5089Z" fill="#F192AD"/>
<path d="M39.0018 42.5714C39.4245 42.7183 39.6949 42.8879 40.0515 43.1589C40.366 43.0635 40.4325 42.9968 40.6913 42.7866C40.7908 42.9339 40.8988 43.1386 41.0478 43.2096C41.1679 43.9522 41.4397 43.8548 41.4213 44.3691C41.5584 44.6855 41.7914 44.7467 41.9066 45.0278C41.3442 45.4117 40.8857 45.5268 40.3456 45.9483C39.8917 45.2628 39.0336 44.8562 38.3545 44.3582C38.5646 43.9587 38.5797 43.171 39.0018 42.5714Z" fill="#E64772"/>
<path d="M40.6913 42.7866C40.7908 42.9339 40.8988 43.1386 41.0478 43.2096C41.1679 43.9522 41.4397 43.8548 41.4213 44.3691C41.2269 44.3025 40.3328 43.402 40.0515 43.1589C40.366 43.0635 40.4325 42.9968 40.6913 42.7866Z" fill="#581A03"/>
<path d="M41.9065 45.0278C42.0316 45.261 42.2718 45.8233 42.2884 46.0893C42.3555 46.2643 42.4144 46.4434 42.5126 46.6016C42.711 47.4101 42.7257 47.6683 42.7185 48.4989C42.6477 48.7031 42.5352 49.0601 42.4412 49.2382C42.1694 49.1143 40.8116 48.5576 40.7258 48.4334C40.8242 47.4516 40.7233 46.8475 40.3455 45.9484C40.8856 45.5268 41.3441 45.4117 41.9065 45.0278Z" fill="#F192AD"/>
<path d="M39.5981 50.6782C40.0841 49.9904 40.4642 49.2338 40.7258 48.4333C40.8116 48.5575 42.1695 49.1142 42.4413 49.2381L42.327 49.8348L42.6363 50.0744C42.4622 50.3287 42.2869 50.582 42.1102 50.8344L41.7926 50.9237C41.4973 51.1509 41.2108 51.513 40.9633 51.801L40.8619 51.7263C40.7514 51.5437 39.8216 50.7554 39.5981 50.6782Z" fill="#E64772"/>
<path d="M42.3271 49.8348L42.6364 50.0744C42.4623 50.3287 42.2869 50.582 42.1103 50.8345L41.7927 50.9237C41.9483 50.4693 42.0871 50.2483 42.3271 49.8348Z" fill="#FAB625"/>
<path d="M33.9671 48.2517C34.4745 48.6651 34.9843 49.0895 35.5098 49.4783C35.0659 50.0466 34.7639 50.5545 34.4501 51.2074C33.4925 50.7919 33.1207 50.3596 32.374 49.6629C32.7053 49.0989 33.4329 48.6366 33.9671 48.2517Z" fill="#F192AD"/>
<path d="M35.5097 49.4783C36.0708 49.5993 36.5068 49.6083 37.0807 49.5955C37.37 50.1844 37.3661 51.0201 37.7753 51.2179C37.6727 51.2622 37.5689 51.3036 37.4641 51.3419C36.4202 51.7192 35.451 51.6812 34.45 51.2074C34.7638 50.5545 35.0658 50.0466 35.5097 49.4783Z" fill="#E64772"/>
<path d="M39.5981 50.6782C39.8216 50.7554 40.7514 51.5437 40.8619 51.7264C40.4185 52.6477 39.177 53.0959 38.2209 53.233C38.0521 52.9214 37.7274 52.1239 37.5706 51.7733C38.6076 51.4445 38.7585 51.3704 39.5981 50.6782Z" fill="#F192AD"/>
<path d="M35.8954 47.0314C36.1458 47.4312 36.1845 47.6166 36.6725 47.7128C37.0842 47.6532 37.5286 47.8822 37.9179 48.0474C37.2585 49.6982 35.2566 48.9788 34.4119 47.8558C34.6834 47.7485 35.5558 47.2117 35.8954 47.0314Z" fill="#F192AD"/>
<path d="M38.6158 48.6244C39.0479 48.988 39.2408 49.1894 39.6178 49.6126C39.1381 50.4001 38.6372 50.8736 37.7754 51.218C37.3662 51.0201 37.3701 50.1845 37.0808 49.5956C37.701 49.4416 38.2062 49.1099 38.6158 48.6244Z" fill="#F192AD"/>
<path d="M35.6567 44.4898C36.1829 44.4376 36.6597 44.4027 37.1824 44.4928C37.1179 44.9805 37.1244 45.3343 37.1753 45.8639C37.1479 45.8858 37.1205 45.9076 37.0932 45.9293C36.4932 45.9799 36.298 45.9676 36.0089 46.5482C35.5234 45.9343 35.2892 45.7767 34.6985 45.2691C35.0377 44.8834 35.2322 44.7768 35.6567 44.4898Z" fill="#F192AD"/>
<path d="M35.6034 52.0701C36.1904 52.1888 36.9633 51.91 37.5706 51.7733C37.7275 52.1239 38.0522 52.9215 38.221 53.2331C37.2452 53.4527 36.391 53.3086 35.4272 53.148C35.466 52.7137 35.4783 52.4934 35.6034 52.0701Z" fill="#E64772"/>
<path d="M34.6986 45.269C35.2893 45.7766 35.5235 45.9342 36.009 46.5481L35.8956 47.0314C35.556 47.2118 34.6836 47.7485 34.4121 47.8558C33.817 46.8601 33.9519 46.1033 34.6986 45.269Z" fill="#E64772"/>
<path d="M37.1825 44.4927C38.5277 44.8736 38.4415 44.9654 39.3948 45.7699C38.8747 46.0792 38.7386 46.1399 38.376 46.6367C38.1177 46.53 37.9277 46.2792 37.7379 46.0676C37.5303 46.0298 37.3015 45.975 37.0933 45.9292C37.1207 45.9075 37.148 45.8857 37.1754 45.8638C37.1245 45.3342 37.118 44.9804 37.1825 44.4927Z" fill="#E64772"/>
<path d="M33.7278 51.2625C34.4124 51.593 34.8963 51.7979 35.6032 52.07C35.4782 52.4934 35.4658 52.7136 35.4271 53.1479C34.5135 52.9777 33.9202 52.6479 33.1548 52.1537C33.2838 51.7901 33.491 51.5629 33.7278 51.2625Z" fill="#F192AD"/>
<path d="M39.3948 45.7699C39.8589 46.1866 40.2221 46.8923 40.3892 47.4845C40.1633 47.9158 39.4466 47.6138 38.9076 47.7446C38.7001 47.1973 38.6954 47.1248 38.376 46.6367C38.7386 46.1399 38.8747 46.0792 39.3948 45.7699Z" fill="#F192AD"/>
<path d="M40.3891 47.4845C40.4228 48.0751 39.9314 49.1272 39.6177 49.6126C39.2408 49.1893 39.0478 48.9879 38.6157 48.6243C38.8216 48.2672 38.8754 48.1514 38.9075 47.7446C39.4465 47.6139 40.1631 47.9159 40.3891 47.4845Z" fill="#E64772"/>
<path d="M36.6726 47.7127C36.7965 46.1623 37.9558 46.7424 38.0451 47.6947C38.005 47.8111 37.9659 47.9348 37.918 48.0474C37.5287 47.8821 37.0843 47.6532 36.6726 47.7127Z" fill="#E64772"/>
<path d="M37.1571 32.4645C38.0747 33.1656 38.736 33.9967 39.5412 34.8138C40.4032 35.6888 41.2875 36.5368 42.1415 37.4207L42.251 37.4637C41.7185 37.8559 40.8471 38.4577 40.3783 38.8681C39.5573 38.2667 39.0536 37.6506 38.3281 36.9537C37.7766 36.4238 37.156 35.8976 36.57 35.4032C35.735 35.738 34.5379 36.3266 33.7431 36.5661C33.7195 36.0417 33.7851 35.0955 33.8058 34.5526C33.8289 33.9459 34.1843 33.1161 34.3494 32.4934C35.6386 32.9081 35.8863 33.003 37.1571 32.4645Z" fill="#E3231F"/>
<path d="M28.8252 38.4905L29.0151 38.4542L29.1333 38.5376C29.2658 38.687 29.4026 38.8483 29.5439 38.988C29.843 39.2912 30.5991 40.0204 30.83 40.3209C31.6037 41.095 32.2299 41.9137 33.0431 42.6685C32.8465 42.817 32.5437 43.0299 32.3873 43.2046C32.1965 43.4106 31.7969 43.8954 31.6058 44.0518C30.5741 43.9148 30.5042 43.8356 30.3432 42.8277C29.6338 42.5505 28.428 42.372 28.231 41.5811L28.1128 41.0549L27.9336 39.8266L27.6931 39.0537C27.9242 38.9401 28.2569 38.812 28.5013 38.709L28.8252 38.4905Z" fill="#A6C0D8"/>
<path d="M28.4883 39.4235C28.8385 39.5902 28.9935 40.5588 29.0795 40.9325C29.1601 41.2833 29.0988 41.3571 28.9342 41.6414L28.7273 41.6428C28.4713 41.4567 28.2738 39.7281 28.4883 39.4235Z" fill="#7C98AC"/>
<path d="M29.9036 39.8406C30.0859 40.1369 30.6728 40.9092 30.2247 41.1348C29.711 40.7211 29.7445 40.5898 29.7151 39.9558L29.9036 39.8406Z" fill="#7C98AC"/>
<path d="M30.9542 41.4429C31.3361 41.5456 31.6885 41.8908 31.6919 42.2983L31.5408 42.3838C31.1777 42.0651 30.9797 42.0804 30.7051 41.8074L30.7062 41.6743L30.9542 41.4429Z" fill="#CBD6E3"/>
<path d="M29.4187 41.6674C29.9072 41.7273 30.526 41.9986 30.4339 42.5718C30.0153 42.4639 29.4759 42.1265 29.4187 41.6674Z" fill="#7C98AC"/>
<path d="M28.8748 38.9282C29.167 39.0681 29.258 39.2399 29.4492 39.5062C29.1746 39.7148 28.906 39.5762 28.7247 39.338C28.7211 39.0762 28.7075 39.1664 28.8748 38.9282Z" fill="#CBD6E3"/>
<path d="M35.393 41.9429C35.6961 41.9293 35.9085 41.91 36.2083 41.9574C36.1985 42.5503 36.2542 43.2233 36.3066 43.8184C36.5611 43.8826 36.7158 43.8881 36.9759 43.9058C35.4682 43.958 35.2018 43.893 34.1639 44.9545C33.6586 44.7171 32.888 43.6895 32.3872 43.2046C32.5436 43.0299 32.8464 42.817 33.0429 42.6685C34.0836 42.0677 34.2894 42.1572 35.393 41.9429Z" fill="#E64772"/>
<path d="M36.2084 41.9574L36.795 42.0054C37.0545 42.0922 37.2589 42.097 37.5076 42.1565L38.1687 42.333C38.4478 42.4076 38.7255 42.487 39.0018 42.5714C38.5797 43.171 38.5647 43.9587 38.3545 44.3581C37.9665 44.1492 37.4013 44.008 36.9761 43.9058C36.7159 43.8881 36.5613 43.8826 36.3067 43.8185C36.2544 43.2233 36.1986 42.5503 36.2084 41.9574Z" fill="#F192AD"/>
<path d="M39.208 39.847C39.6686 39.9846 40.029 40.6954 40.5064 40.9857C40.5238 41.3862 40.4551 41.8248 40.5002 42.192C39.6208 43.0837 38.6073 41.1784 37.9119 40.6602C38.3953 40.4433 38.9437 40.2579 39.208 39.847Z" fill="#613422"/>
<path d="M39.027 39.539L39.5418 39.3774C39.8858 39.8356 40.1953 40.3166 40.6839 40.6174L40.5063 40.9857C40.0289 40.6953 39.6685 39.9846 39.208 39.847C38.9436 40.2579 38.3953 40.4433 37.9118 40.6602C37.8996 40.5543 37.905 40.4763 37.9069 40.3705C38.1376 39.9079 38.5631 39.7678 39.027 39.539Z" fill="#581A03"/>
<path d="M36.2182 41.1044C36.4136 41.2778 36.7666 41.746 36.795 42.0054L36.2084 41.9575C35.9086 41.9101 35.6963 41.9294 35.3931 41.943C35.2392 41.8945 35.2892 41.9416 35.2224 41.8166C35.3737 41.5289 35.9201 41.2583 36.2182 41.1044Z" fill="#581A03"/>
<path d="M33.2924 38.0449C33.6846 38.4925 35.056 39.5809 35.04 40.0657C34.9268 40.1884 34.9931 40.1525 34.8439 40.1917C34.3142 40.5166 33.9655 40.7524 33.386 41.0879C32.4527 40.5133 32.3261 40.3781 31.7853 39.4058L31.616 39.215C31.691 38.7016 32.8446 38.247 33.2924 38.0449Z" fill="#613422"/>
<path d="M33.2924 38.0449C33.6846 38.4925 35.056 39.5809 35.04 40.0657C34.9268 40.1884 34.9931 40.1525 34.8439 40.1917L34.6401 40.126C34.2955 39.5712 33.6417 39.0027 33.1594 38.5615C32.6558 38.9073 32.3216 39.1141 31.7853 39.4058L31.616 39.215C31.691 38.7016 32.8446 38.247 33.2924 38.0449Z" fill="#581A03"/>
<path d="M34.7197 37.4002C34.8995 36.8202 35.6884 36.5175 36.2102 36.2819C36.708 36.6219 38.262 37.7442 38.1019 38.4263C37.9788 38.5512 37.963 38.5699 37.8137 38.6587C37.7678 38.715 36.699 39.2244 36.5449 39.2996C36.1856 39.1613 34.9656 37.7749 34.7197 37.4002Z" fill="#613422"/>
<path d="M34.7197 37.4002C34.8995 36.8202 35.6884 36.5175 36.2102 36.2819C36.708 36.6219 38.262 37.7442 38.1019 38.4263C37.9788 38.5512 37.963 38.5699 37.8137 38.6587C37.7177 38.5634 37.63 38.3814 37.4881 38.2434C37.0147 37.7831 36.5562 37.3224 36.0995 36.8455C35.7834 36.9721 34.9964 37.3741 34.7197 37.4002Z" fill="#581A03"/>
<path d="M36.5515 40.157C36.9547 39.4918 38.6105 38.9397 39.3955 38.948C38.2777 39.4186 37.7053 39.5364 36.7354 40.3062L36.5515 40.157Z" fill="#581A03"/>
<path d="M36.2199 35.6802C36.6365 35.6826 37.2206 35.9491 37.2543 36.4075C36.9282 36.2869 36.3253 36.1685 36.1421 35.919L36.2199 35.6802Z" fill="#9B7A59"/>
<path d="M32.8869 37.7883C32.7861 37.5505 32.7868 37.5754 32.8829 37.3663C33.1248 37.2879 33.0231 37.299 33.312 37.38C33.4753 37.6321 33.512 37.5933 33.4781 37.8236C33.2871 37.9041 33.0916 37.8344 32.8869 37.7883Z" fill="#9B7A59"/>
<path d="M39.6198 38.8468C39.9093 38.8687 40.3352 38.9345 40.349 39.2737C40.1016 39.2955 39.8537 39.343 39.6268 39.2539C39.5333 39.0418 39.5534 39.131 39.6198 38.8468Z" fill="#9B7A59"/>
<path d="M53.129 39.8072C53.6617 38.8753 54.2014 38.2141 54.7762 37.3709C55.619 36.1344 56.2559 35.0731 57.6864 34.4304C58.3471 34.1336 58.6893 33.7511 59.2915 34.0475C59.3008 34.0521 60.0632 33.901 60.1472 33.9077C60.9129 33.7582 62.2695 34.1295 62.9284 34.5719C64.05 35.3248 66.0289 36.7565 66.3384 38.1378C66.5925 39.2719 66.4838 40.5846 65.8832 41.6035C65.5042 42.2466 64.9736 42.7316 64.6288 43.2573C63.5508 44.9013 62.8092 46.0077 60.811 46.5764C60.0484 46.7934 58.8672 46.6767 58.0414 46.5813C57.4152 47.3829 57.11 47.8038 56.2146 48.3223C54.4393 49.2981 53.253 49.7586 51.1428 49.3132C50.9232 49.2668 50.5499 49.0546 50.3542 49.0622C49.8278 48.8156 48.9711 48.4652 48.6078 48.0162C48.4465 47.9485 48.3752 47.9196 48.2292 47.8237C47.5663 47.0553 47.8635 46.4727 47.5051 45.7167C47.4852 45.3984 47.4669 45.0801 47.4504 44.7616C47.4476 42.8957 48.9328 41.5016 50.5428 40.8229C50.7929 40.5806 51.9304 40.1243 52.3068 40.0839C52.644 40.1532 52.8684 39.9958 53.129 39.8072Z" fill="#D98C31"/>
<path d="M53.129 39.8071C53.5867 39.971 54.0653 39.9699 54.5823 40.1497C54.8067 40.232 54.8955 40.2569 55.1297 40.3052C55.6021 40.5285 56.1096 40.7329 56.4933 41.0871C57.9308 41.8653 57.9623 42.9071 58.5267 43.9529C58.4206 45.2382 58.2432 45.5181 58.0414 46.5812C57.4152 47.3829 57.11 47.8038 56.2146 48.3223C54.4393 49.2981 53.253 49.7585 51.1428 49.3132C50.9232 49.2668 50.5499 49.0546 50.3542 49.0622C49.8278 48.8155 48.9711 48.4651 48.6078 48.0162C48.4465 47.9484 48.3752 47.9195 48.2292 47.8237C47.5663 47.0553 47.8635 46.4726 47.5051 45.7167C47.4852 45.3984 47.4669 45.0801 47.4504 44.7616C47.4476 42.8957 48.9328 41.5015 50.5428 40.8229C50.7929 40.5805 51.9304 40.1242 52.3068 40.0839C52.644 40.1531 52.8684 39.9957 53.129 39.8071Z" fill="#613422"/>
<path d="M56.4934 41.0872C57.9309 41.8653 57.9624 42.9072 58.5268 43.953C58.4207 45.2382 58.2433 45.5181 58.0415 46.5813C57.4153 47.3829 57.1101 47.8038 56.2147 48.3223L52.7971 44.3541C53.5448 43.9039 54.1579 43.1437 54.8122 42.5509C55.37 42.0456 55.9197 41.5745 56.4934 41.0872Z" fill="#E3B04E"/>
<path d="M56.9754 42.6044C57.083 42.574 57.1986 42.6041 57.2777 42.683C57.3568 42.762 57.3872 42.8775 57.357 42.9851C57.3268 43.0927 57.2409 43.1757 57.1323 43.202C56.9687 43.2417 56.8034 43.143 56.7607 42.9802C56.7179 42.8174 56.8134 42.6503 56.9754 42.6044Z" fill="#D98C31"/>
<path d="M47.4504 44.7616C47.4476 42.8957 48.9328 41.5015 50.5428 40.8229C51.0255 41.5871 52.1266 43.7058 52.7392 44.1642C51.6117 44.9937 49.5414 46.9516 48.6078 48.0162C48.4465 47.9484 48.3752 47.9195 48.2292 47.8237C47.5663 47.0553 47.8635 46.4726 47.5051 45.7166C47.4852 45.3984 47.4669 45.08 47.4504 44.7616Z" fill="#E3B04E"/>
<path d="M54.5823 40.1497C55.0755 39.6363 54.445 38.2006 54.8611 37.735L54.9757 37.7386C55.1852 38.0943 55.1699 39.8459 55.1296 40.3052C54.8955 40.2569 54.8066 40.232 54.5823 40.1497Z" fill="#AD6833"/>
<path d="M12.6713 40.9076C13.1255 40.1667 13.716 39.3041 14.4184 38.8641C16.0413 37.8476 17.9345 37.1457 19.844 37.6627C20.1489 37.7453 20.3887 37.7679 20.6548 37.5789C20.692 37.9357 22.0534 38.4071 22.3663 38.3233C22.4256 38.2296 22.4485 38.217 22.4396 38.1075L22.5425 38.5063C22.69 38.613 22.8769 38.7371 23.0029 38.8633L23.3475 39.2196C23.3695 39.3595 24.4335 41.5193 24.5191 41.6174C24.2568 41.7715 22.8538 42.7033 22.6971 42.6443C22.461 43.0405 21.722 43.5759 21.308 43.7633C21.0977 43.9965 20.9289 44.1731 20.7579 44.4407C21.3079 45.2234 22.0974 45.7232 22.7229 46.593C22.2669 47.021 20.4982 47.4242 19.8704 47.8131C19.3681 48.1242 18.9315 48.518 18.5188 48.9391C17.3108 50.1716 16.3854 50.9384 14.676 51.3348C14.1886 51.454 13.1754 51.6789 12.6823 51.6438C11.2396 51.5409 9.95352 50.5541 8.99058 49.5654C8.07642 48.6269 7.52033 47.1185 7.55473 45.8408C7.59347 44.4039 8.51399 43.149 9.55136 42.2353C10.5606 41.3464 11.2665 40.8539 12.6713 40.9076Z" fill="#D98C31"/>
<path d="M16.2718 40.9418C17.6412 40.8076 19.5982 40.2651 21.0727 40.0264C21.7245 40.9378 22.6474 41.26 22.6971 42.6443C22.461 43.0405 21.722 43.5759 21.308 43.7634C21.0977 43.9966 20.9289 44.1731 20.7579 44.4407C21.3079 45.2234 22.0974 45.7232 22.7228 46.5931C22.2668 47.021 20.4982 47.4242 19.8704 47.8131C19.3681 48.1242 18.9315 48.5181 18.5188 48.9392C17.3108 50.1717 16.3854 50.9384 14.676 51.3349C13.9873 50.3708 12.9304 49.2031 12.1273 48.3042C11.4934 47.5947 10.6477 46.9593 10.0901 46.1416C10.7103 45.0493 13.7741 43.1061 14.8702 42.5703C16.7917 43.4601 16.6032 43.5386 18.1154 45.0112C18.4819 45.3682 19.6863 46.3197 20.1925 46.7747C20.2457 43.4234 18.5323 42.7532 16.2718 40.9418Z" fill="#483411"/>
<path d="M9.02297 46.6739C9.31687 46.6675 9.4416 46.6278 9.54928 46.9223C9.47427 47.1281 9.3856 47.1578 9.20009 47.2652C8.92086 47.2326 8.8371 47.2347 8.68115 47.0153C8.78204 46.7759 8.76953 46.8381 9.02297 46.6739Z" fill="#AD6833"/>
<path d="M15.0924 41.6338C15.3432 41.6073 15.4211 41.5889 15.6687 41.6489L15.7244 41.7652L15.6479 41.95C15.3907 41.9545 15.3156 41.9568 15.0583 41.9081L14.9946 41.8124L15.0924 41.6338Z" fill="#984F23"/>
<path d="M39.0898 27.5899C39.6023 27.1035 40.4066 26.5238 40.9666 26.021C41.5179 25.5261 42.5125 24.4892 43.0576 24.1193C43.3413 24.1273 43.3146 24.1681 43.5922 24.337C44.1924 25.0062 45.5586 26.3333 46.3556 26.7682C46.4891 26.8766 46.7316 27.0846 46.8634 27.1728C47.2636 27.5959 48.0579 28.5206 48.4422 28.8366C48.58 28.9895 48.6754 29.1151 48.8517 29.2227L49.8547 30.1067L50.1272 30.3819C50.6398 30.9018 51.1934 31.4442 51.6743 31.9888L51.6229 32.0495C51.1557 32.1116 50.1452 33.2935 49.8694 33.6749C49.1198 34.1307 48.1404 35.4186 47.4758 35.9127C47.3634 35.6192 46.1159 34.4504 45.8036 34.1208L45.7644 34.1093C44.7312 35.1083 43.5022 35.9306 42.5761 37.0341C42.4429 37.193 42.3482 37.363 42.1416 37.4206C41.2876 36.5367 40.4033 35.6888 39.5413 34.8138C38.7361 33.9966 38.0748 33.1655 37.1572 32.4644C37.4982 32.3367 38.1099 31.7031 38.2573 31.3671C38.5718 30.6495 38.6159 29.8391 38.4631 29.0755C38.4005 28.7624 38.1973 28.5141 38.2642 28.1877C38.3965 28.1612 38.9441 27.7041 39.0898 27.5899Z" fill="#E3231F"/>
<path d="M39.0898 27.59L43.0183 31.3788C43.5999 31.9326 45.4222 33.5658 45.7644 34.1093C44.7312 35.1084 43.5022 35.9306 42.5761 37.0342C42.4429 37.1931 42.3482 37.3631 42.1416 37.4207C41.2876 36.5368 40.4033 35.6888 39.5413 34.8139C38.7361 33.9967 38.0748 33.1656 37.1572 32.4645C37.4982 32.3368 38.1099 31.7032 38.2573 31.3671C38.5718 30.6495 38.6159 29.8392 38.4631 29.0756C38.4005 28.7625 38.1973 28.5142 38.2642 28.1877C38.3965 28.1613 38.9441 27.7041 39.0898 27.59Z" fill="#FAB625"/>
<path d="M50.127 30.382C50.6397 30.9019 51.1933 31.4443 51.6742 31.9889L51.6228 32.0496C51.1556 32.1116 50.1451 33.2935 49.8693 33.675C49.1197 34.1308 48.1402 35.4187 47.4757 35.9128C47.3632 35.6193 46.1158 34.4505 45.8035 34.1209C46.2835 33.8759 47.6261 32.5501 48.0949 32.1603C48.7701 31.5989 49.4981 30.9921 50.127 30.382Z" fill="#B61C17"/>
<path d="M45.7644 34.1093L45.8036 34.1208C46.1159 34.4504 47.3634 35.6192 47.4758 35.9127L47.4236 36.0303C47.6379 36.0647 47.8234 35.9944 48.0494 35.9956C49.3902 36.0032 50.354 36.8514 51.5362 37.3116C52.1396 38.3681 51.9697 38.9144 52.3069 40.0839C51.9305 40.1242 50.793 40.5805 50.5429 40.8229C48.9329 41.5015 47.4477 42.8957 47.4505 44.7616C47.467 45.08 47.4853 45.3984 47.5053 45.7166C46.902 45.8998 46.2069 45.6364 45.4733 45.6649L45.3689 45.6641C44.785 45.4508 44.2649 45.5621 43.7396 45.3025C43.1202 45.5172 42.7852 45.6305 42.2885 46.0892C42.2719 45.8232 42.0318 45.2608 41.9066 45.0277C41.7914 44.7467 41.5584 44.6855 41.4214 44.369C41.4398 43.8547 41.168 43.9521 41.0478 43.2095C40.8989 43.1385 40.7908 42.9338 40.6913 42.7865C40.6399 42.6677 40.5442 42.3316 40.5002 42.1919C40.4551 41.8248 40.5237 41.3861 40.5064 40.9857L40.684 40.6174C40.8386 40.2248 41.0952 40.1025 41.1827 39.6178C41.0819 39.4931 40.5271 39.0037 40.3784 38.868C40.8472 38.4576 41.7186 37.8559 42.2511 37.4637L42.1416 37.4206C42.3482 37.363 42.4429 37.193 42.5761 37.0341C43.5022 35.9306 44.7312 35.1083 45.7644 34.1093Z" fill="#D98C31"/>
<path d="M41.0479 43.2096C41.8061 43.6248 41.879 43.7586 42.7421 43.8052C44.3893 45.2396 45.5976 44.6144 47.4506 44.7616C47.4671 45.0801 47.4853 45.3984 47.5053 45.7167C46.902 45.8999 46.207 45.6365 45.4733 45.665L45.3689 45.6642C44.7851 45.4508 44.2649 45.5621 43.7397 45.3025C43.1202 45.5173 42.7853 45.6306 42.2886 46.0893C42.272 45.8232 42.0318 45.2609 41.9067 45.0278C41.7915 44.7468 41.5585 44.6855 41.4214 44.3691C41.4398 43.8548 41.168 43.9522 41.0479 43.2096Z" fill="#AD6833"/>
<path d="M41.4214 44.3691C41.5319 44.3622 41.572 44.3363 41.6325 44.4C42.0955 44.8869 43.3986 44.8662 43.7397 45.3026C43.1202 45.5173 42.7853 45.6306 42.2886 46.0893C42.272 45.8232 42.0318 45.2609 41.9066 45.0278C41.7915 44.7468 41.5585 44.6856 41.4214 44.3691Z" fill="#D98C31"/>
<path d="M40.3784 38.8681C40.8472 38.4577 41.7186 37.8559 42.2511 37.4637C42.2509 37.5237 42.2506 37.5952 42.2502 37.6783C41.7042 38.4284 41.3658 38.6569 41.1827 39.6178C41.0819 39.4932 40.5271 39.0037 40.3784 38.8681Z" fill="#B61C17"/>
<path d="M42.3491 41.1857C42.7936 41.1252 43.0314 41.4012 43.3551 41.664C43.0643 41.9839 42.9351 42.1091 42.559 42.3384C42.2096 42.3693 41.9696 42.3091 41.7385 42.0278C41.6533 41.8155 41.6757 41.7704 41.7403 41.5547C41.8736 41.3436 42.1111 41.2826 42.3491 41.1857Z" fill="#613422"/>
<path d="M48.4562 36.7766C49.2326 36.797 49.3315 37.6272 48.5257 37.8869C48.0932 37.7531 47.6804 37.6561 47.885 37.1118C48.1069 36.8902 48.1563 36.8779 48.4562 36.7766Z" fill="#613422"/>
<path d="M44.7721 37.4285C45.1238 37.3756 45.242 37.3856 45.5217 37.5986C45.6204 37.8312 45.6146 37.7318 45.5459 37.9717C45.3049 38.177 45.3906 38.1174 45.0626 38.1821C44.7332 38.1968 44.2114 38.2739 44.2131 37.8244C44.3337 37.6015 44.5397 37.5376 44.7721 37.4285Z" fill="#613422"/>
<path d="M43.3781 38.9538C43.6082 38.943 43.7541 38.9074 43.9341 39.0381C44.1564 39.4794 43.8703 39.6935 43.5065 39.8967C43.1759 39.7744 42.8759 39.7415 42.8506 39.366C42.9667 39.1499 43.1611 39.0731 43.3781 38.9538Z" fill="#E3B04E"/>
<path d="M45.7152 43.6577C46.0894 43.6704 46.5214 43.6809 46.5612 44.142C46.3603 44.3848 46.4298 44.3123 46.117 44.4336C45.7468 44.4637 45.3992 44.514 45.3291 44.0673C45.4243 43.8304 45.5081 43.7951 45.7152 43.6577Z" fill="#613422"/>
<path d="M50.314 39.6105C50.4669 39.583 50.5012 39.6148 50.6511 39.681C50.8049 39.8756 50.7707 39.783 50.7811 40.03C50.6367 40.2519 50.7145 40.1767 50.4346 40.2977C50.3465 40.294 50.2583 40.2883 50.1704 40.2806C49.9055 40.2551 49.8716 40.2023 49.7253 40.0259L49.7464 39.8673C49.8991 39.6697 50.0665 39.663 50.314 39.6105Z" fill="#E3B04E"/>
<path d="M47.2895 41.2842C47.6214 41.2655 47.8898 41.2201 48.1413 41.4249C48.1082 41.6844 48.096 41.6253 47.8836 41.8551C47.5205 41.8816 47.2569 41.8104 47.1953 41.408L47.2895 41.2842Z" fill="#613422"/>
<path d="M44.5358 42.3442C44.7923 42.3291 45.1304 42.2909 45.3397 42.4297C45.3505 42.63 45.3299 42.5887 45.1754 42.7765C44.9186 42.7845 44.5662 42.8296 44.36 42.7084C44.3517 42.5012 44.378 42.5378 44.5358 42.3442Z" fill="#E3B04E"/>
<path d="M46.1726 39.4786C46.4583 39.4497 46.7242 39.4031 47.0009 39.4806C47.1433 39.6409 47.109 39.5575 47.1013 39.8171C46.8411 39.8429 46.5766 39.8867 46.3239 39.829C46.1483 39.6701 46.1952 39.7575 46.1726 39.4786Z" fill="#E3B04E"/>
<path d="M24.519 41.6174C25.6554 41.0885 26.8083 40.3253 27.9335 39.8267L28.1127 41.055L28.2309 41.5811C28.4279 42.372 29.6337 42.5505 30.3431 42.8277C30.5041 43.8356 30.5739 43.9148 31.6057 44.0518C31.2633 44.6943 31.1199 45.0204 30.8807 45.7102C30.6416 46.2499 30.544 46.8392 30.3383 47.3041L30.4759 47.5089L30.411 47.8406C30.5171 48.092 30.6768 48.4408 30.7574 48.6922L30.9794 49.3498C30.1118 50.0051 28.3666 51.0348 27.3792 51.4765C25.8859 49.9178 24.2328 48.0063 22.7227 46.593C22.0973 45.7232 21.3078 45.2234 20.7578 44.4407C20.9288 44.1731 21.0976 43.9965 21.3078 43.7633C21.7218 43.5759 22.4609 43.0405 22.697 42.6443C22.8537 42.7033 24.2567 41.7715 24.519 41.6174Z" fill="#984F23"/>
<path d="M28.2308 41.5812C28.4278 42.3721 29.6337 42.5505 30.3431 42.8278C30.5041 43.8356 30.5739 43.9148 31.6056 44.0519C31.2632 44.6943 31.1199 45.0204 30.8807 45.7103C30.6415 46.25 30.544 46.8393 30.3382 47.3041C29.3445 48.0223 28.7363 48.399 27.6553 48.9237C26.8884 48.2151 26.1005 47.1716 25.3797 46.3817C24.6775 45.6122 23.9446 44.8752 23.3152 44.05C25.1535 43.0733 26.1411 42.2134 28.2308 41.5812Z" fill="#984F23"/>
<path d="M20.7578 44.4407C20.9288 44.1731 21.0976 43.9965 21.3078 43.7633C22.609 45.003 23.5693 46.1337 24.7316 47.4707C25.3836 48.2208 26.6133 49.8884 27.3046 50.3483C28.2513 50.0639 28.9399 49.7477 29.7421 49.1589C30.1289 48.8749 30.3043 48.8068 30.7574 48.6922L30.9794 49.3497C30.1118 50.005 28.3666 51.0348 27.3792 51.4764C25.8859 49.9178 24.2328 48.0063 22.7227 46.593C22.0973 45.7231 21.3078 45.2234 20.7578 44.4407Z" fill="#69330E"/>
<path d="M22.7273 44.0163C23.7887 43.0328 26.7335 41.5494 28.1128 41.0549L28.231 41.5811C26.1413 42.2133 25.1536 43.0732 23.3153 44.0499C23.9448 44.8751 24.6777 45.6121 25.3798 46.3816C26.1007 47.1716 26.8885 48.215 27.6554 48.9236C28.7364 48.3989 29.3446 48.0222 30.3384 47.304L30.476 47.5088L30.4111 47.8406C29.4342 48.475 28.6662 48.9993 27.5989 49.4816C26.7964 48.8804 23.4577 44.9645 22.7273 44.0163Z" fill="#FAB625"/>
<path d="M43.7396 45.3025C44.2648 45.5621 44.785 45.4508 45.3688 45.6641L45.4733 45.6649C46.2069 45.6364 46.902 45.8998 47.5052 45.7166C47.8636 46.4726 47.5664 47.0553 48.2293 47.8237C48.3752 47.9195 48.4466 47.9484 48.6079 48.0162C48.9711 48.4651 49.8278 48.8155 50.3542 49.0622C50.4316 49.3674 50.5003 49.5883 50.3782 49.8948C49.5009 51.1429 49.2798 51.3593 48.0243 52.2048C46.6651 53.1202 46.9249 52.7588 45.4929 52.8347C44.2971 52.898 44.4198 53.1432 43.0955 52.8159C42.8959 52.6176 42.6863 52.4152 42.4962 52.209C42.0261 52.1475 41.376 52.0363 40.9634 51.801C41.2108 51.513 41.4974 51.1509 41.7927 50.9237L42.1102 50.8344C42.2869 50.5819 42.4623 50.3286 42.6364 50.0743L42.3271 49.8348L42.4414 49.2381C42.5353 49.06 42.6478 48.703 42.7186 48.4988C42.7259 47.6682 42.7111 47.41 42.5128 46.6015C42.4145 46.4433 42.3556 46.2642 42.2885 46.0892C42.7852 45.6305 43.1201 45.5172 43.7396 45.3025Z" fill="#613422"/>
<path d="M48.2293 47.8237C48.3752 47.9196 48.4466 47.9485 48.6079 48.0162C48.9711 48.4652 49.8278 48.8156 50.3542 49.0622C50.4316 49.3674 50.5003 49.5883 50.3782 49.8948C49.5009 51.1429 49.2798 51.3593 48.0243 52.2048C46.6651 53.1202 46.9249 52.7588 45.4929 52.8347C44.2971 52.8981 44.4198 53.1432 43.0955 52.8159C42.8959 52.6176 42.6863 52.4152 42.4962 52.209C42.0261 52.1475 41.376 52.0363 40.9634 51.801C41.2108 51.513 41.4974 51.1509 41.7927 50.9237L42.1102 50.8345C42.2869 50.582 42.4623 50.3287 42.6364 50.0744C43.5553 50.7731 45.9607 50.7551 46.871 50.0384C47.5609 49.4953 48.0909 48.6948 48.2293 47.8237Z" fill="#E3B04E"/>
<path d="M48.2292 47.8237C48.3751 47.9196 48.4464 47.9485 48.6078 48.0162C48.971 48.4652 49.8277 48.8156 50.3541 49.0622C50.4314 49.3674 50.5002 49.5883 50.3781 49.8948C50.0675 49.6743 49.3278 49.2088 48.9575 49.197C48.7304 49.5127 49.0984 49.8842 48.5028 49.9869C48.1407 50.0494 47.8069 50.0457 47.4395 50.1334C47.615 50.501 47.9328 51.0268 48.0005 51.371L47.9221 51.4515C47.2645 51.36 46.5396 50.7381 46.0413 51.0913C45.5408 51.446 46.0638 52.2089 45.4025 52.1565C45.1463 51.961 45.167 51.5115 45.146 51.2114C43.258 50.6057 44.208 51.9984 43.274 52.1102C42.9166 51.8123 43.4754 51.2441 42.9925 50.7511C42.6257 50.6307 42.4501 50.6748 42.1101 50.8345C42.2868 50.582 42.4622 50.3287 42.6363 50.0744C43.5552 50.7731 45.9606 50.7551 46.8709 50.0384C47.5607 49.4953 48.0908 48.6948 48.2292 47.8237Z" fill="#D98C31"/>
<path d="M43.7397 45.3025C44.2649 45.5621 44.7851 45.4508 45.3689 45.6641L45.4733 45.6649L45.5912 45.9331C45.4517 46.238 44.9173 46.2709 44.6173 46.6564L44.59 46.6909C44.2324 47.1528 44.044 47.9022 43.642 48.4785L42.7187 48.4988C42.7259 47.6682 42.7112 47.41 42.5128 46.6015C42.4146 46.4433 42.3556 46.2642 42.2886 46.0892C42.7853 45.6305 43.1202 45.5172 43.7397 45.3025Z" fill="#916B65"/>
<path d="M43.7397 45.3025C44.2649 45.5621 44.7851 45.4508 45.3689 45.6641C44.5191 45.7247 43.1045 45.9292 42.5128 46.6015C42.4146 46.4433 42.3556 46.2642 42.2886 46.0892C42.7853 45.6305 43.1202 45.5172 43.7397 45.3025Z" fill="#613422"/>
<path d="M43.4722 48.9857C43.8526 49.0072 44.1873 49.1138 44.3913 49.4419C44.3594 49.7219 44.3669 49.6417 44.1614 49.8867C43.7499 49.8421 43.4049 49.7817 43.2178 49.3949C43.2723 49.1236 43.2522 49.2058 43.4722 48.9857Z" fill="#916B65"/>
<path d="M43.592 24.337C44.7039 23.1599 45.8239 21.9903 46.9518 20.8286C47.5015 20.2552 48.6305 18.6339 49.4442 19.0537C49.509 19.1609 49.6376 19.3491 49.5678 19.4651C48.5871 21.097 45.5726 23.4886 44.6985 24.9682C46.4642 23.6447 47.9958 22.038 49.688 20.6307C50.1266 20.2659 50.4225 20.2214 50.758 20.712C50.8383 21.6046 47.3479 23.7574 46.8335 24.7466L46.8587 24.966L46.9059 24.9347C47.8494 24.3013 50.9015 21.3066 51.8125 21.9305C51.9441 22.2063 51.8467 22.5021 51.6098 22.6936C50.3495 23.7122 48.9411 24.5905 47.7699 25.7171L48.0798 26.1646C47.6786 26.552 47.3056 26.8324 46.8633 27.1729C46.7314 27.0846 46.489 26.8767 46.3555 26.7682C45.5585 26.3334 44.1923 25.0062 43.592 24.337Z" fill="#581A03"/>
<path d="M46.3555 26.7681C46.8251 26.4369 47.3075 26.0633 47.7699 25.717L48.0798 26.1646C47.6786 26.5519 47.3055 26.8323 46.8633 27.1728C46.7314 27.0846 46.4889 26.8766 46.3555 26.7681Z" fill="#ADA3A1"/>
<path d="M46.8335 24.7466L46.8587 24.966C46.6547 25.1679 46.5921 25.24 46.3403 25.3744L46.2761 25.3459C46.3494 25.1121 46.6361 24.9132 46.8335 24.7466Z" fill="#613422"/>
<path d="M48.0798 26.1646C49.0932 25.7321 50.9473 23.6022 51.9688 22.9542C52.3915 22.6861 53.1772 21.9662 53.5687 22.6392C53.5354 23.3573 51.9079 24.3814 51.2365 25.0526C50.9048 25.3364 49.3499 26.5813 49.2165 26.7926C49.6318 26.8344 50.9386 25.6192 51.3454 25.3617C52.2664 24.7821 53.1219 23.9789 54.0951 23.534C54.2842 23.6723 54.5268 23.8086 54.5951 24.0145C54.3918 25.1029 50.4068 26.9629 49.7715 27.9476C49.5938 28.1783 48.7678 28.622 48.4421 28.8367C48.0578 28.5206 47.2634 27.5959 46.8633 27.1729C47.3055 26.8324 47.6786 26.552 48.0798 26.1646Z" fill="#581A03"/>
<path d="M50.2632 28.3863C51.2161 28.1322 55.2182 24.8049 55.8127 26.032C55.6313 26.6813 53.0908 28.009 52.4369 28.4564C52.1626 28.6441 51.437 28.961 51.2414 29.2112C50.7912 29.5397 50.2814 29.7772 49.8546 30.1067L48.8516 29.2227C48.6753 29.1151 48.5799 28.9895 48.4421 28.8366C48.7679 28.6219 49.5938 28.1783 49.7716 27.9475L50.2632 28.3863Z" fill="#581A03"/>
<path d="M49.7716 27.9476L50.2632 28.3864C49.8934 28.6998 49.2939 28.975 48.8516 29.2228C48.6753 29.1152 48.5799 28.9896 48.4421 28.8367C48.7679 28.622 49.5938 28.1784 49.7716 27.9476Z" fill="#ADA3A1"/>
<path d="M54.0047 31.7874C54.4303 32.0891 53.868 32.8594 53.797 33.2908C53.6664 34.0845 53.5976 34.2805 52.7203 34.3395C52.2536 34.3434 51.1092 34.5102 50.6652 34.42C50.239 34.1435 50.1872 34.0607 49.8694 33.675C50.1452 33.2935 51.1557 32.1116 51.6229 32.0495L51.6743 31.9888C52.4496 31.9054 53.2266 31.8382 54.0047 31.7874Z" fill="#E3231F"/>
<path d="M49.8694 33.675C50.1452 33.2935 51.1557 32.1116 51.6229 32.0496C51.3347 32.7934 50.9003 33.6964 50.6652 34.42C50.239 34.1435 50.1872 34.0607 49.8694 33.675Z" fill="#A00001"/>
<path d="M49.8545 30.1067C50.2813 29.7772 50.7911 29.5398 51.2413 29.2113C52.111 29.9126 52.9288 30.6187 53.6867 31.4411C53.7805 31.543 53.9079 31.6998 54.0046 31.7874C53.2264 31.8382 52.4495 31.9054 51.6741 31.9888C51.1932 31.4442 50.6397 30.9019 50.127 30.3819L49.8545 30.1067Z" fill="#ADA3A1"/>
<path d="M28.708 52.4429L29.1748 52.8729C28.9094 53.0985 27.382 53.9417 26.9677 54.1734C26.4169 54.4816 25.9397 54.8428 25.4386 55.1493C25.2809 55.173 25.0828 55.1634 25.0234 54.994C25.191 54.2955 28.0065 52.8861 28.708 52.4429Z" fill="#228FDD"/>
<path d="M31.6425 50.7274L31.9439 51.1575C31.6043 51.4428 31.1758 51.6591 30.7808 51.8661L30.1841 51.4376C30.6983 51.2232 31.1032 50.9264 31.6425 50.7274Z" fill="#53A8E3"/>
<path d="M29.4487 51.9407C29.6986 51.7547 29.9223 51.6067 30.1841 51.4376L30.7808 51.8661C30.5747 52.0208 30.2006 52.2612 29.9638 52.3542C29.8114 52.2195 29.6113 52.0688 29.4487 51.9407Z" fill="#228FDD"/>
<path d="M51.2365 25.0526L51.3454 25.3617C50.9386 25.6192 49.6318 26.8344 49.2166 26.7926C49.3499 26.5812 50.9048 25.3364 51.2365 25.0526Z" fill="#581A03" fill-opacity="0.0392157"/>
<path d="M28.708 52.4429C28.9062 52.2549 29.2105 52.086 29.4489 51.9408C29.6114 52.0689 29.8116 52.2195 29.9639 52.3543C29.6522 52.5353 29.4643 52.6584 29.1748 52.8729L28.708 52.4429Z" fill="#53A8E3"/>
</svg>
